ISO-10303-21;
HEADER;
/* Generated by software containing ST-Developer
 * from STEP Tools, Inc. (www.steptools.com) 
 */

FILE_DESCRIPTION(
/* description */ (''),
/* implementation_level */ '2;1');

FILE_NAME(
/* name */ 'Front_Holder_large.step',
/* time_stamp */ '2024-08-04T18:43:11-07:00',
/* author */ (''),
/* organization */ (''),
/* preprocessor_version */ 'ST-DEVELOPER v20',
/* originating_system */ 'Autodesk Translation Framework v13.14.0.145',

/* authorisation */ '');

FILE_SCHEMA (('AUTOMOTIVE_DESIGN { 1 0 10303 214 3 1 1 }'));
ENDSEC;

DATA;
#10=MECHANICAL_DESIGN_GEOMETRIC_PRESENTATION_REPRESENTATION('',(#13),#697);
#11=SHAPE_REPRESENTATION_RELATIONSHIP('SRR','None',#704,#12);
#12=ADVANCED_BREP_SHAPE_REPRESENTATION('',(#14),#696);
#13=STYLED_ITEM('',(#714),#14);
#14=MANIFOLD_SOLID_BREP('Body1',#397);
#15=CYLINDRICAL_SURFACE('',#425,1.5);
#16=CYLINDRICAL_SURFACE('',#430,1.5);
#17=CYLINDRICAL_SURFACE('',#432,1.75);
#18=CYLINDRICAL_SURFACE('',#435,1.75);
#19=CYLINDRICAL_SURFACE('',#438,5.96);
#20=CYLINDRICAL_SURFACE('',#447,5.96);
#21=CYLINDRICAL_SURFACE('',#449,5.96);
#22=CYLINDRICAL_SURFACE('',#451,5.96);
#23=CYLINDRICAL_SURFACE('',#454,3.5);
#24=CYLINDRICAL_SURFACE('',#456,3.5);
#25=FACE_BOUND('',#65,.T.);
#26=FACE_BOUND('',#66,.T.);
#27=FACE_BOUND('',#67,.T.);
#28=FACE_BOUND('',#68,.T.);
#29=FACE_BOUND('',#79,.T.);
#30=FACE_BOUND('',#80,.T.);
#31=PLANE('',#415);
#32=PLANE('',#434);
#33=PLANE('',#437);
#34=PLANE('',#440);
#35=PLANE('',#441);
#36=PLANE('',#448);
#37=PLANE('',#450);
#38=PLANE('',#452);
#39=PLANE('',#453);
#40=PLANE('',#455);
#41=FACE_OUTER_BOUND('',#63,.T.);
#42=FACE_OUTER_BOUND('',#64,.T.);
#43=FACE_OUTER_BOUND('',#69,.T.);
#44=FACE_OUTER_BOUND('',#70,.T.);
#45=FACE_OUTER_BOUND('',#71,.T.);
#46=FACE_OUTER_BOUND('',#72,.T.);
#47=FACE_OUTER_BOUND('',#73,.T.);
#48=FACE_OUTER_BOUND('',#74,.T.);
#49=FACE_OUTER_BOUND('',#75,.T.);
#50=FACE_OUTER_BOUND('',#76,.T.);
#51=FACE_OUTER_BOUND('',#77,.T.);
#52=FACE_OUTER_BOUND('',#78,.T.);
#53=FACE_OUTER_BOUND('',#81,.T.);
#54=FACE_OUTER_BOUND('',#82,.T.);
#55=FACE_OUTER_BOUND('',#83,.T.);
#56=FACE_OUTER_BOUND('',#84,.T.);
#57=FACE_OUTER_BOUND('',#85,.T.);
#58=FACE_OUTER_BOUND('',#86,.T.);
#59=FACE_OUTER_BOUND('',#87,.T.);
#60=FACE_OUTER_BOUND('',#88,.T.);
#61=FACE_OUTER_BOUND('',#89,.T.);
#62=FACE_OUTER_BOUND('',#90,.T.);
#63=EDGE_LOOP('',(#265,#266,#267,#268,#269));
#64=EDGE_LOOP('',(#270,#271,#272,#273,#274,#275,#276,#277,#278,#279,#280,
#281));
#65=EDGE_LOOP('',(#282));
#66=EDGE_LOOP('',(#283));
#67=EDGE_LOOP('',(#284));
#68=EDGE_LOOP('',(#285));
#69=EDGE_LOOP('',(#286,#287,#288,#289,#290));
#70=EDGE_LOOP('',(#291,#292,#293,#294,#295));
#71=EDGE_LOOP('',(#296,#297,#298,#299,#300));
#72=EDGE_LOOP('',(#301,#302,#303,#304));
#73=EDGE_LOOP('',(#305));
#74=EDGE_LOOP('',(#306,#307,#308,#309));
#75=EDGE_LOOP('',(#310));
#76=EDGE_LOOP('',(#311,#312,#313,#314));
#77=EDGE_LOOP('',(#315,#316,#317,#318));
#78=EDGE_LOOP('',(#319,#320,#321,#322,#323,#324,#325,#326,#327,#328,#329,
#330));
#79=EDGE_LOOP('',(#331));
#80=EDGE_LOOP('',(#332));
#81=EDGE_LOOP('',(#333,#334,#335,#336));
#82=EDGE_LOOP('',(#337,#338,#339,#340));
#83=EDGE_LOOP('',(#341,#342,#343,#344));
#84=EDGE_LOOP('',(#345,#346,#347,#348));
#85=EDGE_LOOP('',(#349,#350,#351,#352));
#86=EDGE_LOOP('',(#353,#354,#355,#356));
#87=EDGE_LOOP('',(#357,#358,#359,#360));
#88=EDGE_LOOP('',(#361,#362,#363,#364));
#89=EDGE_LOOP('',(#365,#366,#367,#368));
#90=EDGE_LOOP('',(#369,#370,#371,#372));
#91=LINE('',#587,#121);
#92=LINE('',#593,#122);
#93=LINE('',#597,#123);
#94=LINE('',#601,#124);
#95=LINE('',#605,#125);
#96=LINE('',#609,#126);
#97=LINE('',#613,#127);
#98=LINE('',#623,#128);
#99=LINE('',#629,#129);
#100=LINE('',#633,#130);
#101=LINE('',#637,#131);
#102=LINE('',#642,#132);
#103=LINE('',#647,#133);
#104=LINE('',#650,#134);
#105=LINE('',#653,#135);
#106=LINE('',#654,#136);
#107=LINE('',#658,#137);
#108=LINE('',#662,#138);
#109=LINE('',#665,#139);
#110=LINE('',#669,#140);
#111=LINE('',#673,#141);
#112=LINE('',#676,#142);
#113=LINE('',#677,#143);
#114=LINE('',#679,#144);
#115=LINE('',#681,#145);
#116=LINE('',#683,#146);
#117=LINE('',#685,#147);
#118=LINE('',#686,#148);
#119=LINE('',#688,#149);
#120=LINE('',#690,#150);
#121=VECTOR('',#463,2.);
#122=VECTOR('',#470,10.);
#123=VECTOR('',#473,10.);
#124=VECTOR('',#476,10.);
#125=VECTOR('',#479,10.);
#126=VECTOR('',#482,10.);
#127=VECTOR('',#485,10.);
#128=VECTOR('',#496,1.5);
#129=VECTOR('',#503,2.);
#130=VECTOR('',#508,1.5);
#131=VECTOR('',#513,1.75);
#132=VECTOR('',#520,1.75);
#133=VECTOR('',#527,10.);
#134=VECTOR('',#530,10.);
#135=VECTOR('',#533,10.);
#136=VECTOR('',#534,10.);
#137=VECTOR('',#537,10.);
#138=VECTOR('',#540,10.);
#139=VECTOR('',#543,10.);
#140=VECTOR('',#546,10.);
#141=VECTOR('',#549,10.);
#142=VECTOR('',#554,10.);
#143=VECTOR('',#555,10.);
#144=VECTOR('',#558,10.);
#145=VECTOR('',#561,10.);
#146=VECTOR('',#564,10.);
#147=VECTOR('',#567,10.);
#148=VECTOR('',#568,10.);
#149=VECTOR('',#571,10.);
#150=VECTOR('',#574,10.);
#151=CIRCLE('',#412,1.5);
#152=CIRCLE('',#413,2.5);
#153=CIRCLE('',#414,1.5);
#154=CIRCLE('',#416,5.96);
#155=CIRCLE('',#417,3.5);
#156=CIRCLE('',#418,5.96);
#157=CIRCLE('',#419,5.96);
#158=CIRCLE('',#420,3.5);
#159=CIRCLE('',#421,5.96);
#160=CIRCLE('',#422,2.5);
#161=CIRCLE('',#423,1.75);
#162=CIRCLE('',#424,1.75);
#163=CIRCLE('',#426,1.5);
#164=CIRCLE('',#428,1.5);
#165=CIRCLE('',#429,1.5);
#166=CIRCLE('',#431,1.5);
#167=CIRCLE('',#433,1.75);
#168=CIRCLE('',#436,1.75);
#169=CIRCLE('',#439,5.96);
#170=CIRCLE('',#442,5.96);
#171=CIRCLE('',#443,3.5);
#172=CIRCLE('',#444,5.96);
#173=CIRCLE('',#445,3.5);
#174=CIRCLE('',#446,5.96);
#175=VERTEX_POINT('',#583);
#176=VERTEX_POINT('',#584);
#177=VERTEX_POINT('',#586);
#178=VERTEX_POINT('',#591);
#179=VERTEX_POINT('',#592);
#180=VERTEX_POINT('',#594);
#181=VERTEX_POINT('',#596);
#182=VERTEX_POINT('',#598);
#183=VERTEX_POINT('',#600);
#184=VERTEX_POINT('',#602);
#185=VERTEX_POINT('',#604);
#186=VERTEX_POINT('',#606);
#187=VERTEX_POINT('',#608);
#188=VERTEX_POINT('',#610);
#189=VERTEX_POINT('',#612);
#190=VERTEX_POINT('',#615);
#191=VERTEX_POINT('',#617);
#192=VERTEX_POINT('',#619);
#193=VERTEX_POINT('',#622);
#194=VERTEX_POINT('',#626);
#195=VERTEX_POINT('',#627);
#196=VERTEX_POINT('',#632);
#197=VERTEX_POINT('',#636);
#198=VERTEX_POINT('',#641);
#199=VERTEX_POINT('',#646);
#200=VERTEX_POINT('',#648);
#201=VERTEX_POINT('',#652);
#202=VERTEX_POINT('',#656);
#203=VERTEX_POINT('',#657);
#204=VERTEX_POINT('',#659);
#205=VERTEX_POINT('',#661);
#206=VERTEX_POINT('',#664);
#207=VERTEX_POINT('',#666);
#208=VERTEX_POINT('',#668);
#209=VERTEX_POINT('',#670);
#210=VERTEX_POINT('',#672);
#211=EDGE_CURVE('',#175,#176,#151,.T.);
#212=EDGE_CURVE('',#176,#177,#91,.T.);
#213=EDGE_CURVE('',#177,#177,#152,.T.);
#214=EDGE_CURVE('',#176,#175,#153,.T.);
#215=EDGE_CURVE('',#178,#179,#92,.T.);
#216=EDGE_CURVE('',#180,#179,#154,.T.);
#217=EDGE_CURVE('',#180,#181,#93,.T.);
#218=EDGE_CURVE('',#181,#182,#155,.T.);
#219=EDGE_CURVE('',#182,#183,#94,.T.);
#220=EDGE_CURVE('',#184,#183,#156,.T.);
#221=EDGE_CURVE('',#184,#185,#95,.T.);
#222=EDGE_CURVE('',#186,#185,#157,.T.);
#223=EDGE_CURVE('',#186,#187,#96,.T.);
#224=EDGE_CURVE('',#187,#188,#158,.T.);
#225=EDGE_CURVE('',#188,#189,#97,.T.);
#226=EDGE_CURVE('',#178,#189,#159,.T.);
#227=EDGE_CURVE('',#190,#190,#160,.T.);
#228=EDGE_CURVE('',#191,#191,#161,.T.);
#229=EDGE_CURVE('',#192,#192,#162,.T.);
#230=EDGE_CURVE('',#175,#193,#98,.T.);
#231=EDGE_CURVE('',#193,#193,#163,.T.);
#232=EDGE_CURVE('',#194,#195,#164,.T.);
#233=EDGE_CURVE('',#195,#190,#99,.T.);
#234=EDGE_CURVE('',#195,#194,#165,.T.);
#235=EDGE_CURVE('',#194,#196,#100,.T.);
#236=EDGE_CURVE('',#196,#196,#166,.T.);
#237=EDGE_CURVE('',#191,#197,#101,.T.);
#238=EDGE_CURVE('',#197,#197,#167,.T.);
#239=EDGE_CURVE('',#192,#198,#102,.T.);
#240=EDGE_CURVE('',#198,#198,#168,.T.);
#241=EDGE_CURVE('',#185,#199,#103,.T.);
#242=EDGE_CURVE('',#199,#200,#169,.T.);
#243=EDGE_CURVE('',#200,#186,#104,.T.);
#244=EDGE_CURVE('',#201,#200,#105,.T.);
#245=EDGE_CURVE('',#201,#187,#106,.T.);
#246=EDGE_CURVE('',#202,#203,#107,.T.);
#247=EDGE_CURVE('',#204,#203,#170,.T.);
#248=EDGE_CURVE('',#205,#204,#108,.T.);
#249=EDGE_CURVE('',#201,#205,#171,.T.);
#250=EDGE_CURVE('',#206,#199,#109,.T.);
#251=EDGE_CURVE('',#207,#206,#172,.T.);
#252=EDGE_CURVE('',#208,#207,#110,.T.);
#253=EDGE_CURVE('',#209,#208,#173,.T.);
#254=EDGE_CURVE('',#209,#210,#111,.T.);
#255=EDGE_CURVE('',#202,#210,#174,.T.);
#256=EDGE_CURVE('',#203,#178,#112,.T.);
#257=EDGE_CURVE('',#189,#204,#113,.T.);
#258=EDGE_CURVE('',#179,#202,#114,.T.);
#259=EDGE_CURVE('',#210,#180,#115,.T.);
#260=EDGE_CURVE('',#209,#181,#116,.T.);
#261=EDGE_CURVE('',#183,#207,#117,.T.);
#262=EDGE_CURVE('',#206,#184,#118,.T.);
#263=EDGE_CURVE('',#208,#182,#119,.T.);
#264=EDGE_CURVE('',#205,#188,#120,.T.);
#265=ORIENTED_EDGE('',*,*,#211,.T.);
#266=ORIENTED_EDGE('',*,*,#212,.T.);
#267=ORIENTED_EDGE('',*,*,#213,.T.);
#268=ORIENTED_EDGE('',*,*,#212,.F.);
#269=ORIENTED_EDGE('',*,*,#214,.T.);
#270=ORIENTED_EDGE('',*,*,#215,.T.);
#271=ORIENTED_EDGE('',*,*,#216,.F.);
#272=ORIENTED_EDGE('',*,*,#217,.T.);
#273=ORIENTED_EDGE('',*,*,#218,.T.);
#274=ORIENTED_EDGE('',*,*,#219,.T.);
#275=ORIENTED_EDGE('',*,*,#220,.F.);
#276=ORIENTED_EDGE('',*,*,#221,.T.);
#277=ORIENTED_EDGE('',*,*,#222,.F.);
#278=ORIENTED_EDGE('',*,*,#223,.T.);
#279=ORIENTED_EDGE('',*,*,#224,.T.);
#280=ORIENTED_EDGE('',*,*,#225,.T.);
#281=ORIENTED_EDGE('',*,*,#226,.F.);
#282=ORIENTED_EDGE('',*,*,#227,.F.);
#283=ORIENTED_EDGE('',*,*,#228,.T.);
#284=ORIENTED_EDGE('',*,*,#229,.T.);
#285=ORIENTED_EDGE('',*,*,#213,.F.);
#286=ORIENTED_EDGE('',*,*,#211,.F.);
#287=ORIENTED_EDGE('',*,*,#230,.T.);
#288=ORIENTED_EDGE('',*,*,#231,.F.);
#289=ORIENTED_EDGE('',*,*,#230,.F.);
#290=ORIENTED_EDGE('',*,*,#214,.F.);
#291=ORIENTED_EDGE('',*,*,#232,.T.);
#292=ORIENTED_EDGE('',*,*,#233,.T.);
#293=ORIENTED_EDGE('',*,*,#227,.T.);
#294=ORIENTED_EDGE('',*,*,#233,.F.);
#295=ORIENTED_EDGE('',*,*,#234,.T.);
#296=ORIENTED_EDGE('',*,*,#232,.F.);
#297=ORIENTED_EDGE('',*,*,#235,.T.);
#298=ORIENTED_EDGE('',*,*,#236,.F.);
#299=ORIENTED_EDGE('',*,*,#235,.F.);
#300=ORIENTED_EDGE('',*,*,#234,.F.);
#301=ORIENTED_EDGE('',*,*,#228,.F.);
#302=ORIENTED_EDGE('',*,*,#237,.T.);
#303=ORIENTED_EDGE('',*,*,#238,.T.);
#304=ORIENTED_EDGE('',*,*,#237,.F.);
#305=ORIENTED_EDGE('',*,*,#238,.F.);
#306=ORIENTED_EDGE('',*,*,#229,.F.);
#307=ORIENTED_EDGE('',*,*,#239,.T.);
#308=ORIENTED_EDGE('',*,*,#240,.T.);
#309=ORIENTED_EDGE('',*,*,#239,.F.);
#310=ORIENTED_EDGE('',*,*,#240,.F.);
#311=ORIENTED_EDGE('',*,*,#222,.T.);
#312=ORIENTED_EDGE('',*,*,#241,.T.);
#313=ORIENTED_EDGE('',*,*,#242,.T.);
#314=ORIENTED_EDGE('',*,*,#243,.T.);
#315=ORIENTED_EDGE('',*,*,#243,.F.);
#316=ORIENTED_EDGE('',*,*,#244,.F.);
#317=ORIENTED_EDGE('',*,*,#245,.T.);
#318=ORIENTED_EDGE('',*,*,#223,.F.);
#319=ORIENTED_EDGE('',*,*,#246,.T.);
#320=ORIENTED_EDGE('',*,*,#247,.F.);
#321=ORIENTED_EDGE('',*,*,#248,.F.);
#322=ORIENTED_EDGE('',*,*,#249,.F.);
#323=ORIENTED_EDGE('',*,*,#244,.T.);
#324=ORIENTED_EDGE('',*,*,#242,.F.);
#325=ORIENTED_EDGE('',*,*,#250,.F.);
#326=ORIENTED_EDGE('',*,*,#251,.F.);
#327=ORIENTED_EDGE('',*,*,#252,.F.);
#328=ORIENTED_EDGE('',*,*,#253,.F.);
#329=ORIENTED_EDGE('',*,*,#254,.T.);
#330=ORIENTED_EDGE('',*,*,#255,.F.);
#331=ORIENTED_EDGE('',*,*,#231,.T.);
#332=ORIENTED_EDGE('',*,*,#236,.T.);
#333=ORIENTED_EDGE('',*,*,#247,.T.);
#334=ORIENTED_EDGE('',*,*,#256,.T.);
#335=ORIENTED_EDGE('',*,*,#226,.T.);
#336=ORIENTED_EDGE('',*,*,#257,.T.);
#337=ORIENTED_EDGE('',*,*,#256,.F.);
#338=ORIENTED_EDGE('',*,*,#246,.F.);
#339=ORIENTED_EDGE('',*,*,#258,.F.);
#340=ORIENTED_EDGE('',*,*,#215,.F.);
#341=ORIENTED_EDGE('',*,*,#255,.T.);
#342=ORIENTED_EDGE('',*,*,#259,.T.);
#343=ORIENTED_EDGE('',*,*,#216,.T.);
#344=ORIENTED_EDGE('',*,*,#258,.T.);
#345=ORIENTED_EDGE('',*,*,#259,.F.);
#346=ORIENTED_EDGE('',*,*,#254,.F.);
#347=ORIENTED_EDGE('',*,*,#260,.T.);
#348=ORIENTED_EDGE('',*,*,#217,.F.);
#349=ORIENTED_EDGE('',*,*,#220,.T.);
#350=ORIENTED_EDGE('',*,*,#261,.T.);
#351=ORIENTED_EDGE('',*,*,#251,.T.);
#352=ORIENTED_EDGE('',*,*,#262,.T.);
#353=ORIENTED_EDGE('',*,*,#261,.F.);
#354=ORIENTED_EDGE('',*,*,#219,.F.);
#355=ORIENTED_EDGE('',*,*,#263,.F.);
#356=ORIENTED_EDGE('',*,*,#252,.T.);
#357=ORIENTED_EDGE('',*,*,#257,.F.);
#358=ORIENTED_EDGE('',*,*,#225,.F.);
#359=ORIENTED_EDGE('',*,*,#264,.F.);
#360=ORIENTED_EDGE('',*,*,#248,.T.);
#361=ORIENTED_EDGE('',*,*,#249,.T.);
#362=ORIENTED_EDGE('',*,*,#264,.T.);
#363=ORIENTED_EDGE('',*,*,#224,.F.);
#364=ORIENTED_EDGE('',*,*,#245,.F.);
#365=ORIENTED_EDGE('',*,*,#241,.F.);
#366=ORIENTED_EDGE('',*,*,#221,.F.);
#367=ORIENTED_EDGE('',*,*,#262,.F.);
#368=ORIENTED_EDGE('',*,*,#250,.T.);
#369=ORIENTED_EDGE('',*,*,#253,.T.);
#370=ORIENTED_EDGE('',*,*,#263,.T.);
#371=ORIENTED_EDGE('',*,*,#218,.F.);
#372=ORIENTED_EDGE('',*,*,#260,.F.);
#373=CONICAL_SURFACE('',#411,2.,0.785398163397448);
#374=CONICAL_SURFACE('',#427,2.,0.785398163397448);
#375=ADVANCED_FACE('',(#41),#373,.F.);
#376=ADVANCED_FACE('',(#42,#25,#26,#27,#28),#31,.T.);
#377=ADVANCED_FACE('',(#43),#15,.F.);
#378=ADVANCED_FACE('',(#44),#374,.F.);
#379=ADVANCED_FACE('',(#45),#16,.F.);
#380=ADVANCED_FACE('',(#46),#17,.F.);
#381=ADVANCED_FACE('',(#47),#32,.F.);
#382=ADVANCED_FACE('',(#48),#18,.F.);
#383=ADVANCED_FACE('',(#49),#33,.F.);
#384=ADVANCED_FACE('',(#50),#19,.T.);
#385=ADVANCED_FACE('',(#51),#34,.T.);
#386=ADVANCED_FACE('',(#52,#29,#30),#35,.F.);
#387=ADVANCED_FACE('',(#53),#20,.F.);
#388=ADVANCED_FACE('',(#54),#36,.T.);
#389=ADVANCED_FACE('',(#55),#21,.F.);
#390=ADVANCED_FACE('',(#56),#37,.T.);
#391=ADVANCED_FACE('',(#57),#22,.T.);
#392=ADVANCED_FACE('',(#58),#38,.T.);
#393=ADVANCED_FACE('',(#59),#39,.T.);
#394=ADVANCED_FACE('',(#60),#23,.T.);
#395=ADVANCED_FACE('',(#61),#40,.T.);
#396=ADVANCED_FACE('',(#62),#24,.T.);
#397=CLOSED_SHELL('',(#375,#376,#377,#378,#379,#380,#381,#382,#383,#384,
#385,#386,#387,#388,#389,#390,#391,#392,#393,#394,#395,#396));
#398=DERIVED_UNIT_ELEMENT(#400,1.);
#399=DERIVED_UNIT_ELEMENT(#699,-3.);
#400=(
MASS_UNIT()
NAMED_UNIT(*)
SI_UNIT(.KILO.,.GRAM.)
);
#401=DERIVED_UNIT((#398,#399));
#402=MEASURE_REPRESENTATION_ITEM('density measure',
POSITIVE_RATIO_MEASURE(7850.),#401);
#403=PROPERTY_DEFINITION_REPRESENTATION(#408,#405);
#404=PROPERTY_DEFINITION_REPRESENTATION(#409,#406);
#405=REPRESENTATION('material name',(#407),#696);
#406=REPRESENTATION('density',(#402),#696);
#407=DESCRIPTIVE_REPRESENTATION_ITEM('Steel','Steel');
#408=PROPERTY_DEFINITION('material property','material name',#706);
#409=PROPERTY_DEFINITION('material property','density of part',#706);
#410=AXIS2_PLACEMENT_3D('',#581,#457,#458);
#411=AXIS2_PLACEMENT_3D('',#582,#459,#460);
#412=AXIS2_PLACEMENT_3D('',#585,#461,#462);
#413=AXIS2_PLACEMENT_3D('',#588,#464,#465);
#414=AXIS2_PLACEMENT_3D('',#589,#466,#467);
#415=AXIS2_PLACEMENT_3D('',#590,#468,#469);
#416=AXIS2_PLACEMENT_3D('',#595,#471,#472);
#417=AXIS2_PLACEMENT_3D('',#599,#474,#475);
#418=AXIS2_PLACEMENT_3D('',#603,#477,#478);
#419=AXIS2_PLACEMENT_3D('',#607,#480,#481);
#420=AXIS2_PLACEMENT_3D('',#611,#483,#484);
#421=AXIS2_PLACEMENT_3D('',#614,#486,#487);
#422=AXIS2_PLACEMENT_3D('',#616,#488,#489);
#423=AXIS2_PLACEMENT_3D('',#618,#490,#491);
#424=AXIS2_PLACEMENT_3D('',#620,#492,#493);
#425=AXIS2_PLACEMENT_3D('',#621,#494,#495);
#426=AXIS2_PLACEMENT_3D('',#624,#497,#498);
#427=AXIS2_PLACEMENT_3D('',#625,#499,#500);
#428=AXIS2_PLACEMENT_3D('',#628,#501,#502);
#429=AXIS2_PLACEMENT_3D('',#630,#504,#505);
#430=AXIS2_PLACEMENT_3D('',#631,#506,#507);
#431=AXIS2_PLACEMENT_3D('',#634,#509,#510);
#432=AXIS2_PLACEMENT_3D('',#635,#511,#512);
#433=AXIS2_PLACEMENT_3D('',#638,#514,#515);
#434=AXIS2_PLACEMENT_3D('',#639,#516,#517);
#435=AXIS2_PLACEMENT_3D('',#640,#518,#519);
#436=AXIS2_PLACEMENT_3D('',#643,#521,#522);
#437=AXIS2_PLACEMENT_3D('',#644,#523,#524);
#438=AXIS2_PLACEMENT_3D('',#645,#525,#526);
#439=AXIS2_PLACEMENT_3D('',#649,#528,#529);
#440=AXIS2_PLACEMENT_3D('',#651,#531,#532);
#441=AXIS2_PLACEMENT_3D('',#655,#535,#536);
#442=AXIS2_PLACEMENT_3D('',#660,#538,#539);
#443=AXIS2_PLACEMENT_3D('',#663,#541,#542);
#444=AXIS2_PLACEMENT_3D('',#667,#544,#545);
#445=AXIS2_PLACEMENT_3D('',#671,#547,#548);
#446=AXIS2_PLACEMENT_3D('',#674,#550,#551);
#447=AXIS2_PLACEMENT_3D('',#675,#552,#553);
#448=AXIS2_PLACEMENT_3D('',#678,#556,#557);
#449=AXIS2_PLACEMENT_3D('',#680,#559,#560);
#450=AXIS2_PLACEMENT_3D('',#682,#562,#563);
#451=AXIS2_PLACEMENT_3D('',#684,#565,#566);
#452=AXIS2_PLACEMENT_3D('',#687,#569,#570);
#453=AXIS2_PLACEMENT_3D('',#689,#572,#573);
#454=AXIS2_PLACEMENT_3D('',#691,#575,#576);
#455=AXIS2_PLACEMENT_3D('',#692,#577,#578);
#456=AXIS2_PLACEMENT_3D('',#693,#579,#580);
#457=DIRECTION('axis',(0.,0.,1.));
#458=DIRECTION('refdir',(1.,0.,0.));
#459=DIRECTION('center_axis',(-1.,0.,5.55111512312578E-16));
#460=DIRECTION('ref_axis',(-2.12700717505019E-61,1.,-3.83167548838817E-46));
#461=DIRECTION('center_axis',(1.,6.90253292068385E-31,-4.9960036108132E-16));
#462=DIRECTION('ref_axis',(-6.90253292068385E-31,1.,0.));
#463=DIRECTION('',(-0.707106781186548,-0.707106781186547,4.79118720294493E-16));
#464=DIRECTION('center_axis',(-1.,-6.90253292068385E-31,4.9960036108132E-16));
#465=DIRECTION('ref_axis',(-6.90253292068385E-31,1.,-3.88938454866321E-62));
#466=DIRECTION('center_axis',(1.,6.90253292068385E-31,-4.9960036108132E-16));
#467=DIRECTION('ref_axis',(-6.90253292068385E-31,1.,0.));
#468=DIRECTION('center_axis',(-1.,-6.90253292068385E-31,4.9960036108132E-16));
#469=DIRECTION('ref_axis',(4.9960036108132E-16,0.,1.));
#470=DIRECTION('',(4.9960036108132E-16,-8.82937507969049E-17,1.));
#471=DIRECTION('center_axis',(-1.,-6.90253292068385E-31,4.9960036108132E-16));
#472=DIRECTION('ref_axis',(1.91188780989437E-16,0.923879532511287,0.382683432365089));
#473=DIRECTION('',(3.5327080320385E-16,-0.707106781186547,0.707106781186548));
#474=DIRECTION('center_axis',(-1.,-6.90253292068385E-31,4.9960036108132E-16));
#475=DIRECTION('ref_axis',(4.9960036108132E-16,0.,1.));
#476=DIRECTION('',(-3.55337805080688E-16,0.7029451201042,-0.711244091800904));
#477=DIRECTION('center_axis',(1.,6.90253292068385E-31,-4.9960036108132E-16));
#478=DIRECTION('ref_axis',(1.8942257260303E-16,0.925335966045092,0.379148189951365));
#479=DIRECTION('',(-4.99599570763206E-16,-0.0017787070341698,-0.999998418099392));
#480=DIRECTION('center_axis',(1.,6.90253292068385E-31,-4.9960036108132E-16));
#481=DIRECTION('ref_axis',(-1.88731439836179E-16,0.925901583181321,-0.377764818719694));
#482=DIRECTION('',(-3.57629246524548E-16,-0.698273939049771,-0.715830640615444));
#483=DIRECTION('center_axis',(-1.,-6.90253292068385E-31,4.9960036108132E-16));
#484=DIRECTION('ref_axis',(4.9960036108132E-16,0.,1.));
#485=DIRECTION('',(3.53270803203849E-16,0.707106781186547,0.707106781186548));
#486=DIRECTION('center_axis',(-1.,-6.90253292068385E-31,4.9960036108132E-16));
#487=DIRECTION('ref_axis',(-1.91188780989438E-16,0.923879532511287,-0.382683432365089));
#488=DIRECTION('center_axis',(-1.,-6.90253292068385E-31,4.9960036108132E-16));
#489=DIRECTION('ref_axis',(-6.90253292068385E-31,1.,-3.88938454866321E-62));
#490=DIRECTION('center_axis',(1.,6.90253292068385E-31,-4.9960036108132E-16));
#491=DIRECTION('ref_axis',(6.90253292068385E-31,-1.,0.));
#492=DIRECTION('center_axis',(1.,6.90253292068385E-31,-4.9960036108132E-16));
#493=DIRECTION('ref_axis',(6.90253292068385E-31,-1.,0.));
#494=DIRECTION('center_axis',(1.,6.90253292068385E-31,-4.9960036108132E-16));
#495=DIRECTION('ref_axis',(6.90253292068385E-31,-1.,0.));
#496=DIRECTION('',(1.,6.90253292068385E-31,-4.9960036108132E-16));
#497=DIRECTION('center_axis',(-1.,-6.90253292068385E-31,4.9960036108132E-16));
#498=DIRECTION('ref_axis',(6.90253292068385E-31,-1.,0.));
#499=DIRECTION('center_axis',(-1.,0.,0.));
#500=DIRECTION('ref_axis',(0.,1.,-2.73472351077882E-62));
#501=DIRECTION('center_axis',(1.,6.90253292068385E-31,-4.9960036108132E-16));
#502=DIRECTION('ref_axis',(-6.90253292068385E-31,1.,0.));
#503=DIRECTION('',(-0.707106781186548,-0.707106781186547,8.65956056235493E-17));
#504=DIRECTION('center_axis',(1.,6.90253292068385E-31,-4.9960036108132E-16));
#505=DIRECTION('ref_axis',(-6.90253292068385E-31,1.,0.));
#506=DIRECTION('center_axis',(1.,6.90253292068385E-31,-4.9960036108132E-16));
#507=DIRECTION('ref_axis',(6.90253292068385E-31,-1.,0.));
#508=DIRECTION('',(1.,6.90253292068385E-31,-4.9960036108132E-16));
#509=DIRECTION('center_axis',(-1.,-6.90253292068385E-31,4.9960036108132E-16));
#510=DIRECTION('ref_axis',(6.90253292068385E-31,-1.,0.));
#511=DIRECTION('center_axis',(1.,6.90253292068385E-31,-4.9960036108132E-16));
#512=DIRECTION('ref_axis',(6.90253292068385E-31,-1.,0.));
#513=DIRECTION('',(1.,6.90253292068385E-31,-4.9960036108132E-16));
#514=DIRECTION('center_axis',(1.,6.90253292068385E-31,-4.9960036108132E-16));
#515=DIRECTION('ref_axis',(6.90253292068385E-31,-1.,0.));
#516=DIRECTION('center_axis',(1.,6.90253292068385E-31,-4.9960036108132E-16));
#517=DIRECTION('ref_axis',(6.90253292068385E-31,-1.,0.));
#518=DIRECTION('center_axis',(1.,6.90253292068385E-31,-4.9960036108132E-16));
#519=DIRECTION('ref_axis',(6.90253292068385E-31,-1.,0.));
#520=DIRECTION('',(1.,6.90253292068385E-31,-4.9960036108132E-16));
#521=DIRECTION('center_axis',(1.,6.90253292068385E-31,-4.9960036108132E-16));
#522=DIRECTION('ref_axis',(6.90253292068385E-31,-1.,0.));
#523=DIRECTION('center_axis',(1.,6.90253292068385E-31,-4.9960036108132E-16));
#524=DIRECTION('ref_axis',(6.90253292068385E-31,-1.,0.));
#525=DIRECTION('center_axis',(-1.,0.,4.44089209850063E-16));
#526=DIRECTION('ref_axis',(-1.67761279854381E-16,0.925901583181321,-0.377764818719694));
#527=DIRECTION('',(1.,0.,-4.44089209850063E-16));
#528=DIRECTION('center_axis',(-1.,-6.90253292068385E-31,4.9960036108132E-16));
#529=DIRECTION('ref_axis',(-1.88731439836179E-16,0.925901583181321,-0.377764818719694));
#530=DIRECTION('',(-1.,0.,4.44089209850063E-16));
#531=DIRECTION('center_axis',(-3.10095921851504E-16,0.715830640615444,-0.698273939049771));
#532=DIRECTION('ref_axis',(-3.57629246524548E-16,-0.698273939049771,-0.715830640615444));
#533=DIRECTION('',(3.57629246524548E-16,0.698273939049771,0.715830640615444));
#534=DIRECTION('',(-1.,0.,4.44089209850063E-16));
#535=DIRECTION('center_axis',(-1.,-6.90253292068385E-31,4.9960036108132E-16));
#536=DIRECTION('ref_axis',(4.9960036108132E-16,0.,1.));
#537=DIRECTION('',(-4.9960036108132E-16,8.82937507969049E-17,-1.));
#538=DIRECTION('center_axis',(1.,6.90253292068385E-31,-4.9960036108132E-16));
#539=DIRECTION('ref_axis',(-1.91188780989438E-16,0.923879532511287,-0.382683432365089));
#540=DIRECTION('',(3.53270803203849E-16,0.707106781186547,0.707106781186548));
#541=DIRECTION('center_axis',(-1.,-6.90253292068385E-31,4.9960036108132E-16));
#542=DIRECTION('ref_axis',(4.9960036108132E-16,0.,1.));
#543=DIRECTION('',(-4.99599570763206E-16,-0.0017787070341698,-0.999998418099392));
#544=DIRECTION('center_axis',(-1.,-6.90253292068385E-31,4.9960036108132E-16));
#545=DIRECTION('ref_axis',(1.8942257260303E-16,0.925335966045092,0.379148189951365));
#546=DIRECTION('',(-3.55337805080688E-16,0.7029451201042,-0.711244091800904));
#547=DIRECTION('center_axis',(-1.,-6.90253292068385E-31,4.9960036108132E-16));
#548=DIRECTION('ref_axis',(4.9960036108132E-16,0.,1.));
#549=DIRECTION('',(-3.5327080320385E-16,0.707106781186547,-0.707106781186548));
#550=DIRECTION('center_axis',(1.,6.90253292068385E-31,-4.9960036108132E-16));
#551=DIRECTION('ref_axis',(1.91188780989437E-16,0.923879532511287,0.382683432365089));
#552=DIRECTION('center_axis',(-1.,0.,4.44089209850063E-16));
#553=DIRECTION('ref_axis',(-1.69945583101722E-16,0.923879532511287,-0.382683432365089));
#554=DIRECTION('',(-1.,0.,4.44089209850063E-16));
#555=DIRECTION('',(1.,0.,-4.44089209850063E-16));
#556=DIRECTION('center_axis',(-3.92103020260958E-32,-1.,-8.82937507969049E-17));
#557=DIRECTION('ref_axis',(4.9960036108132E-16,-8.82937507969049E-17,1.));
#558=DIRECTION('',(1.,0.,-4.44089209850063E-16));
#559=DIRECTION('center_axis',(-1.,0.,4.44089209850063E-16));
#560=DIRECTION('ref_axis',(1.69945583101722E-16,0.923879532511287,0.382683432365089));
#561=DIRECTION('',(-1.,0.,4.44089209850063E-16));
#562=DIRECTION('center_axis',(-3.14018491736755E-16,-0.707106781186548,
-0.707106781186547));
#563=DIRECTION('ref_axis',(3.5327080320385E-16,-0.707106781186547,0.707106781186548));
#564=DIRECTION('',(-1.,0.,4.44089209850063E-16));
#565=DIRECTION('center_axis',(-1.,0.,4.44089209850063E-16));
#566=DIRECTION('ref_axis',(1.68375620091583E-16,0.925335966045092,0.379148189951365));
#567=DIRECTION('',(1.,0.,-4.44089209850063E-16));
#568=DIRECTION('',(-1.,0.,4.44089209850063E-16));
#569=DIRECTION('center_axis',(3.12170342955031E-16,0.711244091800904,0.7029451201042));
#570=DIRECTION('ref_axis',(-3.55337805080688E-16,0.7029451201042,-0.711244091800904));
#571=DIRECTION('',(-1.,0.,4.44089209850063E-16));
#572=DIRECTION('center_axis',(3.14018491736755E-16,-0.707106781186548,0.707106781186547));
#573=DIRECTION('ref_axis',(3.53270803203849E-16,0.707106781186547,0.707106781186548));
#574=DIRECTION('',(-1.,0.,4.44089209850063E-16));
#575=DIRECTION('center_axis',(-1.,0.,4.44089209850063E-16));
#576=DIRECTION('ref_axis',(-3.30182467348738E-16,-0.668730577235484,-0.743504818458022));
#577=DIRECTION('center_axis',(-7.89904601359213E-19,0.999998418099392,-0.0017787070341698));
#578=DIRECTION('ref_axis',(-4.99599570763206E-16,-0.0017787070341698,-0.999998418099392));
#579=DIRECTION('center_axis',(-1.,0.,4.44089209850063E-16));
#580=DIRECTION('ref_axis',(4.44089209850063E-16,0.,1.));
#581=CARTESIAN_POINT('',(0.,0.,0.));
#582=CARTESIAN_POINT('Origin',(-37.9655478964689,-7.61462160174426,-1.27183250363294));
#583=CARTESIAN_POINT('',(-37.4655478964689,-6.11462160174426,-1.27183250363294));
#584=CARTESIAN_POINT('',(-37.4655478964689,-9.11462160174426,-1.27183250363294));
#585=CARTESIAN_POINT('Origin',(-37.4655478964689,-7.61462160174426,-1.27183250363294));
#586=CARTESIAN_POINT('',(-38.4655478964689,-10.1146216017443,-1.27183250363294));
#587=CARTESIAN_POINT('',(-37.9655478964689,-9.61462160174426,-1.27183250363294));
#588=CARTESIAN_POINT('Origin',(-38.4655478964689,-7.61462160174426,-1.27183250363294));
#589=CARTESIAN_POINT('Origin',(-37.4655478964689,-7.61462160174426,-1.27183250363294));
#590=CARTESIAN_POINT('Origin',(-38.4655478964689,-14.3607787957037,-7.8667835263172));
#591=CARTESIAN_POINT('',(-38.4655478964689,-10.8167525515893,-17.9815954369496));
#592=CARTESIAN_POINT('',(-38.4655478964689,-10.8167525515893,2.22937308612146));
#593=CARTESIAN_POINT('',(-38.4655478964689,-10.8167525515893,4.69808591786509));
#594=CARTESIAN_POINT('',(-38.4655478964689,-12.5623961357175,6.44372950199327));
#595=CARTESIAN_POINT('Origin',(-38.4655478964689,-16.7767525515893,2.22937308612145));
#596=CARTESIAN_POINT('',(-38.4655478964689,-23.2734731325747,17.1548064988505));
#597=CARTESIAN_POINT('',(-38.4655478964689,-23.2734731325747,17.1548064988505));
#598=CARTESIAN_POINT('',(-38.4655478964689,-18.3955528360941,22.1733858243293));
#599=CARTESIAN_POINT('Origin',(-38.4655478964689,-20.8849071573972,19.7130779039646));
#600=CARTESIAN_POINT('',(-38.4655478964689,-6.06199196085663,9.69421490117233));
#601=CARTESIAN_POINT('',(-38.4655478964689,-18.3955528360941,22.1733858243293));
#602=CARTESIAN_POINT('',(-38.4655478964689,-4.34101617611764,5.49406089142764));
#603=CARTESIAN_POINT('Origin',(-38.4655478964689,-10.30100674799,5.5046619853513));
#604=CARTESIAN_POINT('',(-38.4655478964689,-4.38837766117607,-21.1328142641987));
#605=CARTESIAN_POINT('',(-38.4655478964689,-4.33665043401007,7.94850398831122));
#606=CARTESIAN_POINT('',(-38.4655478964689,-6.08201761498041,-25.2839258470117));
#607=CARTESIAN_POINT('Origin',(-38.4655478964689,-10.3483682330485,-21.1222131702751));
#608=CARTESIAN_POINT('',(-38.4655478964689,-18.3794999152432,-37.8906037432732));
#609=CARTESIAN_POINT('',(-38.4655478964689,-18.3794999152432,-37.8906037432732));
#610=CARTESIAN_POINT('',(-38.4655478964689,-23.5797693869045,-33.2133251040084));
#611=CARTESIAN_POINT('Origin',(-38.4655478964689,-20.8849071573972,-35.446644956599));
#612=CARTESIAN_POINT('',(-38.4655478964689,-12.5623961357175,-22.1959518528214));
#613=CARTESIAN_POINT('',(-38.4655478964689,-23.5797693869045,-33.2133251040084));
#614=CARTESIAN_POINT('Origin',(-38.4655478964689,-16.7767525515893,-17.9815954369496));
#615=CARTESIAN_POINT('',(-38.4655478964689,-10.0724279880524,-14.3518376350403));
#616=CARTESIAN_POINT('Origin',(-38.4655478964689,-7.57242798805237,-14.3518376350403));
#617=CARTESIAN_POINT('',(-38.4655478964689,-19.1349071573972,19.7130779039646));
#618=CARTESIAN_POINT('Origin',(-38.4655478964689,-20.8849071573972,19.7130779039646));
#619=CARTESIAN_POINT('',(-38.4655478964689,-19.1349071573972,-35.446644956599));
#620=CARTESIAN_POINT('Origin',(-38.4655478964689,-20.8849071573972,-35.446644956599));
#621=CARTESIAN_POINT('Origin',(-32.4655478964689,-7.61462160174426,-1.27183250363294));
#622=CARTESIAN_POINT('',(-33.4655478964689,-6.11462160174426,-1.27183250363294));
#623=CARTESIAN_POINT('',(-32.4655478964689,-6.11462160174426,-1.27183250363294));
#624=CARTESIAN_POINT('Origin',(-33.4655478964689,-7.61462160174426,-1.27183250363294));
#625=CARTESIAN_POINT('Origin',(-37.9655478964689,-7.57242798805237,-14.3518376350403));
#626=CARTESIAN_POINT('',(-37.4655478964689,-6.07242798805237,-14.3518376350403));
#627=CARTESIAN_POINT('',(-37.4655478964689,-9.07242798805237,-14.3518376350403));
#628=CARTESIAN_POINT('Origin',(-37.4655478964689,-7.57242798805237,-14.3518376350403));
#629=CARTESIAN_POINT('',(-37.9655478964689,-9.57242798805237,-14.3518376350403));
#630=CARTESIAN_POINT('Origin',(-37.4655478964689,-7.57242798805237,-14.3518376350403));
#631=CARTESIAN_POINT('Origin',(-32.4655478964689,-7.57242798805237,-14.3518376350403));
#632=CARTESIAN_POINT('',(-33.4655478964689,-6.07242798805237,-14.3518376350403));
#633=CARTESIAN_POINT('',(-32.4655478964689,-6.07242798805237,-14.3518376350403));
#634=CARTESIAN_POINT('Origin',(-33.4655478964689,-7.57242798805237,-14.3518376350403));
#635=CARTESIAN_POINT('Origin',(-36.0535478964689,-20.8849071573972,19.7130779039646));
#636=CARTESIAN_POINT('',(-33.6415478964689,-19.1349071573972,19.7130779039646));
#637=CARTESIAN_POINT('',(-36.0535478964689,-19.1349071573972,19.7130779039646));
#638=CARTESIAN_POINT('Origin',(-33.6415478964689,-20.8849071573972,19.7130779039646));
#639=CARTESIAN_POINT('Origin',(-33.6415478964689,-20.8849071573972,19.7130779039646));
#640=CARTESIAN_POINT('Origin',(-36.0535478964689,-20.8849071573972,-35.446644956599));
#641=CARTESIAN_POINT('',(-33.6415478964689,-19.1349071573972,-35.446644956599));
#642=CARTESIAN_POINT('',(-36.0535478964689,-19.1349071573972,-35.446644956599));
#643=CARTESIAN_POINT('Origin',(-33.6415478964689,-20.8849071573972,-35.446644956599));
#644=CARTESIAN_POINT('Origin',(-33.6415478964689,-20.8849071573972,-35.446644956599));
#645=CARTESIAN_POINT('Origin',(-33.4655478964689,-10.3483682330485,-21.1222131702751));
#646=CARTESIAN_POINT('',(-33.4655478964689,-4.38837766117607,-21.1328142641988));
#647=CARTESIAN_POINT('',(-33.4655478964689,-4.38837766117607,-21.1328142641988));
#648=CARTESIAN_POINT('',(-33.4655478964689,-6.08201761498041,-25.2839258470117));
#649=CARTESIAN_POINT('Origin',(-33.4655478964689,-10.3483682330485,-21.1222131702751));
#650=CARTESIAN_POINT('',(-33.4655478964689,-6.08201761498041,-25.2839258470117));
#651=CARTESIAN_POINT('Origin',(-33.4655478964689,-4.39268089367728,-23.5521141327278));
#652=CARTESIAN_POINT('',(-33.4655478964689,-18.3794999152432,-37.8906037432732));
#653=CARTESIAN_POINT('',(-33.4655478964689,-18.3794999152432,-37.8906037432732));
#654=CARTESIAN_POINT('',(-33.4655478964689,-18.3794999152432,-37.8906037432732));
#655=CARTESIAN_POINT('Origin',(-33.4655478964689,-14.3607787957037,-7.8667835263172));
#656=CARTESIAN_POINT('',(-33.4655478964689,-10.8167525515893,2.22937308612145));
#657=CARTESIAN_POINT('',(-33.4655478964689,-10.8167525515893,-17.9815954369496));
#658=CARTESIAN_POINT('',(-33.4655478964689,-10.8167525515893,4.69808591786509));
#659=CARTESIAN_POINT('',(-33.4655478964689,-12.5623961357175,-22.1959518528214));
#660=CARTESIAN_POINT('Origin',(-33.4655478964689,-16.7767525515893,-17.9815954369496));
#661=CARTESIAN_POINT('',(-33.4655478964689,-23.5797693869045,-33.2133251040084));
#662=CARTESIAN_POINT('',(-33.4655478964689,-23.5797693869045,-33.2133251040084));
#663=CARTESIAN_POINT('Origin',(-33.4655478964689,-20.8849071573972,-35.446644956599));
#664=CARTESIAN_POINT('',(-33.4655478964689,-4.34101617611764,5.49406089142764));
#665=CARTESIAN_POINT('',(-33.4655478964689,-4.33665043401007,7.94850398831121));
#666=CARTESIAN_POINT('',(-33.4655478964689,-6.06199196085663,9.69421490117233));
#667=CARTESIAN_POINT('Origin',(-33.4655478964689,-10.30100674799,5.50466198535129));
#668=CARTESIAN_POINT('',(-33.4655478964689,-18.3955528360941,22.1733858243293));
#669=CARTESIAN_POINT('',(-33.4655478964689,-18.3955528360941,22.1733858243293));
#670=CARTESIAN_POINT('',(-33.4655478964689,-23.2734731325747,17.1548064988505));
#671=CARTESIAN_POINT('Origin',(-33.4655478964689,-20.8849071573972,19.7130779039646));
#672=CARTESIAN_POINT('',(-33.4655478964689,-12.5623961357175,6.44372950199327));
#673=CARTESIAN_POINT('',(-33.4655478964689,-23.2734731325747,17.1548064988505));
#674=CARTESIAN_POINT('Origin',(-33.4655478964689,-16.7767525515893,2.22937308612145));
#675=CARTESIAN_POINT('Origin',(-33.4655478964689,-16.7767525515893,-17.9815954369496));
#676=CARTESIAN_POINT('',(-33.4655478964689,-10.8167525515893,-17.9815954369496));
#677=CARTESIAN_POINT('',(-33.4655478964689,-12.5623961357175,-22.1959518528214));
#678=CARTESIAN_POINT('Origin',(-33.4655478964689,-10.8167525515893,-20.4503082686932));
#679=CARTESIAN_POINT('',(-33.4655478964689,-10.8167525515893,2.22937308612145));
#680=CARTESIAN_POINT('Origin',(-33.4655478964689,-16.7767525515893,2.22937308612145));
#681=CARTESIAN_POINT('',(-33.4655478964689,-12.5623961357175,6.44372950199327));
#682=CARTESIAN_POINT('Origin',(-33.4655478964689,-10.8167525515893,4.69808591786509));
#683=CARTESIAN_POINT('',(-33.4655478964689,-23.2734731325747,17.1548064988505));
#684=CARTESIAN_POINT('Origin',(-33.4655478964689,-10.30100674799,5.50466198535129));
#685=CARTESIAN_POINT('',(-33.4655478964689,-6.06199196085663,9.69421490117232));
#686=CARTESIAN_POINT('',(-33.4655478964689,-4.34101617611764,5.49406089142764));
#687=CARTESIAN_POINT('Origin',(-33.4655478964689,-18.3955528360941,22.1733858243293));
#688=CARTESIAN_POINT('',(-33.4655478964689,-18.3955528360941,22.1733858243293));
#689=CARTESIAN_POINT('Origin',(-33.4655478964689,-23.5797693869045,-33.2133251040084));
#690=CARTESIAN_POINT('',(-33.4655478964689,-23.5797693869045,-33.2133251040084));
#691=CARTESIAN_POINT('Origin',(-33.4655478964689,-20.8849071573972,-35.446644956599));
#692=CARTESIAN_POINT('Origin',(-33.4655478964689,-4.33665043401007,7.94850398831121));
#693=CARTESIAN_POINT('Origin',(-33.4655478964689,-20.8849071573972,19.7130779039646));
#694=UNCERTAINTY_MEASURE_WITH_UNIT(LENGTH_MEASURE(0.01),#698,
'DISTANCE_ACCURACY_VALUE',
'Maximum model space distance between geometric entities at asserted c
onnectivities');
#695=UNCERTAINTY_MEASURE_WITH_UNIT(LENGTH_MEASURE(0.01),#698,
'DISTANCE_ACCURACY_VALUE',
'Maximum model space distance between geometric entities at asserted c
onnectivities');
#696=(
GEOMETRIC_REPRESENTATION_CONTEXT(3)
GLOBAL_UNCERTAINTY_ASSIGNED_CONTEXT((#694))
GLOBAL_UNIT_ASSIGNED_CONTEXT((#698,#700,#701))
REPRESENTATION_CONTEXT('','3D')
);
#697=(
GEOMETRIC_REPRESENTATION_CONTEXT(3)
GLOBAL_UNCERTAINTY_ASSIGNED_CONTEXT((#695))
GLOBAL_UNIT_ASSIGNED_CONTEXT((#698,#700,#701))
REPRESENTATION_CONTEXT('','3D')
);
#698=(
LENGTH_UNIT()
NAMED_UNIT(*)
SI_UNIT(.MILLI.,.METRE.)
);
#699=(
LENGTH_UNIT()
NAMED_UNIT(*)
SI_UNIT($,.METRE.)
);
#700=(
NAMED_UNIT(*)
PLANE_ANGLE_UNIT()
SI_UNIT($,.RADIAN.)
);
#701=(
NAMED_UNIT(*)
SI_UNIT($,.STERADIAN.)
SOLID_ANGLE_UNIT()
);
#702=SHAPE_DEFINITION_REPRESENTATION(#703,#704);
#703=PRODUCT_DEFINITION_SHAPE('',$,#706);
#704=SHAPE_REPRESENTATION('',(#410),#696);
#705=PRODUCT_DEFINITION_CONTEXT('part definition',#710,'design');
#706=PRODUCT_DEFINITION('front holder ','front holder ',#707,#705);
#707=PRODUCT_DEFINITION_FORMATION('',$,#712);
#708=PRODUCT_RELATED_PRODUCT_CATEGORY('front holder ','front holder ',(#712));
#709=APPLICATION_PROTOCOL_DEFINITION('international standard',
'automotive_design',2009,#710);
#710=APPLICATION_CONTEXT(
'Core Data for Automotive Mechanical Design Process');
#711=PRODUCT_CONTEXT('part definition',#710,'mechanical');
#712=PRODUCT('front holder ','front holder ',$,(#711));
#713=PRESENTATION_STYLE_ASSIGNMENT((#715));
#714=PRESENTATION_STYLE_ASSIGNMENT((#716));
#715=SURFACE_STYLE_USAGE(.BOTH.,#717);
#716=SURFACE_STYLE_USAGE(.BOTH.,#718);
#717=SURFACE_SIDE_STYLE('',(#719));
#718=SURFACE_SIDE_STYLE('',(#720));
#719=SURFACE_STYLE_FILL_AREA(#721);
#720=SURFACE_STYLE_FILL_AREA(#722);
#721=FILL_AREA_STYLE('Steel - Satin',(#723));
#722=FILL_AREA_STYLE('Opaque(160,160,160)',(#724));
#723=FILL_AREA_STYLE_COLOUR('Steel - Satin',#725);
#724=FILL_AREA_STYLE_COLOUR('Opaque(160,160,160)',#726);
#725=COLOUR_RGB('Steel - Satin',0.627450980392157,0.627450980392157,0.627450980392157);
#726=COLOUR_RGB('Opaque(160,160,160)',0.627450980392157,0.627450980392157,
0.627450980392157);
ENDSEC;
END-ISO-10303-21;
