ISO-10303-21;
HEADER;
/* Generated by software containing ST-Developer
 * from STEP Tools, Inc. (www.steptools.com) 
 */

FILE_DESCRIPTION(
/* description */ (''),
/* implementation_level */ '2;1');

FILE_NAME(
/* name */ 'Box v3.step',
/* time_stamp */ '2024-08-21T17:44:36-07:00',
/* author */ (''),
/* organization */ (''),
/* preprocessor_version */ 'ST-DEVELOPER v20',
/* originating_system */ 'Autodesk Translation Framework v13.14.0.145',

/* authorisation */ '');

FILE_SCHEMA (('AUTOMOTIVE_DESIGN { 1 0 10303 214 3 1 1 }'));
ENDSEC;

DATA;
#10=MECHANICAL_DESIGN_GEOMETRIC_PRESENTATION_REPRESENTATION('',(#13),#1398);
#11=SHAPE_REPRESENTATION_RELATIONSHIP('SRR','None',#1405,#12);
#12=ADVANCED_BREP_SHAPE_REPRESENTATION('',(#14),#1397);
#13=STYLED_ITEM('',(#1414),#14);
#14=MANIFOLD_SOLID_BREP('Body1',#842);
#15=FACE_BOUND('',#119,.T.);
#16=FACE_BOUND('',#123,.T.);
#17=FACE_BOUND('',#125,.T.);
#18=FACE_BOUND('',#131,.T.);
#19=FACE_BOUND('',#135,.T.);
#20=FACE_BOUND('',#142,.T.);
#21=FACE_BOUND('',#143,.T.);
#22=FACE_BOUND('',#144,.T.);
#23=FACE_BOUND('',#145,.T.);
#24=FACE_BOUND('',#155,.T.);
#25=FACE_BOUND('',#158,.T.);
#26=FACE_BOUND('',#161,.T.);
#27=FACE_BOUND('',#164,.T.);
#28=FACE_BOUND('',#171,.T.);
#29=FACE_BOUND('',#175,.T.);
#30=FACE_BOUND('',#176,.T.);
#31=FACE_BOUND('',#177,.T.);
#32=FACE_BOUND('',#178,.T.);
#33=PLANE('',#859);
#34=PLANE('',#860);
#35=PLANE('',#861);
#36=PLANE('',#862);
#37=PLANE('',#864);
#38=PLANE('',#865);
#39=PLANE('',#866);
#40=PLANE('',#868);
#41=PLANE('',#870);
#42=PLANE('',#871);
#43=PLANE('',#872);
#44=PLANE('',#873);
#45=PLANE('',#874);
#46=PLANE('',#876);
#47=PLANE('',#879);
#48=PLANE('',#880);
#49=PLANE('',#883);
#50=PLANE('',#884);
#51=PLANE('',#885);
#52=PLANE('',#886);
#53=PLANE('',#893);
#54=PLANE('',#894);
#55=PLANE('',#895);
#56=PLANE('',#898);
#57=PLANE('',#899);
#58=PLANE('',#902);
#59=PLANE('',#906);
#60=PLANE('',#910);
#61=PLANE('',#914);
#62=PLANE('',#924);
#63=PLANE('',#925);
#64=PLANE('',#926);
#65=PLANE('',#927);
#66=PLANE('',#928);
#67=FACE_OUTER_BOUND('',#114,.T.);
#68=FACE_OUTER_BOUND('',#115,.T.);
#69=FACE_OUTER_BOUND('',#116,.T.);
#70=FACE_OUTER_BOUND('',#117,.T.);
#71=FACE_OUTER_BOUND('',#118,.T.);
#72=FACE_OUTER_BOUND('',#120,.T.);
#73=FACE_OUTER_BOUND('',#121,.T.);
#74=FACE_OUTER_BOUND('',#122,.T.);
#75=FACE_OUTER_BOUND('',#124,.T.);
#76=FACE_OUTER_BOUND('',#126,.T.);
#77=FACE_OUTER_BOUND('',#127,.T.);
#78=FACE_OUTER_BOUND('',#128,.T.);
#79=FACE_OUTER_BOUND('',#129,.T.);
#80=FACE_OUTER_BOUND('',#130,.T.);
#81=FACE_OUTER_BOUND('',#132,.T.);
#82=FACE_OUTER_BOUND('',#133,.T.);
#83=FACE_OUTER_BOUND('',#134,.T.);
#84=FACE_OUTER_BOUND('',#136,.T.);
#85=FACE_OUTER_BOUND('',#137,.T.);
#86=FACE_OUTER_BOUND('',#138,.T.);
#87=FACE_OUTER_BOUND('',#139,.T.);
#88=FACE_OUTER_BOUND('',#140,.T.);
#89=FACE_OUTER_BOUND('',#141,.T.);
#90=FACE_OUTER_BOUND('',#146,.T.);
#91=FACE_OUTER_BOUND('',#147,.T.);
#92=FACE_OUTER_BOUND('',#148,.T.);
#93=FACE_OUTER_BOUND('',#149,.T.);
#94=FACE_OUTER_BOUND('',#150,.T.);
#95=FACE_OUTER_BOUND('',#151,.T.);
#96=FACE_OUTER_BOUND('',#152,.T.);
#97=FACE_OUTER_BOUND('',#153,.T.);
#98=FACE_OUTER_BOUND('',#154,.T.);
#99=FACE_OUTER_BOUND('',#156,.T.);
#100=FACE_OUTER_BOUND('',#157,.T.);
#101=FACE_OUTER_BOUND('',#159,.T.);
#102=FACE_OUTER_BOUND('',#160,.T.);
#103=FACE_OUTER_BOUND('',#162,.T.);
#104=FACE_OUTER_BOUND('',#163,.T.);
#105=FACE_OUTER_BOUND('',#165,.T.);
#106=FACE_OUTER_BOUND('',#166,.T.);
#107=FACE_OUTER_BOUND('',#167,.T.);
#108=FACE_OUTER_BOUND('',#168,.T.);
#109=FACE_OUTER_BOUND('',#169,.T.);
#110=FACE_OUTER_BOUND('',#170,.T.);
#111=FACE_OUTER_BOUND('',#172,.T.);
#112=FACE_OUTER_BOUND('',#173,.T.);
#113=FACE_OUTER_BOUND('',#174,.T.);
#114=EDGE_LOOP('',(#560,#561,#562,#563));
#115=EDGE_LOOP('',(#564,#565,#566,#567));
#116=EDGE_LOOP('',(#568,#569,#570,#571));
#117=EDGE_LOOP('',(#572,#573,#574,#575,#576,#577,#578,#579));
#118=EDGE_LOOP('',(#580,#581,#582,#583));
#119=EDGE_LOOP('',(#584));
#120=EDGE_LOOP('',(#585,#586,#587,#588,#589,#590));
#121=EDGE_LOOP('',(#591,#592,#593,#594,#595,#596));
#122=EDGE_LOOP('',(#597,#598,#599,#600));
#123=EDGE_LOOP('',(#601));
#124=EDGE_LOOP('',(#602,#603,#604,#605));
#125=EDGE_LOOP('',(#606));
#126=EDGE_LOOP('',(#607,#608,#609,#610));
#127=EDGE_LOOP('',(#611,#612,#613,#614));
#128=EDGE_LOOP('',(#615,#616,#617,#618,#619,#620));
#129=EDGE_LOOP('',(#621,#622,#623,#624,#625,#626));
#130=EDGE_LOOP('',(#627,#628,#629,#630));
#131=EDGE_LOOP('',(#631));
#132=EDGE_LOOP('',(#632,#633,#634,#635,#636,#637));
#133=EDGE_LOOP('',(#638,#639,#640,#641));
#134=EDGE_LOOP('',(#642,#643,#644,#645));
#135=EDGE_LOOP('',(#646));
#136=EDGE_LOOP('',(#647));
#137=EDGE_LOOP('',(#648,#649,#650,#651));
#138=EDGE_LOOP('',(#652,#653,#654,#655,#656,#657));
#139=EDGE_LOOP('',(#658,#659,#660,#661,#662,#663));
#140=EDGE_LOOP('',(#664,#665,#666,#667));
#141=EDGE_LOOP('',(#668,#669,#670,#671,#672,#673,#674,#675,#676,#677,#678,
#679));
#142=EDGE_LOOP('',(#680));
#143=EDGE_LOOP('',(#681));
#144=EDGE_LOOP('',(#682));
#145=EDGE_LOOP('',(#683));
#146=EDGE_LOOP('',(#684,#685,#686,#687));
#147=EDGE_LOOP('',(#688,#689,#690,#691,#692,#693));
#148=EDGE_LOOP('',(#694,#695,#696,#697));
#149=EDGE_LOOP('',(#698));
#150=EDGE_LOOP('',(#699,#700,#701,#702));
#151=EDGE_LOOP('',(#703,#704,#705,#706));
#152=EDGE_LOOP('',(#707));
#153=EDGE_LOOP('',(#708,#709,#710,#711));
#154=EDGE_LOOP('',(#712));
#155=EDGE_LOOP('',(#713));
#156=EDGE_LOOP('',(#714,#715,#716,#717));
#157=EDGE_LOOP('',(#718));
#158=EDGE_LOOP('',(#719));
#159=EDGE_LOOP('',(#720,#721,#722,#723));
#160=EDGE_LOOP('',(#724));
#161=EDGE_LOOP('',(#725));
#162=EDGE_LOOP('',(#726,#727,#728,#729));
#163=EDGE_LOOP('',(#730));
#164=EDGE_LOOP('',(#731));
#165=EDGE_LOOP('',(#732,#733,#734,#735));
#166=EDGE_LOOP('',(#736,#737,#738,#739));
#167=EDGE_LOOP('',(#740,#741,#742,#743));
#168=EDGE_LOOP('',(#744,#745,#746,#747));
#169=EDGE_LOOP('',(#748,#749,#750,#751,#752,#753,#754,#755));
#170=EDGE_LOOP('',(#756,#757,#758,#759,#760,#761,#762,#763));
#171=EDGE_LOOP('',(#764));
#172=EDGE_LOOP('',(#765,#766,#767,#768,#769,#770,#771,#772));
#173=EDGE_LOOP('',(#773));
#174=EDGE_LOOP('',(#774,#775,#776,#777));
#175=EDGE_LOOP('',(#778));
#176=EDGE_LOOP('',(#779));
#177=EDGE_LOOP('',(#780));
#178=EDGE_LOOP('',(#781));
#179=LINE('',#1167,#264);
#180=LINE('',#1172,#265);
#181=LINE('',#1174,#266);
#182=LINE('',#1176,#267);
#183=LINE('',#1177,#268);
#184=LINE('',#1181,#269);
#185=LINE('',#1183,#270);
#186=LINE('',#1185,#271);
#187=LINE('',#1186,#272);
#188=LINE('',#1189,#273);
#189=LINE('',#1191,#274);
#190=LINE('',#1193,#275);
#191=LINE('',#1195,#276);
#192=LINE('',#1197,#277);
#193=LINE('',#1199,#278);
#194=LINE('',#1200,#279);
#195=LINE('',#1203,#280);
#196=LINE('',#1205,#281);
#197=LINE('',#1206,#282);
#198=LINE('',#1211,#283);
#199=LINE('',#1213,#284);
#200=LINE('',#1215,#285);
#201=LINE('',#1217,#286);
#202=LINE('',#1218,#287);
#203=LINE('',#1222,#288);
#204=LINE('',#1224,#289);
#205=LINE('',#1225,#290);
#206=LINE('',#1227,#291);
#207=LINE('',#1228,#292);
#208=LINE('',#1231,#293);
#209=LINE('',#1233,#294);
#210=LINE('',#1234,#295);
#211=LINE('',#1239,#296);
#212=LINE('',#1241,#297);
#213=LINE('',#1242,#298);
#214=LINE('',#1248,#299);
#215=LINE('',#1250,#300);
#216=LINE('',#1252,#301);
#217=LINE('',#1253,#302);
#218=LINE('',#1257,#303);
#219=LINE('',#1259,#304);
#220=LINE('',#1261,#305);
#221=LINE('',#1262,#306);
#222=LINE('',#1265,#307);
#223=LINE('',#1266,#308);
#224=LINE('',#1267,#309);
#225=LINE('',#1270,#310);
#226=LINE('',#1272,#311);
#227=LINE('',#1274,#312);
#228=LINE('',#1276,#313);
#229=LINE('',#1277,#314);
#230=LINE('',#1279,#315);
#231=LINE('',#1280,#316);
#232=LINE('',#1285,#317);
#233=LINE('',#1286,#318);
#234=LINE('',#1287,#319);
#235=LINE('',#1290,#320);
#236=LINE('',#1293,#321);
#237=LINE('',#1297,#322);
#238=LINE('',#1301,#323);
#239=LINE('',#1303,#324);
#240=LINE('',#1304,#325);
#241=LINE('',#1305,#326);
#242=LINE('',#1308,#327);
#243=LINE('',#1309,#328);
#244=LINE('',#1311,#329);
#245=LINE('',#1313,#330);
#246=LINE('',#1315,#331);
#247=LINE('',#1316,#332);
#248=LINE('',#1327,#333);
#249=LINE('',#1330,#334);
#250=LINE('',#1335,#335);
#251=LINE('',#1342,#336);
#252=LINE('',#1349,#337);
#253=LINE('',#1356,#338);
#254=LINE('',#1363,#339);
#255=LINE('',#1370,#340);
#256=LINE('',#1374,#341);
#257=LINE('',#1378,#342);
#258=LINE('',#1382,#343);
#259=LINE('',#1385,#344);
#260=LINE('',#1387,#345);
#261=LINE('',#1388,#346);
#262=LINE('',#1390,#347);
#263=LINE('',#1392,#348);
#264=VECTOR('',#935,6.);
#265=VECTOR('',#940,10.);
#266=VECTOR('',#941,10.);
#267=VECTOR('',#942,10.);
#268=VECTOR('',#943,10.);
#269=VECTOR('',#946,10.);
#270=VECTOR('',#947,10.);
#271=VECTOR('',#948,10.);
#272=VECTOR('',#949,10.);
#273=VECTOR('',#952,10.);
#274=VECTOR('',#953,10.);
#275=VECTOR('',#954,10.);
#276=VECTOR('',#955,10.);
#277=VECTOR('',#956,10.);
#278=VECTOR('',#957,10.);
#279=VECTOR('',#958,10.);
#280=VECTOR('',#961,10.);
#281=VECTOR('',#962,10.);
#282=VECTOR('',#963,10.);
#283=VECTOR('',#968,10.);
#284=VECTOR('',#969,10.);
#285=VECTOR('',#970,10.);
#286=VECTOR('',#971,10.);
#287=VECTOR('',#972,10.);
#288=VECTOR('',#975,10.);
#289=VECTOR('',#976,10.);
#290=VECTOR('',#977,10.);
#291=VECTOR('',#978,10.);
#292=VECTOR('',#979,10.);
#293=VECTOR('',#982,10.);
#294=VECTOR('',#983,10.);
#295=VECTOR('',#984,10.);
#296=VECTOR('',#989,10.);
#297=VECTOR('',#990,10.);
#298=VECTOR('',#991,10.);
#299=VECTOR('',#996,10.);
#300=VECTOR('',#997,10.);
#301=VECTOR('',#998,10.);
#302=VECTOR('',#999,10.);
#303=VECTOR('',#1002,10.);
#304=VECTOR('',#1003,10.);
#305=VECTOR('',#1004,10.);
#306=VECTOR('',#1005,10.);
#307=VECTOR('',#1008,10.);
#308=VECTOR('',#1009,10.);
#309=VECTOR('',#1010,10.);
#310=VECTOR('',#1013,10.);
#311=VECTOR('',#1014,10.);
#312=VECTOR('',#1015,10.);
#313=VECTOR('',#1016,10.);
#314=VECTOR('',#1017,10.);
#315=VECTOR('',#1020,10.);
#316=VECTOR('',#1021,10.);
#317=VECTOR('',#1026,10.);
#318=VECTOR('',#1027,10.);
#319=VECTOR('',#1028,10.);
#320=VECTOR('',#1031,1.49999999999999);
#321=VECTOR('',#1036,10.);
#322=VECTOR('',#1041,1.49999999999999);
#323=VECTOR('',#1046,10.);
#324=VECTOR('',#1047,10.);
#325=VECTOR('',#1048,10.);
#326=VECTOR('',#1049,10.);
#327=VECTOR('',#1052,10.);
#328=VECTOR('',#1053,10.);
#329=VECTOR('',#1056,10.);
#330=VECTOR('',#1059,10.);
#331=VECTOR('',#1060,10.);
#332=VECTOR('',#1061,10.);
#333=VECTOR('',#1072,1.49999999999999);
#334=VECTOR('',#1077,10.);
#335=VECTOR('',#1084,1.49999999999999);
#336=VECTOR('',#1095,2.5);
#337=VECTOR('',#1104,2.5);
#338=VECTOR('',#1113,2.5);
#339=VECTOR('',#1122,2.5);
#340=VECTOR('',#1131,1.5);
#341=VECTOR('',#1136,1.5);
#342=VECTOR('',#1141,1.5);
#343=VECTOR('',#1146,1.5);
#344=VECTOR('',#1149,10.);
#345=VECTOR('',#1150,10.);
#346=VECTOR('',#1151,10.);
#347=VECTOR('',#1154,10.);
#348=VECTOR('',#1157,10.);
#349=CIRCLE('',#857,6.);
#350=CIRCLE('',#858,6.);
#351=CIRCLE('',#863,1.49999999999999);
#352=CIRCLE('',#867,1.49999999999999);
#353=CIRCLE('',#869,1.49999999999999);
#354=CIRCLE('',#875,1.49999999999999);
#355=CIRCLE('',#878,1.49999999999999);
#356=CIRCLE('',#882,1.49999999999999);
#357=CIRCLE('',#887,2.5);
#358=CIRCLE('',#888,2.5);
#359=CIRCLE('',#889,2.5);
#360=CIRCLE('',#890,2.5);
#361=CIRCLE('',#892,1.49999999999999);
#362=CIRCLE('',#897,1.49999999999999);
#363=CIRCLE('',#901,2.5);
#364=CIRCLE('',#903,1.5);
#365=CIRCLE('',#905,2.5);
#366=CIRCLE('',#907,1.5);
#367=CIRCLE('',#909,2.5);
#368=CIRCLE('',#911,1.5);
#369=CIRCLE('',#913,2.5);
#370=CIRCLE('',#915,1.5);
#371=CIRCLE('',#917,1.5);
#372=CIRCLE('',#919,1.5);
#373=CIRCLE('',#921,1.5);
#374=CIRCLE('',#923,1.5);
#375=VERTEX_POINT('',#1164);
#376=VERTEX_POINT('',#1166);
#377=VERTEX_POINT('',#1170);
#378=VERTEX_POINT('',#1171);
#379=VERTEX_POINT('',#1173);
#380=VERTEX_POINT('',#1175);
#381=VERTEX_POINT('',#1179);
#382=VERTEX_POINT('',#1180);
#383=VERTEX_POINT('',#1182);
#384=VERTEX_POINT('',#1184);
#385=VERTEX_POINT('',#1188);
#386=VERTEX_POINT('',#1190);
#387=VERTEX_POINT('',#1192);
#388=VERTEX_POINT('',#1194);
#389=VERTEX_POINT('',#1196);
#390=VERTEX_POINT('',#1198);
#391=VERTEX_POINT('',#1202);
#392=VERTEX_POINT('',#1204);
#393=VERTEX_POINT('',#1207);
#394=VERTEX_POINT('',#1210);
#395=VERTEX_POINT('',#1212);
#396=VERTEX_POINT('',#1214);
#397=VERTEX_POINT('',#1216);
#398=VERTEX_POINT('',#1220);
#399=VERTEX_POINT('',#1221);
#400=VERTEX_POINT('',#1223);
#401=VERTEX_POINT('',#1226);
#402=VERTEX_POINT('',#1230);
#403=VERTEX_POINT('',#1232);
#404=VERTEX_POINT('',#1235);
#405=VERTEX_POINT('',#1238);
#406=VERTEX_POINT('',#1240);
#407=VERTEX_POINT('',#1243);
#408=VERTEX_POINT('',#1246);
#409=VERTEX_POINT('',#1247);
#410=VERTEX_POINT('',#1249);
#411=VERTEX_POINT('',#1251);
#412=VERTEX_POINT('',#1255);
#413=VERTEX_POINT('',#1256);
#414=VERTEX_POINT('',#1258);
#415=VERTEX_POINT('',#1260);
#416=VERTEX_POINT('',#1264);
#417=VERTEX_POINT('',#1269);
#418=VERTEX_POINT('',#1271);
#419=VERTEX_POINT('',#1273);
#420=VERTEX_POINT('',#1275);
#421=VERTEX_POINT('',#1281);
#422=VERTEX_POINT('',#1284);
#423=VERTEX_POINT('',#1289);
#424=VERTEX_POINT('',#1296);
#425=VERTEX_POINT('',#1300);
#426=VERTEX_POINT('',#1302);
#427=VERTEX_POINT('',#1307);
#428=VERTEX_POINT('',#1314);
#429=VERTEX_POINT('',#1317);
#430=VERTEX_POINT('',#1319);
#431=VERTEX_POINT('',#1321);
#432=VERTEX_POINT('',#1323);
#433=VERTEX_POINT('',#1326);
#434=VERTEX_POINT('',#1334);
#435=VERTEX_POINT('',#1340);
#436=VERTEX_POINT('',#1344);
#437=VERTEX_POINT('',#1347);
#438=VERTEX_POINT('',#1351);
#439=VERTEX_POINT('',#1354);
#440=VERTEX_POINT('',#1358);
#441=VERTEX_POINT('',#1361);
#442=VERTEX_POINT('',#1365);
#443=VERTEX_POINT('',#1368);
#444=VERTEX_POINT('',#1372);
#445=VERTEX_POINT('',#1376);
#446=VERTEX_POINT('',#1380);
#447=VERTEX_POINT('',#1384);
#448=VERTEX_POINT('',#1386);
#449=EDGE_CURVE('',#375,#375,#349,.T.);
#450=EDGE_CURVE('',#375,#376,#179,.T.);
#451=EDGE_CURVE('',#376,#376,#350,.T.);
#452=EDGE_CURVE('',#377,#378,#180,.T.);
#453=EDGE_CURVE('',#379,#377,#181,.T.);
#454=EDGE_CURVE('',#380,#379,#182,.T.);
#455=EDGE_CURVE('',#380,#378,#183,.T.);
#456=EDGE_CURVE('',#381,#382,#184,.T.);
#457=EDGE_CURVE('',#383,#381,#185,.T.);
#458=EDGE_CURVE('',#384,#383,#186,.T.);
#459=EDGE_CURVE('',#384,#382,#187,.T.);
#460=EDGE_CURVE('',#385,#384,#188,.T.);
#461=EDGE_CURVE('',#383,#386,#189,.T.);
#462=EDGE_CURVE('',#387,#386,#190,.T.);
#463=EDGE_CURVE('',#388,#387,#191,.T.);
#464=EDGE_CURVE('',#388,#389,#192,.T.);
#465=EDGE_CURVE('',#389,#390,#193,.T.);
#466=EDGE_CURVE('',#385,#390,#194,.T.);
#467=EDGE_CURVE('',#386,#391,#195,.T.);
#468=EDGE_CURVE('',#391,#392,#196,.T.);
#469=EDGE_CURVE('',#392,#387,#197,.T.);
#470=EDGE_CURVE('',#393,#393,#351,.T.);
#471=EDGE_CURVE('',#394,#380,#198,.T.);
#472=EDGE_CURVE('',#395,#394,#199,.T.);
#473=EDGE_CURVE('',#395,#396,#200,.T.);
#474=EDGE_CURVE('',#397,#396,#201,.T.);
#475=EDGE_CURVE('',#378,#397,#202,.T.);
#476=EDGE_CURVE('',#398,#399,#203,.T.);
#477=EDGE_CURVE('',#400,#398,#204,.T.);
#478=EDGE_CURVE('',#379,#400,#205,.T.);
#479=EDGE_CURVE('',#401,#377,#206,.T.);
#480=EDGE_CURVE('',#399,#401,#207,.T.);
#481=EDGE_CURVE('',#401,#402,#208,.T.);
#482=EDGE_CURVE('',#402,#403,#209,.T.);
#483=EDGE_CURVE('',#403,#399,#210,.T.);
#484=EDGE_CURVE('',#404,#404,#352,.T.);
#485=EDGE_CURVE('',#396,#405,#211,.T.);
#486=EDGE_CURVE('',#405,#406,#212,.T.);
#487=EDGE_CURVE('',#406,#397,#213,.T.);
#488=EDGE_CURVE('',#407,#407,#353,.T.);
#489=EDGE_CURVE('',#408,#409,#214,.T.);
#490=EDGE_CURVE('',#410,#408,#215,.T.);
#491=EDGE_CURVE('',#411,#410,#216,.T.);
#492=EDGE_CURVE('',#411,#409,#217,.T.);
#493=EDGE_CURVE('',#412,#413,#218,.T.);
#494=EDGE_CURVE('',#414,#412,#219,.T.);
#495=EDGE_CURVE('',#415,#414,#220,.T.);
#496=EDGE_CURVE('',#415,#413,#221,.T.);
#497=EDGE_CURVE('',#416,#412,#222,.T.);
#498=EDGE_CURVE('',#398,#416,#223,.T.);
#499=EDGE_CURVE('',#414,#403,#224,.T.);
#500=EDGE_CURVE('',#417,#411,#225,.T.);
#501=EDGE_CURVE('',#418,#417,#226,.T.);
#502=EDGE_CURVE('',#418,#419,#227,.T.);
#503=EDGE_CURVE('',#420,#419,#228,.T.);
#504=EDGE_CURVE('',#409,#420,#229,.T.);
#505=EDGE_CURVE('',#419,#385,#230,.T.);
#506=EDGE_CURVE('',#390,#420,#231,.T.);
#507=EDGE_CURVE('',#421,#421,#354,.T.);
#508=EDGE_CURVE('',#422,#395,#232,.T.);
#509=EDGE_CURVE('',#410,#422,#233,.T.);
#510=EDGE_CURVE('',#405,#408,#234,.T.);
#511=EDGE_CURVE('',#407,#423,#235,.T.);
#512=EDGE_CURVE('',#423,#423,#355,.T.);
#513=EDGE_CURVE('',#417,#422,#236,.T.);
#514=EDGE_CURVE('',#393,#424,#237,.T.);
#515=EDGE_CURVE('',#424,#424,#356,.T.);
#516=EDGE_CURVE('',#425,#391,#238,.T.);
#517=EDGE_CURVE('',#426,#425,#239,.T.);
#518=EDGE_CURVE('',#413,#426,#240,.T.);
#519=EDGE_CURVE('',#392,#415,#241,.T.);
#520=EDGE_CURVE('',#427,#381,#242,.T.);
#521=EDGE_CURVE('',#425,#427,#243,.T.);
#522=EDGE_CURVE('',#416,#426,#244,.T.);
#523=EDGE_CURVE('',#394,#400,#245,.T.);
#524=EDGE_CURVE('',#427,#428,#246,.T.);
#525=EDGE_CURVE('',#428,#418,#247,.T.);
#526=EDGE_CURVE('',#429,#429,#357,.T.);
#527=EDGE_CURVE('',#430,#430,#358,.T.);
#528=EDGE_CURVE('',#431,#431,#359,.T.);
#529=EDGE_CURVE('',#432,#432,#360,.T.);
#530=EDGE_CURVE('',#421,#433,#248,.T.);
#531=EDGE_CURVE('',#433,#433,#361,.T.);
#532=EDGE_CURVE('',#382,#428,#249,.T.);
#533=EDGE_CURVE('',#404,#434,#250,.T.);
#534=EDGE_CURVE('',#434,#434,#362,.T.);
#535=EDGE_CURVE('',#435,#435,#363,.T.);
#536=EDGE_CURVE('',#435,#432,#251,.T.);
#537=EDGE_CURVE('',#436,#436,#364,.T.);
#538=EDGE_CURVE('',#437,#437,#365,.T.);
#539=EDGE_CURVE('',#437,#431,#252,.T.);
#540=EDGE_CURVE('',#438,#438,#366,.T.);
#541=EDGE_CURVE('',#439,#439,#367,.T.);
#542=EDGE_CURVE('',#439,#430,#253,.T.);
#543=EDGE_CURVE('',#440,#440,#368,.T.);
#544=EDGE_CURVE('',#441,#441,#369,.T.);
#545=EDGE_CURVE('',#441,#429,#254,.T.);
#546=EDGE_CURVE('',#442,#442,#370,.T.);
#547=EDGE_CURVE('',#443,#443,#371,.T.);
#548=EDGE_CURVE('',#443,#440,#255,.T.);
#549=EDGE_CURVE('',#444,#444,#372,.T.);
#550=EDGE_CURVE('',#444,#438,#256,.T.);
#551=EDGE_CURVE('',#445,#445,#373,.T.);
#552=EDGE_CURVE('',#445,#442,#257,.T.);
#553=EDGE_CURVE('',#446,#446,#374,.T.);
#554=EDGE_CURVE('',#446,#436,#258,.T.);
#555=EDGE_CURVE('',#447,#406,#259,.T.);
#556=EDGE_CURVE('',#447,#448,#260,.T.);
#557=EDGE_CURVE('',#448,#402,#261,.T.);
#558=EDGE_CURVE('',#389,#447,#262,.T.);
#559=EDGE_CURVE('',#448,#388,#263,.T.);
#560=ORIENTED_EDGE('',*,*,#449,.F.);
#561=ORIENTED_EDGE('',*,*,#450,.T.);
#562=ORIENTED_EDGE('',*,*,#451,.F.);
#563=ORIENTED_EDGE('',*,*,#450,.F.);
#564=ORIENTED_EDGE('',*,*,#452,.F.);
#565=ORIENTED_EDGE('',*,*,#453,.F.);
#566=ORIENTED_EDGE('',*,*,#454,.F.);
#567=ORIENTED_EDGE('',*,*,#455,.T.);
#568=ORIENTED_EDGE('',*,*,#456,.F.);
#569=ORIENTED_EDGE('',*,*,#457,.F.);
#570=ORIENTED_EDGE('',*,*,#458,.F.);
#571=ORIENTED_EDGE('',*,*,#459,.T.);
#572=ORIENTED_EDGE('',*,*,#460,.T.);
#573=ORIENTED_EDGE('',*,*,#458,.T.);
#574=ORIENTED_EDGE('',*,*,#461,.T.);
#575=ORIENTED_EDGE('',*,*,#462,.F.);
#576=ORIENTED_EDGE('',*,*,#463,.F.);
#577=ORIENTED_EDGE('',*,*,#464,.T.);
#578=ORIENTED_EDGE('',*,*,#465,.T.);
#579=ORIENTED_EDGE('',*,*,#466,.F.);
#580=ORIENTED_EDGE('',*,*,#467,.T.);
#581=ORIENTED_EDGE('',*,*,#468,.T.);
#582=ORIENTED_EDGE('',*,*,#469,.T.);
#583=ORIENTED_EDGE('',*,*,#462,.T.);
#584=ORIENTED_EDGE('',*,*,#470,.T.);
#585=ORIENTED_EDGE('',*,*,#471,.F.);
#586=ORIENTED_EDGE('',*,*,#472,.F.);
#587=ORIENTED_EDGE('',*,*,#473,.T.);
#588=ORIENTED_EDGE('',*,*,#474,.F.);
#589=ORIENTED_EDGE('',*,*,#475,.F.);
#590=ORIENTED_EDGE('',*,*,#455,.F.);
#591=ORIENTED_EDGE('',*,*,#476,.F.);
#592=ORIENTED_EDGE('',*,*,#477,.F.);
#593=ORIENTED_EDGE('',*,*,#478,.F.);
#594=ORIENTED_EDGE('',*,*,#453,.T.);
#595=ORIENTED_EDGE('',*,*,#479,.F.);
#596=ORIENTED_EDGE('',*,*,#480,.F.);
#597=ORIENTED_EDGE('',*,*,#480,.T.);
#598=ORIENTED_EDGE('',*,*,#481,.T.);
#599=ORIENTED_EDGE('',*,*,#482,.T.);
#600=ORIENTED_EDGE('',*,*,#483,.T.);
#601=ORIENTED_EDGE('',*,*,#484,.T.);
#602=ORIENTED_EDGE('',*,*,#474,.T.);
#603=ORIENTED_EDGE('',*,*,#485,.T.);
#604=ORIENTED_EDGE('',*,*,#486,.T.);
#605=ORIENTED_EDGE('',*,*,#487,.T.);
#606=ORIENTED_EDGE('',*,*,#488,.T.);
#607=ORIENTED_EDGE('',*,*,#489,.F.);
#608=ORIENTED_EDGE('',*,*,#490,.F.);
#609=ORIENTED_EDGE('',*,*,#491,.F.);
#610=ORIENTED_EDGE('',*,*,#492,.T.);
#611=ORIENTED_EDGE('',*,*,#493,.F.);
#612=ORIENTED_EDGE('',*,*,#494,.F.);
#613=ORIENTED_EDGE('',*,*,#495,.F.);
#614=ORIENTED_EDGE('',*,*,#496,.T.);
#615=ORIENTED_EDGE('',*,*,#497,.F.);
#616=ORIENTED_EDGE('',*,*,#498,.F.);
#617=ORIENTED_EDGE('',*,*,#476,.T.);
#618=ORIENTED_EDGE('',*,*,#483,.F.);
#619=ORIENTED_EDGE('',*,*,#499,.F.);
#620=ORIENTED_EDGE('',*,*,#494,.T.);
#621=ORIENTED_EDGE('',*,*,#500,.F.);
#622=ORIENTED_EDGE('',*,*,#501,.F.);
#623=ORIENTED_EDGE('',*,*,#502,.T.);
#624=ORIENTED_EDGE('',*,*,#503,.F.);
#625=ORIENTED_EDGE('',*,*,#504,.F.);
#626=ORIENTED_EDGE('',*,*,#492,.F.);
#627=ORIENTED_EDGE('',*,*,#505,.T.);
#628=ORIENTED_EDGE('',*,*,#466,.T.);
#629=ORIENTED_EDGE('',*,*,#506,.T.);
#630=ORIENTED_EDGE('',*,*,#503,.T.);
#631=ORIENTED_EDGE('',*,*,#507,.T.);
#632=ORIENTED_EDGE('',*,*,#473,.F.);
#633=ORIENTED_EDGE('',*,*,#508,.F.);
#634=ORIENTED_EDGE('',*,*,#509,.F.);
#635=ORIENTED_EDGE('',*,*,#490,.T.);
#636=ORIENTED_EDGE('',*,*,#510,.F.);
#637=ORIENTED_EDGE('',*,*,#485,.F.);
#638=ORIENTED_EDGE('',*,*,#488,.F.);
#639=ORIENTED_EDGE('',*,*,#511,.T.);
#640=ORIENTED_EDGE('',*,*,#512,.F.);
#641=ORIENTED_EDGE('',*,*,#511,.F.);
#642=ORIENTED_EDGE('',*,*,#491,.T.);
#643=ORIENTED_EDGE('',*,*,#509,.T.);
#644=ORIENTED_EDGE('',*,*,#513,.F.);
#645=ORIENTED_EDGE('',*,*,#500,.T.);
#646=ORIENTED_EDGE('',*,*,#451,.T.);
#647=ORIENTED_EDGE('',*,*,#512,.T.);
#648=ORIENTED_EDGE('',*,*,#470,.F.);
#649=ORIENTED_EDGE('',*,*,#514,.T.);
#650=ORIENTED_EDGE('',*,*,#515,.F.);
#651=ORIENTED_EDGE('',*,*,#514,.F.);
#652=ORIENTED_EDGE('',*,*,#516,.F.);
#653=ORIENTED_EDGE('',*,*,#517,.F.);
#654=ORIENTED_EDGE('',*,*,#518,.F.);
#655=ORIENTED_EDGE('',*,*,#496,.F.);
#656=ORIENTED_EDGE('',*,*,#519,.F.);
#657=ORIENTED_EDGE('',*,*,#468,.F.);
#658=ORIENTED_EDGE('',*,*,#520,.F.);
#659=ORIENTED_EDGE('',*,*,#521,.F.);
#660=ORIENTED_EDGE('',*,*,#516,.T.);
#661=ORIENTED_EDGE('',*,*,#467,.F.);
#662=ORIENTED_EDGE('',*,*,#461,.F.);
#663=ORIENTED_EDGE('',*,*,#457,.T.);
#664=ORIENTED_EDGE('',*,*,#493,.T.);
#665=ORIENTED_EDGE('',*,*,#518,.T.);
#666=ORIENTED_EDGE('',*,*,#522,.F.);
#667=ORIENTED_EDGE('',*,*,#497,.T.);
#668=ORIENTED_EDGE('',*,*,#472,.T.);
#669=ORIENTED_EDGE('',*,*,#523,.T.);
#670=ORIENTED_EDGE('',*,*,#477,.T.);
#671=ORIENTED_EDGE('',*,*,#498,.T.);
#672=ORIENTED_EDGE('',*,*,#522,.T.);
#673=ORIENTED_EDGE('',*,*,#517,.T.);
#674=ORIENTED_EDGE('',*,*,#521,.T.);
#675=ORIENTED_EDGE('',*,*,#524,.T.);
#676=ORIENTED_EDGE('',*,*,#525,.T.);
#677=ORIENTED_EDGE('',*,*,#501,.T.);
#678=ORIENTED_EDGE('',*,*,#513,.T.);
#679=ORIENTED_EDGE('',*,*,#508,.T.);
#680=ORIENTED_EDGE('',*,*,#526,.T.);
#681=ORIENTED_EDGE('',*,*,#527,.T.);
#682=ORIENTED_EDGE('',*,*,#528,.T.);
#683=ORIENTED_EDGE('',*,*,#529,.T.);
#684=ORIENTED_EDGE('',*,*,#507,.F.);
#685=ORIENTED_EDGE('',*,*,#530,.T.);
#686=ORIENTED_EDGE('',*,*,#531,.F.);
#687=ORIENTED_EDGE('',*,*,#530,.F.);
#688=ORIENTED_EDGE('',*,*,#502,.F.);
#689=ORIENTED_EDGE('',*,*,#525,.F.);
#690=ORIENTED_EDGE('',*,*,#532,.F.);
#691=ORIENTED_EDGE('',*,*,#459,.F.);
#692=ORIENTED_EDGE('',*,*,#460,.F.);
#693=ORIENTED_EDGE('',*,*,#505,.F.);
#694=ORIENTED_EDGE('',*,*,#456,.T.);
#695=ORIENTED_EDGE('',*,*,#532,.T.);
#696=ORIENTED_EDGE('',*,*,#524,.F.);
#697=ORIENTED_EDGE('',*,*,#520,.T.);
#698=ORIENTED_EDGE('',*,*,#515,.T.);
#699=ORIENTED_EDGE('',*,*,#484,.F.);
#700=ORIENTED_EDGE('',*,*,#533,.T.);
#701=ORIENTED_EDGE('',*,*,#534,.F.);
#702=ORIENTED_EDGE('',*,*,#533,.F.);
#703=ORIENTED_EDGE('',*,*,#454,.T.);
#704=ORIENTED_EDGE('',*,*,#478,.T.);
#705=ORIENTED_EDGE('',*,*,#523,.F.);
#706=ORIENTED_EDGE('',*,*,#471,.T.);
#707=ORIENTED_EDGE('',*,*,#531,.T.);
#708=ORIENTED_EDGE('',*,*,#535,.F.);
#709=ORIENTED_EDGE('',*,*,#536,.T.);
#710=ORIENTED_EDGE('',*,*,#529,.F.);
#711=ORIENTED_EDGE('',*,*,#536,.F.);
#712=ORIENTED_EDGE('',*,*,#535,.T.);
#713=ORIENTED_EDGE('',*,*,#537,.T.);
#714=ORIENTED_EDGE('',*,*,#538,.F.);
#715=ORIENTED_EDGE('',*,*,#539,.T.);
#716=ORIENTED_EDGE('',*,*,#528,.F.);
#717=ORIENTED_EDGE('',*,*,#539,.F.);
#718=ORIENTED_EDGE('',*,*,#538,.T.);
#719=ORIENTED_EDGE('',*,*,#540,.T.);
#720=ORIENTED_EDGE('',*,*,#541,.F.);
#721=ORIENTED_EDGE('',*,*,#542,.T.);
#722=ORIENTED_EDGE('',*,*,#527,.F.);
#723=ORIENTED_EDGE('',*,*,#542,.F.);
#724=ORIENTED_EDGE('',*,*,#541,.T.);
#725=ORIENTED_EDGE('',*,*,#543,.T.);
#726=ORIENTED_EDGE('',*,*,#544,.F.);
#727=ORIENTED_EDGE('',*,*,#545,.T.);
#728=ORIENTED_EDGE('',*,*,#526,.F.);
#729=ORIENTED_EDGE('',*,*,#545,.F.);
#730=ORIENTED_EDGE('',*,*,#544,.T.);
#731=ORIENTED_EDGE('',*,*,#546,.T.);
#732=ORIENTED_EDGE('',*,*,#547,.F.);
#733=ORIENTED_EDGE('',*,*,#548,.T.);
#734=ORIENTED_EDGE('',*,*,#543,.F.);
#735=ORIENTED_EDGE('',*,*,#548,.F.);
#736=ORIENTED_EDGE('',*,*,#549,.F.);
#737=ORIENTED_EDGE('',*,*,#550,.T.);
#738=ORIENTED_EDGE('',*,*,#540,.F.);
#739=ORIENTED_EDGE('',*,*,#550,.F.);
#740=ORIENTED_EDGE('',*,*,#551,.F.);
#741=ORIENTED_EDGE('',*,*,#552,.T.);
#742=ORIENTED_EDGE('',*,*,#546,.F.);
#743=ORIENTED_EDGE('',*,*,#552,.F.);
#744=ORIENTED_EDGE('',*,*,#553,.F.);
#745=ORIENTED_EDGE('',*,*,#554,.T.);
#746=ORIENTED_EDGE('',*,*,#537,.F.);
#747=ORIENTED_EDGE('',*,*,#554,.F.);
#748=ORIENTED_EDGE('',*,*,#475,.T.);
#749=ORIENTED_EDGE('',*,*,#487,.F.);
#750=ORIENTED_EDGE('',*,*,#555,.F.);
#751=ORIENTED_EDGE('',*,*,#556,.T.);
#752=ORIENTED_EDGE('',*,*,#557,.T.);
#753=ORIENTED_EDGE('',*,*,#481,.F.);
#754=ORIENTED_EDGE('',*,*,#479,.T.);
#755=ORIENTED_EDGE('',*,*,#452,.T.);
#756=ORIENTED_EDGE('',*,*,#504,.T.);
#757=ORIENTED_EDGE('',*,*,#506,.F.);
#758=ORIENTED_EDGE('',*,*,#465,.F.);
#759=ORIENTED_EDGE('',*,*,#558,.T.);
#760=ORIENTED_EDGE('',*,*,#555,.T.);
#761=ORIENTED_EDGE('',*,*,#486,.F.);
#762=ORIENTED_EDGE('',*,*,#510,.T.);
#763=ORIENTED_EDGE('',*,*,#489,.T.);
#764=ORIENTED_EDGE('',*,*,#449,.T.);
#765=ORIENTED_EDGE('',*,*,#499,.T.);
#766=ORIENTED_EDGE('',*,*,#482,.F.);
#767=ORIENTED_EDGE('',*,*,#557,.F.);
#768=ORIENTED_EDGE('',*,*,#559,.T.);
#769=ORIENTED_EDGE('',*,*,#463,.T.);
#770=ORIENTED_EDGE('',*,*,#469,.F.);
#771=ORIENTED_EDGE('',*,*,#519,.T.);
#772=ORIENTED_EDGE('',*,*,#495,.T.);
#773=ORIENTED_EDGE('',*,*,#534,.T.);
#774=ORIENTED_EDGE('',*,*,#559,.F.);
#775=ORIENTED_EDGE('',*,*,#556,.F.);
#776=ORIENTED_EDGE('',*,*,#558,.F.);
#777=ORIENTED_EDGE('',*,*,#464,.F.);
#778=ORIENTED_EDGE('',*,*,#547,.T.);
#779=ORIENTED_EDGE('',*,*,#549,.T.);
#780=ORIENTED_EDGE('',*,*,#551,.T.);
#781=ORIENTED_EDGE('',*,*,#553,.T.);
#782=CYLINDRICAL_SURFACE('',#856,6.);
#783=CYLINDRICAL_SURFACE('',#877,1.49999999999999);
#784=CYLINDRICAL_SURFACE('',#881,1.49999999999999);
#785=CYLINDRICAL_SURFACE('',#891,1.49999999999999);
#786=CYLINDRICAL_SURFACE('',#896,1.49999999999999);
#787=CYLINDRICAL_SURFACE('',#900,2.5);
#788=CYLINDRICAL_SURFACE('',#904,2.5);
#789=CYLINDRICAL_SURFACE('',#908,2.5);
#790=CYLINDRICAL_SURFACE('',#912,2.5);
#791=CYLINDRICAL_SURFACE('',#916,1.5);
#792=CYLINDRICAL_SURFACE('',#918,1.5);
#793=CYLINDRICAL_SURFACE('',#920,1.5);
#794=CYLINDRICAL_SURFACE('',#922,1.5);
#795=ADVANCED_FACE('',(#67),#782,.F.);
#796=ADVANCED_FACE('',(#68),#33,.F.);
#797=ADVANCED_FACE('',(#69),#34,.F.);
#798=ADVANCED_FACE('',(#70),#35,.T.);
#799=ADVANCED_FACE('',(#71,#15),#36,.T.);
#800=ADVANCED_FACE('',(#72),#37,.T.);
#801=ADVANCED_FACE('',(#73),#38,.T.);
#802=ADVANCED_FACE('',(#74,#16),#39,.T.);
#803=ADVANCED_FACE('',(#75,#17),#40,.T.);
#804=ADVANCED_FACE('',(#76),#41,.F.);
#805=ADVANCED_FACE('',(#77),#42,.F.);
#806=ADVANCED_FACE('',(#78),#43,.T.);
#807=ADVANCED_FACE('',(#79),#44,.T.);
#808=ADVANCED_FACE('',(#80,#18),#45,.T.);
#809=ADVANCED_FACE('',(#81),#46,.T.);
#810=ADVANCED_FACE('',(#82),#783,.F.);
#811=ADVANCED_FACE('',(#83,#19),#47,.T.);
#812=ADVANCED_FACE('',(#84),#48,.T.);
#813=ADVANCED_FACE('',(#85),#784,.F.);
#814=ADVANCED_FACE('',(#86),#49,.T.);
#815=ADVANCED_FACE('',(#87),#50,.T.);
#816=ADVANCED_FACE('',(#88),#51,.T.);
#817=ADVANCED_FACE('',(#89,#20,#21,#22,#23),#52,.T.);
#818=ADVANCED_FACE('',(#90),#785,.F.);
#819=ADVANCED_FACE('',(#91),#53,.T.);
#820=ADVANCED_FACE('',(#92),#54,.T.);
#821=ADVANCED_FACE('',(#93),#55,.T.);
#822=ADVANCED_FACE('',(#94),#786,.F.);
#823=ADVANCED_FACE('',(#95),#56,.T.);
#824=ADVANCED_FACE('',(#96),#57,.T.);
#825=ADVANCED_FACE('',(#97),#787,.T.);
#826=ADVANCED_FACE('',(#98,#24),#58,.T.);
#827=ADVANCED_FACE('',(#99),#788,.T.);
#828=ADVANCED_FACE('',(#100,#25),#59,.T.);
#829=ADVANCED_FACE('',(#101),#789,.T.);
#830=ADVANCED_FACE('',(#102,#26),#60,.T.);
#831=ADVANCED_FACE('',(#103),#790,.T.);
#832=ADVANCED_FACE('',(#104,#27),#61,.T.);
#833=ADVANCED_FACE('',(#105),#791,.F.);
#834=ADVANCED_FACE('',(#106),#792,.F.);
#835=ADVANCED_FACE('',(#107),#793,.F.);
#836=ADVANCED_FACE('',(#108),#794,.F.);
#837=ADVANCED_FACE('',(#109),#62,.T.);
#838=ADVANCED_FACE('',(#110,#28),#63,.T.);
#839=ADVANCED_FACE('',(#111),#64,.T.);
#840=ADVANCED_FACE('',(#112),#65,.T.);
#841=ADVANCED_FACE('',(#113,#29,#30,#31,#32),#66,.F.);
#842=CLOSED_SHELL('',(#795,#796,#797,#798,#799,#800,#801,#802,#803,#804,
#805,#806,#807,#808,#809,#810,#811,#812,#813,#814,#815,#816,#817,#818,#819,
#820,#821,#822,#823,#824,#825,#826,#827,#828,#829,#830,#831,#832,#833,#834,
#835,#836,#837,#838,#839,#840,#841));
#843=DERIVED_UNIT_ELEMENT(#845,1.);
#844=DERIVED_UNIT_ELEMENT(#1400,-3.);
#845=(
MASS_UNIT()
NAMED_UNIT(*)
SI_UNIT(.KILO.,.GRAM.)
);
#846=DERIVED_UNIT((#843,#844));
#847=MEASURE_REPRESENTATION_ITEM('density measure',
POSITIVE_RATIO_MEASURE(7850.),#846);
#848=PROPERTY_DEFINITION_REPRESENTATION(#853,#850);
#849=PROPERTY_DEFINITION_REPRESENTATION(#854,#851);
#850=REPRESENTATION('material name',(#852),#1397);
#851=REPRESENTATION('density',(#847),#1397);
#852=DESCRIPTIVE_REPRESENTATION_ITEM('Steel','Steel');
#853=PROPERTY_DEFINITION('material property','material name',#1407);
#854=PROPERTY_DEFINITION('material property','density of part',#1407);
#855=AXIS2_PLACEMENT_3D('',#1162,#929,#930);
#856=AXIS2_PLACEMENT_3D('',#1163,#931,#932);
#857=AXIS2_PLACEMENT_3D('',#1165,#933,#934);
#858=AXIS2_PLACEMENT_3D('',#1168,#936,#937);
#859=AXIS2_PLACEMENT_3D('',#1169,#938,#939);
#860=AXIS2_PLACEMENT_3D('',#1178,#944,#945);
#861=AXIS2_PLACEMENT_3D('',#1187,#950,#951);
#862=AXIS2_PLACEMENT_3D('',#1201,#959,#960);
#863=AXIS2_PLACEMENT_3D('',#1208,#964,#965);
#864=AXIS2_PLACEMENT_3D('',#1209,#966,#967);
#865=AXIS2_PLACEMENT_3D('',#1219,#973,#974);
#866=AXIS2_PLACEMENT_3D('',#1229,#980,#981);
#867=AXIS2_PLACEMENT_3D('',#1236,#985,#986);
#868=AXIS2_PLACEMENT_3D('',#1237,#987,#988);
#869=AXIS2_PLACEMENT_3D('',#1244,#992,#993);
#870=AXIS2_PLACEMENT_3D('',#1245,#994,#995);
#871=AXIS2_PLACEMENT_3D('',#1254,#1000,#1001);
#872=AXIS2_PLACEMENT_3D('',#1263,#1006,#1007);
#873=AXIS2_PLACEMENT_3D('',#1268,#1011,#1012);
#874=AXIS2_PLACEMENT_3D('',#1278,#1018,#1019);
#875=AXIS2_PLACEMENT_3D('',#1282,#1022,#1023);
#876=AXIS2_PLACEMENT_3D('',#1283,#1024,#1025);
#877=AXIS2_PLACEMENT_3D('',#1288,#1029,#1030);
#878=AXIS2_PLACEMENT_3D('',#1291,#1032,#1033);
#879=AXIS2_PLACEMENT_3D('',#1292,#1034,#1035);
#880=AXIS2_PLACEMENT_3D('',#1294,#1037,#1038);
#881=AXIS2_PLACEMENT_3D('',#1295,#1039,#1040);
#882=AXIS2_PLACEMENT_3D('',#1298,#1042,#1043);
#883=AXIS2_PLACEMENT_3D('',#1299,#1044,#1045);
#884=AXIS2_PLACEMENT_3D('',#1306,#1050,#1051);
#885=AXIS2_PLACEMENT_3D('',#1310,#1054,#1055);
#886=AXIS2_PLACEMENT_3D('',#1312,#1057,#1058);
#887=AXIS2_PLACEMENT_3D('',#1318,#1062,#1063);
#888=AXIS2_PLACEMENT_3D('',#1320,#1064,#1065);
#889=AXIS2_PLACEMENT_3D('',#1322,#1066,#1067);
#890=AXIS2_PLACEMENT_3D('',#1324,#1068,#1069);
#891=AXIS2_PLACEMENT_3D('',#1325,#1070,#1071);
#892=AXIS2_PLACEMENT_3D('',#1328,#1073,#1074);
#893=AXIS2_PLACEMENT_3D('',#1329,#1075,#1076);
#894=AXIS2_PLACEMENT_3D('',#1331,#1078,#1079);
#895=AXIS2_PLACEMENT_3D('',#1332,#1080,#1081);
#896=AXIS2_PLACEMENT_3D('',#1333,#1082,#1083);
#897=AXIS2_PLACEMENT_3D('',#1336,#1085,#1086);
#898=AXIS2_PLACEMENT_3D('',#1337,#1087,#1088);
#899=AXIS2_PLACEMENT_3D('',#1338,#1089,#1090);
#900=AXIS2_PLACEMENT_3D('',#1339,#1091,#1092);
#901=AXIS2_PLACEMENT_3D('',#1341,#1093,#1094);
#902=AXIS2_PLACEMENT_3D('',#1343,#1096,#1097);
#903=AXIS2_PLACEMENT_3D('',#1345,#1098,#1099);
#904=AXIS2_PLACEMENT_3D('',#1346,#1100,#1101);
#905=AXIS2_PLACEMENT_3D('',#1348,#1102,#1103);
#906=AXIS2_PLACEMENT_3D('',#1350,#1105,#1106);
#907=AXIS2_PLACEMENT_3D('',#1352,#1107,#1108);
#908=AXIS2_PLACEMENT_3D('',#1353,#1109,#1110);
#909=AXIS2_PLACEMENT_3D('',#1355,#1111,#1112);
#910=AXIS2_PLACEMENT_3D('',#1357,#1114,#1115);
#911=AXIS2_PLACEMENT_3D('',#1359,#1116,#1117);
#912=AXIS2_PLACEMENT_3D('',#1360,#1118,#1119);
#913=AXIS2_PLACEMENT_3D('',#1362,#1120,#1121);
#914=AXIS2_PLACEMENT_3D('',#1364,#1123,#1124);
#915=AXIS2_PLACEMENT_3D('',#1366,#1125,#1126);
#916=AXIS2_PLACEMENT_3D('',#1367,#1127,#1128);
#917=AXIS2_PLACEMENT_3D('',#1369,#1129,#1130);
#918=AXIS2_PLACEMENT_3D('',#1371,#1132,#1133);
#919=AXIS2_PLACEMENT_3D('',#1373,#1134,#1135);
#920=AXIS2_PLACEMENT_3D('',#1375,#1137,#1138);
#921=AXIS2_PLACEMENT_3D('',#1377,#1139,#1140);
#922=AXIS2_PLACEMENT_3D('',#1379,#1142,#1143);
#923=AXIS2_PLACEMENT_3D('',#1381,#1144,#1145);
#924=AXIS2_PLACEMENT_3D('',#1383,#1147,#1148);
#925=AXIS2_PLACEMENT_3D('',#1389,#1152,#1153);
#926=AXIS2_PLACEMENT_3D('',#1391,#1155,#1156);
#927=AXIS2_PLACEMENT_3D('',#1393,#1158,#1159);
#928=AXIS2_PLACEMENT_3D('',#1394,#1160,#1161);
#929=DIRECTION('axis',(0.,0.,1.));
#930=DIRECTION('refdir',(1.,0.,0.));
#931=DIRECTION('center_axis',(-1.,0.,0.));
#932=DIRECTION('ref_axis',(0.,1.,0.));
#933=DIRECTION('center_axis',(-1.,0.,0.));
#934=DIRECTION('ref_axis',(0.,1.,0.));
#935=DIRECTION('',(-1.,0.,0.));
#936=DIRECTION('center_axis',(1.,0.,0.));
#937=DIRECTION('ref_axis',(0.,1.,0.));
#938=DIRECTION('center_axis',(0.,0.,-1.));
#939=DIRECTION('ref_axis',(-1.,0.,0.));
#940=DIRECTION('',(1.,0.,0.));
#941=DIRECTION('',(0.,1.,0.));
#942=DIRECTION('',(-1.,0.,0.));
#943=DIRECTION('',(0.,1.,0.));
#944=DIRECTION('center_axis',(0.,0.,-1.));
#945=DIRECTION('ref_axis',(-1.,0.,0.));
#946=DIRECTION('',(1.,0.,0.));
#947=DIRECTION('',(0.,1.,0.));
#948=DIRECTION('',(-1.,0.,0.));
#949=DIRECTION('',(0.,1.,0.));
#950=DIRECTION('center_axis',(0.,-1.,0.));
#951=DIRECTION('ref_axis',(1.,0.,0.));
#952=DIRECTION('',(0.,0.,-1.));
#953=DIRECTION('',(0.,0.,1.));
#954=DIRECTION('',(1.,0.,0.));
#955=DIRECTION('',(0.,0.,1.));
#956=DIRECTION('',(1.,0.,0.));
#957=DIRECTION('',(0.,0.,1.));
#958=DIRECTION('',(1.,0.,0.));
#959=DIRECTION('center_axis',(0.,0.,1.));
#960=DIRECTION('ref_axis',(1.,0.,0.));
#961=DIRECTION('',(0.,1.,0.));
#962=DIRECTION('',(-1.,0.,0.));
#963=DIRECTION('',(0.,-1.,0.));
#964=DIRECTION('center_axis',(0.,0.,-1.));
#965=DIRECTION('ref_axis',(-1.,0.,0.));
#966=DIRECTION('center_axis',(-1.,0.,0.));
#967=DIRECTION('ref_axis',(0.,-1.,0.));
#968=DIRECTION('',(0.,0.,1.));
#969=DIRECTION('',(0.,1.,0.));
#970=DIRECTION('',(0.,0.,1.));
#971=DIRECTION('',(0.,-1.,0.));
#972=DIRECTION('',(0.,0.,1.));
#973=DIRECTION('center_axis',(1.,0.,0.));
#974=DIRECTION('ref_axis',(0.,1.,0.));
#975=DIRECTION('',(0.,0.,1.));
#976=DIRECTION('',(0.,-1.,0.));
#977=DIRECTION('',(0.,0.,-1.));
#978=DIRECTION('',(0.,0.,-1.));
#979=DIRECTION('',(0.,1.,0.));
#980=DIRECTION('center_axis',(0.,0.,1.));
#981=DIRECTION('ref_axis',(1.,0.,0.));
#982=DIRECTION('',(-1.,0.,0.));
#983=DIRECTION('',(0.,-1.,0.));
#984=DIRECTION('',(1.,0.,0.));
#985=DIRECTION('center_axis',(0.,0.,-1.));
#986=DIRECTION('ref_axis',(-1.,0.,0.));
#987=DIRECTION('center_axis',(0.,0.,1.));
#988=DIRECTION('ref_axis',(1.,0.,0.));
#989=DIRECTION('',(1.,0.,0.));
#990=DIRECTION('',(0.,1.,0.));
#991=DIRECTION('',(-1.,0.,0.));
#992=DIRECTION('center_axis',(0.,0.,-1.));
#993=DIRECTION('ref_axis',(-1.,0.,0.));
#994=DIRECTION('center_axis',(0.,2.11471049158389E-16,-1.));
#995=DIRECTION('ref_axis',(0.,1.,2.11471049158389E-16));
#996=DIRECTION('',(0.,-1.,-2.11471049158389E-16));
#997=DIRECTION('',(1.,0.,0.));
#998=DIRECTION('',(0.,1.,2.11471049158389E-16));
#999=DIRECTION('',(1.,0.,0.));
#1000=DIRECTION('center_axis',(0.,2.11471049158389E-16,-1.));
#1001=DIRECTION('ref_axis',(0.,1.,2.11471049158389E-16));
#1002=DIRECTION('',(0.,-1.,-2.11471049158389E-16));
#1003=DIRECTION('',(1.,0.,0.));
#1004=DIRECTION('',(0.,1.,2.11471049158389E-16));
#1005=DIRECTION('',(1.,0.,0.));
#1006=DIRECTION('center_axis',(0.,-1.,0.));
#1007=DIRECTION('ref_axis',(1.,0.,0.));
#1008=DIRECTION('',(0.,0.,1.));
#1009=DIRECTION('',(-1.,0.,0.));
#1010=DIRECTION('',(0.,0.,1.));
#1011=DIRECTION('center_axis',(0.,1.,0.));
#1012=DIRECTION('ref_axis',(-1.,0.,0.));
#1013=DIRECTION('',(0.,0.,1.));
#1014=DIRECTION('',(1.,0.,0.));
#1015=DIRECTION('',(0.,0.,1.));
#1016=DIRECTION('',(-1.,0.,0.));
#1017=DIRECTION('',(0.,0.,1.));
#1018=DIRECTION('center_axis',(0.,0.,1.));
#1019=DIRECTION('ref_axis',(1.,0.,0.));
#1020=DIRECTION('',(0.,-1.,0.));
#1021=DIRECTION('',(0.,1.,0.));
#1022=DIRECTION('center_axis',(0.,0.,-1.));
#1023=DIRECTION('ref_axis',(-1.,0.,0.));
#1024=DIRECTION('center_axis',(0.,-1.,0.));
#1025=DIRECTION('ref_axis',(1.,0.,0.));
#1026=DIRECTION('',(-1.,0.,0.));
#1027=DIRECTION('',(0.,0.,-1.));
#1028=DIRECTION('',(0.,0.,-1.));
#1029=DIRECTION('center_axis',(0.,0.,1.));
#1030=DIRECTION('ref_axis',(-1.,0.,0.));
#1031=DIRECTION('',(0.,0.,-1.));
#1032=DIRECTION('center_axis',(0.,0.,1.));
#1033=DIRECTION('ref_axis',(-1.,0.,0.));
#1034=DIRECTION('center_axis',(-1.,0.,0.));
#1035=DIRECTION('ref_axis',(0.,-1.,0.));
#1036=DIRECTION('',(0.,1.,0.));
#1037=DIRECTION('center_axis',(0.,0.,1.));
#1038=DIRECTION('ref_axis',(1.,0.,0.));
#1039=DIRECTION('center_axis',(0.,0.,1.));
#1040=DIRECTION('ref_axis',(-1.,0.,0.));
#1041=DIRECTION('',(0.,0.,-1.));
#1042=DIRECTION('center_axis',(0.,0.,1.));
#1043=DIRECTION('ref_axis',(-1.,0.,0.));
#1044=DIRECTION('center_axis',(0.,1.,0.));
#1045=DIRECTION('ref_axis',(-1.,0.,0.));
#1046=DIRECTION('',(0.,0.,1.));
#1047=DIRECTION('',(1.,0.,0.));
#1048=DIRECTION('',(0.,0.,-1.));
#1049=DIRECTION('',(0.,0.,-1.));
#1050=DIRECTION('center_axis',(1.,0.,0.));
#1051=DIRECTION('ref_axis',(0.,1.,0.));
#1052=DIRECTION('',(0.,0.,1.));
#1053=DIRECTION('',(0.,-1.,0.));
#1054=DIRECTION('center_axis',(1.,0.,0.));
#1055=DIRECTION('ref_axis',(0.,1.,0.));
#1056=DIRECTION('',(0.,-1.,0.));
#1057=DIRECTION('center_axis',(0.,0.,1.));
#1058=DIRECTION('ref_axis',(1.,0.,0.));
#1059=DIRECTION('',(-1.,0.,0.));
#1060=DIRECTION('',(1.,0.,0.));
#1061=DIRECTION('',(0.,1.,0.));
#1062=DIRECTION('center_axis',(0.,0.,-1.));
#1063=DIRECTION('ref_axis',(-1.,0.,0.));
#1064=DIRECTION('center_axis',(0.,0.,-1.));
#1065=DIRECTION('ref_axis',(-1.,0.,0.));
#1066=DIRECTION('center_axis',(0.,0.,-1.));
#1067=DIRECTION('ref_axis',(-1.,0.,0.));
#1068=DIRECTION('center_axis',(0.,0.,-1.));
#1069=DIRECTION('ref_axis',(-1.,0.,0.));
#1070=DIRECTION('center_axis',(0.,0.,1.));
#1071=DIRECTION('ref_axis',(-1.,0.,0.));
#1072=DIRECTION('',(0.,0.,-1.));
#1073=DIRECTION('center_axis',(0.,0.,1.));
#1074=DIRECTION('ref_axis',(-1.,0.,0.));
#1075=DIRECTION('center_axis',(-1.,0.,0.));
#1076=DIRECTION('ref_axis',(0.,-1.,0.));
#1077=DIRECTION('',(0.,0.,-1.));
#1078=DIRECTION('center_axis',(0.,1.,0.));
#1079=DIRECTION('ref_axis',(-1.,0.,0.));
#1080=DIRECTION('center_axis',(0.,0.,1.));
#1081=DIRECTION('ref_axis',(1.,0.,0.));
#1082=DIRECTION('center_axis',(0.,0.,1.));
#1083=DIRECTION('ref_axis',(-1.,0.,0.));
#1084=DIRECTION('',(0.,0.,-1.));
#1085=DIRECTION('center_axis',(0.,0.,1.));
#1086=DIRECTION('ref_axis',(-1.,0.,0.));
#1087=DIRECTION('center_axis',(0.,-1.,0.));
#1088=DIRECTION('ref_axis',(1.,0.,0.));
#1089=DIRECTION('center_axis',(0.,0.,1.));
#1090=DIRECTION('ref_axis',(1.,0.,0.));
#1091=DIRECTION('center_axis',(0.,0.,1.));
#1092=DIRECTION('ref_axis',(-1.,0.,0.));
#1093=DIRECTION('center_axis',(0.,0.,1.));
#1094=DIRECTION('ref_axis',(-1.,0.,0.));
#1095=DIRECTION('',(0.,0.,-1.));
#1096=DIRECTION('center_axis',(0.,0.,1.));
#1097=DIRECTION('ref_axis',(-1.,0.,0.));
#1098=DIRECTION('center_axis',(0.,0.,-1.));
#1099=DIRECTION('ref_axis',(-1.,0.,0.));
#1100=DIRECTION('center_axis',(0.,0.,1.));
#1101=DIRECTION('ref_axis',(-1.,0.,0.));
#1102=DIRECTION('center_axis',(0.,0.,1.));
#1103=DIRECTION('ref_axis',(-1.,0.,0.));
#1104=DIRECTION('',(0.,0.,-1.));
#1105=DIRECTION('center_axis',(0.,0.,1.));
#1106=DIRECTION('ref_axis',(-1.,0.,0.));
#1107=DIRECTION('center_axis',(0.,0.,-1.));
#1108=DIRECTION('ref_axis',(-1.,0.,0.));
#1109=DIRECTION('center_axis',(0.,0.,1.));
#1110=DIRECTION('ref_axis',(-1.,0.,0.));
#1111=DIRECTION('center_axis',(0.,0.,1.));
#1112=DIRECTION('ref_axis',(-1.,0.,0.));
#1113=DIRECTION('',(0.,0.,-1.));
#1114=DIRECTION('center_axis',(0.,0.,1.));
#1115=DIRECTION('ref_axis',(-1.,0.,0.));
#1116=DIRECTION('center_axis',(0.,0.,-1.));
#1117=DIRECTION('ref_axis',(-1.,0.,0.));
#1118=DIRECTION('center_axis',(0.,0.,1.));
#1119=DIRECTION('ref_axis',(-1.,0.,0.));
#1120=DIRECTION('center_axis',(0.,0.,1.));
#1121=DIRECTION('ref_axis',(-1.,0.,0.));
#1122=DIRECTION('',(0.,0.,-1.));
#1123=DIRECTION('center_axis',(0.,0.,1.));
#1124=DIRECTION('ref_axis',(-1.,0.,0.));
#1125=DIRECTION('center_axis',(0.,0.,-1.));
#1126=DIRECTION('ref_axis',(-1.,0.,0.));
#1127=DIRECTION('center_axis',(0.,0.,1.));
#1128=DIRECTION('ref_axis',(1.,0.,0.));
#1129=DIRECTION('center_axis',(0.,0.,1.));
#1130=DIRECTION('ref_axis',(1.,0.,0.));
#1131=DIRECTION('',(0.,0.,1.));
#1132=DIRECTION('center_axis',(0.,0.,1.));
#1133=DIRECTION('ref_axis',(1.,0.,0.));
#1134=DIRECTION('center_axis',(0.,0.,1.));
#1135=DIRECTION('ref_axis',(1.,0.,0.));
#1136=DIRECTION('',(0.,0.,1.));
#1137=DIRECTION('center_axis',(0.,0.,1.));
#1138=DIRECTION('ref_axis',(1.,0.,0.));
#1139=DIRECTION('center_axis',(0.,0.,1.));
#1140=DIRECTION('ref_axis',(1.,0.,0.));
#1141=DIRECTION('',(0.,0.,1.));
#1142=DIRECTION('center_axis',(0.,0.,1.));
#1143=DIRECTION('ref_axis',(1.,0.,0.));
#1144=DIRECTION('center_axis',(0.,0.,1.));
#1145=DIRECTION('ref_axis',(1.,0.,0.));
#1146=DIRECTION('',(0.,0.,1.));
#1147=DIRECTION('center_axis',(0.,1.,0.));
#1148=DIRECTION('ref_axis',(-1.,0.,0.));
#1149=DIRECTION('',(0.,0.,1.));
#1150=DIRECTION('',(-1.,0.,0.));
#1151=DIRECTION('',(0.,0.,1.));
#1152=DIRECTION('center_axis',(1.,0.,0.));
#1153=DIRECTION('ref_axis',(0.,1.,0.));
#1154=DIRECTION('',(0.,1.,0.));
#1155=DIRECTION('center_axis',(-1.,0.,0.));
#1156=DIRECTION('ref_axis',(0.,-1.,0.));
#1157=DIRECTION('',(0.,-1.,0.));
#1158=DIRECTION('center_axis',(0.,0.,1.));
#1159=DIRECTION('ref_axis',(1.,0.,0.));
#1160=DIRECTION('center_axis',(0.,0.,1.));
#1161=DIRECTION('ref_axis',(1.,0.,0.));
#1162=CARTESIAN_POINT('',(0.,0.,0.));
#1163=CARTESIAN_POINT('Origin',(59.169,0.,15.));
#1164=CARTESIAN_POINT('',(59.169,-6.,15.));
#1165=CARTESIAN_POINT('Origin',(59.169,0.,15.));
#1166=CARTESIAN_POINT('',(57.669,-6.,15.));
#1167=CARTESIAN_POINT('',(59.169,-6.,15.));
#1168=CARTESIAN_POINT('Origin',(57.669,0.,15.));
#1169=CARTESIAN_POINT('Origin',(53.5,-26.5,23.5));
#1170=CARTESIAN_POINT('',(-53.5,26.5,23.5));
#1171=CARTESIAN_POINT('',(53.5,26.5,23.5));
#1172=CARTESIAN_POINT('',(56.3345,26.5,23.5));
#1173=CARTESIAN_POINT('',(-53.5000007972121,25.,23.5));
#1174=CARTESIAN_POINT('',(-53.5,-26.5,23.5));
#1175=CARTESIAN_POINT('',(53.5000007972121,25.,23.5));
#1176=CARTESIAN_POINT('',(-2.0845,25.,23.5));
#1177=CARTESIAN_POINT('',(53.5,-26.5,23.5));
#1178=CARTESIAN_POINT('Origin',(53.5,-26.5,23.5));
#1179=CARTESIAN_POINT('',(-53.5000007972121,-25.,23.5));
#1180=CARTESIAN_POINT('',(53.5000007972121,-25.,23.5));
#1181=CARTESIAN_POINT('',(55.5845,-25.,23.5));
#1182=CARTESIAN_POINT('',(-53.5,-26.5,23.5));
#1183=CARTESIAN_POINT('',(-53.5,-26.5,23.5));
#1184=CARTESIAN_POINT('',(53.5,-26.5,23.5));
#1185=CARTESIAN_POINT('',(-2.8345,-26.5,23.5));
#1186=CARTESIAN_POINT('',(53.5,-26.5,23.5));
#1187=CARTESIAN_POINT('Origin',(-59.169,-26.5,0.));
#1188=CARTESIAN_POINT('',(53.5,-26.5,30.));
#1189=CARTESIAN_POINT('',(53.5,-26.5,15.));
#1190=CARTESIAN_POINT('',(-53.5,-26.5,30.));
#1191=CARTESIAN_POINT('',(-53.5,-26.5,11.75));
#1192=CARTESIAN_POINT('',(-59.169,-26.5,30.));
#1193=CARTESIAN_POINT('',(59.169,-26.5,30.));
#1194=CARTESIAN_POINT('',(-59.169,-26.5,0.));
#1195=CARTESIAN_POINT('',(-59.169,-26.5,0.));
#1196=CARTESIAN_POINT('',(59.169,-26.5,0.));
#1197=CARTESIAN_POINT('',(-59.169,-26.5,0.));
#1198=CARTESIAN_POINT('',(59.169,-26.5,30.));
#1199=CARTESIAN_POINT('',(59.169,-26.5,0.));
#1200=CARTESIAN_POINT('',(59.169,-26.5,30.));
#1201=CARTESIAN_POINT('Origin',(0.,0.,30.));
#1202=CARTESIAN_POINT('',(-53.5000007972121,-21.0000003129244,30.));
#1203=CARTESIAN_POINT('',(-53.5000007972121,-21.0000003129244,30.));
#1204=CARTESIAN_POINT('',(-59.169,-21.0000003129244,30.0000004470348));
#1205=CARTESIAN_POINT('',(-29.5845,-21.0000003129244,30.));
#1206=CARTESIAN_POINT('',(-59.169,-26.5,30.));
#1207=CARTESIAN_POINT('',(-54.169,-23.0000003427267,30.));
#1208=CARTESIAN_POINT('Origin',(-55.669,-23.0000003427267,30.));
#1209=CARTESIAN_POINT('Origin',(53.5000007972121,25.,3.));
#1210=CARTESIAN_POINT('',(53.5000007972121,25.,3.));
#1211=CARTESIAN_POINT('',(53.5000007972121,25.,3.));
#1212=CARTESIAN_POINT('',(53.5000007972121,21.0000003129244,3.));
#1213=CARTESIAN_POINT('',(53.5000007972121,12.5,3.));
#1214=CARTESIAN_POINT('',(53.5000007972121,21.0000003129244,30.));
#1215=CARTESIAN_POINT('',(53.5000007972121,21.0000003129244,3.));
#1216=CARTESIAN_POINT('',(53.5,26.5,30.));
#1217=CARTESIAN_POINT('',(53.5000007972121,21.0000003129244,30.));
#1218=CARTESIAN_POINT('',(53.5,26.5,15.));
#1219=CARTESIAN_POINT('Origin',(-53.5000007972121,21.0000003129244,3.));
#1220=CARTESIAN_POINT('',(-53.5000007972121,21.0000003129244,3.));
#1221=CARTESIAN_POINT('',(-53.5000007972121,21.0000003129244,30.));
#1222=CARTESIAN_POINT('',(-53.5000007972121,21.0000003129244,3.));
#1223=CARTESIAN_POINT('',(-53.5000007972121,25.,3.));
#1224=CARTESIAN_POINT('',(-53.5000007972121,10.5000001564622,3.));
#1225=CARTESIAN_POINT('',(-53.5000007972121,25.,3.));
#1226=CARTESIAN_POINT('',(-53.5,26.5,30.));
#1227=CARTESIAN_POINT('',(-53.5,26.5,11.75));
#1228=CARTESIAN_POINT('',(-53.5,-13.25,30.));
#1229=CARTESIAN_POINT('Origin',(0.,0.,30.));
#1230=CARTESIAN_POINT('',(-59.169,26.5,30.));
#1231=CARTESIAN_POINT('',(-59.169,26.5,30.));
#1232=CARTESIAN_POINT('',(-59.169,21.0000003129244,30.0000004470348));
#1233=CARTESIAN_POINT('',(-59.169,-26.5,30.));
#1234=CARTESIAN_POINT('',(-57.669,21.0000003129244,30.));
#1235=CARTESIAN_POINT('',(-54.169,23.0000003427267,30.));
#1236=CARTESIAN_POINT('Origin',(-55.669,23.0000003427267,30.));
#1237=CARTESIAN_POINT('Origin',(0.,0.,30.));
#1238=CARTESIAN_POINT('',(59.169,21.0000003129244,30.0000004470348));
#1239=CARTESIAN_POINT('',(-29.5845,21.0000003129244,30.));
#1240=CARTESIAN_POINT('',(59.169,26.5,30.));
#1241=CARTESIAN_POINT('',(59.169,26.5,30.));
#1242=CARTESIAN_POINT('',(-59.169,26.5,30.));
#1243=CARTESIAN_POINT('',(57.169,23.0000003427267,30.));
#1244=CARTESIAN_POINT('Origin',(55.669,23.0000003427267,30.));
#1245=CARTESIAN_POINT('Origin',(-59.169,-21.0000003129244,23.5000004470348));
#1246=CARTESIAN_POINT('',(59.169,21.0000003129244,23.5000004470348));
#1247=CARTESIAN_POINT('',(59.169,-21.0000003129244,23.5000004470348));
#1248=CARTESIAN_POINT('',(59.169,-23.7500001564622,23.5000004470348));
#1249=CARTESIAN_POINT('',(57.669,21.0000003129244,23.5000004470348));
#1250=CARTESIAN_POINT('',(-59.169,21.0000003129244,23.5000004470348));
#1251=CARTESIAN_POINT('',(57.669,-21.0000003129244,23.5000004470348));
#1252=CARTESIAN_POINT('',(57.669,1.99999984353781,23.5000004470348));
#1253=CARTESIAN_POINT('',(-59.169,-21.0000003129244,23.5000004470348));
#1254=CARTESIAN_POINT('Origin',(-59.169,-21.0000003129244,23.5000004470348));
#1255=CARTESIAN_POINT('',(-57.669,21.0000003129244,23.5000004470348));
#1256=CARTESIAN_POINT('',(-57.669,-21.0000003129244,23.5000004470348));
#1257=CARTESIAN_POINT('',(-57.669,-23.0000001564622,23.5000004470348));
#1258=CARTESIAN_POINT('',(-59.169,21.0000003129244,23.5000004470348));
#1259=CARTESIAN_POINT('',(-59.169,21.0000003129244,23.5000004470348));
#1260=CARTESIAN_POINT('',(-59.169,-21.0000003129244,23.5000004470348));
#1261=CARTESIAN_POINT('',(-59.169,2.74999984353781,23.5000004470348));
#1262=CARTESIAN_POINT('',(-59.169,-21.0000003129244,23.5000004470348));
#1263=CARTESIAN_POINT('Origin',(-57.669,21.0000003129244,3.));
#1264=CARTESIAN_POINT('',(-57.669,21.0000003129244,3.));
#1265=CARTESIAN_POINT('',(-57.669,21.0000003129244,3.));
#1266=CARTESIAN_POINT('',(-28.8345,21.0000003129244,3.));
#1267=CARTESIAN_POINT('',(-59.169,21.0000003129244,11.7500002235174));
#1268=CARTESIAN_POINT('Origin',(57.669,-21.0000003129244,3.));
#1269=CARTESIAN_POINT('',(57.669,-21.0000003129244,3.));
#1270=CARTESIAN_POINT('',(57.669,-21.0000003129244,3.));
#1271=CARTESIAN_POINT('',(53.5000007972121,-21.0000003129244,3.));
#1272=CARTESIAN_POINT('',(28.8345,-21.0000003129244,3.));
#1273=CARTESIAN_POINT('',(53.5000007972121,-21.0000003129244,30.));
#1274=CARTESIAN_POINT('',(53.5000007972121,-21.0000003129244,3.));
#1275=CARTESIAN_POINT('',(59.169,-21.0000003129244,30.));
#1276=CARTESIAN_POINT('',(57.669,-21.0000003129244,30.));
#1277=CARTESIAN_POINT('',(59.169,-21.0000003129244,15.0000002235174));
#1278=CARTESIAN_POINT('Origin',(0.,0.,30.));
#1279=CARTESIAN_POINT('',(53.5,-13.25,30.));
#1280=CARTESIAN_POINT('',(59.169,26.5,30.));
#1281=CARTESIAN_POINT('',(57.169,-23.0000003427267,30.));
#1282=CARTESIAN_POINT('Origin',(55.669,-23.0000003427267,30.));
#1283=CARTESIAN_POINT('Origin',(53.5000007972121,21.0000003129244,3.));
#1284=CARTESIAN_POINT('',(57.669,21.0000003129244,3.));
#1285=CARTESIAN_POINT('',(26.7500003986061,21.0000003129244,3.));
#1286=CARTESIAN_POINT('',(57.669,21.0000003129244,3.));
#1287=CARTESIAN_POINT('',(59.169,21.0000003129244,11.7500002235174));
#1288=CARTESIAN_POINT('Origin',(55.669,23.0000003427267,3.));
#1289=CARTESIAN_POINT('',(57.169,23.0000003427267,3.));
#1290=CARTESIAN_POINT('',(57.169,23.0000003427267,3.));
#1291=CARTESIAN_POINT('Origin',(55.669,23.0000003427267,3.));
#1292=CARTESIAN_POINT('Origin',(57.669,25.,3.));
#1293=CARTESIAN_POINT('',(57.669,12.5,3.));
#1294=CARTESIAN_POINT('Origin',(0.,0.,3.));
#1295=CARTESIAN_POINT('Origin',(-55.669,-23.0000003427267,3.));
#1296=CARTESIAN_POINT('',(-54.169,-23.0000003427267,3.));
#1297=CARTESIAN_POINT('',(-54.169,-23.0000003427267,3.));
#1298=CARTESIAN_POINT('Origin',(-55.669,-23.0000003427267,3.));
#1299=CARTESIAN_POINT('Origin',(-53.5000007972121,-21.0000003129244,3.));
#1300=CARTESIAN_POINT('',(-53.5000007972121,-21.0000003129244,3.));
#1301=CARTESIAN_POINT('',(-53.5000007972121,-21.0000003129244,3.));
#1302=CARTESIAN_POINT('',(-57.669,-21.0000003129244,3.));
#1303=CARTESIAN_POINT('',(-26.7500003986061,-21.0000003129244,3.));
#1304=CARTESIAN_POINT('',(-57.669,-21.0000003129244,3.));
#1305=CARTESIAN_POINT('',(-59.169,-21.0000003129244,15.0000002235174));
#1306=CARTESIAN_POINT('Origin',(-53.5000007972121,-25.,3.));
#1307=CARTESIAN_POINT('',(-53.5000007972121,-25.,3.));
#1308=CARTESIAN_POINT('',(-53.5000007972121,-25.,3.));
#1309=CARTESIAN_POINT('',(-53.5000007972121,-12.5,3.));
#1310=CARTESIAN_POINT('Origin',(-57.669,-25.,3.));
#1311=CARTESIAN_POINT('',(-57.669,-12.5,3.));
#1312=CARTESIAN_POINT('Origin',(0.,0.,3.));
#1313=CARTESIAN_POINT('',(-28.8345,25.,3.));
#1314=CARTESIAN_POINT('',(53.5000007972121,-25.,3.));
#1315=CARTESIAN_POINT('',(28.8345,-25.,3.));
#1316=CARTESIAN_POINT('',(53.5000007972121,-10.5000001564622,3.));
#1317=CARTESIAN_POINT('',(38.503,21.5,3.));
#1318=CARTESIAN_POINT('Origin',(36.003,21.5,3.));
#1319=CARTESIAN_POINT('',(-33.503,21.5,3.));
#1320=CARTESIAN_POINT('Origin',(-36.003,21.5,3.));
#1321=CARTESIAN_POINT('',(38.503,-21.5,3.));
#1322=CARTESIAN_POINT('Origin',(36.003,-21.5,3.));
#1323=CARTESIAN_POINT('',(-33.503,-21.5,3.));
#1324=CARTESIAN_POINT('Origin',(-36.003,-21.5,3.));
#1325=CARTESIAN_POINT('Origin',(55.669,-23.0000003427267,3.));
#1326=CARTESIAN_POINT('',(57.169,-23.0000003427267,3.));
#1327=CARTESIAN_POINT('',(57.169,-23.0000003427267,3.));
#1328=CARTESIAN_POINT('Origin',(55.669,-23.0000003427267,3.));
#1329=CARTESIAN_POINT('Origin',(53.5000007972121,-21.0000003129244,3.));
#1330=CARTESIAN_POINT('',(53.5000007972121,-25.,3.));
#1331=CARTESIAN_POINT('Origin',(57.669,-25.,3.));
#1332=CARTESIAN_POINT('Origin',(0.,0.,3.));
#1333=CARTESIAN_POINT('Origin',(-55.669,23.0000003427267,3.));
#1334=CARTESIAN_POINT('',(-54.169,23.0000003427267,3.));
#1335=CARTESIAN_POINT('',(-54.169,23.0000003427267,3.));
#1336=CARTESIAN_POINT('Origin',(-55.669,23.0000003427267,3.));
#1337=CARTESIAN_POINT('Origin',(-57.669,25.,3.));
#1338=CARTESIAN_POINT('Origin',(0.,0.,3.));
#1339=CARTESIAN_POINT('Origin',(-36.003,-21.5,3.));
#1340=CARTESIAN_POINT('',(-33.503,-21.5,7.));
#1341=CARTESIAN_POINT('Origin',(-36.003,-21.5,7.));
#1342=CARTESIAN_POINT('',(-33.503,-21.5,3.));
#1343=CARTESIAN_POINT('Origin',(-36.003,-21.5,7.));
#1344=CARTESIAN_POINT('',(-37.503,-21.5,7.));
#1345=CARTESIAN_POINT('Origin',(-36.003,-21.5,7.));
#1346=CARTESIAN_POINT('Origin',(36.003,-21.5,3.));
#1347=CARTESIAN_POINT('',(38.503,-21.5,7.));
#1348=CARTESIAN_POINT('Origin',(36.003,-21.5,7.));
#1349=CARTESIAN_POINT('',(38.503,-21.5,3.));
#1350=CARTESIAN_POINT('Origin',(36.003,-21.5,7.));
#1351=CARTESIAN_POINT('',(34.503,-21.5,7.));
#1352=CARTESIAN_POINT('Origin',(36.003,-21.5,7.));
#1353=CARTESIAN_POINT('Origin',(-36.003,21.5,3.));
#1354=CARTESIAN_POINT('',(-33.503,21.5,7.));
#1355=CARTESIAN_POINT('Origin',(-36.003,21.5,7.));
#1356=CARTESIAN_POINT('',(-33.503,21.5,3.));
#1357=CARTESIAN_POINT('Origin',(-36.003,21.5,7.));
#1358=CARTESIAN_POINT('',(-37.503,21.5,7.));
#1359=CARTESIAN_POINT('Origin',(-36.003,21.5,7.));
#1360=CARTESIAN_POINT('Origin',(36.003,21.5,3.));
#1361=CARTESIAN_POINT('',(38.503,21.5,7.));
#1362=CARTESIAN_POINT('Origin',(36.003,21.5,7.));
#1363=CARTESIAN_POINT('',(38.503,21.5,3.));
#1364=CARTESIAN_POINT('Origin',(36.003,21.5,7.));
#1365=CARTESIAN_POINT('',(34.503,21.5,7.));
#1366=CARTESIAN_POINT('Origin',(36.003,21.5,7.));
#1367=CARTESIAN_POINT('Origin',(-36.003,21.5,0.));
#1368=CARTESIAN_POINT('',(-37.503,21.5,0.));
#1369=CARTESIAN_POINT('Origin',(-36.003,21.5,0.));
#1370=CARTESIAN_POINT('',(-37.503,21.5,0.));
#1371=CARTESIAN_POINT('Origin',(36.003,-21.5,0.));
#1372=CARTESIAN_POINT('',(34.503,-21.5,0.));
#1373=CARTESIAN_POINT('Origin',(36.003,-21.5,0.));
#1374=CARTESIAN_POINT('',(34.503,-21.5,0.));
#1375=CARTESIAN_POINT('Origin',(36.003,21.5,0.));
#1376=CARTESIAN_POINT('',(34.503,21.5,0.));
#1377=CARTESIAN_POINT('Origin',(36.003,21.5,0.));
#1378=CARTESIAN_POINT('',(34.503,21.5,0.));
#1379=CARTESIAN_POINT('Origin',(-36.003,-21.5,0.));
#1380=CARTESIAN_POINT('',(-37.503,-21.5,0.));
#1381=CARTESIAN_POINT('Origin',(-36.003,-21.5,0.));
#1382=CARTESIAN_POINT('',(-37.503,-21.5,0.));
#1383=CARTESIAN_POINT('Origin',(59.169,26.5,0.));
#1384=CARTESIAN_POINT('',(59.169,26.5,0.));
#1385=CARTESIAN_POINT('',(59.169,26.5,0.));
#1386=CARTESIAN_POINT('',(-59.169,26.5,0.));
#1387=CARTESIAN_POINT('',(59.169,26.5,0.));
#1388=CARTESIAN_POINT('',(-59.169,26.5,0.));
#1389=CARTESIAN_POINT('Origin',(59.169,-26.5,0.));
#1390=CARTESIAN_POINT('',(59.169,-26.5,0.));
#1391=CARTESIAN_POINT('Origin',(-59.169,26.5,0.));
#1392=CARTESIAN_POINT('',(-59.169,26.5,0.));
#1393=CARTESIAN_POINT('Origin',(0.,0.,3.));
#1394=CARTESIAN_POINT('Origin',(0.,0.,0.));
#1395=UNCERTAINTY_MEASURE_WITH_UNIT(LENGTH_MEASURE(0.01),#1399,
'DISTANCE_ACCURACY_VALUE',
'Maximum model space distance between geometric entities at asserted c
onnectivities');
#1396=UNCERTAINTY_MEASURE_WITH_UNIT(LENGTH_MEASURE(0.01),#1399,
'DISTANCE_ACCURACY_VALUE',
'Maximum model space distance between geometric entities at asserted c
onnectivities');
#1397=(
GEOMETRIC_REPRESENTATION_CONTEXT(3)
GLOBAL_UNCERTAINTY_ASSIGNED_CONTEXT((#1395))
GLOBAL_UNIT_ASSIGNED_CONTEXT((#1399,#1401,#1402))
REPRESENTATION_CONTEXT('','3D')
);
#1398=(
GEOMETRIC_REPRESENTATION_CONTEXT(3)
GLOBAL_UNCERTAINTY_ASSIGNED_CONTEXT((#1396))
GLOBAL_UNIT_ASSIGNED_CONTEXT((#1399,#1401,#1402))
REPRESENTATION_CONTEXT('','3D')
);
#1399=(
LENGTH_UNIT()
NAMED_UNIT(*)
SI_UNIT(.MILLI.,.METRE.)
);
#1400=(
LENGTH_UNIT()
NAMED_UNIT(*)
SI_UNIT($,.METRE.)
);
#1401=(
NAMED_UNIT(*)
PLANE_ANGLE_UNIT()
SI_UNIT($,.RADIAN.)
);
#1402=(
NAMED_UNIT(*)
SI_UNIT($,.STERADIAN.)
SOLID_ANGLE_UNIT()
);
#1403=SHAPE_DEFINITION_REPRESENTATION(#1404,#1405);
#1404=PRODUCT_DEFINITION_SHAPE('',$,#1407);
#1405=SHAPE_REPRESENTATION('',(#855),#1397);
#1406=PRODUCT_DEFINITION_CONTEXT('part definition',#1411,'design');
#1407=PRODUCT_DEFINITION('Box','Box v3',#1408,#1406);
#1408=PRODUCT_DEFINITION_FORMATION('',$,#1413);
#1409=PRODUCT_RELATED_PRODUCT_CATEGORY('Box v3','Box v3',(#1413));
#1410=APPLICATION_PROTOCOL_DEFINITION('international standard',
'automotive_design',2009,#1411);
#1411=APPLICATION_CONTEXT(
'Core Data for Automotive Mechanical Design Process');
#1412=PRODUCT_CONTEXT('part definition',#1411,'mechanical');
#1413=PRODUCT('Box','Box v3',$,(#1412));
#1414=PRESENTATION_STYLE_ASSIGNMENT((#1415));
#1415=SURFACE_STYLE_USAGE(.BOTH.,#1416);
#1416=SURFACE_SIDE_STYLE('',(#1417));
#1417=SURFACE_STYLE_FILL_AREA(#1418);
#1418=FILL_AREA_STYLE('Steel - Satin',(#1419));
#1419=FILL_AREA_STYLE_COLOUR('Steel - Satin',#1420);
#1420=COLOUR_RGB('Steel - Satin',0.627450980392157,0.627450980392157,0.627450980392157);
ENDSEC;
END-ISO-10303-21;
