ISO-10303-21;
HEADER;
/* Generated by software containing ST-Developer
 * from STEP Tools, Inc. (www.steptools.com) 
 */

FILE_DESCRIPTION(
/* description */ (''),
/* implementation_level */ '2;1');

FILE_NAME(
/* name */ 'Depositional v3.step',
/* time_stamp */ '2024-08-21T17:46:01-07:00',
/* author */ (''),
/* organization */ (''),
/* preprocessor_version */ 'ST-DEVELOPER v20',
/* originating_system */ 'Autodesk Translation Framework v13.14.0.145',

/* authorisation */ '');

FILE_SCHEMA (('AUTOMOTIVE_DESIGN { 1 0 10303 214 3 1 1 }'));
ENDSEC;

DATA;
#10=MECHANICAL_DESIGN_GEOMETRIC_PRESENTATION_REPRESENTATION('',(#13),#807);
#11=SHAPE_REPRESENTATION_RELATIONSHIP('SRR','None',#814,#12);
#12=ADVANCED_BREP_SHAPE_REPRESENTATION('',(#14),#806);
#13=STYLED_ITEM('',(#823),#14);
#14=MANIFOLD_SOLID_BREP('Body1',#503);
#15=FACE_OUTER_BOUND('',#41,.T.);
#16=FACE_OUTER_BOUND('',#42,.T.);
#17=FACE_OUTER_BOUND('',#43,.T.);
#18=FACE_OUTER_BOUND('',#44,.T.);
#19=FACE_OUTER_BOUND('',#45,.T.);
#20=FACE_OUTER_BOUND('',#46,.T.);
#21=FACE_OUTER_BOUND('',#47,.T.);
#22=FACE_OUTER_BOUND('',#48,.T.);
#23=FACE_OUTER_BOUND('',#49,.T.);
#24=FACE_OUTER_BOUND('',#50,.T.);
#25=FACE_OUTER_BOUND('',#51,.T.);
#26=FACE_OUTER_BOUND('',#52,.T.);
#27=FACE_OUTER_BOUND('',#53,.T.);
#28=FACE_OUTER_BOUND('',#54,.T.);
#29=FACE_OUTER_BOUND('',#55,.T.);
#30=FACE_OUTER_BOUND('',#56,.T.);
#31=FACE_OUTER_BOUND('',#57,.T.);
#32=FACE_OUTER_BOUND('',#58,.T.);
#33=FACE_OUTER_BOUND('',#59,.T.);
#34=FACE_OUTER_BOUND('',#60,.T.);
#35=FACE_OUTER_BOUND('',#61,.T.);
#36=FACE_OUTER_BOUND('',#62,.T.);
#37=FACE_OUTER_BOUND('',#63,.T.);
#38=FACE_OUTER_BOUND('',#64,.T.);
#39=FACE_OUTER_BOUND('',#65,.T.);
#40=FACE_OUTER_BOUND('',#66,.T.);
#41=EDGE_LOOP('',(#315,#316,#317,#318,#319,#320,#321,#322));
#42=EDGE_LOOP('',(#323,#324,#325,#326));
#43=EDGE_LOOP('',(#327,#328,#329,#330));
#44=EDGE_LOOP('',(#331,#332,#333,#334,#335));
#45=EDGE_LOOP('',(#336,#337,#338,#339));
#46=EDGE_LOOP('',(#340,#341,#342,#343));
#47=EDGE_LOOP('',(#344,#345,#346,#347,#348,#349,#350,#351));
#48=EDGE_LOOP('',(#352,#353,#354,#355));
#49=EDGE_LOOP('',(#356,#357,#358,#359));
#50=EDGE_LOOP('',(#360,#361,#362,#363,#364,#365,#366,#367,#368,#369));
#51=EDGE_LOOP('',(#370,#371,#372,#373));
#52=EDGE_LOOP('',(#374,#375,#376,#377));
#53=EDGE_LOOP('',(#378,#379,#380,#381));
#54=EDGE_LOOP('',(#382,#383,#384,#385,#386));
#55=EDGE_LOOP('',(#387,#388,#389,#390,#391,#392));
#56=EDGE_LOOP('',(#393,#394,#395,#396));
#57=EDGE_LOOP('',(#397,#398,#399,#400));
#58=EDGE_LOOP('',(#401,#402,#403,#404));
#59=EDGE_LOOP('',(#405,#406,#407,#408,#409,#410,#411,#412,#413,#414));
#60=EDGE_LOOP('',(#415,#416,#417,#418,#419,#420));
#61=EDGE_LOOP('',(#421,#422,#423,#424,#425,#426,#427,#428));
#62=EDGE_LOOP('',(#429,#430,#431,#432));
#63=EDGE_LOOP('',(#433,#434,#435,#436,#437,#438));
#64=EDGE_LOOP('',(#439,#440,#441,#442));
#65=EDGE_LOOP('',(#443,#444,#445,#446));
#66=EDGE_LOOP('',(#447,#448,#449,#450));
#67=LINE('',#669,#135);
#68=LINE('',#671,#136);
#69=LINE('',#673,#137);
#70=LINE('',#675,#138);
#71=LINE('',#677,#139);
#72=LINE('',#679,#140);
#73=LINE('',#681,#141);
#74=LINE('',#682,#142);
#75=LINE('',#686,#143);
#76=LINE('',#688,#144);
#77=LINE('',#690,#145);
#78=LINE('',#691,#146);
#79=LINE('',#694,#147);
#80=LINE('',#696,#148);
#81=LINE('',#697,#149);
#82=LINE('',#700,#150);
#83=LINE('',#702,#151);
#84=LINE('',#704,#152);
#85=LINE('',#705,#153);
#86=LINE('',#707,#154);
#87=LINE('',#709,#155);
#88=LINE('',#710,#156);
#89=LINE('',#713,#157);
#90=LINE('',#715,#158);
#91=LINE('',#717,#159);
#92=LINE('',#719,#160);
#93=LINE('',#720,#161);
#94=LINE('',#723,#162);
#95=LINE('',#725,#163);
#96=LINE('',#727,#164);
#97=LINE('',#728,#165);
#98=LINE('',#731,#166);
#99=LINE('',#733,#167);
#100=LINE('',#734,#168);
#101=LINE('',#737,#169);
#102=LINE('',#739,#170);
#103=LINE('',#741,#171);
#104=LINE('',#742,#172);
#105=LINE('',#744,#173);
#106=LINE('',#746,#174);
#107=LINE('',#747,#175);
#108=LINE('',#750,#176);
#109=LINE('',#751,#177);
#110=LINE('',#754,#178);
#111=LINE('',#756,#179);
#112=LINE('',#757,#180);
#113=LINE('',#760,#181);
#114=LINE('',#761,#182);
#115=LINE('',#764,#183);
#116=LINE('',#765,#184);
#117=LINE('',#767,#185);
#118=LINE('',#771,#186);
#119=LINE('',#773,#187);
#120=LINE('',#775,#188);
#121=LINE('',#776,#189);
#122=LINE('',#779,#190);
#123=LINE('',#781,#191);
#124=LINE('',#782,#192);
#125=LINE('',#784,#193);
#126=LINE('',#786,#194);
#127=LINE('',#788,#195);
#128=LINE('',#790,#196);
#129=LINE('',#791,#197);
#130=LINE('',#794,#198);
#131=LINE('',#795,#199);
#132=LINE('',#797,#200);
#133=LINE('',#800,#201);
#134=LINE('',#802,#202);
#135=VECTOR('',#547,10.);
#136=VECTOR('',#548,10.);
#137=VECTOR('',#549,10.);
#138=VECTOR('',#550,10.);
#139=VECTOR('',#551,10.);
#140=VECTOR('',#552,10.);
#141=VECTOR('',#553,10.);
#142=VECTOR('',#554,10.);
#143=VECTOR('',#557,10.);
#144=VECTOR('',#558,10.);
#145=VECTOR('',#559,10.);
#146=VECTOR('',#560,10.);
#147=VECTOR('',#563,10.);
#148=VECTOR('',#564,10.);
#149=VECTOR('',#565,10.);
#150=VECTOR('',#568,10.);
#151=VECTOR('',#569,10.);
#152=VECTOR('',#570,10.);
#153=VECTOR('',#571,10.);
#154=VECTOR('',#574,10.);
#155=VECTOR('',#577,10.);
#156=VECTOR('',#578,10.);
#157=VECTOR('',#581,10.);
#158=VECTOR('',#582,10.);
#159=VECTOR('',#583,10.);
#160=VECTOR('',#584,10.);
#161=VECTOR('',#585,10.);
#162=VECTOR('',#588,10.);
#163=VECTOR('',#589,10.);
#164=VECTOR('',#590,10.);
#165=VECTOR('',#591,10.);
#166=VECTOR('',#594,10.);
#167=VECTOR('',#595,10.);
#168=VECTOR('',#596,10.);
#169=VECTOR('',#599,10.);
#170=VECTOR('',#600,10.);
#171=VECTOR('',#601,10.);
#172=VECTOR('',#602,10.);
#173=VECTOR('',#603,10.);
#174=VECTOR('',#604,10.);
#175=VECTOR('',#605,10.);
#176=VECTOR('',#608,10.);
#177=VECTOR('',#609,10.);
#178=VECTOR('',#612,10.);
#179=VECTOR('',#613,10.);
#180=VECTOR('',#614,10.);
#181=VECTOR('',#617,10.);
#182=VECTOR('',#618,10.);
#183=VECTOR('',#621,10.);
#184=VECTOR('',#622,10.);
#185=VECTOR('',#625,10.);
#186=VECTOR('',#630,10.);
#187=VECTOR('',#631,10.);
#188=VECTOR('',#632,10.);
#189=VECTOR('',#633,10.);
#190=VECTOR('',#636,10.);
#191=VECTOR('',#637,10.);
#192=VECTOR('',#638,10.);
#193=VECTOR('',#641,10.);
#194=VECTOR('',#642,10.);
#195=VECTOR('',#643,10.);
#196=VECTOR('',#644,10.);
#197=VECTOR('',#645,10.);
#198=VECTOR('',#650,10.);
#199=VECTOR('',#651,10.);
#200=VECTOR('',#654,10.);
#201=VECTOR('',#659,10.);
#202=VECTOR('',#662,10.);
#203=VERTEX_POINT('',#667);
#204=VERTEX_POINT('',#668);
#205=VERTEX_POINT('',#670);
#206=VERTEX_POINT('',#672);
#207=VERTEX_POINT('',#674);
#208=VERTEX_POINT('',#676);
#209=VERTEX_POINT('',#678);
#210=VERTEX_POINT('',#680);
#211=VERTEX_POINT('',#684);
#212=VERTEX_POINT('',#685);
#213=VERTEX_POINT('',#687);
#214=VERTEX_POINT('',#689);
#215=VERTEX_POINT('',#693);
#216=VERTEX_POINT('',#695);
#217=VERTEX_POINT('',#699);
#218=VERTEX_POINT('',#701);
#219=VERTEX_POINT('',#703);
#220=VERTEX_POINT('',#712);
#221=VERTEX_POINT('',#714);
#222=VERTEX_POINT('',#716);
#223=VERTEX_POINT('',#718);
#224=VERTEX_POINT('',#722);
#225=VERTEX_POINT('',#724);
#226=VERTEX_POINT('',#726);
#227=VERTEX_POINT('',#730);
#228=VERTEX_POINT('',#732);
#229=VERTEX_POINT('',#736);
#230=VERTEX_POINT('',#738);
#231=VERTEX_POINT('',#740);
#232=VERTEX_POINT('',#743);
#233=VERTEX_POINT('',#745);
#234=VERTEX_POINT('',#749);
#235=VERTEX_POINT('',#753);
#236=VERTEX_POINT('',#755);
#237=VERTEX_POINT('',#759);
#238=VERTEX_POINT('',#763);
#239=VERTEX_POINT('',#770);
#240=VERTEX_POINT('',#772);
#241=VERTEX_POINT('',#774);
#242=VERTEX_POINT('',#778);
#243=VERTEX_POINT('',#780);
#244=VERTEX_POINT('',#785);
#245=VERTEX_POINT('',#787);
#246=VERTEX_POINT('',#789);
#247=EDGE_CURVE('',#203,#204,#67,.T.);
#248=EDGE_CURVE('',#204,#205,#68,.T.);
#249=EDGE_CURVE('',#205,#206,#69,.T.);
#250=EDGE_CURVE('',#206,#207,#70,.T.);
#251=EDGE_CURVE('',#207,#208,#71,.T.);
#252=EDGE_CURVE('',#209,#208,#72,.T.);
#253=EDGE_CURVE('',#210,#209,#73,.T.);
#254=EDGE_CURVE('',#203,#210,#74,.T.);
#255=EDGE_CURVE('',#211,#212,#75,.T.);
#256=EDGE_CURVE('',#212,#213,#76,.T.);
#257=EDGE_CURVE('',#213,#214,#77,.T.);
#258=EDGE_CURVE('',#211,#214,#78,.T.);
#259=EDGE_CURVE('',#215,#213,#79,.T.);
#260=EDGE_CURVE('',#216,#215,#80,.T.);
#261=EDGE_CURVE('',#214,#216,#81,.T.);
#262=EDGE_CURVE('',#217,#215,#82,.T.);
#263=EDGE_CURVE('',#218,#217,#83,.T.);
#264=EDGE_CURVE('',#219,#218,#84,.T.);
#265=EDGE_CURVE('',#216,#219,#85,.T.);
#266=EDGE_CURVE('',#217,#212,#86,.T.);
#267=EDGE_CURVE('',#205,#218,#87,.T.);
#268=EDGE_CURVE('',#219,#204,#88,.T.);
#269=EDGE_CURVE('',#220,#217,#89,.T.);
#270=EDGE_CURVE('',#220,#221,#90,.T.);
#271=EDGE_CURVE('',#222,#221,#91,.T.);
#272=EDGE_CURVE('',#222,#223,#92,.T.);
#273=EDGE_CURVE('',#223,#206,#93,.T.);
#274=EDGE_CURVE('',#221,#224,#94,.T.);
#275=EDGE_CURVE('',#221,#225,#95,.T.);
#276=EDGE_CURVE('',#226,#225,#96,.T.);
#277=EDGE_CURVE('',#224,#226,#97,.T.);
#278=EDGE_CURVE('',#225,#227,#98,.T.);
#279=EDGE_CURVE('',#227,#228,#99,.T.);
#280=EDGE_CURVE('',#228,#226,#100,.T.);
#281=EDGE_CURVE('',#224,#229,#101,.T.);
#282=EDGE_CURVE('',#229,#230,#102,.T.);
#283=EDGE_CURVE('',#230,#231,#103,.T.);
#284=EDGE_CURVE('',#231,#209,#104,.T.);
#285=EDGE_CURVE('',#232,#208,#105,.T.);
#286=EDGE_CURVE('',#233,#232,#106,.T.);
#287=EDGE_CURVE('',#233,#222,#107,.T.);
#288=EDGE_CURVE('',#234,#207,#108,.T.);
#289=EDGE_CURVE('',#223,#234,#109,.T.);
#290=EDGE_CURVE('',#235,#232,#110,.T.);
#291=EDGE_CURVE('',#236,#235,#111,.T.);
#292=EDGE_CURVE('',#233,#236,#112,.T.);
#293=EDGE_CURVE('',#237,#236,#113,.T.);
#294=EDGE_CURVE('',#222,#237,#114,.T.);
#295=EDGE_CURVE('',#238,#237,#115,.T.);
#296=EDGE_CURVE('',#234,#238,#116,.T.);
#297=EDGE_CURVE('',#235,#238,#117,.T.);
#298=EDGE_CURVE('',#239,#220,#118,.T.);
#299=EDGE_CURVE('',#239,#240,#119,.T.);
#300=EDGE_CURVE('',#241,#240,#120,.T.);
#301=EDGE_CURVE('',#220,#241,#121,.T.);
#302=EDGE_CURVE('',#240,#242,#122,.T.);
#303=EDGE_CURVE('',#242,#243,#123,.T.);
#304=EDGE_CURVE('',#243,#241,#124,.T.);
#305=EDGE_CURVE('',#211,#203,#125,.T.);
#306=EDGE_CURVE('',#210,#244,#126,.T.);
#307=EDGE_CURVE('',#244,#245,#127,.T.);
#308=EDGE_CURVE('',#245,#246,#128,.T.);
#309=EDGE_CURVE('',#246,#239,#129,.T.);
#310=EDGE_CURVE('',#246,#229,#130,.T.);
#311=EDGE_CURVE('',#242,#228,#131,.T.);
#312=EDGE_CURVE('',#243,#227,#132,.T.);
#313=EDGE_CURVE('',#244,#231,#133,.T.);
#314=EDGE_CURVE('',#245,#230,#134,.T.);
#315=ORIENTED_EDGE('',*,*,#247,.T.);
#316=ORIENTED_EDGE('',*,*,#248,.T.);
#317=ORIENTED_EDGE('',*,*,#249,.T.);
#318=ORIENTED_EDGE('',*,*,#250,.T.);
#319=ORIENTED_EDGE('',*,*,#251,.T.);
#320=ORIENTED_EDGE('',*,*,#252,.F.);
#321=ORIENTED_EDGE('',*,*,#253,.F.);
#322=ORIENTED_EDGE('',*,*,#254,.F.);
#323=ORIENTED_EDGE('',*,*,#255,.T.);
#324=ORIENTED_EDGE('',*,*,#256,.T.);
#325=ORIENTED_EDGE('',*,*,#257,.T.);
#326=ORIENTED_EDGE('',*,*,#258,.F.);
#327=ORIENTED_EDGE('',*,*,#259,.F.);
#328=ORIENTED_EDGE('',*,*,#260,.F.);
#329=ORIENTED_EDGE('',*,*,#261,.F.);
#330=ORIENTED_EDGE('',*,*,#257,.F.);
#331=ORIENTED_EDGE('',*,*,#260,.T.);
#332=ORIENTED_EDGE('',*,*,#262,.F.);
#333=ORIENTED_EDGE('',*,*,#263,.F.);
#334=ORIENTED_EDGE('',*,*,#264,.F.);
#335=ORIENTED_EDGE('',*,*,#265,.F.);
#336=ORIENTED_EDGE('',*,*,#259,.T.);
#337=ORIENTED_EDGE('',*,*,#256,.F.);
#338=ORIENTED_EDGE('',*,*,#266,.F.);
#339=ORIENTED_EDGE('',*,*,#262,.T.);
#340=ORIENTED_EDGE('',*,*,#267,.F.);
#341=ORIENTED_EDGE('',*,*,#248,.F.);
#342=ORIENTED_EDGE('',*,*,#268,.F.);
#343=ORIENTED_EDGE('',*,*,#264,.T.);
#344=ORIENTED_EDGE('',*,*,#267,.T.);
#345=ORIENTED_EDGE('',*,*,#263,.T.);
#346=ORIENTED_EDGE('',*,*,#269,.F.);
#347=ORIENTED_EDGE('',*,*,#270,.T.);
#348=ORIENTED_EDGE('',*,*,#271,.F.);
#349=ORIENTED_EDGE('',*,*,#272,.T.);
#350=ORIENTED_EDGE('',*,*,#273,.T.);
#351=ORIENTED_EDGE('',*,*,#249,.F.);
#352=ORIENTED_EDGE('',*,*,#274,.F.);
#353=ORIENTED_EDGE('',*,*,#275,.T.);
#354=ORIENTED_EDGE('',*,*,#276,.F.);
#355=ORIENTED_EDGE('',*,*,#277,.F.);
#356=ORIENTED_EDGE('',*,*,#276,.T.);
#357=ORIENTED_EDGE('',*,*,#278,.T.);
#358=ORIENTED_EDGE('',*,*,#279,.T.);
#359=ORIENTED_EDGE('',*,*,#280,.T.);
#360=ORIENTED_EDGE('',*,*,#274,.T.);
#361=ORIENTED_EDGE('',*,*,#281,.T.);
#362=ORIENTED_EDGE('',*,*,#282,.T.);
#363=ORIENTED_EDGE('',*,*,#283,.T.);
#364=ORIENTED_EDGE('',*,*,#284,.T.);
#365=ORIENTED_EDGE('',*,*,#252,.T.);
#366=ORIENTED_EDGE('',*,*,#285,.F.);
#367=ORIENTED_EDGE('',*,*,#286,.F.);
#368=ORIENTED_EDGE('',*,*,#287,.T.);
#369=ORIENTED_EDGE('',*,*,#271,.T.);
#370=ORIENTED_EDGE('',*,*,#288,.T.);
#371=ORIENTED_EDGE('',*,*,#250,.F.);
#372=ORIENTED_EDGE('',*,*,#273,.F.);
#373=ORIENTED_EDGE('',*,*,#289,.T.);
#374=ORIENTED_EDGE('',*,*,#286,.T.);
#375=ORIENTED_EDGE('',*,*,#290,.F.);
#376=ORIENTED_EDGE('',*,*,#291,.F.);
#377=ORIENTED_EDGE('',*,*,#292,.F.);
#378=ORIENTED_EDGE('',*,*,#287,.F.);
#379=ORIENTED_EDGE('',*,*,#292,.T.);
#380=ORIENTED_EDGE('',*,*,#293,.F.);
#381=ORIENTED_EDGE('',*,*,#294,.F.);
#382=ORIENTED_EDGE('',*,*,#272,.F.);
#383=ORIENTED_EDGE('',*,*,#294,.T.);
#384=ORIENTED_EDGE('',*,*,#295,.F.);
#385=ORIENTED_EDGE('',*,*,#296,.F.);
#386=ORIENTED_EDGE('',*,*,#289,.F.);
#387=ORIENTED_EDGE('',*,*,#296,.T.);
#388=ORIENTED_EDGE('',*,*,#297,.F.);
#389=ORIENTED_EDGE('',*,*,#290,.T.);
#390=ORIENTED_EDGE('',*,*,#285,.T.);
#391=ORIENTED_EDGE('',*,*,#251,.F.);
#392=ORIENTED_EDGE('',*,*,#288,.F.);
#393=ORIENTED_EDGE('',*,*,#297,.T.);
#394=ORIENTED_EDGE('',*,*,#295,.T.);
#395=ORIENTED_EDGE('',*,*,#293,.T.);
#396=ORIENTED_EDGE('',*,*,#291,.T.);
#397=ORIENTED_EDGE('',*,*,#298,.F.);
#398=ORIENTED_EDGE('',*,*,#299,.T.);
#399=ORIENTED_EDGE('',*,*,#300,.F.);
#400=ORIENTED_EDGE('',*,*,#301,.F.);
#401=ORIENTED_EDGE('',*,*,#300,.T.);
#402=ORIENTED_EDGE('',*,*,#302,.T.);
#403=ORIENTED_EDGE('',*,*,#303,.T.);
#404=ORIENTED_EDGE('',*,*,#304,.T.);
#405=ORIENTED_EDGE('',*,*,#298,.T.);
#406=ORIENTED_EDGE('',*,*,#269,.T.);
#407=ORIENTED_EDGE('',*,*,#266,.T.);
#408=ORIENTED_EDGE('',*,*,#255,.F.);
#409=ORIENTED_EDGE('',*,*,#305,.T.);
#410=ORIENTED_EDGE('',*,*,#254,.T.);
#411=ORIENTED_EDGE('',*,*,#306,.T.);
#412=ORIENTED_EDGE('',*,*,#307,.T.);
#413=ORIENTED_EDGE('',*,*,#308,.T.);
#414=ORIENTED_EDGE('',*,*,#309,.T.);
#415=ORIENTED_EDGE('',*,*,#261,.T.);
#416=ORIENTED_EDGE('',*,*,#265,.T.);
#417=ORIENTED_EDGE('',*,*,#268,.T.);
#418=ORIENTED_EDGE('',*,*,#247,.F.);
#419=ORIENTED_EDGE('',*,*,#305,.F.);
#420=ORIENTED_EDGE('',*,*,#258,.T.);
#421=ORIENTED_EDGE('',*,*,#309,.F.);
#422=ORIENTED_EDGE('',*,*,#310,.T.);
#423=ORIENTED_EDGE('',*,*,#281,.F.);
#424=ORIENTED_EDGE('',*,*,#277,.T.);
#425=ORIENTED_EDGE('',*,*,#280,.F.);
#426=ORIENTED_EDGE('',*,*,#311,.F.);
#427=ORIENTED_EDGE('',*,*,#302,.F.);
#428=ORIENTED_EDGE('',*,*,#299,.F.);
#429=ORIENTED_EDGE('',*,*,#311,.T.);
#430=ORIENTED_EDGE('',*,*,#279,.F.);
#431=ORIENTED_EDGE('',*,*,#312,.F.);
#432=ORIENTED_EDGE('',*,*,#303,.F.);
#433=ORIENTED_EDGE('',*,*,#312,.T.);
#434=ORIENTED_EDGE('',*,*,#278,.F.);
#435=ORIENTED_EDGE('',*,*,#275,.F.);
#436=ORIENTED_EDGE('',*,*,#270,.F.);
#437=ORIENTED_EDGE('',*,*,#301,.T.);
#438=ORIENTED_EDGE('',*,*,#304,.F.);
#439=ORIENTED_EDGE('',*,*,#306,.F.);
#440=ORIENTED_EDGE('',*,*,#253,.T.);
#441=ORIENTED_EDGE('',*,*,#284,.F.);
#442=ORIENTED_EDGE('',*,*,#313,.F.);
#443=ORIENTED_EDGE('',*,*,#307,.F.);
#444=ORIENTED_EDGE('',*,*,#313,.T.);
#445=ORIENTED_EDGE('',*,*,#283,.F.);
#446=ORIENTED_EDGE('',*,*,#314,.F.);
#447=ORIENTED_EDGE('',*,*,#308,.F.);
#448=ORIENTED_EDGE('',*,*,#314,.T.);
#449=ORIENTED_EDGE('',*,*,#282,.F.);
#450=ORIENTED_EDGE('',*,*,#310,.F.);
#451=PLANE('',#517);
#452=PLANE('',#518);
#453=PLANE('',#519);
#454=PLANE('',#520);
#455=PLANE('',#521);
#456=PLANE('',#522);
#457=PLANE('',#523);
#458=PLANE('',#524);
#459=PLANE('',#525);
#460=PLANE('',#526);
#461=PLANE('',#527);
#462=PLANE('',#528);
#463=PLANE('',#529);
#464=PLANE('',#530);
#465=PLANE('',#531);
#466=PLANE('',#532);
#467=PLANE('',#533);
#468=PLANE('',#534);
#469=PLANE('',#535);
#470=PLANE('',#536);
#471=PLANE('',#537);
#472=PLANE('',#538);
#473=PLANE('',#539);
#474=PLANE('',#540);
#475=PLANE('',#541);
#476=PLANE('',#542);
#477=ADVANCED_FACE('',(#15),#451,.T.);
#478=ADVANCED_FACE('',(#16),#452,.T.);
#479=ADVANCED_FACE('',(#17),#453,.F.);
#480=ADVANCED_FACE('',(#18),#454,.T.);
#481=ADVANCED_FACE('',(#19),#455,.T.);
#482=ADVANCED_FACE('',(#20),#456,.T.);
#483=ADVANCED_FACE('',(#21),#457,.T.);
#484=ADVANCED_FACE('',(#22),#458,.T.);
#485=ADVANCED_FACE('',(#23),#459,.T.);
#486=ADVANCED_FACE('',(#24),#460,.T.);
#487=ADVANCED_FACE('',(#25),#461,.T.);
#488=ADVANCED_FACE('',(#26),#462,.T.);
#489=ADVANCED_FACE('',(#27),#463,.T.);
#490=ADVANCED_FACE('',(#28),#464,.T.);
#491=ADVANCED_FACE('',(#29),#465,.T.);
#492=ADVANCED_FACE('',(#30),#466,.T.);
#493=ADVANCED_FACE('',(#31),#467,.T.);
#494=ADVANCED_FACE('',(#32),#468,.T.);
#495=ADVANCED_FACE('',(#33),#469,.F.);
#496=ADVANCED_FACE('',(#34),#470,.T.);
#497=ADVANCED_FACE('',(#35),#471,.T.);
#498=ADVANCED_FACE('',(#36),#472,.T.);
#499=ADVANCED_FACE('',(#37),#473,.T.);
#500=ADVANCED_FACE('',(#38),#474,.T.);
#501=ADVANCED_FACE('',(#39),#475,.T.);
#502=ADVANCED_FACE('',(#40),#476,.T.);
#503=CLOSED_SHELL('',(#477,#478,#479,#480,#481,#482,#483,#484,#485,#486,
#487,#488,#489,#490,#491,#492,#493,#494,#495,#496,#497,#498,#499,#500,#501,
#502));
#504=DERIVED_UNIT_ELEMENT(#506,1.);
#505=DERIVED_UNIT_ELEMENT(#809,-3.);
#506=(
MASS_UNIT()
NAMED_UNIT(*)
SI_UNIT(.KILO.,.GRAM.)
);
#507=DERIVED_UNIT((#504,#505));
#508=MEASURE_REPRESENTATION_ITEM('density measure',
POSITIVE_RATIO_MEASURE(7850.),#507);
#509=PROPERTY_DEFINITION_REPRESENTATION(#514,#511);
#510=PROPERTY_DEFINITION_REPRESENTATION(#515,#512);
#511=REPRESENTATION('material name',(#513),#806);
#512=REPRESENTATION('density',(#508),#806);
#513=DESCRIPTIVE_REPRESENTATION_ITEM('Steel','Steel');
#514=PROPERTY_DEFINITION('material property','material name',#816);
#515=PROPERTY_DEFINITION('material property','density of part',#816);
#516=AXIS2_PLACEMENT_3D('',#665,#543,#544);
#517=AXIS2_PLACEMENT_3D('',#666,#545,#546);
#518=AXIS2_PLACEMENT_3D('',#683,#555,#556);
#519=AXIS2_PLACEMENT_3D('',#692,#561,#562);
#520=AXIS2_PLACEMENT_3D('',#698,#566,#567);
#521=AXIS2_PLACEMENT_3D('',#706,#572,#573);
#522=AXIS2_PLACEMENT_3D('',#708,#575,#576);
#523=AXIS2_PLACEMENT_3D('',#711,#579,#580);
#524=AXIS2_PLACEMENT_3D('',#721,#586,#587);
#525=AXIS2_PLACEMENT_3D('',#729,#592,#593);
#526=AXIS2_PLACEMENT_3D('',#735,#597,#598);
#527=AXIS2_PLACEMENT_3D('',#748,#606,#607);
#528=AXIS2_PLACEMENT_3D('',#752,#610,#611);
#529=AXIS2_PLACEMENT_3D('',#758,#615,#616);
#530=AXIS2_PLACEMENT_3D('',#762,#619,#620);
#531=AXIS2_PLACEMENT_3D('',#766,#623,#624);
#532=AXIS2_PLACEMENT_3D('',#768,#626,#627);
#533=AXIS2_PLACEMENT_3D('',#769,#628,#629);
#534=AXIS2_PLACEMENT_3D('',#777,#634,#635);
#535=AXIS2_PLACEMENT_3D('',#783,#639,#640);
#536=AXIS2_PLACEMENT_3D('',#792,#646,#647);
#537=AXIS2_PLACEMENT_3D('',#793,#648,#649);
#538=AXIS2_PLACEMENT_3D('',#796,#652,#653);
#539=AXIS2_PLACEMENT_3D('',#798,#655,#656);
#540=AXIS2_PLACEMENT_3D('',#799,#657,#658);
#541=AXIS2_PLACEMENT_3D('',#801,#660,#661);
#542=AXIS2_PLACEMENT_3D('',#803,#663,#664);
#543=DIRECTION('axis',(0.,0.,1.));
#544=DIRECTION('refdir',(1.,0.,0.));
#545=DIRECTION('center_axis',(1.,0.,0.));
#546=DIRECTION('ref_axis',(0.,0.,-1.));
#547=DIRECTION('',(0.,1.,0.));
#548=DIRECTION('',(0.,0.,-1.));
#549=DIRECTION('',(0.,1.,0.));
#550=DIRECTION('',(0.,0.,1.));
#551=DIRECTION('',(0.,1.,0.));
#552=DIRECTION('',(0.,0.,-1.));
#553=DIRECTION('',(0.,1.,0.));
#554=DIRECTION('',(0.,0.,1.));
#555=DIRECTION('center_axis',(-1.,0.,0.));
#556=DIRECTION('ref_axis',(0.,0.,-1.));
#557=DIRECTION('',(0.,0.,-1.));
#558=DIRECTION('',(0.,-1.,0.));
#559=DIRECTION('',(0.,0.,1.));
#560=DIRECTION('',(0.,-1.,0.));
#561=DIRECTION('center_axis',(0.,1.,0.));
#562=DIRECTION('ref_axis',(0.,0.,1.));
#563=DIRECTION('',(-1.,0.,-5.34925639137575E-16));
#564=DIRECTION('',(0.,0.,-1.));
#565=DIRECTION('',(1.,0.,0.));
#566=DIRECTION('center_axis',(1.,0.,0.));
#567=DIRECTION('ref_axis',(0.,0.,1.));
#568=DIRECTION('',(0.,-1.,0.));
#569=DIRECTION('',(0.,-1.,0.));
#570=DIRECTION('',(0.,0.,-1.));
#571=DIRECTION('',(0.,1.,0.));
#572=DIRECTION('center_axis',(5.34925639137575E-16,0.,-1.));
#573=DIRECTION('ref_axis',(1.,0.,5.34925639137575E-16));
#574=DIRECTION('',(-1.,0.,-5.34925639137575E-16));
#575=DIRECTION('center_axis',(0.,1.,0.));
#576=DIRECTION('ref_axis',(0.,0.,1.));
#577=DIRECTION('',(1.,0.,5.34925639137575E-16));
#578=DIRECTION('',(-1.,0.,0.));
#579=DIRECTION('center_axis',(-5.34925639137575E-16,0.,1.));
#580=DIRECTION('ref_axis',(1.,0.,5.34925639137575E-16));
#581=DIRECTION('',(-1.,0.,-5.34925639137575E-16));
#582=DIRECTION('',(0.,1.,0.));
#583=DIRECTION('',(1.,0.,5.34925639137575E-16));
#584=DIRECTION('',(0.,-1.,0.));
#585=DIRECTION('',(-1.,0.,-5.34925639137575E-16));
#586=DIRECTION('center_axis',(0.,0.,-1.));
#587=DIRECTION('ref_axis',(-1.,0.,0.));
#588=DIRECTION('',(1.,0.,0.));
#589=DIRECTION('',(0.,1.,0.));
#590=DIRECTION('',(-1.,0.,0.));
#591=DIRECTION('',(0.,1.,0.));
#592=DIRECTION('center_axis',(0.,1.,0.));
#593=DIRECTION('ref_axis',(0.,0.,1.));
#594=DIRECTION('',(0.,0.,1.));
#595=DIRECTION('',(1.,0.,0.));
#596=DIRECTION('',(0.,0.,-1.));
#597=DIRECTION('center_axis',(0.,1.,0.));
#598=DIRECTION('ref_axis',(0.,0.,1.));
#599=DIRECTION('',(0.,0.,-1.));
#600=DIRECTION('',(-1.,0.,-5.51091059616309E-16));
#601=DIRECTION('',(0.,0.,1.));
#602=DIRECTION('',(1.,0.,-2.22044604925031E-14));
#603=DIRECTION('',(-1.,0.,0.));
#604=DIRECTION('',(0.,0.,1.));
#605=DIRECTION('',(1.,0.,5.34925639137575E-16));
#606=DIRECTION('center_axis',(0.,-1.,0.));
#607=DIRECTION('ref_axis',(0.,0.,-1.));
#608=DIRECTION('',(-1.,0.,0.));
#609=DIRECTION('',(0.,0.,1.));
#610=DIRECTION('center_axis',(-1.,0.,0.));
#611=DIRECTION('ref_axis',(0.,0.,1.));
#612=DIRECTION('',(0.,-1.,0.));
#613=DIRECTION('',(0.,0.,1.));
#614=DIRECTION('',(0.,1.,0.));
#615=DIRECTION('center_axis',(2.77555756156289E-16,0.,-1.));
#616=DIRECTION('ref_axis',(-1.,0.,-2.77555756156289E-16));
#617=DIRECTION('',(-1.,0.,-2.77555756156289E-16));
#618=DIRECTION('',(0.,1.,0.));
#619=DIRECTION('center_axis',(1.,0.,0.));
#620=DIRECTION('ref_axis',(0.,0.,-1.));
#621=DIRECTION('',(0.,0.,-1.));
#622=DIRECTION('',(0.,1.,0.));
#623=DIRECTION('center_axis',(0.,0.,1.));
#624=DIRECTION('ref_axis',(1.,0.,0.));
#625=DIRECTION('',(1.,0.,0.));
#626=DIRECTION('center_axis',(0.,1.,0.));
#627=DIRECTION('ref_axis',(0.,0.,1.));
#628=DIRECTION('center_axis',(0.,0.,-1.));
#629=DIRECTION('ref_axis',(1.,0.,0.));
#630=DIRECTION('',(-1.,0.,0.));
#631=DIRECTION('',(0.,-1.,0.));
#632=DIRECTION('',(1.,0.,0.));
#633=DIRECTION('',(0.,-1.,0.));
#634=DIRECTION('center_axis',(0.,-1.,0.));
#635=DIRECTION('ref_axis',(0.,0.,-1.));
#636=DIRECTION('',(0.,0.,1.));
#637=DIRECTION('',(-1.,0.,0.));
#638=DIRECTION('',(0.,0.,-1.));
#639=DIRECTION('center_axis',(0.,1.,0.));
#640=DIRECTION('ref_axis',(1.,0.,0.));
#641=DIRECTION('',(-1.,0.,0.));
#642=DIRECTION('',(-1.,0.,2.22044604925031E-14));
#643=DIRECTION('',(0.,0.,-1.));
#644=DIRECTION('',(1.,0.,5.51091059616309E-16));
#645=DIRECTION('',(0.,0.,1.));
#646=DIRECTION('center_axis',(0.,0.,1.));
#647=DIRECTION('ref_axis',(-1.,0.,0.));
#648=DIRECTION('center_axis',(1.,0.,0.));
#649=DIRECTION('ref_axis',(0.,0.,-1.));
#650=DIRECTION('',(0.,1.,0.));
#651=DIRECTION('',(0.,1.,0.));
#652=DIRECTION('center_axis',(0.,0.,1.));
#653=DIRECTION('ref_axis',(1.,0.,0.));
#654=DIRECTION('',(0.,1.,0.));
#655=DIRECTION('center_axis',(-1.,0.,9.25185853854297E-17));
#656=DIRECTION('ref_axis',(9.25185853854297E-17,0.,1.));
#657=DIRECTION('center_axis',(2.22044604925031E-14,0.,1.));
#658=DIRECTION('ref_axis',(1.,0.,-2.22044604925031E-14));
#659=DIRECTION('',(0.,1.,0.));
#660=DIRECTION('center_axis',(-1.,0.,0.));
#661=DIRECTION('ref_axis',(0.,0.,1.));
#662=DIRECTION('',(0.,1.,0.));
#663=DIRECTION('center_axis',(5.51091059616309E-16,0.,-1.));
#664=DIRECTION('ref_axis',(-1.,0.,-5.51091059616309E-16));
#665=CARTESIAN_POINT('',(0.,0.,0.));
#666=CARTESIAN_POINT('Origin',(-57.,0.,17.));
#667=CARTESIAN_POINT('',(-57.,0.,5.00000007450581));
#668=CARTESIAN_POINT('',(-57.,3.,5.00000007450581));
#669=CARTESIAN_POINT('',(-57.,0.,5.00000007450581));
#670=CARTESIAN_POINT('',(-57.,3.,2.00000007450581));
#671=CARTESIAN_POINT('',(-57.,3.,11.0000000372529));
#672=CARTESIAN_POINT('',(-57.,50.,1.99999999999999));
#673=CARTESIAN_POINT('',(-57.,0.,1.99999999999997));
#674=CARTESIAN_POINT('',(-57.,50.,4.99999988824129));
#675=CARTESIAN_POINT('',(-57.,50.,9.49999999999998));
#676=CARTESIAN_POINT('',(-57.,52.9999988153577,4.99999988824129));
#677=CARTESIAN_POINT('',(-57.,25.,4.99999988824129));
#678=CARTESIAN_POINT('',(-57.,53.,17.));
#679=CARTESIAN_POINT('',(-57.,53.,1.99999999999997));
#680=CARTESIAN_POINT('',(-57.,0.,17.));
#681=CARTESIAN_POINT('',(-57.,0.,17.));
#682=CARTESIAN_POINT('',(-57.,0.,1.99999999999997));
#683=CARTESIAN_POINT('Origin',(-41.169,0.,5.00000004470347));
#684=CARTESIAN_POINT('',(-41.169,0.,5.00000007450581));
#685=CARTESIAN_POINT('',(-41.169,0.,1.99999999999998));
#686=CARTESIAN_POINT('',(-41.169,0.,3.50000005960464));
#687=CARTESIAN_POINT('',(-41.169,-2.,2.00000002980232));
#688=CARTESIAN_POINT('',(-41.169,0.,1.99999999999998));
#689=CARTESIAN_POINT('',(-41.169,-2.,5.00000004470347));
#690=CARTESIAN_POINT('',(-41.169,-2.,4.25000004097818));
#691=CARTESIAN_POINT('',(-41.169,0.,5.00000004470347));
#692=CARTESIAN_POINT('Origin',(-40.169,-2.,3.5000000372529));
#693=CARTESIAN_POINT('',(-39.169,-2.,2.00000002980232));
#694=CARTESIAN_POINT('',(-40.669,-2.,1.99999999999998));
#695=CARTESIAN_POINT('',(-39.169,-2.,5.00000004470347));
#696=CARTESIAN_POINT('',(-39.169,-2.,2.75000003352761));
#697=CARTESIAN_POINT('',(-39.669,-2.,5.00000004470347));
#698=CARTESIAN_POINT('Origin',(-39.169,0.,2.00000002980232));
#699=CARTESIAN_POINT('',(-39.169,0.,1.99999999999998));
#700=CARTESIAN_POINT('',(-39.169,0.,2.00000002980232));
#701=CARTESIAN_POINT('',(-39.169,3.,1.99999999999999));
#702=CARTESIAN_POINT('',(-39.169,1.,1.99999999999998));
#703=CARTESIAN_POINT('',(-39.169,3.,5.00000004470347));
#704=CARTESIAN_POINT('',(-39.169,3.,1.99999999999999));
#705=CARTESIAN_POINT('',(-39.169,0.,5.00000004470347));
#706=CARTESIAN_POINT('Origin',(-41.169,0.,1.99999999999998));
#707=CARTESIAN_POINT('',(-2.,0.,2.));
#708=CARTESIAN_POINT('Origin',(-40.169,3.,3.50000002235173));
#709=CARTESIAN_POINT('',(-49.0845,3.,1.99999999999997));
#710=CARTESIAN_POINT('',(-41.169,3.,5.00000007450581));
#711=CARTESIAN_POINT('Origin',(-57.,0.,1.99999999999997));
#712=CARTESIAN_POINT('',(-2.,0.,2.));
#713=CARTESIAN_POINT('',(-2.,0.,2.));
#714=CARTESIAN_POINT('',(-2.,53.,2.));
#715=CARTESIAN_POINT('',(-2.,0.,2.));
#716=CARTESIAN_POINT('',(-39.169,53.,1.99999999999999));
#717=CARTESIAN_POINT('',(-2.,53.,2.));
#718=CARTESIAN_POINT('',(-39.169,50.,1.99999999999999));
#719=CARTESIAN_POINT('',(-39.169,26.5,1.99999999999998));
#720=CARTESIAN_POINT('',(-48.5845,50.,1.99999999999997));
#721=CARTESIAN_POINT('Origin',(0.,53.,2.));
#722=CARTESIAN_POINT('',(0.,53.,2.));
#723=CARTESIAN_POINT('',(-14.75,53.,2.));
#724=CARTESIAN_POINT('',(-2.,55.,2.));
#725=CARTESIAN_POINT('',(-2.,53.,2.));
#726=CARTESIAN_POINT('',(0.,55.,2.));
#727=CARTESIAN_POINT('',(-2.,55.,2.));
#728=CARTESIAN_POINT('',(0.,53.,2.));
#729=CARTESIAN_POINT('Origin',(-1.,55.,3.5));
#730=CARTESIAN_POINT('',(-2.,55.,5.));
#731=CARTESIAN_POINT('',(-2.,55.,5.));
#732=CARTESIAN_POINT('',(0.,55.,5.));
#733=CARTESIAN_POINT('',(0.,55.,5.));
#734=CARTESIAN_POINT('',(0.,55.,2.));
#735=CARTESIAN_POINT('Origin',(-29.5,53.,8.5));
#736=CARTESIAN_POINT('',(0.,53.,0.));
#737=CARTESIAN_POINT('',(0.,53.,0.));
#738=CARTESIAN_POINT('',(-59.,53.,-2.31458243642827E-14));
#739=CARTESIAN_POINT('',(-59.,53.,-2.31458243642827E-14));
#740=CARTESIAN_POINT('',(-59.,53.,17.));
#741=CARTESIAN_POINT('',(-59.,53.,17.));
#742=CARTESIAN_POINT('',(-57.,53.,17.));
#743=CARTESIAN_POINT('',(-41.169,52.9999988153577,4.99999988824129));
#744=CARTESIAN_POINT('',(-41.169,52.9999988153577,4.99999988824129));
#745=CARTESIAN_POINT('',(-41.169,53.,1.99999999999998));
#746=CARTESIAN_POINT('',(-41.169,52.9999988153577,3.49999994412064));
#747=CARTESIAN_POINT('',(-2.,53.,2.));
#748=CARTESIAN_POINT('Origin',(-40.169,50.,3.50000003725289));
#749=CARTESIAN_POINT('',(-39.169,50.,5.0000000745058));
#750=CARTESIAN_POINT('',(-41.169,50.,5.0000000745058));
#751=CARTESIAN_POINT('',(-39.169,50.,5.0000000745058));
#752=CARTESIAN_POINT('Origin',(-41.169,53.,1.99999999999999));
#753=CARTESIAN_POINT('',(-41.169,55.,5.0000000745058));
#754=CARTESIAN_POINT('',(-41.169,53.,5.0000000745058));
#755=CARTESIAN_POINT('',(-41.169,55.,1.99999999999999));
#756=CARTESIAN_POINT('',(-41.169,55.,1.99999999999999));
#757=CARTESIAN_POINT('',(-41.169,53.,1.99999999999999));
#758=CARTESIAN_POINT('Origin',(-39.169,53.,1.99999999999999));
#759=CARTESIAN_POINT('',(-39.169,55.,1.99999999999999));
#760=CARTESIAN_POINT('',(-41.169,55.,1.99999999999999));
#761=CARTESIAN_POINT('',(-39.169,53.,1.99999999999999));
#762=CARTESIAN_POINT('Origin',(-39.169,53.,5.0000000745058));
#763=CARTESIAN_POINT('',(-39.169,55.,5.0000000745058));
#764=CARTESIAN_POINT('',(-39.169,55.,5.0000000745058));
#765=CARTESIAN_POINT('',(-39.169,53.,5.0000000745058));
#766=CARTESIAN_POINT('Origin',(-41.169,53.,5.0000000745058));
#767=CARTESIAN_POINT('',(-41.169,55.,5.0000000745058));
#768=CARTESIAN_POINT('Origin',(-40.169,55.,3.50000003725289));
#769=CARTESIAN_POINT('Origin',(-2.,0.,2.00000002980232));
#770=CARTESIAN_POINT('',(0.,0.,2.00000002980232));
#771=CARTESIAN_POINT('',(-15.75,0.,2.00000002980232));
#772=CARTESIAN_POINT('',(0.,-2.,2.00000002980232));
#773=CARTESIAN_POINT('',(0.,0.,2.00000002980232));
#774=CARTESIAN_POINT('',(-2.,-2.,2.00000002980232));
#775=CARTESIAN_POINT('',(0.,-2.,2.00000002980232));
#776=CARTESIAN_POINT('',(-2.,0.,2.00000002980232));
#777=CARTESIAN_POINT('Origin',(-1.,-2.,3.50000001490116));
#778=CARTESIAN_POINT('',(0.,-2.,5.));
#779=CARTESIAN_POINT('',(0.,-2.,5.));
#780=CARTESIAN_POINT('',(-2.,-2.,5.));
#781=CARTESIAN_POINT('',(-2.,-2.,5.));
#782=CARTESIAN_POINT('',(-2.,-2.,2.00000002980232));
#783=CARTESIAN_POINT('Origin',(-29.5,0.,8.5));
#784=CARTESIAN_POINT('',(-41.169,0.,5.00000007450581));
#785=CARTESIAN_POINT('',(-59.,0.,17.));
#786=CARTESIAN_POINT('',(-57.,0.,17.));
#787=CARTESIAN_POINT('',(-59.,0.,-2.31458243642827E-14));
#788=CARTESIAN_POINT('',(-59.,0.,17.));
#789=CARTESIAN_POINT('',(0.,0.,0.));
#790=CARTESIAN_POINT('',(-59.,0.,-2.31458243642827E-14));
#791=CARTESIAN_POINT('',(0.,0.,0.));
#792=CARTESIAN_POINT('Origin',(-39.169,0.,5.00000004470347));
#793=CARTESIAN_POINT('Origin',(0.,0.,5.));
#794=CARTESIAN_POINT('',(0.,0.,0.));
#795=CARTESIAN_POINT('',(0.,0.,5.));
#796=CARTESIAN_POINT('Origin',(-2.,0.,5.));
#797=CARTESIAN_POINT('',(-2.,0.,5.));
#798=CARTESIAN_POINT('Origin',(-2.,0.,2.));
#799=CARTESIAN_POINT('Origin',(-59.,0.,17.));
#800=CARTESIAN_POINT('',(-59.,0.,17.));
#801=CARTESIAN_POINT('Origin',(-59.,0.,-2.22044604925031E-14));
#802=CARTESIAN_POINT('',(-59.,0.,-2.31458243642827E-14));
#803=CARTESIAN_POINT('Origin',(0.,0.,9.36854815307949E-15));
#804=UNCERTAINTY_MEASURE_WITH_UNIT(LENGTH_MEASURE(0.01),#808,
'DISTANCE_ACCURACY_VALUE',
'Maximum model space distance between geometric entities at asserted c
onnectivities');
#805=UNCERTAINTY_MEASURE_WITH_UNIT(LENGTH_MEASURE(0.01),#808,
'DISTANCE_ACCURACY_VALUE',
'Maximum model space distance between geometric entities at asserted c
onnectivities');
#806=(
GEOMETRIC_REPRESENTATION_CONTEXT(3)
GLOBAL_UNCERTAINTY_ASSIGNED_CONTEXT((#804))
GLOBAL_UNIT_ASSIGNED_CONTEXT((#808,#810,#811))
REPRESENTATION_CONTEXT('','3D')
);
#807=(
GEOMETRIC_REPRESENTATION_CONTEXT(3)
GLOBAL_UNCERTAINTY_ASSIGNED_CONTEXT((#805))
GLOBAL_UNIT_ASSIGNED_CONTEXT((#808,#810,#811))
REPRESENTATION_CONTEXT('','3D')
);
#808=(
LENGTH_UNIT()
NAMED_UNIT(*)
SI_UNIT(.MILLI.,.METRE.)
);
#809=(
LENGTH_UNIT()
NAMED_UNIT(*)
SI_UNIT($,.METRE.)
);
#810=(
NAMED_UNIT(*)
PLANE_ANGLE_UNIT()
SI_UNIT($,.RADIAN.)
);
#811=(
NAMED_UNIT(*)
SI_UNIT($,.STERADIAN.)
SOLID_ANGLE_UNIT()
);
#812=SHAPE_DEFINITION_REPRESENTATION(#813,#814);
#813=PRODUCT_DEFINITION_SHAPE('',$,#816);
#814=SHAPE_REPRESENTATION('',(#516),#806);
#815=PRODUCT_DEFINITION_CONTEXT('part definition',#820,'design');
#816=PRODUCT_DEFINITION('Depositional','Depositional v3',#817,#815);
#817=PRODUCT_DEFINITION_FORMATION('',$,#822);
#818=PRODUCT_RELATED_PRODUCT_CATEGORY('Depositional v3',
'Depositional v3',(#822));
#819=APPLICATION_PROTOCOL_DEFINITION('international standard',
'automotive_design',2009,#820);
#820=APPLICATION_CONTEXT(
'Core Data for Automotive Mechanical Design Process');
#821=PRODUCT_CONTEXT('part definition',#820,'mechanical');
#822=PRODUCT('Depositional','Depositional v3',$,(#821));
#823=PRESENTATION_STYLE_ASSIGNMENT((#824));
#824=SURFACE_STYLE_USAGE(.BOTH.,#825);
#825=SURFACE_SIDE_STYLE('',(#826));
#826=SURFACE_STYLE_FILL_AREA(#827);
#827=FILL_AREA_STYLE('Steel - Satin',(#828));
#828=FILL_AREA_STYLE_COLOUR('Steel - Satin',#829);
#829=COLOUR_RGB('Steel - Satin',0.627450980392157,0.627450980392157,0.627450980392157);
ENDSEC;
END-ISO-10303-21;
