ISO-10303-21;
HEADER;
/* Generated by software containing ST-Developer
 * from STEP Tools, Inc. (www.steptools.com) 
 */

FILE_DESCRIPTION(
/* description */ (''),
/* implementation_level */ '2;1');

FILE_NAME(
/* name */ 'front_holder+large v5.step',
/* time_stamp */ '2024-08-21T17:46:50-07:00',
/* author */ (''),
/* organization */ (''),
/* preprocessor_version */ 'ST-DEVELOPER v20',
/* originating_system */ 'Autodesk Translation Framework v13.14.0.145',

/* authorisation */ '');

FILE_SCHEMA (('AUTOMOTIVE_DESIGN { 1 0 10303 214 3 1 1 }'));
ENDSEC;

DATA;
#10=MECHANICAL_DESIGN_GEOMETRIC_PRESENTATION_REPRESENTATION('',(#13),#780);
#11=SHAPE_REPRESENTATION_RELATIONSHIP('SRR','None',#787,#12);
#12=ADVANCED_BREP_SHAPE_REPRESENTATION('',(#14),#779);
#13=STYLED_ITEM('',(#796),#14);
#14=MANIFOLD_SOLID_BREP('Body3',#460);
#15=FACE_BOUND('',#87,.T.);
#16=FACE_BOUND('',#88,.T.);
#17=FACE_BOUND('',#89,.T.);
#18=FACE_BOUND('',#90,.T.);
#19=FACE_BOUND('',#103,.T.);
#20=FACE_BOUND('',#104,.T.);
#21=FACE_BOUND('',#105,.T.);
#22=FACE_BOUND('',#106,.T.);
#23=CIRCLE('',#477,1.75);
#24=CIRCLE('',#478,1.75);
#25=CIRCLE('',#480,2.5);
#26=CIRCLE('',#481,2.5);
#27=CIRCLE('',#484,5.);
#28=CIRCLE('',#485,5.);
#29=CIRCLE('',#488,3.5);
#30=CIRCLE('',#489,3.5);
#31=CIRCLE('',#492,12.);
#32=CIRCLE('',#493,12.);
#33=CIRCLE('',#495,12.);
#34=CIRCLE('',#496,3.5);
#35=CIRCLE('',#497,5.);
#36=CIRCLE('',#498,2.5);
#37=CIRCLE('',#499,1.75);
#38=CIRCLE('',#503,1.75);
#39=CIRCLE('',#505,2.5);
#40=CIRCLE('',#509,5.);
#41=CIRCLE('',#512,3.5);
#42=CIRCLE('',#515,12.);
#43=CYLINDRICAL_SURFACE('',#476,1.75);
#44=CYLINDRICAL_SURFACE('',#479,2.5);
#45=CYLINDRICAL_SURFACE('',#483,5.);
#46=CYLINDRICAL_SURFACE('',#487,3.5);
#47=CYLINDRICAL_SURFACE('',#491,12.);
#48=CYLINDRICAL_SURFACE('',#502,1.75);
#49=CYLINDRICAL_SURFACE('',#504,2.5);
#50=CYLINDRICAL_SURFACE('',#508,5.);
#51=CYLINDRICAL_SURFACE('',#511,3.5);
#52=CYLINDRICAL_SURFACE('',#514,12.);
#53=FACE_OUTER_BOUND('',#76,.T.);
#54=FACE_OUTER_BOUND('',#77,.T.);
#55=FACE_OUTER_BOUND('',#78,.T.);
#56=FACE_OUTER_BOUND('',#79,.T.);
#57=FACE_OUTER_BOUND('',#80,.T.);
#58=FACE_OUTER_BOUND('',#81,.T.);
#59=FACE_OUTER_BOUND('',#82,.T.);
#60=FACE_OUTER_BOUND('',#83,.T.);
#61=FACE_OUTER_BOUND('',#84,.T.);
#62=FACE_OUTER_BOUND('',#85,.T.);
#63=FACE_OUTER_BOUND('',#86,.T.);
#64=FACE_OUTER_BOUND('',#91,.T.);
#65=FACE_OUTER_BOUND('',#92,.T.);
#66=FACE_OUTER_BOUND('',#93,.T.);
#67=FACE_OUTER_BOUND('',#94,.T.);
#68=FACE_OUTER_BOUND('',#95,.T.);
#69=FACE_OUTER_BOUND('',#96,.T.);
#70=FACE_OUTER_BOUND('',#97,.T.);
#71=FACE_OUTER_BOUND('',#98,.T.);
#72=FACE_OUTER_BOUND('',#99,.T.);
#73=FACE_OUTER_BOUND('',#100,.T.);
#74=FACE_OUTER_BOUND('',#101,.T.);
#75=FACE_OUTER_BOUND('',#102,.T.);
#76=EDGE_LOOP('',(#298,#299,#300,#301));
#77=EDGE_LOOP('',(#302,#303,#304,#305));
#78=EDGE_LOOP('',(#306,#307,#308,#309));
#79=EDGE_LOOP('',(#310,#311,#312,#313));
#80=EDGE_LOOP('',(#314,#315,#316,#317));
#81=EDGE_LOOP('',(#318,#319,#320,#321));
#82=EDGE_LOOP('',(#322,#323,#324,#325));
#83=EDGE_LOOP('',(#326,#327,#328,#329));
#84=EDGE_LOOP('',(#330,#331,#332,#333));
#85=EDGE_LOOP('',(#334,#335,#336,#337));
#86=EDGE_LOOP('',(#338,#339,#340,#341,#342,#343,#344,#345,#346,#347,#348,
#349,#350,#351,#352,#353,#354));
#87=EDGE_LOOP('',(#355));
#88=EDGE_LOOP('',(#356));
#89=EDGE_LOOP('',(#357));
#90=EDGE_LOOP('',(#358));
#91=EDGE_LOOP('',(#359,#360,#361,#362));
#92=EDGE_LOOP('',(#363,#364,#365,#366));
#93=EDGE_LOOP('',(#367,#368,#369,#370));
#94=EDGE_LOOP('',(#371,#372,#373,#374));
#95=EDGE_LOOP('',(#375,#376,#377,#378));
#96=EDGE_LOOP('',(#379,#380,#381,#382));
#97=EDGE_LOOP('',(#383,#384,#385,#386));
#98=EDGE_LOOP('',(#387,#388,#389,#390));
#99=EDGE_LOOP('',(#391,#392,#393,#394));
#100=EDGE_LOOP('',(#395,#396,#397,#398));
#101=EDGE_LOOP('',(#399,#400,#401,#402));
#102=EDGE_LOOP('',(#403,#404,#405,#406,#407,#408,#409,#410,#411,#412,#413,
#414,#415,#416,#417,#418,#419));
#103=EDGE_LOOP('',(#420));
#104=EDGE_LOOP('',(#421));
#105=EDGE_LOOP('',(#422));
#106=EDGE_LOOP('',(#423));
#107=LINE('',#652,#150);
#108=LINE('',#654,#151);
#109=LINE('',#656,#152);
#110=LINE('',#657,#153);
#111=LINE('',#661,#154);
#112=LINE('',#663,#155);
#113=LINE('',#665,#156);
#114=LINE('',#666,#157);
#115=LINE('',#671,#158);
#116=LINE('',#677,#159);
#117=LINE('',#682,#160);
#118=LINE('',#683,#161);
#119=LINE('',#684,#162);
#120=LINE('',#690,#163);
#121=LINE('',#693,#164);
#122=LINE('',#696,#165);
#123=LINE('',#698,#166);
#124=LINE('',#699,#167);
#125=LINE('',#704,#168);
#126=LINE('',#708,#169);
#127=LINE('',#710,#170);
#128=LINE('',#711,#171);
#129=LINE('',#717,#172);
#130=LINE('',#718,#173);
#131=LINE('',#720,#174);
#132=LINE('',#724,#175);
#133=LINE('',#728,#176);
#134=LINE('',#731,#177);
#135=LINE('',#738,#178);
#136=LINE('',#739,#179);
#137=LINE('',#742,#180);
#138=LINE('',#743,#181);
#139=LINE('',#746,#182);
#140=LINE('',#750,#183);
#141=LINE('',#753,#184);
#142=LINE('',#756,#185);
#143=LINE('',#757,#186);
#144=LINE('',#761,#187);
#145=LINE('',#764,#188);
#146=LINE('',#765,#189);
#147=LINE('',#769,#190);
#148=LINE('',#772,#191);
#149=LINE('',#773,#192);
#150=VECTOR('',#521,10.);
#151=VECTOR('',#522,10.);
#152=VECTOR('',#523,10.);
#153=VECTOR('',#524,10.);
#154=VECTOR('',#527,10.);
#155=VECTOR('',#528,10.);
#156=VECTOR('',#529,10.);
#157=VECTOR('',#530,10.);
#158=VECTOR('',#535,1.75);
#159=VECTOR('',#542,2.5);
#160=VECTOR('',#547,10.);
#161=VECTOR('',#548,10.);
#162=VECTOR('',#549,10.);
#163=VECTOR('',#554,10.);
#164=VECTOR('',#557,10.);
#165=VECTOR('',#560,10.);
#166=VECTOR('',#561,10.);
#167=VECTOR('',#562,10.);
#168=VECTOR('',#567,10.);
#169=VECTOR('',#572,10.);
#170=VECTOR('',#573,10.);
#171=VECTOR('',#574,10.);
#172=VECTOR('',#583,10.);
#173=VECTOR('',#584,10.);
#174=VECTOR('',#585,10.);
#175=VECTOR('',#588,10.);
#176=VECTOR('',#591,10.);
#177=VECTOR('',#594,10.);
#178=VECTOR('',#601,10.);
#179=VECTOR('',#602,10.);
#180=VECTOR('',#605,10.);
#181=VECTOR('',#606,10.);
#182=VECTOR('',#609,1.75);
#183=VECTOR('',#614,2.5);
#184=VECTOR('',#619,10.);
#185=VECTOR('',#622,10.);
#186=VECTOR('',#623,10.);
#187=VECTOR('',#628,10.);
#188=VECTOR('',#631,10.);
#189=VECTOR('',#632,10.);
#190=VECTOR('',#637,10.);
#191=VECTOR('',#640,10.);
#192=VECTOR('',#641,10.);
#193=VERTEX_POINT('',#650);
#194=VERTEX_POINT('',#651);
#195=VERTEX_POINT('',#653);
#196=VERTEX_POINT('',#655);
#197=VERTEX_POINT('',#659);
#198=VERTEX_POINT('',#660);
#199=VERTEX_POINT('',#662);
#200=VERTEX_POINT('',#664);
#201=VERTEX_POINT('',#668);
#202=VERTEX_POINT('',#670);
#203=VERTEX_POINT('',#674);
#204=VERTEX_POINT('',#676);
#205=VERTEX_POINT('',#680);
#206=VERTEX_POINT('',#681);
#207=VERTEX_POINT('',#686);
#208=VERTEX_POINT('',#687);
#209=VERTEX_POINT('',#689);
#210=VERTEX_POINT('',#691);
#211=VERTEX_POINT('',#695);
#212=VERTEX_POINT('',#697);
#213=VERTEX_POINT('',#701);
#214=VERTEX_POINT('',#703);
#215=VERTEX_POINT('',#707);
#216=VERTEX_POINT('',#709);
#217=VERTEX_POINT('',#716);
#218=VERTEX_POINT('',#719);
#219=VERTEX_POINT('',#721);
#220=VERTEX_POINT('',#723);
#221=VERTEX_POINT('',#725);
#222=VERTEX_POINT('',#727);
#223=VERTEX_POINT('',#729);
#224=VERTEX_POINT('',#732);
#225=VERTEX_POINT('',#734);
#226=VERTEX_POINT('',#737);
#227=VERTEX_POINT('',#741);
#228=VERTEX_POINT('',#745);
#229=VERTEX_POINT('',#749);
#230=VERTEX_POINT('',#755);
#231=VERTEX_POINT('',#759);
#232=VERTEX_POINT('',#763);
#233=VERTEX_POINT('',#767);
#234=VERTEX_POINT('',#771);
#235=EDGE_CURVE('',#193,#194,#107,.T.);
#236=EDGE_CURVE('',#193,#195,#108,.T.);
#237=EDGE_CURVE('',#196,#195,#109,.T.);
#238=EDGE_CURVE('',#196,#194,#110,.T.);
#239=EDGE_CURVE('',#197,#198,#111,.T.);
#240=EDGE_CURVE('',#197,#199,#112,.T.);
#241=EDGE_CURVE('',#199,#200,#113,.T.);
#242=EDGE_CURVE('',#200,#198,#114,.T.);
#243=EDGE_CURVE('',#201,#201,#23,.T.);
#244=EDGE_CURVE('',#201,#202,#115,.T.);
#245=EDGE_CURVE('',#202,#202,#24,.T.);
#246=EDGE_CURVE('',#203,#203,#25,.T.);
#247=EDGE_CURVE('',#203,#204,#116,.T.);
#248=EDGE_CURVE('',#204,#204,#26,.T.);
#249=EDGE_CURVE('',#205,#206,#117,.T.);
#250=EDGE_CURVE('',#205,#200,#118,.T.);
#251=EDGE_CURVE('',#206,#199,#119,.T.);
#252=EDGE_CURVE('',#207,#208,#27,.T.);
#253=EDGE_CURVE('',#208,#209,#120,.T.);
#254=EDGE_CURVE('',#209,#210,#28,.T.);
#255=EDGE_CURVE('',#207,#210,#121,.T.);
#256=EDGE_CURVE('',#211,#208,#122,.T.);
#257=EDGE_CURVE('',#211,#212,#123,.T.);
#258=EDGE_CURVE('',#212,#209,#124,.T.);
#259=EDGE_CURVE('',#213,#211,#29,.T.);
#260=EDGE_CURVE('',#213,#214,#125,.T.);
#261=EDGE_CURVE('',#214,#212,#30,.T.);
#262=EDGE_CURVE('',#213,#215,#126,.T.);
#263=EDGE_CURVE('',#215,#216,#127,.T.);
#264=EDGE_CURVE('',#216,#214,#128,.T.);
#265=EDGE_CURVE('',#196,#215,#31,.T.);
#266=EDGE_CURVE('',#195,#216,#32,.T.);
#267=EDGE_CURVE('',#193,#217,#129,.T.);
#268=EDGE_CURVE('',#217,#198,#130,.T.);
#269=EDGE_CURVE('',#205,#218,#131,.T.);
#270=EDGE_CURVE('',#218,#219,#33,.T.);
#271=EDGE_CURVE('',#219,#220,#132,.T.);
#272=EDGE_CURVE('',#220,#221,#34,.T.);
#273=EDGE_CURVE('',#221,#222,#133,.T.);
#274=EDGE_CURVE('',#222,#223,#35,.T.);
#275=EDGE_CURVE('',#223,#210,#134,.T.);
#276=EDGE_CURVE('',#224,#224,#36,.T.);
#277=EDGE_CURVE('',#225,#225,#37,.T.);
#278=EDGE_CURVE('',#226,#206,#135,.T.);
#279=EDGE_CURVE('',#226,#218,#136,.T.);
#280=EDGE_CURVE('',#194,#227,#137,.T.);
#281=EDGE_CURVE('',#227,#217,#138,.T.);
#282=EDGE_CURVE('',#225,#228,#139,.T.);
#283=EDGE_CURVE('',#228,#228,#38,.T.);
#284=EDGE_CURVE('',#224,#229,#140,.T.);
#285=EDGE_CURVE('',#229,#229,#39,.T.);
#286=EDGE_CURVE('',#197,#227,#141,.T.);
#287=EDGE_CURVE('',#230,#207,#142,.T.);
#288=EDGE_CURVE('',#230,#223,#143,.T.);
#289=EDGE_CURVE('',#230,#231,#40,.T.);
#290=EDGE_CURVE('',#231,#222,#144,.T.);
#291=EDGE_CURVE('',#232,#231,#145,.T.);
#292=EDGE_CURVE('',#232,#221,#146,.T.);
#293=EDGE_CURVE('',#233,#232,#41,.T.);
#294=EDGE_CURVE('',#233,#220,#147,.T.);
#295=EDGE_CURVE('',#233,#234,#148,.T.);
#296=EDGE_CURVE('',#234,#219,#149,.T.);
#297=EDGE_CURVE('',#226,#234,#42,.T.);
#298=ORIENTED_EDGE('',*,*,#235,.F.);
#299=ORIENTED_EDGE('',*,*,#236,.T.);
#300=ORIENTED_EDGE('',*,*,#237,.F.);
#301=ORIENTED_EDGE('',*,*,#238,.T.);
#302=ORIENTED_EDGE('',*,*,#239,.F.);
#303=ORIENTED_EDGE('',*,*,#240,.T.);
#304=ORIENTED_EDGE('',*,*,#241,.T.);
#305=ORIENTED_EDGE('',*,*,#242,.T.);
#306=ORIENTED_EDGE('',*,*,#243,.T.);
#307=ORIENTED_EDGE('',*,*,#244,.T.);
#308=ORIENTED_EDGE('',*,*,#245,.T.);
#309=ORIENTED_EDGE('',*,*,#244,.F.);
#310=ORIENTED_EDGE('',*,*,#246,.T.);
#311=ORIENTED_EDGE('',*,*,#247,.T.);
#312=ORIENTED_EDGE('',*,*,#248,.F.);
#313=ORIENTED_EDGE('',*,*,#247,.F.);
#314=ORIENTED_EDGE('',*,*,#249,.F.);
#315=ORIENTED_EDGE('',*,*,#250,.T.);
#316=ORIENTED_EDGE('',*,*,#241,.F.);
#317=ORIENTED_EDGE('',*,*,#251,.F.);
#318=ORIENTED_EDGE('',*,*,#252,.T.);
#319=ORIENTED_EDGE('',*,*,#253,.T.);
#320=ORIENTED_EDGE('',*,*,#254,.T.);
#321=ORIENTED_EDGE('',*,*,#255,.F.);
#322=ORIENTED_EDGE('',*,*,#256,.F.);
#323=ORIENTED_EDGE('',*,*,#257,.T.);
#324=ORIENTED_EDGE('',*,*,#258,.T.);
#325=ORIENTED_EDGE('',*,*,#253,.F.);
#326=ORIENTED_EDGE('',*,*,#259,.F.);
#327=ORIENTED_EDGE('',*,*,#260,.T.);
#328=ORIENTED_EDGE('',*,*,#261,.T.);
#329=ORIENTED_EDGE('',*,*,#257,.F.);
#330=ORIENTED_EDGE('',*,*,#262,.T.);
#331=ORIENTED_EDGE('',*,*,#263,.T.);
#332=ORIENTED_EDGE('',*,*,#264,.T.);
#333=ORIENTED_EDGE('',*,*,#260,.F.);
#334=ORIENTED_EDGE('',*,*,#265,.F.);
#335=ORIENTED_EDGE('',*,*,#237,.T.);
#336=ORIENTED_EDGE('',*,*,#266,.T.);
#337=ORIENTED_EDGE('',*,*,#263,.F.);
#338=ORIENTED_EDGE('',*,*,#267,.T.);
#339=ORIENTED_EDGE('',*,*,#268,.T.);
#340=ORIENTED_EDGE('',*,*,#242,.F.);
#341=ORIENTED_EDGE('',*,*,#250,.F.);
#342=ORIENTED_EDGE('',*,*,#269,.T.);
#343=ORIENTED_EDGE('',*,*,#270,.T.);
#344=ORIENTED_EDGE('',*,*,#271,.T.);
#345=ORIENTED_EDGE('',*,*,#272,.T.);
#346=ORIENTED_EDGE('',*,*,#273,.T.);
#347=ORIENTED_EDGE('',*,*,#274,.T.);
#348=ORIENTED_EDGE('',*,*,#275,.T.);
#349=ORIENTED_EDGE('',*,*,#254,.F.);
#350=ORIENTED_EDGE('',*,*,#258,.F.);
#351=ORIENTED_EDGE('',*,*,#261,.F.);
#352=ORIENTED_EDGE('',*,*,#264,.F.);
#353=ORIENTED_EDGE('',*,*,#266,.F.);
#354=ORIENTED_EDGE('',*,*,#236,.F.);
#355=ORIENTED_EDGE('',*,*,#246,.F.);
#356=ORIENTED_EDGE('',*,*,#243,.F.);
#357=ORIENTED_EDGE('',*,*,#276,.T.);
#358=ORIENTED_EDGE('',*,*,#277,.T.);
#359=ORIENTED_EDGE('',*,*,#249,.T.);
#360=ORIENTED_EDGE('',*,*,#278,.F.);
#361=ORIENTED_EDGE('',*,*,#279,.T.);
#362=ORIENTED_EDGE('',*,*,#269,.F.);
#363=ORIENTED_EDGE('',*,*,#235,.T.);
#364=ORIENTED_EDGE('',*,*,#280,.T.);
#365=ORIENTED_EDGE('',*,*,#281,.T.);
#366=ORIENTED_EDGE('',*,*,#267,.F.);
#367=ORIENTED_EDGE('',*,*,#277,.F.);
#368=ORIENTED_EDGE('',*,*,#282,.T.);
#369=ORIENTED_EDGE('',*,*,#283,.F.);
#370=ORIENTED_EDGE('',*,*,#282,.F.);
#371=ORIENTED_EDGE('',*,*,#276,.F.);
#372=ORIENTED_EDGE('',*,*,#284,.T.);
#373=ORIENTED_EDGE('',*,*,#285,.T.);
#374=ORIENTED_EDGE('',*,*,#284,.F.);
#375=ORIENTED_EDGE('',*,*,#239,.T.);
#376=ORIENTED_EDGE('',*,*,#268,.F.);
#377=ORIENTED_EDGE('',*,*,#281,.F.);
#378=ORIENTED_EDGE('',*,*,#286,.F.);
#379=ORIENTED_EDGE('',*,*,#287,.T.);
#380=ORIENTED_EDGE('',*,*,#255,.T.);
#381=ORIENTED_EDGE('',*,*,#275,.F.);
#382=ORIENTED_EDGE('',*,*,#288,.F.);
#383=ORIENTED_EDGE('',*,*,#289,.F.);
#384=ORIENTED_EDGE('',*,*,#288,.T.);
#385=ORIENTED_EDGE('',*,*,#274,.F.);
#386=ORIENTED_EDGE('',*,*,#290,.F.);
#387=ORIENTED_EDGE('',*,*,#291,.T.);
#388=ORIENTED_EDGE('',*,*,#290,.T.);
#389=ORIENTED_EDGE('',*,*,#273,.F.);
#390=ORIENTED_EDGE('',*,*,#292,.F.);
#391=ORIENTED_EDGE('',*,*,#293,.T.);
#392=ORIENTED_EDGE('',*,*,#292,.T.);
#393=ORIENTED_EDGE('',*,*,#272,.F.);
#394=ORIENTED_EDGE('',*,*,#294,.F.);
#395=ORIENTED_EDGE('',*,*,#295,.F.);
#396=ORIENTED_EDGE('',*,*,#294,.T.);
#397=ORIENTED_EDGE('',*,*,#271,.F.);
#398=ORIENTED_EDGE('',*,*,#296,.F.);
#399=ORIENTED_EDGE('',*,*,#297,.T.);
#400=ORIENTED_EDGE('',*,*,#296,.T.);
#401=ORIENTED_EDGE('',*,*,#270,.F.);
#402=ORIENTED_EDGE('',*,*,#279,.F.);
#403=ORIENTED_EDGE('',*,*,#286,.T.);
#404=ORIENTED_EDGE('',*,*,#280,.F.);
#405=ORIENTED_EDGE('',*,*,#238,.F.);
#406=ORIENTED_EDGE('',*,*,#265,.T.);
#407=ORIENTED_EDGE('',*,*,#262,.F.);
#408=ORIENTED_EDGE('',*,*,#259,.T.);
#409=ORIENTED_EDGE('',*,*,#256,.T.);
#410=ORIENTED_EDGE('',*,*,#252,.F.);
#411=ORIENTED_EDGE('',*,*,#287,.F.);
#412=ORIENTED_EDGE('',*,*,#289,.T.);
#413=ORIENTED_EDGE('',*,*,#291,.F.);
#414=ORIENTED_EDGE('',*,*,#293,.F.);
#415=ORIENTED_EDGE('',*,*,#295,.T.);
#416=ORIENTED_EDGE('',*,*,#297,.F.);
#417=ORIENTED_EDGE('',*,*,#278,.T.);
#418=ORIENTED_EDGE('',*,*,#251,.T.);
#419=ORIENTED_EDGE('',*,*,#240,.F.);
#420=ORIENTED_EDGE('',*,*,#248,.T.);
#421=ORIENTED_EDGE('',*,*,#245,.F.);
#422=ORIENTED_EDGE('',*,*,#285,.F.);
#423=ORIENTED_EDGE('',*,*,#283,.T.);
#424=PLANE('',#474);
#425=PLANE('',#475);
#426=PLANE('',#482);
#427=PLANE('',#486);
#428=PLANE('',#490);
#429=PLANE('',#494);
#430=PLANE('',#500);
#431=PLANE('',#501);
#432=PLANE('',#506);
#433=PLANE('',#507);
#434=PLANE('',#510);
#435=PLANE('',#513);
#436=PLANE('',#516);
#437=ADVANCED_FACE('',(#53),#424,.F.);
#438=ADVANCED_FACE('',(#54),#425,.F.);
#439=ADVANCED_FACE('',(#55),#43,.F.);
#440=ADVANCED_FACE('',(#56),#44,.F.);
#441=ADVANCED_FACE('',(#57),#426,.F.);
#442=ADVANCED_FACE('',(#58),#45,.F.);
#443=ADVANCED_FACE('',(#59),#427,.F.);
#444=ADVANCED_FACE('',(#60),#46,.T.);
#445=ADVANCED_FACE('',(#61),#428,.F.);
#446=ADVANCED_FACE('',(#62),#47,.T.);
#447=ADVANCED_FACE('',(#63,#15,#16,#17,#18),#429,.T.);
#448=ADVANCED_FACE('',(#64),#430,.T.);
#449=ADVANCED_FACE('',(#65),#431,.T.);
#450=ADVANCED_FACE('',(#66),#48,.F.);
#451=ADVANCED_FACE('',(#67),#49,.F.);
#452=ADVANCED_FACE('',(#68),#432,.T.);
#453=ADVANCED_FACE('',(#69),#433,.T.);
#454=ADVANCED_FACE('',(#70),#50,.F.);
#455=ADVANCED_FACE('',(#71),#434,.T.);
#456=ADVANCED_FACE('',(#72),#51,.T.);
#457=ADVANCED_FACE('',(#73),#435,.T.);
#458=ADVANCED_FACE('',(#74),#52,.T.);
#459=ADVANCED_FACE('',(#75,#19,#20,#21,#22),#436,.F.);
#460=CLOSED_SHELL('',(#437,#438,#439,#440,#441,#442,#443,#444,#445,#446,
#447,#448,#449,#450,#451,#452,#453,#454,#455,#456,#457,#458,#459));
#461=DERIVED_UNIT_ELEMENT(#463,1.);
#462=DERIVED_UNIT_ELEMENT(#782,-3.);
#463=(
MASS_UNIT()
NAMED_UNIT(*)
SI_UNIT(.KILO.,.GRAM.)
);
#464=DERIVED_UNIT((#461,#462));
#465=MEASURE_REPRESENTATION_ITEM('density measure',
POSITIVE_RATIO_MEASURE(7850.),#464);
#466=PROPERTY_DEFINITION_REPRESENTATION(#471,#468);
#467=PROPERTY_DEFINITION_REPRESENTATION(#472,#469);
#468=REPRESENTATION('material name',(#470),#779);
#469=REPRESENTATION('density',(#465),#779);
#470=DESCRIPTIVE_REPRESENTATION_ITEM('Steel','Steel');
#471=PROPERTY_DEFINITION('material property','material name',#789);
#472=PROPERTY_DEFINITION('material property','density of part',#789);
#473=AXIS2_PLACEMENT_3D('',#648,#517,#518);
#474=AXIS2_PLACEMENT_3D('',#649,#519,#520);
#475=AXIS2_PLACEMENT_3D('',#658,#525,#526);
#476=AXIS2_PLACEMENT_3D('',#667,#531,#532);
#477=AXIS2_PLACEMENT_3D('',#669,#533,#534);
#478=AXIS2_PLACEMENT_3D('',#672,#536,#537);
#479=AXIS2_PLACEMENT_3D('',#673,#538,#539);
#480=AXIS2_PLACEMENT_3D('',#675,#540,#541);
#481=AXIS2_PLACEMENT_3D('',#678,#543,#544);
#482=AXIS2_PLACEMENT_3D('',#679,#545,#546);
#483=AXIS2_PLACEMENT_3D('',#685,#550,#551);
#484=AXIS2_PLACEMENT_3D('',#688,#552,#553);
#485=AXIS2_PLACEMENT_3D('',#692,#555,#556);
#486=AXIS2_PLACEMENT_3D('',#694,#558,#559);
#487=AXIS2_PLACEMENT_3D('',#700,#563,#564);
#488=AXIS2_PLACEMENT_3D('',#702,#565,#566);
#489=AXIS2_PLACEMENT_3D('',#705,#568,#569);
#490=AXIS2_PLACEMENT_3D('',#706,#570,#571);
#491=AXIS2_PLACEMENT_3D('',#712,#575,#576);
#492=AXIS2_PLACEMENT_3D('',#713,#577,#578);
#493=AXIS2_PLACEMENT_3D('',#714,#579,#580);
#494=AXIS2_PLACEMENT_3D('',#715,#581,#582);
#495=AXIS2_PLACEMENT_3D('',#722,#586,#587);
#496=AXIS2_PLACEMENT_3D('',#726,#589,#590);
#497=AXIS2_PLACEMENT_3D('',#730,#592,#593);
#498=AXIS2_PLACEMENT_3D('',#733,#595,#596);
#499=AXIS2_PLACEMENT_3D('',#735,#597,#598);
#500=AXIS2_PLACEMENT_3D('',#736,#599,#600);
#501=AXIS2_PLACEMENT_3D('',#740,#603,#604);
#502=AXIS2_PLACEMENT_3D('',#744,#607,#608);
#503=AXIS2_PLACEMENT_3D('',#747,#610,#611);
#504=AXIS2_PLACEMENT_3D('',#748,#612,#613);
#505=AXIS2_PLACEMENT_3D('',#751,#615,#616);
#506=AXIS2_PLACEMENT_3D('',#752,#617,#618);
#507=AXIS2_PLACEMENT_3D('',#754,#620,#621);
#508=AXIS2_PLACEMENT_3D('',#758,#624,#625);
#509=AXIS2_PLACEMENT_3D('',#760,#626,#627);
#510=AXIS2_PLACEMENT_3D('',#762,#629,#630);
#511=AXIS2_PLACEMENT_3D('',#766,#633,#634);
#512=AXIS2_PLACEMENT_3D('',#768,#635,#636);
#513=AXIS2_PLACEMENT_3D('',#770,#638,#639);
#514=AXIS2_PLACEMENT_3D('',#774,#642,#643);
#515=AXIS2_PLACEMENT_3D('',#775,#644,#645);
#516=AXIS2_PLACEMENT_3D('',#776,#646,#647);
#517=DIRECTION('axis',(0.,0.,1.));
#518=DIRECTION('refdir',(1.,0.,0.));
#519=DIRECTION('center_axis',(-7.8990460135914E-19,-0.999998418099392,-0.00177870703416963));
#520=DIRECTION('ref_axis',(3.88577443926939E-16,-0.00177870703416963,0.999998418099392));
#521=DIRECTION('',(1.,0.,-4.44089209850063E-16));
#522=DIRECTION('',(3.88577443926939E-16,-0.00177870703416963,0.999998418099392));
#523=DIRECTION('',(-1.,0.,4.44089209850063E-16));
#524=DIRECTION('',(-3.88577443926939E-16,0.00177870703416963,-0.999998418099392));
#525=DIRECTION('center_axis',(-7.8990460135914E-19,-0.999998418099392,-0.00177870703416963));
#526=DIRECTION('ref_axis',(3.88577443926939E-16,-0.00177870703416963,0.999998418099392));
#527=DIRECTION('',(-1.,0.,4.44089209850063E-16));
#528=DIRECTION('',(-3.88577443926939E-16,0.00177870703416963,-0.999998418099392));
#529=DIRECTION('',(-1.,0.,4.44089209850063E-16));
#530=DIRECTION('',(3.88577443926939E-16,-0.00177870703416963,0.999998418099392));
#531=DIRECTION('center_axis',(-1.,-3.05928147139877E-31,7.88860905221012E-31));
#532=DIRECTION('ref_axis',(3.05928147139877E-31,-1.,6.88888944730648E-16));
#533=DIRECTION('center_axis',(-1.,-7.28494310460869E-31,3.88578058618806E-16));
#534=DIRECTION('ref_axis',(3.05928147139877E-31,-1.,6.88888944730648E-16));
#535=DIRECTION('',(1.,3.05928147139877E-31,-7.88860905221012E-31));
#536=DIRECTION('center_axis',(1.,7.28494310460869E-31,-3.88578058618806E-16));
#537=DIRECTION('ref_axis',(3.05928147139877E-31,-1.,6.88888944730648E-16));
#538=DIRECTION('center_axis',(1.,0.,-4.44089209850063E-16));
#539=DIRECTION('ref_axis',(-3.05928147139877E-31,1.,-6.88888944730648E-16));
#540=DIRECTION('center_axis',(-1.,-7.28494310460869E-31,3.88578058618806E-16));
#541=DIRECTION('ref_axis',(-9.96181439208262E-31,1.,-6.88888944730648E-16));
#542=DIRECTION('',(1.,0.,-4.44089209850063E-16));
#543=DIRECTION('center_axis',(-1.,-7.28494310460869E-31,3.88578058618806E-16));
#544=DIRECTION('ref_axis',(-9.96181439208262E-31,1.,-6.88888944730648E-16));
#545=DIRECTION('center_axis',(4.44086899304952E-16,0.00322579339529955,
0.999994797114951));
#546=DIRECTION('ref_axis',(-6.91721973630492E-16,0.99999479711495,-0.00322579339529955));
#547=DIRECTION('',(1.,0.,-4.44089209850063E-16));
#548=DIRECTION('',(-6.91721973630492E-16,0.99999479711495,-0.00322579339529955));
#549=DIRECTION('',(-6.91721973630492E-16,0.99999479711495,-0.00322579339529955));
#550=DIRECTION('center_axis',(1.,0.,-4.44089209850063E-16));
#551=DIRECTION('ref_axis',(-3.05928147139877E-31,1.,-6.88888944730648E-16));
#552=DIRECTION('center_axis',(1.,-6.1755487593832E-16,-8.9280624173281E-16));
#553=DIRECTION('ref_axis',(6.1755487593832E-16,1.,-6.88888944730648E-16));
#554=DIRECTION('',(-1.,0.,4.44089209850063E-16));
#555=DIRECTION('center_axis',(-1.,6.1755487593832E-16,8.9280624173281E-16));
#556=DIRECTION('ref_axis',(6.1755487593832E-16,1.,-6.88888944730648E-16));
#557=DIRECTION('',(-1.,0.,4.44089209850063E-16));
#558=DIRECTION('center_axis',(4.44089209850063E-16,9.51199343375659E-16,
1.));
#559=DIRECTION('ref_axis',(6.1755487593832E-16,1.,-9.51199343375659E-16));
#560=DIRECTION('',(6.1755487593832E-16,1.,-9.51199343375659E-16));
#561=DIRECTION('',(-1.,0.,4.44089209850063E-16));
#562=DIRECTION('',(6.1755487593832E-16,1.,-9.51199343375659E-16));
#563=DIRECTION('center_axis',(1.,0.,-4.44089209850063E-16));
#564=DIRECTION('ref_axis',(-4.14136287989695E-20,-0.999999995651734,-9.32552016136884E-5));
#565=DIRECTION('center_axis',(1.,7.28494310460869E-31,-3.88578058618806E-16));
#566=DIRECTION('ref_axis',(3.88577566078133E-16,0.00159219689585216,0.999998732453719));
#567=DIRECTION('',(-1.,0.,4.44089209850063E-16));
#568=DIRECTION('center_axis',(1.,7.28494310460869E-31,-3.88578058618806E-16));
#569=DIRECTION('ref_axis',(3.88577566078133E-16,0.00159219689585216,0.999998732453719));
#570=DIRECTION('center_axis',(-4.44089209850063E-16,-9.5610419205359E-16,
-1.));
#571=DIRECTION('ref_axis',(1.10001542124636E-30,-1.,9.5610419205359E-16));
#572=DIRECTION('',(-1.10001542124636E-30,1.,-9.5610419205359E-16));
#573=DIRECTION('',(-1.,0.,4.44089209850063E-16));
#574=DIRECTION('',(1.10001542124636E-30,-1.,9.5610419205359E-16));
#575=DIRECTION('center_axis',(1.,0.,-4.44089209850063E-16));
#576=DIRECTION('ref_axis',(7.89904601359067E-19,0.999998418099392,0.00177870703416947));
#577=DIRECTION('center_axis',(1.,7.28494310460869E-31,-3.88578058618806E-16));
#578=DIRECTION('ref_axis',(6.91166526188457E-19,0.999998418099392,0.00177870703416947));
#579=DIRECTION('center_axis',(1.,7.28494310460869E-31,-3.88578058618806E-16));
#580=DIRECTION('ref_axis',(6.91166526188457E-19,0.999998418099392,0.00177870703416947));
#581=DIRECTION('center_axis',(-1.,-6.90253292068385E-31,4.9960036108132E-16));
#582=DIRECTION('ref_axis',(6.90253292068385E-31,-1.,0.));
#583=DIRECTION('',(-6.88856893550376E-16,0.99999479711495,0.00322579339529886));
#584=DIRECTION('',(-4.99599570763205E-16,-0.00177870703417032,-0.999998418099392));
#585=DIRECTION('',(-4.99599570763205E-16,-0.00177870703417032,-0.999998418099392));
#586=DIRECTION('center_axis',(-1.,-6.90253292068385E-31,4.9960036108132E-16));
#587=DIRECTION('ref_axis',(-8.88642676529984E-19,0.999998418099392,-0.00177870703417016));
#588=DIRECTION('',(5.56752458019409E-31,-1.,-2.67215247322943E-16));
#589=DIRECTION('center_axis',(-1.,-6.90253292068385E-31,4.9960036108132E-16));
#590=DIRECTION('ref_axis',(-4.9959972781474E-16,0.00159219689585147,-0.999998732453719));
#591=DIRECTION('',(6.17554875938321E-16,1.,2.62310398645011E-16));
#592=DIRECTION('center_axis',(1.,-6.1755487593832E-16,4.62782203268396E-18));
#593=DIRECTION('ref_axis',(6.1755487593832E-16,1.,-3.08530639006315E-31));
#594=DIRECTION('',(9.83531737689083E-17,-3.23935922431955E-16,1.));
#595=DIRECTION('center_axis',(1.,6.90253292068385E-31,-4.9960036108132E-16));
#596=DIRECTION('ref_axis',(-6.90253292068385E-31,1.,0.));
#597=DIRECTION('center_axis',(1.,6.90253292068385E-31,-4.9960036108132E-16));
#598=DIRECTION('ref_axis',(0.,-1.,6.13068078142107E-46));
#599=DIRECTION('center_axis',(-7.89904601359446E-19,0.999998418099392,-0.00177870703417032));
#600=DIRECTION('ref_axis',(-4.99599570763205E-16,-0.00177870703417032,-0.999998418099392));
#601=DIRECTION('',(4.99599570763205E-16,0.00177870703417032,0.999998418099392));
#602=DIRECTION('',(-1.,0.,4.44089209850063E-16));
#603=DIRECTION('center_axis',(4.44086899304952E-16,-0.00322579339529887,
0.999994797114951));
#604=DIRECTION('ref_axis',(-6.88856893550376E-16,0.99999479711495,0.00322579339529886));
#605=DIRECTION('',(-6.88856893550376E-16,0.99999479711495,0.00322579339529886));
#606=DIRECTION('',(-1.,0.,4.44089209850063E-16));
#607=DIRECTION('center_axis',(1.,0.,-8.88178419700125E-16));
#608=DIRECTION('ref_axis',(0.,-1.,6.13068078142107E-46));
#609=DIRECTION('',(1.,0.,-8.88178419700125E-16));
#610=DIRECTION('center_axis',(-1.,-6.90253292068385E-31,4.9960036108132E-16));
#611=DIRECTION('ref_axis',(0.,-1.,6.13068078142107E-46));
#612=DIRECTION('center_axis',(-1.,0.,4.44089209850063E-16));
#613=DIRECTION('ref_axis',(0.,1.,-3.06534039071054E-46));
#614=DIRECTION('',(1.,0.,-4.44089209850063E-16));
#615=DIRECTION('center_axis',(1.,6.90253292068385E-31,-4.9960036108132E-16));
#616=DIRECTION('ref_axis',(-6.90253292068385E-31,1.,0.));
#617=DIRECTION('center_axis',(-7.89904601359446E-19,0.999998418099392,-0.00177870703417032));
#618=DIRECTION('ref_axis',(-4.99599570763205E-16,-0.00177870703417032,-0.999998418099392));
#619=DIRECTION('',(4.99599570763205E-16,0.00177870703417032,0.999998418099392));
#620=DIRECTION('center_axis',(-1.43856447834858E-31,-1.,-3.23935922431955E-16));
#621=DIRECTION('ref_axis',(9.83531737689083E-17,-3.23935922431955E-16,1.));
#622=DIRECTION('',(9.83531737689083E-17,-3.23935922431955E-16,1.));
#623=DIRECTION('',(-1.,0.,4.44089209850063E-16));
#624=DIRECTION('center_axis',(-1.,0.,4.44089209850063E-16));
#625=DIRECTION('ref_axis',(0.,1.,-3.42811821118126E-32));
#626=DIRECTION('center_axis',(-1.,6.1755487593832E-16,-4.62782203268396E-18));
#627=DIRECTION('ref_axis',(6.1755487593832E-16,1.,-3.08530639006315E-31));
#628=DIRECTION('',(-1.,0.,4.44089209850063E-16));
#629=DIRECTION('center_axis',(4.44089209850063E-16,-2.62310398645011E-16,
1.));
#630=DIRECTION('ref_axis',(6.17554875938321E-16,1.,2.62310398645011E-16));
#631=DIRECTION('',(6.17554875938321E-16,1.,2.62310398645011E-16));
#632=DIRECTION('',(-1.,0.,4.44089209850063E-16));
#633=DIRECTION('center_axis',(-1.,0.,4.44089209850063E-16));
#634=DIRECTION('ref_axis',(4.14136287989695E-20,-0.999999995651734,9.32552016134889E-5));
#635=DIRECTION('center_axis',(-1.,-6.90253292068385E-31,4.9960036108132E-16));
#636=DIRECTION('ref_axis',(-4.9959972781474E-16,0.00159219689585147,-0.999998732453719));
#637=DIRECTION('',(-1.,0.,4.44089209850063E-16));
#638=DIRECTION('center_axis',(-4.44089209850063E-16,2.67215247322943E-16,
-1.));
#639=DIRECTION('ref_axis',(5.56752458019409E-31,-1.,-2.67215247322943E-16));
#640=DIRECTION('',(-5.56752458019409E-31,1.,2.67215247322943E-16));
#641=DIRECTION('',(-1.,0.,4.44089209850063E-16));
#642=DIRECTION('center_axis',(-1.,0.,4.44089209850063E-16));
#643=DIRECTION('ref_axis',(-7.89904601359373E-19,0.999998418099392,-0.00177870703417016));
#644=DIRECTION('center_axis',(-1.,-6.90253292068385E-31,4.9960036108132E-16));
#645=DIRECTION('ref_axis',(-8.88642676529984E-19,0.999998418099392,-0.00177870703417016));
#646=DIRECTION('center_axis',(-1.,-6.90253292068385E-31,4.9960036108132E-16));
#647=DIRECTION('ref_axis',(6.90253292068385E-31,-1.,0.));
#648=CARTESIAN_POINT('',(0.,0.,0.));
#649=CARTESIAN_POINT('Origin',(-38.4655478964689,-4.3646650428986,-7.82228735018172));
#650=CARTESIAN_POINT('',(-43.4655478964689,-4.3647020956606,-7.8014560931605));
#651=CARTESIAN_POINT('',(-38.4655478964689,-4.3647020956606,-7.8014560931605));
#652=CARTESIAN_POINT('',(-38.4655478964689,-4.3647020956606,-7.8014560931605));
#653=CARTESIAN_POINT('',(-43.4655478964689,-4.45008108124298,40.1990571342283));
#654=CARTESIAN_POINT('',(-43.4655478964689,-4.45008108124298,40.1990571342283));
#655=CARTESIAN_POINT('',(-38.4655478964689,-4.45008108124298,40.1990571342283));
#656=CARTESIAN_POINT('',(-38.4655478964689,-4.45008108124298,40.1990571342283));
#657=CARTESIAN_POINT('',(-38.4655478964689,-4.45008108124298,40.1990571342283));
#658=CARTESIAN_POINT('Origin',(-38.4655478964689,-4.3646650428986,-7.82228735018172));
#659=CARTESIAN_POINT('',(-38.4655478964689,-4.3646835693859,-7.81187166190861));
#660=CARTESIAN_POINT('',(-43.4655478964689,-4.3646835693859,-7.81187166190861));
#661=CARTESIAN_POINT('',(-38.4655478964689,-4.3646835693859,-7.81187166190847));
#662=CARTESIAN_POINT('',(-38.4655478964689,-4.3646650428986,-7.82228735018173));
#663=CARTESIAN_POINT('',(-38.4655478964689,-4.45008108124298,40.1990571342283));
#664=CARTESIAN_POINT('',(-43.4655478964689,-4.3646650428986,-7.82228735018173));
#665=CARTESIAN_POINT('',(-38.4655478964689,-4.3646650428986,-7.82228735018173));
#666=CARTESIAN_POINT('',(-43.4655478964689,-4.45008108124298,40.1990571342283));
#667=CARTESIAN_POINT('Origin',(-43.4655478964689,-49.6828030384117,48.6777170862303));
#668=CARTESIAN_POINT('',(-43.4655478964689,-47.9328030384117,48.6777170862303));
#669=CARTESIAN_POINT('Origin',(-43.4655478964689,-49.6828030384117,48.6777170862303));
#670=CARTESIAN_POINT('',(-38.4655478964689,-47.9328030384117,48.6777170862303));
#671=CARTESIAN_POINT('',(-43.4655478964689,-47.9328030384117,48.6777170862303));
#672=CARTESIAN_POINT('Origin',(-38.4655478964689,-49.6828030384117,48.6777170862303));
#673=CARTESIAN_POINT('Origin',(-38.4655478964689,-7.57242798805237,-1.27190568877675));
#674=CARTESIAN_POINT('',(-43.4655478964689,-10.0724279880524,-1.27190568877674));
#675=CARTESIAN_POINT('Origin',(-43.4655478964689,-7.57242798805237,-1.27190568877675));
#676=CARTESIAN_POINT('',(-38.4655478964689,-10.0724279880524,-1.27190568877675));
#677=CARTESIAN_POINT('',(-38.4655478964689,-10.0724279880524,-1.27190568877675));
#678=CARTESIAN_POINT('Origin',(-38.4655478964689,-7.57242798805237,-1.27190568877675));
#679=CARTESIAN_POINT('Origin',(-38.4655478964689,-7.59352467685762,-7.81187166190853));
#680=CARTESIAN_POINT('',(-43.4655478964689,-4.3647020956606,-7.82228723065655));
#681=CARTESIAN_POINT('',(-38.4655478964689,-4.3647020956606,-7.82228723065655));
#682=CARTESIAN_POINT('',(-38.4655478964689,-4.3647020956606,-7.82228723065655));
#683=CARTESIAN_POINT('',(-43.4655478964689,-7.59352467685762,-7.81187166190852));
#684=CARTESIAN_POINT('',(-38.4655478964689,-7.59352467685762,-7.81187166190853));
#685=CARTESIAN_POINT('Origin',(-38.4655478964689,-15.8167525515893,40.1777226228824));
#686=CARTESIAN_POINT('',(-38.4655478964689,-10.8167525515893,40.1777226228824));
#687=CARTESIAN_POINT('',(-38.4655478964689,-15.8167525515892,45.1777226228824));
#688=CARTESIAN_POINT('Origin',(-38.4655478964689,-15.8167525515893,40.1777226228824));
#689=CARTESIAN_POINT('',(-43.4655478964689,-15.8167525515892,45.1777226228824));
#690=CARTESIAN_POINT('',(-38.4655478964689,-15.8167525515892,45.1777226228824));
#691=CARTESIAN_POINT('',(-43.4655478964688,-10.8167525515893,40.1777226228824));
#692=CARTESIAN_POINT('Origin',(-43.4655478964689,-15.8167525515893,40.1777226228824));
#693=CARTESIAN_POINT('',(-38.4655478964689,-10.8167525515893,40.1777226228824));
#694=CARTESIAN_POINT('Origin',(-38.4655478964689,-49.6765775637921,45.1777226228824));
#695=CARTESIAN_POINT('',(-38.4655478964689,-49.6765775637922,45.1777226228824));
#696=CARTESIAN_POINT('',(-38.4655478964689,-49.6765775637921,45.1777226228824));
#697=CARTESIAN_POINT('',(-43.4655478964689,-49.6765775637922,45.1777226228824));
#698=CARTESIAN_POINT('',(-38.4655478964689,-49.6765775637922,45.1777226228824));
#699=CARTESIAN_POINT('',(-43.4655478964689,-49.6765775637921,45.1777226228824));
#700=CARTESIAN_POINT('Origin',(-38.4655478964689,-49.6828030384117,48.6777170862303));
#701=CARTESIAN_POINT('',(-38.4655478964689,-49.6772303492762,52.1777126498183));
#702=CARTESIAN_POINT('Origin',(-38.4655478964689,-49.6828030384117,48.6777170862303));
#703=CARTESIAN_POINT('',(-43.4655478964689,-49.6772303492762,52.1777126498183));
#704=CARTESIAN_POINT('',(-38.4655478964689,-49.6772303492762,52.1777126498183));
#705=CARTESIAN_POINT('Origin',(-43.4655478964689,-49.6828030384117,48.6777170862303));
#706=CARTESIAN_POINT('Origin',(-38.4655478964689,-16.4500620984357,52.1777126498183));
#707=CARTESIAN_POINT('',(-38.4655478964689,-16.4500620984357,52.1777126498183));
#708=CARTESIAN_POINT('',(-38.4655478964689,-49.6883757275498,52.1777126498183));
#709=CARTESIAN_POINT('',(-43.4655478964689,-16.4500620984357,52.1777126498183));
#710=CARTESIAN_POINT('',(-38.4655478964689,-16.4500620984357,52.1777126498183));
#711=CARTESIAN_POINT('',(-43.4655478964689,-49.6883757275498,52.1777126498183));
#712=CARTESIAN_POINT('Origin',(-38.4655478964689,-16.4500620984357,40.1777126498183));
#713=CARTESIAN_POINT('Origin',(-38.4655478964689,-16.4500620984357,40.1777126498183));
#714=CARTESIAN_POINT('Origin',(-43.4655478964689,-16.4500620984357,40.1777126498183));
#715=CARTESIAN_POINT('Origin',(-43.4655478964689,-28.7619048932009,-22.2941912530414));
#716=CARTESIAN_POINT('',(-43.4655478964689,-4.3646650428986,-7.80145597363532));
#717=CARTESIAN_POINT('',(-43.4655478964689,-7.59352467685762,-7.81187166190852));
#718=CARTESIAN_POINT('',(-43.4655478964689,-4.45008108124301,-55.8228004580454));
#719=CARTESIAN_POINT('',(-43.4655478964689,-4.45008108124302,-55.8228004580454));
#720=CARTESIAN_POINT('',(-43.4655478964689,-4.45008108124301,-55.8228004580454));
#721=CARTESIAN_POINT('',(-43.4655478964689,-16.4500620984357,-67.8014559736353));
#722=CARTESIAN_POINT('Origin',(-43.4655478964689,-16.4500620984357,-55.8014559736353));
#723=CARTESIAN_POINT('',(-43.4655478964689,-49.6772303492763,-67.8014559736353));
#724=CARTESIAN_POINT('',(-43.4655478964689,-49.6883757275498,-67.8014559736353));
#725=CARTESIAN_POINT('',(-43.4655478964689,-49.6765775637922,-60.8014659466994));
#726=CARTESIAN_POINT('Origin',(-43.4655478964689,-49.6828030384118,-64.3014604100473));
#727=CARTESIAN_POINT('',(-43.4655478964689,-15.8167525515893,-60.8014659466994));
#728=CARTESIAN_POINT('',(-43.4655478964689,-49.6765775637922,-60.8014659466994));
#729=CARTESIAN_POINT('',(-43.4655478964689,-10.8167525515893,-55.8014659466994));
#730=CARTESIAN_POINT('Origin',(-43.4655478964689,-15.8167525515893,-55.8014659466994));
#731=CARTESIAN_POINT('',(-43.4655478964689,-10.8167525515893,-55.8014659466994));
#732=CARTESIAN_POINT('',(-43.4655478964689,-10.0724279880524,-14.3518376350403));
#733=CARTESIAN_POINT('Origin',(-43.4655478964689,-7.57242798805237,-14.3518376350403));
#734=CARTESIAN_POINT('',(-43.4655478964689,-47.9328030384118,-64.3014604100473));
#735=CARTESIAN_POINT('Origin',(-43.4655478964689,-49.6828030384118,-64.3014604100473));
#736=CARTESIAN_POINT('Origin',(-38.4655478964689,-4.3646650428986,-7.80145597363533));
#737=CARTESIAN_POINT('',(-38.4655478964689,-4.45008108124302,-55.8228004580454));
#738=CARTESIAN_POINT('',(-38.4655478964689,-4.45008108124301,-55.8228004580454));
#739=CARTESIAN_POINT('',(-38.4655478964689,-4.45008108124302,-55.8228004580454));
#740=CARTESIAN_POINT('Origin',(-38.4655478964689,-7.59352467685762,-7.81187166190852));
#741=CARTESIAN_POINT('',(-38.4655478964689,-4.3646650428986,-7.80145597363532));
#742=CARTESIAN_POINT('',(-38.4655478964689,-7.59352467685762,-7.81187166190852));
#743=CARTESIAN_POINT('',(-38.4655478964689,-4.3646650428986,-7.80145597363532));
#744=CARTESIAN_POINT('Origin',(-43.4655478964689,-49.6828030384118,-64.3014604100473));
#745=CARTESIAN_POINT('',(-38.4655478964689,-47.9328030384118,-64.3014604100473));
#746=CARTESIAN_POINT('',(-43.4655478964689,-47.9328030384118,-64.3014604100473));
#747=CARTESIAN_POINT('Origin',(-38.4655478964689,-49.6828030384118,-64.3014604100473));
#748=CARTESIAN_POINT('Origin',(-38.4655478964689,-7.57242798805237,-14.3518376350403));
#749=CARTESIAN_POINT('',(-38.4655478964689,-10.0724279880524,-14.3518376350403));
#750=CARTESIAN_POINT('',(-38.4655478964689,-10.0724279880524,-14.3518376350403));
#751=CARTESIAN_POINT('Origin',(-38.4655478964689,-7.57242798805237,-14.3518376350403));
#752=CARTESIAN_POINT('Origin',(-38.4655478964689,-4.3646650428986,-7.80145597363533));
#753=CARTESIAN_POINT('',(-38.4655478964689,-4.45008108124301,-55.8228004580454));
#754=CARTESIAN_POINT('Origin',(-38.4655478964689,-10.8167525515893,-55.8014659466994));
#755=CARTESIAN_POINT('',(-38.4655478964689,-10.8167525515893,-55.8014659466994));
#756=CARTESIAN_POINT('',(-38.4655478964689,-10.8167525515893,-55.8014659466994));
#757=CARTESIAN_POINT('',(-38.4655478964689,-10.8167525515893,-55.8014659466994));
#758=CARTESIAN_POINT('Origin',(-38.4655478964689,-15.8167525515893,-55.8014659466994));
#759=CARTESIAN_POINT('',(-38.4655478964689,-15.8167525515893,-60.8014659466994));
#760=CARTESIAN_POINT('Origin',(-38.4655478964689,-15.8167525515893,-55.8014659466994));
#761=CARTESIAN_POINT('',(-38.4655478964689,-15.8167525515893,-60.8014659466994));
#762=CARTESIAN_POINT('Origin',(-38.4655478964689,-49.6765775637922,-60.8014659466994));
#763=CARTESIAN_POINT('',(-38.4655478964689,-49.6765775637922,-60.8014659466994));
#764=CARTESIAN_POINT('',(-38.4655478964689,-49.6765775637922,-60.8014659466994));
#765=CARTESIAN_POINT('',(-38.4655478964689,-49.6765775637922,-60.8014659466994));
#766=CARTESIAN_POINT('Origin',(-38.4655478964689,-49.6828030384118,-64.3014604100473));
#767=CARTESIAN_POINT('',(-38.4655478964689,-49.6772303492763,-67.8014559736353));
#768=CARTESIAN_POINT('Origin',(-38.4655478964689,-49.6828030384118,-64.3014604100473));
#769=CARTESIAN_POINT('',(-38.4655478964689,-49.6772303492763,-67.8014559736353));
#770=CARTESIAN_POINT('Origin',(-38.4655478964689,-16.4500620984357,-67.8014559736353));
#771=CARTESIAN_POINT('',(-38.4655478964689,-16.4500620984357,-67.8014559736353));
#772=CARTESIAN_POINT('',(-38.4655478964689,-49.6883757275498,-67.8014559736353));
#773=CARTESIAN_POINT('',(-38.4655478964689,-16.4500620984357,-67.8014559736353));
#774=CARTESIAN_POINT('Origin',(-38.4655478964689,-16.4500620984357,-55.8014559736353));
#775=CARTESIAN_POINT('Origin',(-38.4655478964689,-16.4500620984357,-55.8014559736353));
#776=CARTESIAN_POINT('Origin',(-38.4655478964689,-28.7619048932009,-22.2941912530414));
#777=UNCERTAINTY_MEASURE_WITH_UNIT(LENGTH_MEASURE(0.01),#781,
'DISTANCE_ACCURACY_VALUE',
'Maximum model space distance between geometric entities at asserted c
onnectivities');
#778=UNCERTAINTY_MEASURE_WITH_UNIT(LENGTH_MEASURE(0.01),#781,
'DISTANCE_ACCURACY_VALUE',
'Maximum model space distance between geometric entities at asserted c
onnectivities');
#779=(
GEOMETRIC_REPRESENTATION_CONTEXT(3)
GLOBAL_UNCERTAINTY_ASSIGNED_CONTEXT((#777))
GLOBAL_UNIT_ASSIGNED_CONTEXT((#781,#783,#784))
REPRESENTATION_CONTEXT('','3D')
);
#780=(
GEOMETRIC_REPRESENTATION_CONTEXT(3)
GLOBAL_UNCERTAINTY_ASSIGNED_CONTEXT((#778))
GLOBAL_UNIT_ASSIGNED_CONTEXT((#781,#783,#784))
REPRESENTATION_CONTEXT('','3D')
);
#781=(
LENGTH_UNIT()
NAMED_UNIT(*)
SI_UNIT(.MILLI.,.METRE.)
);
#782=(
LENGTH_UNIT()
NAMED_UNIT(*)
SI_UNIT($,.METRE.)
);
#783=(
NAMED_UNIT(*)
PLANE_ANGLE_UNIT()
SI_UNIT($,.RADIAN.)
);
#784=(
NAMED_UNIT(*)
SI_UNIT($,.STERADIAN.)
SOLID_ANGLE_UNIT()
);
#785=SHAPE_DEFINITION_REPRESENTATION(#786,#787);
#786=PRODUCT_DEFINITION_SHAPE('',$,#789);
#787=SHAPE_REPRESENTATION('',(#473),#779);
#788=PRODUCT_DEFINITION_CONTEXT('part definition',#793,'design');
#789=PRODUCT_DEFINITION('front holder ','front_holder+large v5',#790,#788);
#790=PRODUCT_DEFINITION_FORMATION('',$,#795);
#791=PRODUCT_RELATED_PRODUCT_CATEGORY('front_holder+large v5',
'front_holder+large v5',(#795));
#792=APPLICATION_PROTOCOL_DEFINITION('international standard',
'automotive_design',2009,#793);
#793=APPLICATION_CONTEXT(
'Core Data for Automotive Mechanical Design Process');
#794=PRODUCT_CONTEXT('part definition',#793,'mechanical');
#795=PRODUCT('front holder ','front_holder+large v5',$,(#794));
#796=PRESENTATION_STYLE_ASSIGNMENT((#797));
#797=SURFACE_STYLE_USAGE(.BOTH.,#798);
#798=SURFACE_SIDE_STYLE('',(#799));
#799=SURFACE_STYLE_FILL_AREA(#800);
#800=FILL_AREA_STYLE('Steel - Satin',(#801));
#801=FILL_AREA_STYLE_COLOUR('Steel - Satin',#802);
#802=COLOUR_RGB('Steel - Satin',0.627450980392157,0.627450980392157,0.627450980392157);
ENDSEC;
END-ISO-10303-21;
