ISO-10303-21;
HEADER;
/* Generated by software containing ST-Developer
 * from STEP Tools, Inc. (www.steptools.com) 
 */

FILE_DESCRIPTION(
/* description */ (''),
/* implementation_level */ '2;1');

FILE_NAME(
/* name */ 'Handle v2.step',
/* time_stamp */ '2024-08-21T17:47:08-07:00',
/* author */ (''),
/* organization */ (''),
/* preprocessor_version */ 'ST-DEVELOPER v20',
/* originating_system */ 'Autodesk Translation Framework v13.14.0.145',

/* authorisation */ '');

FILE_SCHEMA (('AUTOMOTIVE_DESIGN { 1 0 10303 214 3 1 1 }'));
ENDSEC;

DATA;
#10=MECHANICAL_DESIGN_GEOMETRIC_PRESENTATION_REPRESENTATION('',(#13),#407);
#11=SHAPE_REPRESENTATION_RELATIONSHIP('SRR','None',#414,#12);
#12=ADVANCED_BREP_SHAPE_REPRESENTATION('',(#14),#406);
#13=STYLED_ITEM('',(#423),#14);
#14=MANIFOLD_SOLID_BREP('Body1',#231);
#15=FACE_BOUND('',#40,.T.);
#16=FACE_BOUND('',#51,.T.);
#17=FACE_BOUND('',#53,.T.);
#18=PLANE('',#248);
#19=PLANE('',#252);
#20=PLANE('',#256);
#21=PLANE('',#260);
#22=PLANE('',#264);
#23=PLANE('',#268);
#24=PLANE('',#269);
#25=FACE_OUTER_BOUND('',#38,.T.);
#26=FACE_OUTER_BOUND('',#39,.T.);
#27=FACE_OUTER_BOUND('',#41,.T.);
#28=FACE_OUTER_BOUND('',#42,.T.);
#29=FACE_OUTER_BOUND('',#43,.T.);
#30=FACE_OUTER_BOUND('',#44,.T.);
#31=FACE_OUTER_BOUND('',#45,.T.);
#32=FACE_OUTER_BOUND('',#46,.T.);
#33=FACE_OUTER_BOUND('',#47,.T.);
#34=FACE_OUTER_BOUND('',#48,.T.);
#35=FACE_OUTER_BOUND('',#49,.T.);
#36=FACE_OUTER_BOUND('',#50,.T.);
#37=FACE_OUTER_BOUND('',#52,.T.);
#38=EDGE_LOOP('',(#152,#153,#154,#155));
#39=EDGE_LOOP('',(#156));
#40=EDGE_LOOP('',(#157));
#41=EDGE_LOOP('',(#158,#159,#160,#161));
#42=EDGE_LOOP('',(#162,#163,#164,#165));
#43=EDGE_LOOP('',(#166,#167,#168,#169));
#44=EDGE_LOOP('',(#170,#171,#172,#173));
#45=EDGE_LOOP('',(#174,#175,#176,#177));
#46=EDGE_LOOP('',(#178,#179,#180,#181));
#47=EDGE_LOOP('',(#182,#183,#184,#185));
#48=EDGE_LOOP('',(#186,#187,#188,#189));
#49=EDGE_LOOP('',(#190,#191,#192,#193));
#50=EDGE_LOOP('',(#194,#195,#196,#197,#198,#199,#200,#201));
#51=EDGE_LOOP('',(#202));
#52=EDGE_LOOP('',(#203,#204,#205,#206,#207,#208,#209,#210));
#53=EDGE_LOOP('',(#211));
#54=LINE('',#345,#72);
#55=LINE('',#352,#73);
#56=LINE('',#357,#74);
#57=LINE('',#359,#75);
#58=LINE('',#361,#76);
#59=LINE('',#362,#77);
#60=LINE('',#368,#78);
#61=LINE('',#371,#79);
#62=LINE('',#373,#80);
#63=LINE('',#374,#81);
#64=LINE('',#380,#82);
#65=LINE('',#383,#83);
#66=LINE('',#385,#84);
#67=LINE('',#386,#85);
#68=LINE('',#392,#86);
#69=LINE('',#395,#87);
#70=LINE('',#397,#88);
#71=LINE('',#398,#89);
#72=VECTOR('',#276,2.);
#73=VECTOR('',#285,1.5);
#74=VECTOR('',#290,10.);
#75=VECTOR('',#291,10.);
#76=VECTOR('',#292,10.);
#77=VECTOR('',#293,10.);
#78=VECTOR('',#300,10.);
#79=VECTOR('',#303,10.);
#80=VECTOR('',#304,10.);
#81=VECTOR('',#305,10.);
#82=VECTOR('',#312,10.);
#83=VECTOR('',#315,10.);
#84=VECTOR('',#316,10.);
#85=VECTOR('',#317,10.);
#86=VECTOR('',#324,10.);
#87=VECTOR('',#327,10.);
#88=VECTOR('',#328,10.);
#89=VECTOR('',#329,10.);
#90=CIRCLE('',#246,2.);
#91=CIRCLE('',#247,2.);
#92=CIRCLE('',#249,1.5);
#93=CIRCLE('',#251,1.5);
#94=CIRCLE('',#254,1.5);
#95=CIRCLE('',#255,1.5);
#96=CIRCLE('',#258,1.5);
#97=CIRCLE('',#259,1.5);
#98=CIRCLE('',#262,1.5);
#99=CIRCLE('',#263,1.5);
#100=CIRCLE('',#266,1.5);
#101=CIRCLE('',#267,1.5);
#102=VERTEX_POINT('',#342);
#103=VERTEX_POINT('',#344);
#104=VERTEX_POINT('',#348);
#105=VERTEX_POINT('',#351);
#106=VERTEX_POINT('',#355);
#107=VERTEX_POINT('',#356);
#108=VERTEX_POINT('',#358);
#109=VERTEX_POINT('',#360);
#110=VERTEX_POINT('',#364);
#111=VERTEX_POINT('',#366);
#112=VERTEX_POINT('',#370);
#113=VERTEX_POINT('',#372);
#114=VERTEX_POINT('',#376);
#115=VERTEX_POINT('',#378);
#116=VERTEX_POINT('',#382);
#117=VERTEX_POINT('',#384);
#118=VERTEX_POINT('',#388);
#119=VERTEX_POINT('',#390);
#120=VERTEX_POINT('',#394);
#121=VERTEX_POINT('',#396);
#122=EDGE_CURVE('',#102,#102,#90,.T.);
#123=EDGE_CURVE('',#102,#103,#54,.T.);
#124=EDGE_CURVE('',#103,#103,#91,.T.);
#125=EDGE_CURVE('',#104,#104,#92,.T.);
#126=EDGE_CURVE('',#104,#105,#55,.T.);
#127=EDGE_CURVE('',#105,#105,#93,.T.);
#128=EDGE_CURVE('',#106,#107,#56,.T.);
#129=EDGE_CURVE('',#107,#108,#57,.T.);
#130=EDGE_CURVE('',#109,#108,#58,.T.);
#131=EDGE_CURVE('',#106,#109,#59,.T.);
#132=EDGE_CURVE('',#110,#106,#94,.T.);
#133=EDGE_CURVE('',#111,#109,#95,.T.);
#134=EDGE_CURVE('',#110,#111,#60,.T.);
#135=EDGE_CURVE('',#112,#110,#61,.T.);
#136=EDGE_CURVE('',#113,#111,#62,.T.);
#137=EDGE_CURVE('',#112,#113,#63,.T.);
#138=EDGE_CURVE('',#114,#112,#96,.T.);
#139=EDGE_CURVE('',#115,#113,#97,.T.);
#140=EDGE_CURVE('',#114,#115,#64,.T.);
#141=EDGE_CURVE('',#116,#114,#65,.T.);
#142=EDGE_CURVE('',#117,#115,#66,.T.);
#143=EDGE_CURVE('',#116,#117,#67,.T.);
#144=EDGE_CURVE('',#118,#116,#98,.T.);
#145=EDGE_CURVE('',#119,#117,#99,.T.);
#146=EDGE_CURVE('',#118,#119,#68,.T.);
#147=EDGE_CURVE('',#120,#118,#69,.T.);
#148=EDGE_CURVE('',#121,#119,#70,.T.);
#149=EDGE_CURVE('',#120,#121,#71,.T.);
#150=EDGE_CURVE('',#107,#120,#100,.T.);
#151=EDGE_CURVE('',#108,#121,#101,.T.);
#152=ORIENTED_EDGE('',*,*,#122,.F.);
#153=ORIENTED_EDGE('',*,*,#123,.T.);
#154=ORIENTED_EDGE('',*,*,#124,.F.);
#155=ORIENTED_EDGE('',*,*,#123,.F.);
#156=ORIENTED_EDGE('',*,*,#122,.T.);
#157=ORIENTED_EDGE('',*,*,#125,.T.);
#158=ORIENTED_EDGE('',*,*,#125,.F.);
#159=ORIENTED_EDGE('',*,*,#126,.T.);
#160=ORIENTED_EDGE('',*,*,#127,.T.);
#161=ORIENTED_EDGE('',*,*,#126,.F.);
#162=ORIENTED_EDGE('',*,*,#128,.T.);
#163=ORIENTED_EDGE('',*,*,#129,.T.);
#164=ORIENTED_EDGE('',*,*,#130,.F.);
#165=ORIENTED_EDGE('',*,*,#131,.F.);
#166=ORIENTED_EDGE('',*,*,#132,.T.);
#167=ORIENTED_EDGE('',*,*,#131,.T.);
#168=ORIENTED_EDGE('',*,*,#133,.F.);
#169=ORIENTED_EDGE('',*,*,#134,.F.);
#170=ORIENTED_EDGE('',*,*,#135,.T.);
#171=ORIENTED_EDGE('',*,*,#134,.T.);
#172=ORIENTED_EDGE('',*,*,#136,.F.);
#173=ORIENTED_EDGE('',*,*,#137,.F.);
#174=ORIENTED_EDGE('',*,*,#138,.T.);
#175=ORIENTED_EDGE('',*,*,#137,.T.);
#176=ORIENTED_EDGE('',*,*,#139,.F.);
#177=ORIENTED_EDGE('',*,*,#140,.F.);
#178=ORIENTED_EDGE('',*,*,#141,.T.);
#179=ORIENTED_EDGE('',*,*,#140,.T.);
#180=ORIENTED_EDGE('',*,*,#142,.F.);
#181=ORIENTED_EDGE('',*,*,#143,.F.);
#182=ORIENTED_EDGE('',*,*,#144,.T.);
#183=ORIENTED_EDGE('',*,*,#143,.T.);
#184=ORIENTED_EDGE('',*,*,#145,.F.);
#185=ORIENTED_EDGE('',*,*,#146,.F.);
#186=ORIENTED_EDGE('',*,*,#147,.T.);
#187=ORIENTED_EDGE('',*,*,#146,.T.);
#188=ORIENTED_EDGE('',*,*,#148,.F.);
#189=ORIENTED_EDGE('',*,*,#149,.F.);
#190=ORIENTED_EDGE('',*,*,#150,.T.);
#191=ORIENTED_EDGE('',*,*,#149,.T.);
#192=ORIENTED_EDGE('',*,*,#151,.F.);
#193=ORIENTED_EDGE('',*,*,#129,.F.);
#194=ORIENTED_EDGE('',*,*,#151,.T.);
#195=ORIENTED_EDGE('',*,*,#148,.T.);
#196=ORIENTED_EDGE('',*,*,#145,.T.);
#197=ORIENTED_EDGE('',*,*,#142,.T.);
#198=ORIENTED_EDGE('',*,*,#139,.T.);
#199=ORIENTED_EDGE('',*,*,#136,.T.);
#200=ORIENTED_EDGE('',*,*,#133,.T.);
#201=ORIENTED_EDGE('',*,*,#130,.T.);
#202=ORIENTED_EDGE('',*,*,#124,.T.);
#203=ORIENTED_EDGE('',*,*,#150,.F.);
#204=ORIENTED_EDGE('',*,*,#128,.F.);
#205=ORIENTED_EDGE('',*,*,#132,.F.);
#206=ORIENTED_EDGE('',*,*,#135,.F.);
#207=ORIENTED_EDGE('',*,*,#138,.F.);
#208=ORIENTED_EDGE('',*,*,#141,.F.);
#209=ORIENTED_EDGE('',*,*,#144,.F.);
#210=ORIENTED_EDGE('',*,*,#147,.F.);
#211=ORIENTED_EDGE('',*,*,#127,.F.);
#212=CYLINDRICAL_SURFACE('',#245,2.);
#213=CYLINDRICAL_SURFACE('',#250,1.5);
#214=CYLINDRICAL_SURFACE('',#253,1.5);
#215=CYLINDRICAL_SURFACE('',#257,1.5);
#216=CYLINDRICAL_SURFACE('',#261,1.5);
#217=CYLINDRICAL_SURFACE('',#265,1.5);
#218=ADVANCED_FACE('',(#25),#212,.T.);
#219=ADVANCED_FACE('',(#26,#15),#18,.T.);
#220=ADVANCED_FACE('',(#27),#213,.F.);
#221=ADVANCED_FACE('',(#28),#19,.T.);
#222=ADVANCED_FACE('',(#29),#214,.T.);
#223=ADVANCED_FACE('',(#30),#20,.T.);
#224=ADVANCED_FACE('',(#31),#215,.T.);
#225=ADVANCED_FACE('',(#32),#21,.T.);
#226=ADVANCED_FACE('',(#33),#216,.T.);
#227=ADVANCED_FACE('',(#34),#22,.T.);
#228=ADVANCED_FACE('',(#35),#217,.T.);
#229=ADVANCED_FACE('',(#36,#16),#23,.T.);
#230=ADVANCED_FACE('',(#37,#17),#24,.F.);
#231=CLOSED_SHELL('',(#218,#219,#220,#221,#222,#223,#224,#225,#226,#227,
#228,#229,#230));
#232=DERIVED_UNIT_ELEMENT(#234,1.);
#233=DERIVED_UNIT_ELEMENT(#409,-3.);
#234=(
MASS_UNIT()
NAMED_UNIT(*)
SI_UNIT(.KILO.,.GRAM.)
);
#235=DERIVED_UNIT((#232,#233));
#236=MEASURE_REPRESENTATION_ITEM('density measure',
POSITIVE_RATIO_MEASURE(7850.),#235);
#237=PROPERTY_DEFINITION_REPRESENTATION(#242,#239);
#238=PROPERTY_DEFINITION_REPRESENTATION(#243,#240);
#239=REPRESENTATION('material name',(#241),#406);
#240=REPRESENTATION('density',(#236),#406);
#241=DESCRIPTIVE_REPRESENTATION_ITEM('Steel','Steel');
#242=PROPERTY_DEFINITION('material property','material name',#416);
#243=PROPERTY_DEFINITION('material property','density of part',#416);
#244=AXIS2_PLACEMENT_3D('',#340,#270,#271);
#245=AXIS2_PLACEMENT_3D('',#341,#272,#273);
#246=AXIS2_PLACEMENT_3D('',#343,#274,#275);
#247=AXIS2_PLACEMENT_3D('',#346,#277,#278);
#248=AXIS2_PLACEMENT_3D('',#347,#279,#280);
#249=AXIS2_PLACEMENT_3D('',#349,#281,#282);
#250=AXIS2_PLACEMENT_3D('',#350,#283,#284);
#251=AXIS2_PLACEMENT_3D('',#353,#286,#287);
#252=AXIS2_PLACEMENT_3D('',#354,#288,#289);
#253=AXIS2_PLACEMENT_3D('',#363,#294,#295);
#254=AXIS2_PLACEMENT_3D('',#365,#296,#297);
#255=AXIS2_PLACEMENT_3D('',#367,#298,#299);
#256=AXIS2_PLACEMENT_3D('',#369,#301,#302);
#257=AXIS2_PLACEMENT_3D('',#375,#306,#307);
#258=AXIS2_PLACEMENT_3D('',#377,#308,#309);
#259=AXIS2_PLACEMENT_3D('',#379,#310,#311);
#260=AXIS2_PLACEMENT_3D('',#381,#313,#314);
#261=AXIS2_PLACEMENT_3D('',#387,#318,#319);
#262=AXIS2_PLACEMENT_3D('',#389,#320,#321);
#263=AXIS2_PLACEMENT_3D('',#391,#322,#323);
#264=AXIS2_PLACEMENT_3D('',#393,#325,#326);
#265=AXIS2_PLACEMENT_3D('',#399,#330,#331);
#266=AXIS2_PLACEMENT_3D('',#400,#332,#333);
#267=AXIS2_PLACEMENT_3D('',#401,#334,#335);
#268=AXIS2_PLACEMENT_3D('',#402,#336,#337);
#269=AXIS2_PLACEMENT_3D('',#403,#338,#339);
#270=DIRECTION('axis',(0.,0.,1.));
#271=DIRECTION('refdir',(1.,0.,0.));
#272=DIRECTION('center_axis',(0.,0.,1.));
#273=DIRECTION('ref_axis',(-1.,0.,0.));
#274=DIRECTION('center_axis',(0.,0.,1.));
#275=DIRECTION('ref_axis',(-1.,0.,0.));
#276=DIRECTION('',(0.,0.,-1.));
#277=DIRECTION('center_axis',(0.,0.,-1.));
#278=DIRECTION('ref_axis',(-1.,0.,0.));
#279=DIRECTION('center_axis',(0.,0.,1.));
#280=DIRECTION('ref_axis',(-1.,0.,0.));
#281=DIRECTION('center_axis',(0.,0.,-1.));
#282=DIRECTION('ref_axis',(-1.,0.,0.));
#283=DIRECTION('center_axis',(0.,0.,1.));
#284=DIRECTION('ref_axis',(1.,0.,0.));
#285=DIRECTION('',(0.,0.,-1.));
#286=DIRECTION('center_axis',(0.,0.,-1.));
#287=DIRECTION('ref_axis',(1.,0.,0.));
#288=DIRECTION('center_axis',(0.,1.,0.));
#289=DIRECTION('ref_axis',(-1.,0.,0.));
#290=DIRECTION('',(-1.,0.,0.));
#291=DIRECTION('',(0.,0.,1.));
#292=DIRECTION('',(-1.,0.,0.));
#293=DIRECTION('',(0.,0.,1.));
#294=DIRECTION('center_axis',(0.,0.,1.));
#295=DIRECTION('ref_axis',(1.,-1.48029736616688E-15,0.));
#296=DIRECTION('center_axis',(0.,0.,1.));
#297=DIRECTION('ref_axis',(1.,-1.48029736616688E-15,0.));
#298=DIRECTION('center_axis',(0.,0.,1.));
#299=DIRECTION('ref_axis',(1.,-1.48029736616688E-15,0.));
#300=DIRECTION('',(0.,0.,1.));
#301=DIRECTION('center_axis',(1.,0.,0.));
#302=DIRECTION('ref_axis',(0.,1.,0.));
#303=DIRECTION('',(0.,1.,0.));
#304=DIRECTION('',(0.,1.,0.));
#305=DIRECTION('',(0.,0.,1.));
#306=DIRECTION('center_axis',(0.,0.,1.));
#307=DIRECTION('ref_axis',(-3.7007434154172E-16,-1.,0.));
#308=DIRECTION('center_axis',(0.,0.,1.));
#309=DIRECTION('ref_axis',(-3.7007434154172E-16,-1.,0.));
#310=DIRECTION('center_axis',(0.,0.,1.));
#311=DIRECTION('ref_axis',(-3.7007434154172E-16,-1.,0.));
#312=DIRECTION('',(0.,0.,1.));
#313=DIRECTION('center_axis',(2.77555756156289E-16,-1.,0.));
#314=DIRECTION('ref_axis',(1.,2.77555756156289E-16,0.));
#315=DIRECTION('',(1.,2.77555756156289E-16,0.));
#316=DIRECTION('',(1.,2.77555756156289E-16,0.));
#317=DIRECTION('',(0.,0.,1.));
#318=DIRECTION('center_axis',(0.,0.,1.));
#319=DIRECTION('ref_axis',(-1.,7.40148683083439E-16,0.));
#320=DIRECTION('center_axis',(0.,0.,1.));
#321=DIRECTION('ref_axis',(-1.,7.40148683083439E-16,0.));
#322=DIRECTION('center_axis',(0.,0.,1.));
#323=DIRECTION('ref_axis',(-1.,7.40148683083439E-16,0.));
#324=DIRECTION('',(0.,0.,1.));
#325=DIRECTION('center_axis',(-1.,0.,0.));
#326=DIRECTION('ref_axis',(0.,-1.,0.));
#327=DIRECTION('',(0.,-1.,0.));
#328=DIRECTION('',(0.,-1.,0.));
#329=DIRECTION('',(0.,0.,1.));
#330=DIRECTION('center_axis',(0.,0.,1.));
#331=DIRECTION('ref_axis',(0.,1.,0.));
#332=DIRECTION('center_axis',(0.,0.,1.));
#333=DIRECTION('ref_axis',(0.,1.,0.));
#334=DIRECTION('center_axis',(0.,0.,1.));
#335=DIRECTION('ref_axis',(0.,1.,0.));
#336=DIRECTION('center_axis',(0.,0.,1.));
#337=DIRECTION('ref_axis',(1.,0.,0.));
#338=DIRECTION('center_axis',(0.,0.,1.));
#339=DIRECTION('ref_axis',(1.,0.,0.));
#340=CARTESIAN_POINT('',(0.,0.,0.));
#341=CARTESIAN_POINT('Origin',(0.,0.,3.));
#342=CARTESIAN_POINT('',(2.,2.44929359829471E-16,4.));
#343=CARTESIAN_POINT('Origin',(0.,0.,4.));
#344=CARTESIAN_POINT('',(2.,2.44929359829471E-16,3.));
#345=CARTESIAN_POINT('',(2.,2.44929359829471E-16,3.));
#346=CARTESIAN_POINT('Origin',(0.,0.,3.));
#347=CARTESIAN_POINT('Origin',(0.,0.,4.));
#348=CARTESIAN_POINT('',(-1.5,-1.83697019872103E-16,4.));
#349=CARTESIAN_POINT('Origin',(0.,0.,4.));
#350=CARTESIAN_POINT('Origin',(0.,0.,0.));
#351=CARTESIAN_POINT('',(-1.5,-1.83697019872103E-16,0.));
#352=CARTESIAN_POINT('',(-1.5,-1.83697019872103E-16,0.));
#353=CARTESIAN_POINT('Origin',(0.,0.,0.));
#354=CARTESIAN_POINT('Origin',(2.,3.5,0.));
#355=CARTESIAN_POINT('',(2.,3.5,0.));
#356=CARTESIAN_POINT('',(-2.,3.5,0.));
#357=CARTESIAN_POINT('',(2.,3.5,0.));
#358=CARTESIAN_POINT('',(-2.,3.5,3.));
#359=CARTESIAN_POINT('',(-2.,3.5,0.));
#360=CARTESIAN_POINT('',(2.,3.5,3.));
#361=CARTESIAN_POINT('',(2.,3.5,3.));
#362=CARTESIAN_POINT('',(2.,3.5,0.));
#363=CARTESIAN_POINT('Origin',(2.,2.,0.));
#364=CARTESIAN_POINT('',(3.5,2.,0.));
#365=CARTESIAN_POINT('Origin',(2.,2.,0.));
#366=CARTESIAN_POINT('',(3.5,2.,3.));
#367=CARTESIAN_POINT('Origin',(2.,2.,3.));
#368=CARTESIAN_POINT('',(3.5,2.,0.));
#369=CARTESIAN_POINT('Origin',(3.5,-2.,0.));
#370=CARTESIAN_POINT('',(3.5,-2.,0.));
#371=CARTESIAN_POINT('',(3.5,-2.,0.));
#372=CARTESIAN_POINT('',(3.5,-2.,3.));
#373=CARTESIAN_POINT('',(3.5,-2.,3.));
#374=CARTESIAN_POINT('',(3.5,-2.,0.));
#375=CARTESIAN_POINT('Origin',(2.,-2.,0.));
#376=CARTESIAN_POINT('',(2.,-3.5,0.));
#377=CARTESIAN_POINT('Origin',(2.,-2.,0.));
#378=CARTESIAN_POINT('',(2.,-3.5,3.));
#379=CARTESIAN_POINT('Origin',(2.,-2.,3.));
#380=CARTESIAN_POINT('',(2.,-3.5,0.));
#381=CARTESIAN_POINT('Origin',(-2.,-3.5,0.));
#382=CARTESIAN_POINT('',(-2.,-3.5,0.));
#383=CARTESIAN_POINT('',(-2.,-3.5,0.));
#384=CARTESIAN_POINT('',(-2.,-3.5,3.));
#385=CARTESIAN_POINT('',(-2.,-3.5,3.));
#386=CARTESIAN_POINT('',(-2.,-3.5,0.));
#387=CARTESIAN_POINT('Origin',(-2.,-2.,0.));
#388=CARTESIAN_POINT('',(-3.5,-2.,0.));
#389=CARTESIAN_POINT('Origin',(-2.,-2.,0.));
#390=CARTESIAN_POINT('',(-3.5,-2.,3.));
#391=CARTESIAN_POINT('Origin',(-2.,-2.,3.));
#392=CARTESIAN_POINT('',(-3.5,-2.,0.));
#393=CARTESIAN_POINT('Origin',(-3.5,2.,0.));
#394=CARTESIAN_POINT('',(-3.5,2.,0.));
#395=CARTESIAN_POINT('',(-3.5,2.,0.));
#396=CARTESIAN_POINT('',(-3.5,2.,3.));
#397=CARTESIAN_POINT('',(-3.5,2.,3.));
#398=CARTESIAN_POINT('',(-3.5,2.,0.));
#399=CARTESIAN_POINT('Origin',(-2.,2.,0.));
#400=CARTESIAN_POINT('Origin',(-2.,2.,0.));
#401=CARTESIAN_POINT('Origin',(-2.,2.,3.));
#402=CARTESIAN_POINT('Origin',(0.,0.,3.));
#403=CARTESIAN_POINT('Origin',(0.,0.,0.));
#404=UNCERTAINTY_MEASURE_WITH_UNIT(LENGTH_MEASURE(0.01),#408,
'DISTANCE_ACCURACY_VALUE',
'Maximum model space distance between geometric entities at asserted c
onnectivities');
#405=UNCERTAINTY_MEASURE_WITH_UNIT(LENGTH_MEASURE(0.01),#408,
'DISTANCE_ACCURACY_VALUE',
'Maximum model space distance between geometric entities at asserted c
onnectivities');
#406=(
GEOMETRIC_REPRESENTATION_CONTEXT(3)
GLOBAL_UNCERTAINTY_ASSIGNED_CONTEXT((#404))
GLOBAL_UNIT_ASSIGNED_CONTEXT((#408,#410,#411))
REPRESENTATION_CONTEXT('','3D')
);
#407=(
GEOMETRIC_REPRESENTATION_CONTEXT(3)
GLOBAL_UNCERTAINTY_ASSIGNED_CONTEXT((#405))
GLOBAL_UNIT_ASSIGNED_CONTEXT((#408,#410,#411))
REPRESENTATION_CONTEXT('','3D')
);
#408=(
LENGTH_UNIT()
NAMED_UNIT(*)
SI_UNIT(.MILLI.,.METRE.)
);
#409=(
LENGTH_UNIT()
NAMED_UNIT(*)
SI_UNIT($,.METRE.)
);
#410=(
NAMED_UNIT(*)
PLANE_ANGLE_UNIT()
SI_UNIT($,.RADIAN.)
);
#411=(
NAMED_UNIT(*)
SI_UNIT($,.STERADIAN.)
SOLID_ANGLE_UNIT()
);
#412=SHAPE_DEFINITION_REPRESENTATION(#413,#414);
#413=PRODUCT_DEFINITION_SHAPE('',$,#416);
#414=SHAPE_REPRESENTATION('',(#244),#406);
#415=PRODUCT_DEFINITION_CONTEXT('part definition',#420,'design');
#416=PRODUCT_DEFINITION('Handle','Handle v2',#417,#415);
#417=PRODUCT_DEFINITION_FORMATION('',$,#422);
#418=PRODUCT_RELATED_PRODUCT_CATEGORY('Handle v2','Handle v2',(#422));
#419=APPLICATION_PROTOCOL_DEFINITION('international standard',
'automotive_design',2009,#420);
#420=APPLICATION_CONTEXT(
'Core Data for Automotive Mechanical Design Process');
#421=PRODUCT_CONTEXT('part definition',#420,'mechanical');
#422=PRODUCT('Handle','Handle v2',$,(#421));
#423=PRESENTATION_STYLE_ASSIGNMENT((#424));
#424=SURFACE_STYLE_USAGE(.BOTH.,#425);
#425=SURFACE_SIDE_STYLE('',(#426));
#426=SURFACE_STYLE_FILL_AREA(#427);
#427=FILL_AREA_STYLE('Steel - Satin',(#428));
#428=FILL_AREA_STYLE_COLOUR('Steel - Satin',#429);
#429=COLOUR_RGB('Steel - Satin',0.627450980392157,0.627450980392157,0.627450980392157);
ENDSEC;
END-ISO-10303-21;
