ISO-10303-21;
HEADER;
/* Generated by software containing ST-Developer
 * from STEP Tools, Inc. (www.steptools.com) 
 */

FILE_DESCRIPTION(
/* description */ (''),
/* implementation_level */ '2;1');

FILE_NAME(
/* name */ 'Motor_Large_HolderV2 v2.step',
/* time_stamp */ '2024-08-21T17:51:33-07:00',
/* author */ (''),
/* organization */ (''),
/* preprocessor_version */ 'ST-DEVELOPER v20',
/* originating_system */ 'Autodesk Translation Framework v13.14.0.145',

/* authorisation */ '');

FILE_SCHEMA (('AUTOMOTIVE_DESIGN { 1 0 10303 214 3 1 1 }'));
ENDSEC;

DATA;
#10=MECHANICAL_DESIGN_GEOMETRIC_PRESENTATION_REPRESENTATION('',(#13),#1604);
#11=SHAPE_REPRESENTATION_RELATIONSHIP('SRR','None',#1611,#12);
#12=ADVANCED_BREP_SHAPE_REPRESENTATION('',(#14),#1603);
#13=STYLED_ITEM('',(#1620),#14);
#14=MANIFOLD_SOLID_BREP('Body3',#964);
#15=CYLINDRICAL_SURFACE('',#991,1.20899999999998);
#16=CYLINDRICAL_SURFACE('',#995,1.20899999999999);
#17=CYLINDRICAL_SURFACE('',#999,1.20899999999999);
#18=CYLINDRICAL_SURFACE('',#1003,1.20899999999998);
#19=CYLINDRICAL_SURFACE('',#1021,1.20899999999998);
#20=CYLINDRICAL_SURFACE('',#1024,1.20899999999999);
#21=CYLINDRICAL_SURFACE('',#1027,1.20899999999999);
#22=CYLINDRICAL_SURFACE('',#1030,1.20899999999998);
#23=CYLINDRICAL_SURFACE('',#1044,1.75);
#24=CYLINDRICAL_SURFACE('',#1045,2.5);
#25=CYLINDRICAL_SURFACE('',#1047,5.);
#26=CYLINDRICAL_SURFACE('',#1049,12.);
#27=CYLINDRICAL_SURFACE('',#1052,1.75);
#28=CYLINDRICAL_SURFACE('',#1053,2.5);
#29=CYLINDRICAL_SURFACE('',#1056,5.);
#30=CYLINDRICAL_SURFACE('',#1058,12.);
#31=FACE_BOUND('',#127,.T.);
#32=FACE_BOUND('',#133,.T.);
#33=FACE_BOUND('',#143,.T.);
#34=FACE_BOUND('',#145,.T.);
#35=FACE_BOUND('',#146,.T.);
#36=FACE_BOUND('',#147,.T.);
#37=FACE_BOUND('',#148,.T.);
#38=FACE_BOUND('',#159,.T.);
#39=FACE_BOUND('',#161,.T.);
#40=FACE_BOUND('',#162,.T.);
#41=CIRCLE('',#983,1.75);
#42=CIRCLE('',#989,1.75);
#43=CIRCLE('',#992,1.20899999999998);
#44=CIRCLE('',#993,1.20899999999998);
#45=CIRCLE('',#996,1.20899999999999);
#46=CIRCLE('',#997,1.20899999999999);
#47=CIRCLE('',#1000,1.20899999999999);
#48=CIRCLE('',#1001,1.20899999999999);
#49=CIRCLE('',#1004,1.20899999999998);
#50=CIRCLE('',#1005,1.20899999999998);
#51=CIRCLE('',#1008,12.);
#52=CIRCLE('',#1009,12.);
#53=CIRCLE('',#1010,1.20899999999998);
#54=CIRCLE('',#1011,1.20899999999999);
#55=CIRCLE('',#1012,1.20899999999999);
#56=CIRCLE('',#1013,1.20899999999998);
#57=CIRCLE('',#1014,5.);
#58=CIRCLE('',#1015,5.);
#59=CIRCLE('',#1016,1.75);
#60=CIRCLE('',#1017,2.5);
#61=CIRCLE('',#1018,2.5);
#62=CIRCLE('',#1019,1.75);
#63=CIRCLE('',#1022,1.20899999999998);
#64=CIRCLE('',#1025,1.20899999999999);
#65=CIRCLE('',#1028,1.20899999999999);
#66=CIRCLE('',#1031,1.20899999999998);
#67=CIRCLE('',#1035,5.);
#68=CIRCLE('',#1036,5.);
#69=CIRCLE('',#1037,12.);
#70=CIRCLE('',#1038,12.);
#71=CIRCLE('',#1039,2.5);
#72=CIRCLE('',#1040,2.5);
#73=FACE_OUTER_BOUND('',#122,.T.);
#74=FACE_OUTER_BOUND('',#123,.T.);
#75=FACE_OUTER_BOUND('',#124,.T.);
#76=FACE_OUTER_BOUND('',#125,.T.);
#77=FACE_OUTER_BOUND('',#126,.T.);
#78=FACE_OUTER_BOUND('',#128,.T.);
#79=FACE_OUTER_BOUND('',#129,.T.);
#80=FACE_OUTER_BOUND('',#130,.T.);
#81=FACE_OUTER_BOUND('',#131,.T.);
#82=FACE_OUTER_BOUND('',#132,.T.);
#83=FACE_OUTER_BOUND('',#134,.T.);
#84=FACE_OUTER_BOUND('',#135,.T.);
#85=FACE_OUTER_BOUND('',#136,.T.);
#86=FACE_OUTER_BOUND('',#137,.T.);
#87=FACE_OUTER_BOUND('',#138,.T.);
#88=FACE_OUTER_BOUND('',#139,.T.);
#89=FACE_OUTER_BOUND('',#140,.T.);
#90=FACE_OUTER_BOUND('',#141,.T.);
#91=FACE_OUTER_BOUND('',#142,.T.);
#92=FACE_OUTER_BOUND('',#144,.T.);
#93=FACE_OUTER_BOUND('',#149,.T.);
#94=FACE_OUTER_BOUND('',#150,.T.);
#95=FACE_OUTER_BOUND('',#151,.T.);
#96=FACE_OUTER_BOUND('',#152,.T.);
#97=FACE_OUTER_BOUND('',#153,.T.);
#98=FACE_OUTER_BOUND('',#154,.T.);
#99=FACE_OUTER_BOUND('',#155,.T.);
#100=FACE_OUTER_BOUND('',#156,.T.);
#101=FACE_OUTER_BOUND('',#157,.T.);
#102=FACE_OUTER_BOUND('',#158,.T.);
#103=FACE_OUTER_BOUND('',#160,.T.);
#104=FACE_OUTER_BOUND('',#163,.T.);
#105=FACE_OUTER_BOUND('',#164,.T.);
#106=FACE_OUTER_BOUND('',#165,.T.);
#107=FACE_OUTER_BOUND('',#166,.T.);
#108=FACE_OUTER_BOUND('',#167,.T.);
#109=FACE_OUTER_BOUND('',#168,.T.);
#110=FACE_OUTER_BOUND('',#169,.T.);
#111=FACE_OUTER_BOUND('',#170,.T.);
#112=FACE_OUTER_BOUND('',#171,.T.);
#113=FACE_OUTER_BOUND('',#172,.T.);
#114=FACE_OUTER_BOUND('',#173,.T.);
#115=FACE_OUTER_BOUND('',#174,.T.);
#116=FACE_OUTER_BOUND('',#175,.T.);
#117=FACE_OUTER_BOUND('',#176,.T.);
#118=FACE_OUTER_BOUND('',#177,.T.);
#119=FACE_OUTER_BOUND('',#178,.T.);
#120=FACE_OUTER_BOUND('',#179,.T.);
#121=FACE_OUTER_BOUND('',#180,.T.);
#122=EDGE_LOOP('',(#612,#613,#614,#615));
#123=EDGE_LOOP('',(#616,#617,#618,#619));
#124=EDGE_LOOP('',(#620,#621,#622,#623));
#125=EDGE_LOOP('',(#624,#625,#626,#627));
#126=EDGE_LOOP('',(#628,#629,#630,#631));
#127=EDGE_LOOP('',(#632));
#128=EDGE_LOOP('',(#633,#634,#635,#636));
#129=EDGE_LOOP('',(#637,#638,#639,#640));
#130=EDGE_LOOP('',(#641,#642,#643,#644));
#131=EDGE_LOOP('',(#645,#646,#647,#648));
#132=EDGE_LOOP('',(#649,#650,#651,#652));
#133=EDGE_LOOP('',(#653));
#134=EDGE_LOOP('',(#654,#655,#656,#657,#658,#659,#660,#661));
#135=EDGE_LOOP('',(#662,#663,#664,#665));
#136=EDGE_LOOP('',(#666,#667,#668,#669));
#137=EDGE_LOOP('',(#670,#671,#672,#673));
#138=EDGE_LOOP('',(#674,#675,#676,#677));
#139=EDGE_LOOP('',(#678,#679,#680,#681));
#140=EDGE_LOOP('',(#682,#683,#684,#685));
#141=EDGE_LOOP('',(#686,#687,#688,#689));
#142=EDGE_LOOP('',(#690,#691,#692,#693,#694,#695,#696,#697));
#143=EDGE_LOOP('',(#698,#699,#700,#701));
#144=EDGE_LOOP('',(#702,#703,#704,#705,#706,#707,#708,#709,#710,#711,#712,
#713,#714,#715,#716,#717,#718,#719,#720,#721,#722,#723,#724,#725,#726,#727,
#728,#729,#730,#731,#732,#733,#734));
#145=EDGE_LOOP('',(#735));
#146=EDGE_LOOP('',(#736));
#147=EDGE_LOOP('',(#737));
#148=EDGE_LOOP('',(#738));
#149=EDGE_LOOP('',(#739,#740,#741,#742));
#150=EDGE_LOOP('',(#743,#744,#745,#746));
#151=EDGE_LOOP('',(#747,#748,#749,#750));
#152=EDGE_LOOP('',(#751,#752,#753,#754));
#153=EDGE_LOOP('',(#755,#756,#757,#758));
#154=EDGE_LOOP('',(#759,#760,#761,#762));
#155=EDGE_LOOP('',(#763,#764,#765,#766));
#156=EDGE_LOOP('',(#767,#768,#769,#770));
#157=EDGE_LOOP('',(#771,#772,#773,#774,#775,#776,#777,#778));
#158=EDGE_LOOP('',(#779,#780,#781,#782,#783,#784,#785,#786));
#159=EDGE_LOOP('',(#787,#788,#789,#790));
#160=EDGE_LOOP('',(#791,#792,#793,#794,#795,#796,#797,#798,#799,#800,#801,
#802,#803,#804,#805,#806,#807));
#161=EDGE_LOOP('',(#808));
#162=EDGE_LOOP('',(#809));
#163=EDGE_LOOP('',(#810,#811,#812,#813));
#164=EDGE_LOOP('',(#814,#815,#816,#817));
#165=EDGE_LOOP('',(#818,#819,#820,#821));
#166=EDGE_LOOP('',(#822,#823,#824,#825));
#167=EDGE_LOOP('',(#826,#827,#828,#829));
#168=EDGE_LOOP('',(#830,#831,#832,#833));
#169=EDGE_LOOP('',(#834,#835,#836,#837));
#170=EDGE_LOOP('',(#838,#839,#840,#841));
#171=EDGE_LOOP('',(#842,#843,#844,#845));
#172=EDGE_LOOP('',(#846,#847,#848,#849));
#173=EDGE_LOOP('',(#850,#851,#852,#853));
#174=EDGE_LOOP('',(#854,#855,#856,#857));
#175=EDGE_LOOP('',(#858,#859,#860,#861));
#176=EDGE_LOOP('',(#862,#863,#864,#865));
#177=EDGE_LOOP('',(#866,#867,#868,#869));
#178=EDGE_LOOP('',(#870,#871,#872,#873));
#179=EDGE_LOOP('',(#874,#875,#876,#877));
#180=EDGE_LOOP('',(#878,#879,#880,#881));
#181=LINE('',#1330,#284);
#182=LINE('',#1332,#285);
#183=LINE('',#1334,#286);
#184=LINE('',#1335,#287);
#185=LINE('',#1338,#288);
#186=LINE('',#1340,#289);
#187=LINE('',#1341,#290);
#188=LINE('',#1344,#291);
#189=LINE('',#1346,#292);
#190=LINE('',#1347,#293);
#191=LINE('',#1349,#294);
#192=LINE('',#1350,#295);
#193=LINE('',#1357,#296);
#194=LINE('',#1359,#297);
#195=LINE('',#1361,#298);
#196=LINE('',#1362,#299);
#197=LINE('',#1365,#300);
#198=LINE('',#1367,#301);
#199=LINE('',#1368,#302);
#200=LINE('',#1371,#303);
#201=LINE('',#1373,#304);
#202=LINE('',#1374,#305);
#203=LINE('',#1376,#306);
#204=LINE('',#1377,#307);
#205=LINE('',#1384,#308);
#206=LINE('',#1386,#309);
#207=LINE('',#1388,#310);
#208=LINE('',#1390,#311);
#209=LINE('',#1392,#312);
#210=LINE('',#1394,#313);
#211=LINE('',#1396,#314);
#212=LINE('',#1397,#315);
#213=LINE('',#1403,#316);
#214=LINE('',#1406,#317);
#215=LINE('',#1408,#318);
#216=LINE('',#1409,#319);
#217=LINE('',#1415,#320);
#218=LINE('',#1418,#321);
#219=LINE('',#1420,#322);
#220=LINE('',#1421,#323);
#221=LINE('',#1427,#324);
#222=LINE('',#1430,#325);
#223=LINE('',#1432,#326);
#224=LINE('',#1433,#327);
#225=LINE('',#1440,#328);
#226=LINE('',#1444,#329);
#227=LINE('',#1446,#330);
#228=LINE('',#1448,#331);
#229=LINE('',#1450,#332);
#230=LINE('',#1452,#333);
#231=LINE('',#1454,#334);
#232=LINE('',#1458,#335);
#233=LINE('',#1460,#336);
#234=LINE('',#1464,#337);
#235=LINE('',#1468,#338);
#236=LINE('',#1472,#339);
#237=LINE('',#1476,#340);
#238=LINE('',#1478,#341);
#239=LINE('',#1482,#342);
#240=LINE('',#1485,#343);
#241=LINE('',#1496,#344);
#242=LINE('',#1497,#345);
#243=LINE('',#1500,#346);
#244=LINE('',#1503,#347);
#245=LINE('',#1506,#348);
#246=LINE('',#1507,#349);
#247=LINE('',#1511,#350);
#248=LINE('',#1514,#351);
#249=LINE('',#1515,#352);
#250=LINE('',#1519,#353);
#251=LINE('',#1522,#354);
#252=LINE('',#1523,#355);
#253=LINE('',#1527,#356);
#254=LINE('',#1530,#357);
#255=LINE('',#1531,#358);
#256=LINE('',#1533,#359);
#257=LINE('',#1534,#360);
#258=LINE('',#1538,#361);
#259=LINE('',#1542,#362);
#260=LINE('',#1545,#363);
#261=LINE('',#1547,#364);
#262=LINE('',#1551,#365);
#263=LINE('',#1553,#366);
#264=LINE('',#1555,#367);
#265=LINE('',#1557,#368);
#266=LINE('',#1559,#369);
#267=LINE('',#1561,#370);
#268=LINE('',#1568,#371);
#269=LINE('',#1570,#372);
#270=LINE('',#1571,#373);
#271=LINE('',#1573,#374);
#272=LINE('',#1574,#375);
#273=LINE('',#1576,#376);
#274=LINE('',#1578,#377);
#275=LINE('',#1580,#378);
#276=LINE('',#1582,#379);
#277=LINE('',#1583,#380);
#278=LINE('',#1587,#381);
#279=LINE('',#1589,#382);
#280=LINE('',#1591,#383);
#281=LINE('',#1593,#384);
#282=LINE('',#1596,#385);
#283=LINE('',#1598,#386);
#284=VECTOR('',#1063,10.);
#285=VECTOR('',#1064,10.);
#286=VECTOR('',#1065,10.);
#287=VECTOR('',#1066,10.);
#288=VECTOR('',#1069,10.);
#289=VECTOR('',#1070,10.);
#290=VECTOR('',#1071,10.);
#291=VECTOR('',#1074,10.);
#292=VECTOR('',#1075,10.);
#293=VECTOR('',#1076,10.);
#294=VECTOR('',#1079,10.);
#295=VECTOR('',#1080,10.);
#296=VECTOR('',#1087,10.);
#297=VECTOR('',#1088,10.);
#298=VECTOR('',#1089,10.);
#299=VECTOR('',#1090,10.);
#300=VECTOR('',#1093,10.);
#301=VECTOR('',#1094,10.);
#302=VECTOR('',#1095,10.);
#303=VECTOR('',#1098,10.);
#304=VECTOR('',#1099,10.);
#305=VECTOR('',#1100,10.);
#306=VECTOR('',#1103,10.);
#307=VECTOR('',#1104,10.);
#308=VECTOR('',#1111,10.);
#309=VECTOR('',#1112,10.);
#310=VECTOR('',#1113,10.);
#311=VECTOR('',#1114,10.);
#312=VECTOR('',#1115,10.);
#313=VECTOR('',#1116,10.);
#314=VECTOR('',#1117,10.);
#315=VECTOR('',#1118,10.);
#316=VECTOR('',#1125,10.);
#317=VECTOR('',#1128,10.);
#318=VECTOR('',#1129,10.);
#319=VECTOR('',#1130,10.);
#320=VECTOR('',#1137,10.);
#321=VECTOR('',#1140,10.);
#322=VECTOR('',#1141,10.);
#323=VECTOR('',#1142,10.);
#324=VECTOR('',#1149,10.);
#325=VECTOR('',#1152,10.);
#326=VECTOR('',#1153,10.);
#327=VECTOR('',#1154,10.);
#328=VECTOR('',#1165,10.);
#329=VECTOR('',#1168,10.);
#330=VECTOR('',#1169,10.);
#331=VECTOR('',#1170,10.);
#332=VECTOR('',#1171,10.);
#333=VECTOR('',#1172,10.);
#334=VECTOR('',#1173,10.);
#335=VECTOR('',#1176,10.);
#336=VECTOR('',#1177,10.);
#337=VECTOR('',#1180,10.);
#338=VECTOR('',#1183,10.);
#339=VECTOR('',#1186,10.);
#340=VECTOR('',#1189,10.);
#341=VECTOR('',#1190,10.);
#342=VECTOR('',#1193,10.);
#343=VECTOR('',#1196,10.);
#344=VECTOR('',#1207,10.);
#345=VECTOR('',#1208,10.);
#346=VECTOR('',#1211,10.);
#347=VECTOR('',#1214,10.);
#348=VECTOR('',#1217,10.);
#349=VECTOR('',#1218,10.);
#350=VECTOR('',#1223,10.);
#351=VECTOR('',#1226,10.);
#352=VECTOR('',#1227,10.);
#353=VECTOR('',#1232,10.);
#354=VECTOR('',#1235,10.);
#355=VECTOR('',#1236,10.);
#356=VECTOR('',#1241,10.);
#357=VECTOR('',#1244,10.);
#358=VECTOR('',#1245,10.);
#359=VECTOR('',#1246,10.);
#360=VECTOR('',#1247,10.);
#361=VECTOR('',#1252,10.);
#362=VECTOR('',#1255,10.);
#363=VECTOR('',#1258,10.);
#364=VECTOR('',#1259,10.);
#365=VECTOR('',#1262,10.);
#366=VECTOR('',#1263,10.);
#367=VECTOR('',#1264,10.);
#368=VECTOR('',#1265,10.);
#369=VECTOR('',#1266,10.);
#370=VECTOR('',#1267,10.);
#371=VECTOR('',#1276,10.);
#372=VECTOR('',#1279,10.);
#373=VECTOR('',#1280,10.);
#374=VECTOR('',#1283,10.);
#375=VECTOR('',#1284,10.);
#376=VECTOR('',#1287,1.75);
#377=VECTOR('',#1290,2.5);
#378=VECTOR('',#1293,10.);
#379=VECTOR('',#1296,10.);
#380=VECTOR('',#1297,10.);
#381=VECTOR('',#1304,10.);
#382=VECTOR('',#1307,10.);
#383=VECTOR('',#1310,1.75);
#384=VECTOR('',#1313,2.5);
#385=VECTOR('',#1318,10.);
#386=VECTOR('',#1321,10.);
#387=VERTEX_POINT('',#1328);
#388=VERTEX_POINT('',#1329);
#389=VERTEX_POINT('',#1331);
#390=VERTEX_POINT('',#1333);
#391=VERTEX_POINT('',#1337);
#392=VERTEX_POINT('',#1339);
#393=VERTEX_POINT('',#1343);
#394=VERTEX_POINT('',#1345);
#395=VERTEX_POINT('',#1352);
#396=VERTEX_POINT('',#1355);
#397=VERTEX_POINT('',#1356);
#398=VERTEX_POINT('',#1358);
#399=VERTEX_POINT('',#1360);
#400=VERTEX_POINT('',#1364);
#401=VERTEX_POINT('',#1366);
#402=VERTEX_POINT('',#1370);
#403=VERTEX_POINT('',#1372);
#404=VERTEX_POINT('',#1379);
#405=VERTEX_POINT('',#1382);
#406=VERTEX_POINT('',#1383);
#407=VERTEX_POINT('',#1385);
#408=VERTEX_POINT('',#1387);
#409=VERTEX_POINT('',#1389);
#410=VERTEX_POINT('',#1391);
#411=VERTEX_POINT('',#1393);
#412=VERTEX_POINT('',#1395);
#413=VERTEX_POINT('',#1399);
#414=VERTEX_POINT('',#1401);
#415=VERTEX_POINT('',#1405);
#416=VERTEX_POINT('',#1407);
#417=VERTEX_POINT('',#1411);
#418=VERTEX_POINT('',#1413);
#419=VERTEX_POINT('',#1417);
#420=VERTEX_POINT('',#1419);
#421=VERTEX_POINT('',#1423);
#422=VERTEX_POINT('',#1425);
#423=VERTEX_POINT('',#1429);
#424=VERTEX_POINT('',#1431);
#425=VERTEX_POINT('',#1439);
#426=VERTEX_POINT('',#1441);
#427=VERTEX_POINT('',#1443);
#428=VERTEX_POINT('',#1445);
#429=VERTEX_POINT('',#1447);
#430=VERTEX_POINT('',#1449);
#431=VERTEX_POINT('',#1451);
#432=VERTEX_POINT('',#1453);
#433=VERTEX_POINT('',#1455);
#434=VERTEX_POINT('',#1457);
#435=VERTEX_POINT('',#1459);
#436=VERTEX_POINT('',#1461);
#437=VERTEX_POINT('',#1463);
#438=VERTEX_POINT('',#1465);
#439=VERTEX_POINT('',#1467);
#440=VERTEX_POINT('',#1469);
#441=VERTEX_POINT('',#1471);
#442=VERTEX_POINT('',#1473);
#443=VERTEX_POINT('',#1475);
#444=VERTEX_POINT('',#1477);
#445=VERTEX_POINT('',#1479);
#446=VERTEX_POINT('',#1481);
#447=VERTEX_POINT('',#1483);
#448=VERTEX_POINT('',#1486);
#449=VERTEX_POINT('',#1488);
#450=VERTEX_POINT('',#1490);
#451=VERTEX_POINT('',#1492);
#452=VERTEX_POINT('',#1495);
#453=VERTEX_POINT('',#1499);
#454=VERTEX_POINT('',#1501);
#455=VERTEX_POINT('',#1505);
#456=VERTEX_POINT('',#1509);
#457=VERTEX_POINT('',#1513);
#458=VERTEX_POINT('',#1517);
#459=VERTEX_POINT('',#1521);
#460=VERTEX_POINT('',#1525);
#461=VERTEX_POINT('',#1529);
#462=VERTEX_POINT('',#1532);
#463=VERTEX_POINT('',#1537);
#464=VERTEX_POINT('',#1539);
#465=VERTEX_POINT('',#1541);
#466=VERTEX_POINT('',#1543);
#467=VERTEX_POINT('',#1546);
#468=VERTEX_POINT('',#1548);
#469=VERTEX_POINT('',#1550);
#470=VERTEX_POINT('',#1552);
#471=VERTEX_POINT('',#1554);
#472=VERTEX_POINT('',#1556);
#473=VERTEX_POINT('',#1558);
#474=VERTEX_POINT('',#1560);
#475=VERTEX_POINT('',#1563);
#476=VERTEX_POINT('',#1565);
#477=EDGE_CURVE('',#387,#388,#181,.T.);
#478=EDGE_CURVE('',#387,#389,#182,.T.);
#479=EDGE_CURVE('',#389,#390,#183,.T.);
#480=EDGE_CURVE('',#388,#390,#184,.T.);
#481=EDGE_CURVE('',#391,#387,#185,.T.);
#482=EDGE_CURVE('',#391,#392,#186,.T.);
#483=EDGE_CURVE('',#392,#389,#187,.T.);
#484=EDGE_CURVE('',#393,#391,#188,.T.);
#485=EDGE_CURVE('',#393,#394,#189,.T.);
#486=EDGE_CURVE('',#394,#392,#190,.T.);
#487=EDGE_CURVE('',#388,#393,#191,.T.);
#488=EDGE_CURVE('',#390,#394,#192,.T.);
#489=EDGE_CURVE('',#395,#395,#41,.T.);
#490=EDGE_CURVE('',#396,#397,#193,.T.);
#491=EDGE_CURVE('',#396,#398,#194,.T.);
#492=EDGE_CURVE('',#398,#399,#195,.T.);
#493=EDGE_CURVE('',#397,#399,#196,.T.);
#494=EDGE_CURVE('',#400,#396,#197,.T.);
#495=EDGE_CURVE('',#400,#401,#198,.T.);
#496=EDGE_CURVE('',#401,#398,#199,.T.);
#497=EDGE_CURVE('',#402,#400,#200,.T.);
#498=EDGE_CURVE('',#402,#403,#201,.T.);
#499=EDGE_CURVE('',#403,#401,#202,.T.);
#500=EDGE_CURVE('',#397,#402,#203,.T.);
#501=EDGE_CURVE('',#399,#403,#204,.T.);
#502=EDGE_CURVE('',#404,#404,#42,.T.);
#503=EDGE_CURVE('',#405,#406,#205,.T.);
#504=EDGE_CURVE('',#407,#405,#206,.T.);
#505=EDGE_CURVE('',#408,#407,#207,.T.);
#506=EDGE_CURVE('',#409,#408,#208,.T.);
#507=EDGE_CURVE('',#409,#410,#209,.T.);
#508=EDGE_CURVE('',#411,#410,#210,.T.);
#509=EDGE_CURVE('',#412,#411,#211,.T.);
#510=EDGE_CURVE('',#406,#412,#212,.T.);
#511=EDGE_CURVE('',#412,#413,#43,.T.);
#512=EDGE_CURVE('',#414,#411,#44,.T.);
#513=EDGE_CURVE('',#413,#414,#213,.T.);
#514=EDGE_CURVE('',#413,#415,#214,.T.);
#515=EDGE_CURVE('',#416,#414,#215,.T.);
#516=EDGE_CURVE('',#415,#416,#216,.T.);
#517=EDGE_CURVE('',#415,#417,#45,.T.);
#518=EDGE_CURVE('',#418,#416,#46,.T.);
#519=EDGE_CURVE('',#417,#418,#217,.T.);
#520=EDGE_CURVE('',#417,#419,#218,.T.);
#521=EDGE_CURVE('',#420,#418,#219,.T.);
#522=EDGE_CURVE('',#419,#420,#220,.T.);
#523=EDGE_CURVE('',#421,#419,#47,.T.);
#524=EDGE_CURVE('',#422,#420,#48,.T.);
#525=EDGE_CURVE('',#421,#422,#221,.T.);
#526=EDGE_CURVE('',#421,#423,#222,.T.);
#527=EDGE_CURVE('',#424,#422,#223,.T.);
#528=EDGE_CURVE('',#423,#424,#224,.T.);
#529=EDGE_CURVE('',#409,#423,#49,.T.);
#530=EDGE_CURVE('',#410,#424,#50,.T.);
#531=EDGE_CURVE('',#425,#408,#225,.T.);
#532=EDGE_CURVE('',#426,#425,#51,.T.);
#533=EDGE_CURVE('',#427,#426,#226,.T.);
#534=EDGE_CURVE('',#427,#428,#227,.T.);
#535=EDGE_CURVE('',#428,#429,#228,.T.);
#536=EDGE_CURVE('',#430,#429,#229,.T.);
#537=EDGE_CURVE('',#431,#430,#230,.T.);
#538=EDGE_CURVE('',#431,#432,#231,.T.);
#539=EDGE_CURVE('',#432,#433,#52,.T.);
#540=EDGE_CURVE('',#433,#434,#232,.T.);
#541=EDGE_CURVE('',#435,#434,#233,.T.);
#542=EDGE_CURVE('',#436,#435,#53,.T.);
#543=EDGE_CURVE('',#437,#436,#234,.T.);
#544=EDGE_CURVE('',#438,#437,#54,.T.);
#545=EDGE_CURVE('',#439,#438,#235,.T.);
#546=EDGE_CURVE('',#439,#440,#55,.T.);
#547=EDGE_CURVE('',#441,#440,#236,.T.);
#548=EDGE_CURVE('',#441,#442,#56,.T.);
#549=EDGE_CURVE('',#443,#442,#237,.T.);
#550=EDGE_CURVE('',#443,#444,#238,.T.);
#551=EDGE_CURVE('',#444,#445,#57,.T.);
#552=EDGE_CURVE('',#445,#446,#239,.T.);
#553=EDGE_CURVE('',#447,#446,#58,.T.);
#554=EDGE_CURVE('',#406,#447,#240,.T.);
#555=EDGE_CURVE('',#448,#448,#59,.T.);
#556=EDGE_CURVE('',#449,#449,#60,.T.);
#557=EDGE_CURVE('',#450,#450,#61,.T.);
#558=EDGE_CURVE('',#451,#451,#62,.T.);
#559=EDGE_CURVE('',#407,#452,#241,.T.);
#560=EDGE_CURVE('',#452,#425,#242,.T.);
#561=EDGE_CURVE('',#435,#453,#243,.T.);
#562=EDGE_CURVE('',#454,#453,#63,.T.);
#563=EDGE_CURVE('',#436,#454,#244,.T.);
#564=EDGE_CURVE('',#455,#454,#245,.T.);
#565=EDGE_CURVE('',#437,#455,#246,.T.);
#566=EDGE_CURVE('',#456,#455,#64,.T.);
#567=EDGE_CURVE('',#438,#456,#247,.T.);
#568=EDGE_CURVE('',#457,#456,#248,.T.);
#569=EDGE_CURVE('',#439,#457,#249,.T.);
#570=EDGE_CURVE('',#458,#457,#65,.T.);
#571=EDGE_CURVE('',#440,#458,#250,.T.);
#572=EDGE_CURVE('',#459,#458,#251,.T.);
#573=EDGE_CURVE('',#441,#459,#252,.T.);
#574=EDGE_CURVE('',#460,#459,#66,.T.);
#575=EDGE_CURVE('',#442,#460,#253,.T.);
#576=EDGE_CURVE('',#443,#461,#254,.T.);
#577=EDGE_CURVE('',#453,#460,#255,.T.);
#578=EDGE_CURVE('',#462,#434,#256,.T.);
#579=EDGE_CURVE('',#461,#462,#257,.T.);
#580=EDGE_CURVE('',#405,#463,#258,.T.);
#581=EDGE_CURVE('',#464,#463,#67,.T.);
#582=EDGE_CURVE('',#465,#464,#259,.T.);
#583=EDGE_CURVE('',#465,#466,#68,.T.);
#584=EDGE_CURVE('',#461,#466,#260,.T.);
#585=EDGE_CURVE('',#462,#467,#261,.T.);
#586=EDGE_CURVE('',#468,#467,#69,.T.);
#587=EDGE_CURVE('',#468,#469,#262,.T.);
#588=EDGE_CURVE('',#469,#470,#263,.T.);
#589=EDGE_CURVE('',#471,#470,#264,.T.);
#590=EDGE_CURVE('',#471,#472,#265,.T.);
#591=EDGE_CURVE('',#473,#472,#266,.T.);
#592=EDGE_CURVE('',#474,#473,#267,.T.);
#593=EDGE_CURVE('',#474,#452,#70,.T.);
#594=EDGE_CURVE('',#475,#475,#71,.T.);
#595=EDGE_CURVE('',#476,#476,#72,.T.);
#596=EDGE_CURVE('',#467,#433,#268,.T.);
#597=EDGE_CURVE('',#427,#473,#269,.T.);
#598=EDGE_CURVE('',#474,#426,#270,.T.);
#599=EDGE_CURVE('',#471,#429,#271,.T.);
#600=EDGE_CURVE('',#470,#430,#272,.T.);
#601=EDGE_CURVE('',#448,#395,#273,.T.);
#602=EDGE_CURVE('',#450,#476,#274,.T.);
#603=EDGE_CURVE('',#431,#469,#275,.T.);
#604=EDGE_CURVE('',#463,#447,#276,.T.);
#605=EDGE_CURVE('',#464,#446,#277,.T.);
#606=EDGE_CURVE('',#468,#432,#278,.T.);
#607=EDGE_CURVE('',#472,#428,#279,.T.);
#608=EDGE_CURVE('',#451,#404,#280,.T.);
#609=EDGE_CURVE('',#449,#475,#281,.T.);
#610=EDGE_CURVE('',#465,#445,#282,.T.);
#611=EDGE_CURVE('',#466,#444,#283,.T.);
#612=ORIENTED_EDGE('',*,*,#477,.F.);
#613=ORIENTED_EDGE('',*,*,#478,.T.);
#614=ORIENTED_EDGE('',*,*,#479,.T.);
#615=ORIENTED_EDGE('',*,*,#480,.F.);
#616=ORIENTED_EDGE('',*,*,#481,.F.);
#617=ORIENTED_EDGE('',*,*,#482,.T.);
#618=ORIENTED_EDGE('',*,*,#483,.T.);
#619=ORIENTED_EDGE('',*,*,#478,.F.);
#620=ORIENTED_EDGE('',*,*,#484,.F.);
#621=ORIENTED_EDGE('',*,*,#485,.T.);
#622=ORIENTED_EDGE('',*,*,#486,.T.);
#623=ORIENTED_EDGE('',*,*,#482,.F.);
#624=ORIENTED_EDGE('',*,*,#487,.F.);
#625=ORIENTED_EDGE('',*,*,#480,.T.);
#626=ORIENTED_EDGE('',*,*,#488,.T.);
#627=ORIENTED_EDGE('',*,*,#485,.F.);
#628=ORIENTED_EDGE('',*,*,#488,.F.);
#629=ORIENTED_EDGE('',*,*,#479,.F.);
#630=ORIENTED_EDGE('',*,*,#483,.F.);
#631=ORIENTED_EDGE('',*,*,#486,.F.);
#632=ORIENTED_EDGE('',*,*,#489,.F.);
#633=ORIENTED_EDGE('',*,*,#490,.F.);
#634=ORIENTED_EDGE('',*,*,#491,.T.);
#635=ORIENTED_EDGE('',*,*,#492,.T.);
#636=ORIENTED_EDGE('',*,*,#493,.F.);
#637=ORIENTED_EDGE('',*,*,#494,.F.);
#638=ORIENTED_EDGE('',*,*,#495,.T.);
#639=ORIENTED_EDGE('',*,*,#496,.T.);
#640=ORIENTED_EDGE('',*,*,#491,.F.);
#641=ORIENTED_EDGE('',*,*,#497,.F.);
#642=ORIENTED_EDGE('',*,*,#498,.T.);
#643=ORIENTED_EDGE('',*,*,#499,.T.);
#644=ORIENTED_EDGE('',*,*,#495,.F.);
#645=ORIENTED_EDGE('',*,*,#500,.F.);
#646=ORIENTED_EDGE('',*,*,#493,.T.);
#647=ORIENTED_EDGE('',*,*,#501,.T.);
#648=ORIENTED_EDGE('',*,*,#498,.F.);
#649=ORIENTED_EDGE('',*,*,#501,.F.);
#650=ORIENTED_EDGE('',*,*,#492,.F.);
#651=ORIENTED_EDGE('',*,*,#496,.F.);
#652=ORIENTED_EDGE('',*,*,#499,.F.);
#653=ORIENTED_EDGE('',*,*,#502,.F.);
#654=ORIENTED_EDGE('',*,*,#503,.F.);
#655=ORIENTED_EDGE('',*,*,#504,.F.);
#656=ORIENTED_EDGE('',*,*,#505,.F.);
#657=ORIENTED_EDGE('',*,*,#506,.F.);
#658=ORIENTED_EDGE('',*,*,#507,.T.);
#659=ORIENTED_EDGE('',*,*,#508,.F.);
#660=ORIENTED_EDGE('',*,*,#509,.F.);
#661=ORIENTED_EDGE('',*,*,#510,.F.);
#662=ORIENTED_EDGE('',*,*,#511,.F.);
#663=ORIENTED_EDGE('',*,*,#509,.T.);
#664=ORIENTED_EDGE('',*,*,#512,.F.);
#665=ORIENTED_EDGE('',*,*,#513,.F.);
#666=ORIENTED_EDGE('',*,*,#514,.F.);
#667=ORIENTED_EDGE('',*,*,#513,.T.);
#668=ORIENTED_EDGE('',*,*,#515,.F.);
#669=ORIENTED_EDGE('',*,*,#516,.F.);
#670=ORIENTED_EDGE('',*,*,#517,.F.);
#671=ORIENTED_EDGE('',*,*,#516,.T.);
#672=ORIENTED_EDGE('',*,*,#518,.F.);
#673=ORIENTED_EDGE('',*,*,#519,.F.);
#674=ORIENTED_EDGE('',*,*,#520,.F.);
#675=ORIENTED_EDGE('',*,*,#519,.T.);
#676=ORIENTED_EDGE('',*,*,#521,.F.);
#677=ORIENTED_EDGE('',*,*,#522,.F.);
#678=ORIENTED_EDGE('',*,*,#523,.T.);
#679=ORIENTED_EDGE('',*,*,#522,.T.);
#680=ORIENTED_EDGE('',*,*,#524,.F.);
#681=ORIENTED_EDGE('',*,*,#525,.F.);
#682=ORIENTED_EDGE('',*,*,#526,.F.);
#683=ORIENTED_EDGE('',*,*,#525,.T.);
#684=ORIENTED_EDGE('',*,*,#527,.F.);
#685=ORIENTED_EDGE('',*,*,#528,.F.);
#686=ORIENTED_EDGE('',*,*,#529,.T.);
#687=ORIENTED_EDGE('',*,*,#528,.T.);
#688=ORIENTED_EDGE('',*,*,#530,.F.);
#689=ORIENTED_EDGE('',*,*,#507,.F.);
#690=ORIENTED_EDGE('',*,*,#508,.T.);
#691=ORIENTED_EDGE('',*,*,#530,.T.);
#692=ORIENTED_EDGE('',*,*,#527,.T.);
#693=ORIENTED_EDGE('',*,*,#524,.T.);
#694=ORIENTED_EDGE('',*,*,#521,.T.);
#695=ORIENTED_EDGE('',*,*,#518,.T.);
#696=ORIENTED_EDGE('',*,*,#515,.T.);
#697=ORIENTED_EDGE('',*,*,#512,.T.);
#698=ORIENTED_EDGE('',*,*,#477,.T.);
#699=ORIENTED_EDGE('',*,*,#487,.T.);
#700=ORIENTED_EDGE('',*,*,#484,.T.);
#701=ORIENTED_EDGE('',*,*,#481,.T.);
#702=ORIENTED_EDGE('',*,*,#510,.T.);
#703=ORIENTED_EDGE('',*,*,#511,.T.);
#704=ORIENTED_EDGE('',*,*,#514,.T.);
#705=ORIENTED_EDGE('',*,*,#517,.T.);
#706=ORIENTED_EDGE('',*,*,#520,.T.);
#707=ORIENTED_EDGE('',*,*,#523,.F.);
#708=ORIENTED_EDGE('',*,*,#526,.T.);
#709=ORIENTED_EDGE('',*,*,#529,.F.);
#710=ORIENTED_EDGE('',*,*,#506,.T.);
#711=ORIENTED_EDGE('',*,*,#531,.F.);
#712=ORIENTED_EDGE('',*,*,#532,.F.);
#713=ORIENTED_EDGE('',*,*,#533,.F.);
#714=ORIENTED_EDGE('',*,*,#534,.T.);
#715=ORIENTED_EDGE('',*,*,#535,.T.);
#716=ORIENTED_EDGE('',*,*,#536,.F.);
#717=ORIENTED_EDGE('',*,*,#537,.F.);
#718=ORIENTED_EDGE('',*,*,#538,.T.);
#719=ORIENTED_EDGE('',*,*,#539,.T.);
#720=ORIENTED_EDGE('',*,*,#540,.T.);
#721=ORIENTED_EDGE('',*,*,#541,.F.);
#722=ORIENTED_EDGE('',*,*,#542,.F.);
#723=ORIENTED_EDGE('',*,*,#543,.F.);
#724=ORIENTED_EDGE('',*,*,#544,.F.);
#725=ORIENTED_EDGE('',*,*,#545,.F.);
#726=ORIENTED_EDGE('',*,*,#546,.T.);
#727=ORIENTED_EDGE('',*,*,#547,.F.);
#728=ORIENTED_EDGE('',*,*,#548,.T.);
#729=ORIENTED_EDGE('',*,*,#549,.F.);
#730=ORIENTED_EDGE('',*,*,#550,.T.);
#731=ORIENTED_EDGE('',*,*,#551,.T.);
#732=ORIENTED_EDGE('',*,*,#552,.T.);
#733=ORIENTED_EDGE('',*,*,#553,.F.);
#734=ORIENTED_EDGE('',*,*,#554,.F.);
#735=ORIENTED_EDGE('',*,*,#555,.F.);
#736=ORIENTED_EDGE('',*,*,#556,.T.);
#737=ORIENTED_EDGE('',*,*,#557,.F.);
#738=ORIENTED_EDGE('',*,*,#558,.T.);
#739=ORIENTED_EDGE('',*,*,#505,.T.);
#740=ORIENTED_EDGE('',*,*,#559,.T.);
#741=ORIENTED_EDGE('',*,*,#560,.T.);
#742=ORIENTED_EDGE('',*,*,#531,.T.);
#743=ORIENTED_EDGE('',*,*,#542,.T.);
#744=ORIENTED_EDGE('',*,*,#561,.T.);
#745=ORIENTED_EDGE('',*,*,#562,.F.);
#746=ORIENTED_EDGE('',*,*,#563,.F.);
#747=ORIENTED_EDGE('',*,*,#543,.T.);
#748=ORIENTED_EDGE('',*,*,#563,.T.);
#749=ORIENTED_EDGE('',*,*,#564,.F.);
#750=ORIENTED_EDGE('',*,*,#565,.F.);
#751=ORIENTED_EDGE('',*,*,#544,.T.);
#752=ORIENTED_EDGE('',*,*,#565,.T.);
#753=ORIENTED_EDGE('',*,*,#566,.F.);
#754=ORIENTED_EDGE('',*,*,#567,.F.);
#755=ORIENTED_EDGE('',*,*,#545,.T.);
#756=ORIENTED_EDGE('',*,*,#567,.T.);
#757=ORIENTED_EDGE('',*,*,#568,.F.);
#758=ORIENTED_EDGE('',*,*,#569,.F.);
#759=ORIENTED_EDGE('',*,*,#546,.F.);
#760=ORIENTED_EDGE('',*,*,#569,.T.);
#761=ORIENTED_EDGE('',*,*,#570,.F.);
#762=ORIENTED_EDGE('',*,*,#571,.F.);
#763=ORIENTED_EDGE('',*,*,#547,.T.);
#764=ORIENTED_EDGE('',*,*,#571,.T.);
#765=ORIENTED_EDGE('',*,*,#572,.F.);
#766=ORIENTED_EDGE('',*,*,#573,.F.);
#767=ORIENTED_EDGE('',*,*,#548,.F.);
#768=ORIENTED_EDGE('',*,*,#573,.T.);
#769=ORIENTED_EDGE('',*,*,#574,.F.);
#770=ORIENTED_EDGE('',*,*,#575,.F.);
#771=ORIENTED_EDGE('',*,*,#576,.F.);
#772=ORIENTED_EDGE('',*,*,#549,.T.);
#773=ORIENTED_EDGE('',*,*,#575,.T.);
#774=ORIENTED_EDGE('',*,*,#577,.F.);
#775=ORIENTED_EDGE('',*,*,#561,.F.);
#776=ORIENTED_EDGE('',*,*,#541,.T.);
#777=ORIENTED_EDGE('',*,*,#578,.F.);
#778=ORIENTED_EDGE('',*,*,#579,.F.);
#779=ORIENTED_EDGE('',*,*,#577,.T.);
#780=ORIENTED_EDGE('',*,*,#574,.T.);
#781=ORIENTED_EDGE('',*,*,#572,.T.);
#782=ORIENTED_EDGE('',*,*,#570,.T.);
#783=ORIENTED_EDGE('',*,*,#568,.T.);
#784=ORIENTED_EDGE('',*,*,#566,.T.);
#785=ORIENTED_EDGE('',*,*,#564,.T.);
#786=ORIENTED_EDGE('',*,*,#562,.T.);
#787=ORIENTED_EDGE('',*,*,#490,.T.);
#788=ORIENTED_EDGE('',*,*,#500,.T.);
#789=ORIENTED_EDGE('',*,*,#497,.T.);
#790=ORIENTED_EDGE('',*,*,#494,.T.);
#791=ORIENTED_EDGE('',*,*,#504,.T.);
#792=ORIENTED_EDGE('',*,*,#580,.T.);
#793=ORIENTED_EDGE('',*,*,#581,.F.);
#794=ORIENTED_EDGE('',*,*,#582,.F.);
#795=ORIENTED_EDGE('',*,*,#583,.T.);
#796=ORIENTED_EDGE('',*,*,#584,.F.);
#797=ORIENTED_EDGE('',*,*,#579,.T.);
#798=ORIENTED_EDGE('',*,*,#585,.T.);
#799=ORIENTED_EDGE('',*,*,#586,.F.);
#800=ORIENTED_EDGE('',*,*,#587,.T.);
#801=ORIENTED_EDGE('',*,*,#588,.T.);
#802=ORIENTED_EDGE('',*,*,#589,.F.);
#803=ORIENTED_EDGE('',*,*,#590,.T.);
#804=ORIENTED_EDGE('',*,*,#591,.F.);
#805=ORIENTED_EDGE('',*,*,#592,.F.);
#806=ORIENTED_EDGE('',*,*,#593,.T.);
#807=ORIENTED_EDGE('',*,*,#559,.F.);
#808=ORIENTED_EDGE('',*,*,#594,.F.);
#809=ORIENTED_EDGE('',*,*,#595,.T.);
#810=ORIENTED_EDGE('',*,*,#578,.T.);
#811=ORIENTED_EDGE('',*,*,#540,.F.);
#812=ORIENTED_EDGE('',*,*,#596,.F.);
#813=ORIENTED_EDGE('',*,*,#585,.F.);
#814=ORIENTED_EDGE('',*,*,#597,.F.);
#815=ORIENTED_EDGE('',*,*,#533,.T.);
#816=ORIENTED_EDGE('',*,*,#598,.F.);
#817=ORIENTED_EDGE('',*,*,#592,.T.);
#818=ORIENTED_EDGE('',*,*,#599,.F.);
#819=ORIENTED_EDGE('',*,*,#589,.T.);
#820=ORIENTED_EDGE('',*,*,#600,.T.);
#821=ORIENTED_EDGE('',*,*,#536,.T.);
#822=ORIENTED_EDGE('',*,*,#555,.T.);
#823=ORIENTED_EDGE('',*,*,#601,.T.);
#824=ORIENTED_EDGE('',*,*,#489,.T.);
#825=ORIENTED_EDGE('',*,*,#601,.F.);
#826=ORIENTED_EDGE('',*,*,#557,.T.);
#827=ORIENTED_EDGE('',*,*,#602,.T.);
#828=ORIENTED_EDGE('',*,*,#595,.F.);
#829=ORIENTED_EDGE('',*,*,#602,.F.);
#830=ORIENTED_EDGE('',*,*,#603,.F.);
#831=ORIENTED_EDGE('',*,*,#537,.T.);
#832=ORIENTED_EDGE('',*,*,#600,.F.);
#833=ORIENTED_EDGE('',*,*,#588,.F.);
#834=ORIENTED_EDGE('',*,*,#581,.T.);
#835=ORIENTED_EDGE('',*,*,#604,.T.);
#836=ORIENTED_EDGE('',*,*,#553,.T.);
#837=ORIENTED_EDGE('',*,*,#605,.F.);
#838=ORIENTED_EDGE('',*,*,#503,.T.);
#839=ORIENTED_EDGE('',*,*,#554,.T.);
#840=ORIENTED_EDGE('',*,*,#604,.F.);
#841=ORIENTED_EDGE('',*,*,#580,.F.);
#842=ORIENTED_EDGE('',*,*,#593,.F.);
#843=ORIENTED_EDGE('',*,*,#598,.T.);
#844=ORIENTED_EDGE('',*,*,#532,.T.);
#845=ORIENTED_EDGE('',*,*,#560,.F.);
#846=ORIENTED_EDGE('',*,*,#603,.T.);
#847=ORIENTED_EDGE('',*,*,#587,.F.);
#848=ORIENTED_EDGE('',*,*,#606,.T.);
#849=ORIENTED_EDGE('',*,*,#538,.F.);
#850=ORIENTED_EDGE('',*,*,#597,.T.);
#851=ORIENTED_EDGE('',*,*,#591,.T.);
#852=ORIENTED_EDGE('',*,*,#607,.T.);
#853=ORIENTED_EDGE('',*,*,#534,.F.);
#854=ORIENTED_EDGE('',*,*,#558,.F.);
#855=ORIENTED_EDGE('',*,*,#608,.T.);
#856=ORIENTED_EDGE('',*,*,#502,.T.);
#857=ORIENTED_EDGE('',*,*,#608,.F.);
#858=ORIENTED_EDGE('',*,*,#556,.F.);
#859=ORIENTED_EDGE('',*,*,#609,.T.);
#860=ORIENTED_EDGE('',*,*,#594,.T.);
#861=ORIENTED_EDGE('',*,*,#609,.F.);
#862=ORIENTED_EDGE('',*,*,#599,.T.);
#863=ORIENTED_EDGE('',*,*,#535,.F.);
#864=ORIENTED_EDGE('',*,*,#607,.F.);
#865=ORIENTED_EDGE('',*,*,#590,.F.);
#866=ORIENTED_EDGE('',*,*,#582,.T.);
#867=ORIENTED_EDGE('',*,*,#605,.T.);
#868=ORIENTED_EDGE('',*,*,#552,.F.);
#869=ORIENTED_EDGE('',*,*,#610,.F.);
#870=ORIENTED_EDGE('',*,*,#583,.F.);
#871=ORIENTED_EDGE('',*,*,#610,.T.);
#872=ORIENTED_EDGE('',*,*,#551,.F.);
#873=ORIENTED_EDGE('',*,*,#611,.F.);
#874=ORIENTED_EDGE('',*,*,#576,.T.);
#875=ORIENTED_EDGE('',*,*,#584,.T.);
#876=ORIENTED_EDGE('',*,*,#611,.T.);
#877=ORIENTED_EDGE('',*,*,#550,.F.);
#878=ORIENTED_EDGE('',*,*,#586,.T.);
#879=ORIENTED_EDGE('',*,*,#596,.T.);
#880=ORIENTED_EDGE('',*,*,#539,.F.);
#881=ORIENTED_EDGE('',*,*,#606,.F.);
#882=PLANE('',#978);
#883=PLANE('',#979);
#884=PLANE('',#980);
#885=PLANE('',#981);
#886=PLANE('',#982);
#887=PLANE('',#984);
#888=PLANE('',#985);
#889=PLANE('',#986);
#890=PLANE('',#987);
#891=PLANE('',#988);
#892=PLANE('',#990);
#893=PLANE('',#994);
#894=PLANE('',#998);
#895=PLANE('',#1002);
#896=PLANE('',#1006);
#897=PLANE('',#1007);
#898=PLANE('',#1020);
#899=PLANE('',#1023);
#900=PLANE('',#1026);
#901=PLANE('',#1029);
#902=PLANE('',#1032);
#903=PLANE('',#1033);
#904=PLANE('',#1034);
#905=PLANE('',#1041);
#906=PLANE('',#1042);
#907=PLANE('',#1043);
#908=PLANE('',#1046);
#909=PLANE('',#1048);
#910=PLANE('',#1050);
#911=PLANE('',#1051);
#912=PLANE('',#1054);
#913=PLANE('',#1055);
#914=PLANE('',#1057);
#915=ADVANCED_FACE('',(#73),#882,.F.);
#916=ADVANCED_FACE('',(#74),#883,.F.);
#917=ADVANCED_FACE('',(#75),#884,.F.);
#918=ADVANCED_FACE('',(#76),#885,.F.);
#919=ADVANCED_FACE('',(#77,#31),#886,.T.);
#920=ADVANCED_FACE('',(#78),#887,.F.);
#921=ADVANCED_FACE('',(#79),#888,.F.);
#922=ADVANCED_FACE('',(#80),#889,.F.);
#923=ADVANCED_FACE('',(#81),#890,.F.);
#924=ADVANCED_FACE('',(#82,#32),#891,.F.);
#925=ADVANCED_FACE('',(#83),#892,.T.);
#926=ADVANCED_FACE('',(#84),#15,.T.);
#927=ADVANCED_FACE('',(#85),#893,.T.);
#928=ADVANCED_FACE('',(#86),#16,.T.);
#929=ADVANCED_FACE('',(#87),#894,.T.);
#930=ADVANCED_FACE('',(#88),#17,.T.);
#931=ADVANCED_FACE('',(#89),#895,.T.);
#932=ADVANCED_FACE('',(#90),#18,.T.);
#933=ADVANCED_FACE('',(#91,#33),#896,.F.);
#934=ADVANCED_FACE('',(#92,#34,#35,#36,#37),#897,.T.);
#935=ADVANCED_FACE('',(#93),#898,.F.);
#936=ADVANCED_FACE('',(#94),#19,.T.);
#937=ADVANCED_FACE('',(#95),#899,.T.);
#938=ADVANCED_FACE('',(#96),#20,.T.);
#939=ADVANCED_FACE('',(#97),#900,.T.);
#940=ADVANCED_FACE('',(#98),#21,.T.);
#941=ADVANCED_FACE('',(#99),#901,.T.);
#942=ADVANCED_FACE('',(#100),#22,.T.);
#943=ADVANCED_FACE('',(#101),#902,.T.);
#944=ADVANCED_FACE('',(#102,#38),#903,.F.);
#945=ADVANCED_FACE('',(#103,#39,#40),#904,.F.);
#946=ADVANCED_FACE('',(#104),#905,.T.);
#947=ADVANCED_FACE('',(#105),#906,.F.);
#948=ADVANCED_FACE('',(#106),#907,.F.);
#949=ADVANCED_FACE('',(#107),#23,.F.);
#950=ADVANCED_FACE('',(#108),#24,.F.);
#951=ADVANCED_FACE('',(#109),#908,.F.);
#952=ADVANCED_FACE('',(#110),#25,.F.);
#953=ADVANCED_FACE('',(#111),#909,.F.);
#954=ADVANCED_FACE('',(#112),#26,.T.);
#955=ADVANCED_FACE('',(#113),#910,.T.);
#956=ADVANCED_FACE('',(#114),#911,.T.);
#957=ADVANCED_FACE('',(#115),#27,.F.);
#958=ADVANCED_FACE('',(#116),#28,.F.);
#959=ADVANCED_FACE('',(#117),#912,.T.);
#960=ADVANCED_FACE('',(#118),#913,.T.);
#961=ADVANCED_FACE('',(#119),#29,.F.);
#962=ADVANCED_FACE('',(#120),#914,.T.);
#963=ADVANCED_FACE('',(#121),#30,.T.);
#964=CLOSED_SHELL('',(#915,#916,#917,#918,#919,#920,#921,#922,#923,#924,
#925,#926,#927,#928,#929,#930,#931,#932,#933,#934,#935,#936,#937,#938,#939,
#940,#941,#942,#943,#944,#945,#946,#947,#948,#949,#950,#951,#952,#953,#954,
#955,#956,#957,#958,#959,#960,#961,#962,#963));
#965=DERIVED_UNIT_ELEMENT(#967,1.);
#966=DERIVED_UNIT_ELEMENT(#1606,-3.);
#967=(
MASS_UNIT()
NAMED_UNIT(*)
SI_UNIT(.KILO.,.GRAM.)
);
#968=DERIVED_UNIT((#965,#966));
#969=MEASURE_REPRESENTATION_ITEM('density measure',
POSITIVE_RATIO_MEASURE(7850.),#968);
#970=PROPERTY_DEFINITION_REPRESENTATION(#975,#972);
#971=PROPERTY_DEFINITION_REPRESENTATION(#976,#973);
#972=REPRESENTATION('material name',(#974),#1603);
#973=REPRESENTATION('density',(#969),#1603);
#974=DESCRIPTIVE_REPRESENTATION_ITEM('Steel','Steel');
#975=PROPERTY_DEFINITION('material property','material name',#1613);
#976=PROPERTY_DEFINITION('material property','density of part',#1613);
#977=AXIS2_PLACEMENT_3D('',#1326,#1059,#1060);
#978=AXIS2_PLACEMENT_3D('',#1327,#1061,#1062);
#979=AXIS2_PLACEMENT_3D('',#1336,#1067,#1068);
#980=AXIS2_PLACEMENT_3D('',#1342,#1072,#1073);
#981=AXIS2_PLACEMENT_3D('',#1348,#1077,#1078);
#982=AXIS2_PLACEMENT_3D('',#1351,#1081,#1082);
#983=AXIS2_PLACEMENT_3D('',#1353,#1083,#1084);
#984=AXIS2_PLACEMENT_3D('',#1354,#1085,#1086);
#985=AXIS2_PLACEMENT_3D('',#1363,#1091,#1092);
#986=AXIS2_PLACEMENT_3D('',#1369,#1096,#1097);
#987=AXIS2_PLACEMENT_3D('',#1375,#1101,#1102);
#988=AXIS2_PLACEMENT_3D('',#1378,#1105,#1106);
#989=AXIS2_PLACEMENT_3D('',#1380,#1107,#1108);
#990=AXIS2_PLACEMENT_3D('',#1381,#1109,#1110);
#991=AXIS2_PLACEMENT_3D('',#1398,#1119,#1120);
#992=AXIS2_PLACEMENT_3D('',#1400,#1121,#1122);
#993=AXIS2_PLACEMENT_3D('',#1402,#1123,#1124);
#994=AXIS2_PLACEMENT_3D('',#1404,#1126,#1127);
#995=AXIS2_PLACEMENT_3D('',#1410,#1131,#1132);
#996=AXIS2_PLACEMENT_3D('',#1412,#1133,#1134);
#997=AXIS2_PLACEMENT_3D('',#1414,#1135,#1136);
#998=AXIS2_PLACEMENT_3D('',#1416,#1138,#1139);
#999=AXIS2_PLACEMENT_3D('',#1422,#1143,#1144);
#1000=AXIS2_PLACEMENT_3D('',#1424,#1145,#1146);
#1001=AXIS2_PLACEMENT_3D('',#1426,#1147,#1148);
#1002=AXIS2_PLACEMENT_3D('',#1428,#1150,#1151);
#1003=AXIS2_PLACEMENT_3D('',#1434,#1155,#1156);
#1004=AXIS2_PLACEMENT_3D('',#1435,#1157,#1158);
#1005=AXIS2_PLACEMENT_3D('',#1436,#1159,#1160);
#1006=AXIS2_PLACEMENT_3D('',#1437,#1161,#1162);
#1007=AXIS2_PLACEMENT_3D('',#1438,#1163,#1164);
#1008=AXIS2_PLACEMENT_3D('',#1442,#1166,#1167);
#1009=AXIS2_PLACEMENT_3D('',#1456,#1174,#1175);
#1010=AXIS2_PLACEMENT_3D('',#1462,#1178,#1179);
#1011=AXIS2_PLACEMENT_3D('',#1466,#1181,#1182);
#1012=AXIS2_PLACEMENT_3D('',#1470,#1184,#1185);
#1013=AXIS2_PLACEMENT_3D('',#1474,#1187,#1188);
#1014=AXIS2_PLACEMENT_3D('',#1480,#1191,#1192);
#1015=AXIS2_PLACEMENT_3D('',#1484,#1194,#1195);
#1016=AXIS2_PLACEMENT_3D('',#1487,#1197,#1198);
#1017=AXIS2_PLACEMENT_3D('',#1489,#1199,#1200);
#1018=AXIS2_PLACEMENT_3D('',#1491,#1201,#1202);
#1019=AXIS2_PLACEMENT_3D('',#1493,#1203,#1204);
#1020=AXIS2_PLACEMENT_3D('',#1494,#1205,#1206);
#1021=AXIS2_PLACEMENT_3D('',#1498,#1209,#1210);
#1022=AXIS2_PLACEMENT_3D('',#1502,#1212,#1213);
#1023=AXIS2_PLACEMENT_3D('',#1504,#1215,#1216);
#1024=AXIS2_PLACEMENT_3D('',#1508,#1219,#1220);
#1025=AXIS2_PLACEMENT_3D('',#1510,#1221,#1222);
#1026=AXIS2_PLACEMENT_3D('',#1512,#1224,#1225);
#1027=AXIS2_PLACEMENT_3D('',#1516,#1228,#1229);
#1028=AXIS2_PLACEMENT_3D('',#1518,#1230,#1231);
#1029=AXIS2_PLACEMENT_3D('',#1520,#1233,#1234);
#1030=AXIS2_PLACEMENT_3D('',#1524,#1237,#1238);
#1031=AXIS2_PLACEMENT_3D('',#1526,#1239,#1240);
#1032=AXIS2_PLACEMENT_3D('',#1528,#1242,#1243);
#1033=AXIS2_PLACEMENT_3D('',#1535,#1248,#1249);
#1034=AXIS2_PLACEMENT_3D('',#1536,#1250,#1251);
#1035=AXIS2_PLACEMENT_3D('',#1540,#1253,#1254);
#1036=AXIS2_PLACEMENT_3D('',#1544,#1256,#1257);
#1037=AXIS2_PLACEMENT_3D('',#1549,#1260,#1261);
#1038=AXIS2_PLACEMENT_3D('',#1562,#1268,#1269);
#1039=AXIS2_PLACEMENT_3D('',#1564,#1270,#1271);
#1040=AXIS2_PLACEMENT_3D('',#1566,#1272,#1273);
#1041=AXIS2_PLACEMENT_3D('',#1567,#1274,#1275);
#1042=AXIS2_PLACEMENT_3D('',#1569,#1277,#1278);
#1043=AXIS2_PLACEMENT_3D('',#1572,#1281,#1282);
#1044=AXIS2_PLACEMENT_3D('',#1575,#1285,#1286);
#1045=AXIS2_PLACEMENT_3D('',#1577,#1288,#1289);
#1046=AXIS2_PLACEMENT_3D('',#1579,#1291,#1292);
#1047=AXIS2_PLACEMENT_3D('',#1581,#1294,#1295);
#1048=AXIS2_PLACEMENT_3D('',#1584,#1298,#1299);
#1049=AXIS2_PLACEMENT_3D('',#1585,#1300,#1301);
#1050=AXIS2_PLACEMENT_3D('',#1586,#1302,#1303);
#1051=AXIS2_PLACEMENT_3D('',#1588,#1305,#1306);
#1052=AXIS2_PLACEMENT_3D('',#1590,#1308,#1309);
#1053=AXIS2_PLACEMENT_3D('',#1592,#1311,#1312);
#1054=AXIS2_PLACEMENT_3D('',#1594,#1314,#1315);
#1055=AXIS2_PLACEMENT_3D('',#1595,#1316,#1317);
#1056=AXIS2_PLACEMENT_3D('',#1597,#1319,#1320);
#1057=AXIS2_PLACEMENT_3D('',#1599,#1322,#1323);
#1058=AXIS2_PLACEMENT_3D('',#1600,#1324,#1325);
#1059=DIRECTION('axis',(0.,0.,1.));
#1060=DIRECTION('refdir',(1.,0.,0.));
#1061=DIRECTION('center_axis',(2.14939672426125E-61,-1.,3.44850793954935E-46));
#1062=DIRECTION('ref_axis',(4.9960036108132E-16,3.44850793954935E-46,1.));
#1063=DIRECTION('',(4.9960036108132E-16,3.44850793954935E-46,1.));
#1064=DIRECTION('',(-1.,0.,6.23283101543947E-16));
#1065=DIRECTION('',(4.9960036108132E-16,3.44850793954935E-46,1.));
#1066=DIRECTION('',(-1.,0.,6.23283101543947E-16));
#1067=DIRECTION('center_axis',(-6.23283101543947E-16,-4.30223212731303E-46,
-1.));
#1068=DIRECTION('ref_axis',(6.90253292068385E-31,-1.,0.));
#1069=DIRECTION('',(6.90253292068385E-31,-1.,0.));
#1070=DIRECTION('',(-1.,0.,6.23283101543947E-16));
#1071=DIRECTION('',(6.90253292068385E-31,-1.,0.));
#1072=DIRECTION('center_axis',(-2.14939672426125E-61,1.,-3.44850793954935E-46));
#1073=DIRECTION('ref_axis',(-4.9960036108132E-16,-3.44850793954935E-46,
-1.));
#1074=DIRECTION('',(-4.9960036108132E-16,-3.44850793954935E-46,-1.));
#1075=DIRECTION('',(-1.,0.,6.23283101543947E-16));
#1076=DIRECTION('',(-4.9960036108132E-16,-3.44850793954935E-46,-1.));
#1077=DIRECTION('center_axis',(6.23283101543947E-16,4.30223212731303E-46,
1.));
#1078=DIRECTION('ref_axis',(-6.90253292068385E-31,1.,0.));
#1079=DIRECTION('',(-6.90253292068385E-31,1.,0.));
#1080=DIRECTION('',(-6.90253292068385E-31,1.,0.));
#1081=DIRECTION('center_axis',(1.,6.90253292068385E-31,-4.9960036108132E-16));
#1082=DIRECTION('ref_axis',(-6.90253292068385E-31,1.,0.));
#1083=DIRECTION('center_axis',(1.,6.90253292068385E-31,-4.9960036108132E-16));
#1084=DIRECTION('ref_axis',(3.05928147139877E-31,-1.,6.88888944730648E-16));
#1085=DIRECTION('center_axis',(-6.23283101543947E-16,3.483052626275E-15,
-1.));
#1086=DIRECTION('ref_axis',(-1.04988105768385E-30,-1.,-3.483052626275E-15));
#1087=DIRECTION('',(-1.04988105768385E-30,-1.,-3.483052626275E-15));
#1088=DIRECTION('',(-1.,0.,6.23283101543947E-16));
#1089=DIRECTION('',(-1.04988105768385E-30,-1.,-3.483052626275E-15));
#1090=DIRECTION('',(-1.,0.,6.23283101543947E-16));
#1091=DIRECTION('center_axis',(1.36127852497155E-30,1.,2.18404529434457E-15));
#1092=DIRECTION('ref_axis',(-4.9960036108132E-16,2.18404529434457E-15,-1.));
#1093=DIRECTION('',(-4.9960036108132E-16,2.18404529434457E-15,-1.));
#1094=DIRECTION('',(-1.,0.,6.23283101543947E-16));
#1095=DIRECTION('',(-4.9960036108132E-16,2.18404529434457E-15,-1.));
#1096=DIRECTION('center_axis',(6.23283101543947E-16,-3.483052626275E-15,
1.));
#1097=DIRECTION('ref_axis',(1.04988105768385E-30,1.,3.483052626275E-15));
#1098=DIRECTION('',(1.04988105768385E-30,1.,3.483052626275E-15));
#1099=DIRECTION('',(-1.,0.,6.23283101543947E-16));
#1100=DIRECTION('',(1.04988105768385E-30,1.,3.483052626275E-15));
#1101=DIRECTION('center_axis',(-1.36127852497155E-30,-1.,-2.18404529434457E-15));
#1102=DIRECTION('ref_axis',(4.9960036108132E-16,-2.18404529434457E-15,1.));
#1103=DIRECTION('',(4.9960036108132E-16,-2.18404529434457E-15,1.));
#1104=DIRECTION('',(4.9960036108132E-16,-2.18404529434457E-15,1.));
#1105=DIRECTION('center_axis',(-1.,0.,6.23283101543947E-16));
#1106=DIRECTION('ref_axis',(6.23283101543947E-16,0.,1.));
#1107=DIRECTION('center_axis',(1.,0.,-6.23283101543947E-16));
#1108=DIRECTION('ref_axis',(0.,-1.,6.13068078142107E-46));
#1109=DIRECTION('center_axis',(-2.09335360836023E-61,1.,-3.44850793954935E-46));
#1110=DIRECTION('ref_axis',(4.9960036108132E-16,3.44850793954935E-46,1.));
#1111=DIRECTION('',(-1.,-5.61908442324094E-62,4.44089209850063E-16));
#1112=DIRECTION('',(-4.9960036108132E-16,-3.44850793954935E-46,-1.));
#1113=DIRECTION('',(1.,5.61908442324094E-62,-4.44089209850063E-16));
#1114=DIRECTION('',(-4.9960036108132E-16,-3.44850793954935E-46,-1.));
#1115=DIRECTION('',(1.,0.,-6.07031691692667E-16));
#1116=DIRECTION('',(4.9960036108132E-16,3.44850793954935E-46,1.));
#1117=DIRECTION('',(1.,0.,-6.07031691692667E-16));
#1118=DIRECTION('',(-4.9960036108132E-16,-3.44850793954935E-46,-1.));
#1119=DIRECTION('center_axis',(1.,0.,-6.07031691692667E-16));
#1120=DIRECTION('ref_axis',(0.,1.,-4.19005623580704E-46));
#1121=DIRECTION('center_axis',(-1.,-6.90253292068385E-31,4.9960036108132E-16));
#1122=DIRECTION('ref_axis',(-6.90253292068385E-31,1.,0.));
#1123=DIRECTION('center_axis',(1.,6.90253292068385E-31,-4.9960036108132E-16));
#1124=DIRECTION('ref_axis',(-6.90253292068385E-31,1.,0.));
#1125=DIRECTION('',(1.,0.,-6.07031691692667E-16));
#1126=DIRECTION('center_axis',(-6.07031691692667E-16,-4.19005623580704E-46,
-1.));
#1127=DIRECTION('ref_axis',(-6.90253292068385E-31,1.,0.));
#1128=DIRECTION('',(6.90253292068385E-31,-1.,0.));
#1129=DIRECTION('',(-6.90253292068385E-31,1.,0.));
#1130=DIRECTION('',(1.,0.,-6.07031691692667E-16));
#1131=DIRECTION('center_axis',(1.,0.,-6.07031691692667E-16));
#1132=DIRECTION('ref_axis',(-6.07031691692577E-16,1.46927778279592E-14,
-1.));
#1133=DIRECTION('center_axis',(-1.,4.75195482226075E-25,-1.36786530352309E-11));
#1134=DIRECTION('ref_axis',(1.36786530352309E-11,1.46927778279592E-14,-1.));
#1135=DIRECTION('center_axis',(1.,-4.75195482226075E-25,1.36786530352309E-11));
#1136=DIRECTION('ref_axis',(1.36786530352309E-11,1.46927778279592E-14,-1.));
#1137=DIRECTION('',(1.,0.,-6.07031691692667E-16));
#1138=DIRECTION('center_axis',(-5.73143254477105E-57,-1.,-9.4417352886294E-42));
#1139=DIRECTION('ref_axis',(1.3678653035231E-11,9.4417352886294E-42,-1.));
#1140=DIRECTION('',(-1.3678653035231E-11,-9.4417352886294E-42,1.));
#1141=DIRECTION('',(1.3678653035231E-11,9.4417352886294E-42,-1.));
#1142=DIRECTION('',(1.,0.,-6.07031691692667E-16));
#1143=DIRECTION('center_axis',(1.,0.,-6.07031691692667E-16));
#1144=DIRECTION('ref_axis',(6.07031691692577E-16,1.46927778279592E-14,1.));
#1145=DIRECTION('center_axis',(1.,-1.70989407944895E-11,1.36786530352309E-11));
#1146=DIRECTION('ref_axis',(-1.36786530352307E-11,1.46927778279592E-14,
1.));
#1147=DIRECTION('center_axis',(1.,-1.70989407944895E-11,1.36786530352309E-11));
#1148=DIRECTION('ref_axis',(-1.36786530352307E-11,1.46927778279592E-14,
1.));
#1149=DIRECTION('',(1.,0.,-6.07031691692667E-16));
#1150=DIRECTION('center_axis',(6.07031691692667E-16,1.85384767209193E-15,
1.));
#1151=DIRECTION('ref_axis',(-1.70989407944901E-11,-1.,1.85384767210231E-15));
#1152=DIRECTION('',(1.70989407944901E-11,1.,-1.85384767210231E-15));
#1153=DIRECTION('',(-1.70989407944901E-11,-1.,1.85384767210231E-15));
#1154=DIRECTION('',(1.,0.,-6.07031691692667E-16));
#1155=DIRECTION('center_axis',(1.,0.,-6.07031691692667E-16));
#1156=DIRECTION('ref_axis',(0.,1.,-1.46927778279575E-14));
#1157=DIRECTION('center_axis',(1.,-1.709894079449E-11,-4.99600361177527E-16));
#1158=DIRECTION('ref_axis',(1.709894079449E-11,1.,-1.46927778279678E-14));
#1159=DIRECTION('center_axis',(1.,-1.709894079449E-11,-4.99600361177527E-16));
#1160=DIRECTION('ref_axis',(1.709894079449E-11,1.,-1.46927778279678E-14));
#1161=DIRECTION('center_axis',(-1.,-6.90253292068385E-31,4.9960036108132E-16));
#1162=DIRECTION('ref_axis',(6.90253292068385E-31,-1.,0.));
#1163=DIRECTION('center_axis',(-1.,-6.90253292068385E-31,4.9960036108132E-16));
#1164=DIRECTION('ref_axis',(6.90253292068385E-31,-1.,0.));
#1165=DIRECTION('',(1.10001542124636E-30,-1.,9.5610419205359E-16));
#1166=DIRECTION('center_axis',(1.,7.28494310460869E-31,-3.88578058618806E-16));
#1167=DIRECTION('ref_axis',(6.91166526188457E-19,0.999998418099392,0.00177870703416947));
#1168=DIRECTION('',(3.88577443926939E-16,-0.00177870703416963,0.999998418099392));
#1169=DIRECTION('',(-6.88856893550376E-16,0.99999479711495,0.00322579339529886));
#1170=DIRECTION('',(-4.99599570763205E-16,-0.00177870703417032,-0.999998418099392));
#1171=DIRECTION('',(3.88577443926939E-16,-0.00177870703416963,0.999998418099392));
#1172=DIRECTION('',(-6.91721973630492E-16,0.99999479711495,-0.00322579339529955));
#1173=DIRECTION('',(-4.99599570763205E-16,-0.00177870703417032,-0.999998418099392));
#1174=DIRECTION('center_axis',(-1.,-6.90253292068385E-31,4.9960036108132E-16));
#1175=DIRECTION('ref_axis',(-8.88642676529984E-19,0.999998418099392,-0.00177870703417016));
#1176=DIRECTION('',(5.56752458019409E-31,-1.,-2.67215247322943E-16));
#1177=DIRECTION('',(4.9960036108132E-16,3.44850793954935E-46,1.));
#1178=DIRECTION('center_axis',(1.,-1.709894079449E-11,-4.99600361177527E-16));
#1179=DIRECTION('ref_axis',(-4.99600361428758E-16,-1.46927778279593E-14,
-1.));
#1180=DIRECTION('',(1.70989407944901E-11,1.,9.26923836038341E-16));
#1181=DIRECTION('center_axis',(1.,-1.70989407944899E-11,-1.36796522359531E-11));
#1182=DIRECTION('ref_axis',(-1.70989407944898E-11,-1.,7.34638891398814E-15));
#1183=DIRECTION('',(-1.36796522359532E-11,-9.44242499021731E-42,-1.));
#1184=DIRECTION('center_axis',(-1.,7.32259811270835E-26,1.36796522359531E-11));
#1185=DIRECTION('ref_axis',(-1.73722026660385E-25,-1.,-7.3463889139796E-15));
#1186=DIRECTION('',(1.15334477525229E-30,-1.,9.26923836046883E-16));
#1187=DIRECTION('center_axis',(-1.,-6.90253292068385E-31,4.9960036108132E-16));
#1188=DIRECTION('ref_axis',(4.9960036108132E-16,-1.46927778279593E-14,1.));
#1189=DIRECTION('',(4.9960036108132E-16,3.44850793954935E-46,1.));
#1190=DIRECTION('',(6.17554875938321E-16,1.,2.62310398645011E-16));
#1191=DIRECTION('center_axis',(1.,-6.1755487593832E-16,4.62782203268396E-18));
#1192=DIRECTION('ref_axis',(6.1755487593832E-16,1.,-3.08530639006315E-31));
#1193=DIRECTION('',(9.83531737689083E-17,-3.23935922431955E-16,1.));
#1194=DIRECTION('center_axis',(-1.,6.1755487593832E-16,8.9280624173281E-16));
#1195=DIRECTION('ref_axis',(6.1755487593832E-16,1.,-6.88888944730648E-16));
#1196=DIRECTION('',(6.1755487593832E-16,1.,-9.51199343375659E-16));
#1197=DIRECTION('center_axis',(-1.,-7.28494310460869E-31,3.88578058618806E-16));
#1198=DIRECTION('ref_axis',(3.05928147139877E-31,-1.,6.88888944730648E-16));
#1199=DIRECTION('center_axis',(1.,6.90253292068385E-31,-4.9960036108132E-16));
#1200=DIRECTION('ref_axis',(-6.90253292068385E-31,1.,0.));
#1201=DIRECTION('center_axis',(-1.,-7.28494310460869E-31,3.88578058618806E-16));
#1202=DIRECTION('ref_axis',(-9.96181439208262E-31,1.,-6.88888944730648E-16));
#1203=DIRECTION('center_axis',(1.,6.90253292068385E-31,-4.9960036108132E-16));
#1204=DIRECTION('ref_axis',(0.,-1.,6.13068078142107E-46));
#1205=DIRECTION('center_axis',(-4.44089209850063E-16,-9.5610419205359E-16,
-1.));
#1206=DIRECTION('ref_axis',(1.10001542124636E-30,-1.,9.5610419205359E-16));
#1207=DIRECTION('',(-1.10001542124636E-30,1.,-9.5610419205359E-16));
#1208=DIRECTION('',(-1.,0.,4.44089209850063E-16));
#1209=DIRECTION('center_axis',(1.,0.,-6.07031691692667E-16));
#1210=DIRECTION('ref_axis',(-6.07031691692666E-16,-1.46927778279593E-14,
-1.));
#1211=DIRECTION('',(1.,0.,-6.07031691692667E-16));
#1212=DIRECTION('center_axis',(1.,-1.709894079449E-11,-4.99600361177527E-16));
#1213=DIRECTION('ref_axis',(-4.99600361428758E-16,-1.46927778279593E-14,
-1.));
#1214=DIRECTION('',(1.,0.,-6.07031691692667E-16));
#1215=DIRECTION('center_axis',(-6.07031691692667E-16,9.26923836048721E-16,
-1.));
#1216=DIRECTION('ref_axis',(1.70989407944901E-11,1.,9.26923836038341E-16));
#1217=DIRECTION('',(1.70989407944901E-11,1.,9.26923836038341E-16));
#1218=DIRECTION('',(1.,0.,-6.07031691692667E-16));
#1219=DIRECTION('center_axis',(1.,0.,-6.07031691692667E-16));
#1220=DIRECTION('ref_axis',(0.,-1.,7.34638891397776E-15));
#1221=DIRECTION('center_axis',(1.,-1.70989407944899E-11,-1.36796522359531E-11));
#1222=DIRECTION('ref_axis',(-1.70989407944898E-11,-1.,7.34638891398814E-15));
#1223=DIRECTION('',(1.,0.,-6.07031691692667E-16));
#1224=DIRECTION('center_axis',(5.73185121549272E-57,-1.,9.44242499021731E-42));
#1225=DIRECTION('ref_axis',(-1.36796522359532E-11,-9.44242499021731E-42,
-1.));
#1226=DIRECTION('',(-1.36796522359532E-11,-9.44242499021731E-42,-1.));
#1227=DIRECTION('',(1.,0.,-6.07031691692667E-16));
#1228=DIRECTION('center_axis',(1.,0.,-6.07031691692667E-16));
#1229=DIRECTION('ref_axis',(-4.45949089027644E-30,-1.,-7.3463889139796E-15));
#1230=DIRECTION('center_axis',(1.,-7.32259811270835E-26,-1.36796522359531E-11));
#1231=DIRECTION('ref_axis',(-1.73722026660385E-25,-1.,-7.3463889139796E-15));
#1232=DIRECTION('',(1.,0.,-6.07031691692667E-16));
#1233=DIRECTION('center_axis',(6.07031691692667E-16,9.26923836046883E-16,
1.));
#1234=DIRECTION('ref_axis',(1.15334477525229E-30,-1.,9.26923836046883E-16));
#1235=DIRECTION('',(1.15334477525229E-30,-1.,9.26923836046883E-16));
#1236=DIRECTION('',(1.,0.,-6.07031691692667E-16));
#1237=DIRECTION('center_axis',(1.,0.,-6.07031691692667E-16));
#1238=DIRECTION('ref_axis',(6.07031691692666E-16,-1.46927778279593E-14,
1.));
#1239=DIRECTION('center_axis',(1.,6.90253292068385E-31,-4.9960036108132E-16));
#1240=DIRECTION('ref_axis',(4.9960036108132E-16,-1.46927778279593E-14,1.));
#1241=DIRECTION('',(1.,0.,-6.07031691692667E-16));
#1242=DIRECTION('center_axis',(-2.09335360836023E-61,1.,-3.44850793954935E-46));
#1243=DIRECTION('ref_axis',(4.9960036108132E-16,3.44850793954935E-46,1.));
#1244=DIRECTION('',(1.,5.61908442324094E-62,-4.44089209850063E-16));
#1245=DIRECTION('',(4.9960036108132E-16,3.44850793954935E-46,1.));
#1246=DIRECTION('',(-1.,-5.61908442324094E-62,4.44089209850063E-16));
#1247=DIRECTION('',(-4.9960036108132E-16,-3.44850793954935E-46,-1.));
#1248=DIRECTION('center_axis',(-1.,-6.90253292068385E-31,4.9960036108132E-16));
#1249=DIRECTION('ref_axis',(6.90253292068385E-31,-1.,0.));
#1250=DIRECTION('center_axis',(-1.,-6.90253292068385E-31,4.9960036108132E-16));
#1251=DIRECTION('ref_axis',(6.90253292068385E-31,-1.,0.));
#1252=DIRECTION('',(6.1755487593832E-16,1.,-9.51199343375659E-16));
#1253=DIRECTION('center_axis',(1.,-6.1755487593832E-16,-8.9280624173281E-16));
#1254=DIRECTION('ref_axis',(6.1755487593832E-16,1.,-6.88888944730648E-16));
#1255=DIRECTION('',(9.83531737689083E-17,-3.23935922431955E-16,1.));
#1256=DIRECTION('center_axis',(-1.,6.1755487593832E-16,-4.62782203268396E-18));
#1257=DIRECTION('ref_axis',(6.1755487593832E-16,1.,-3.08530639006315E-31));
#1258=DIRECTION('',(6.17554875938321E-16,1.,2.62310398645011E-16));
#1259=DIRECTION('',(-5.56752458019409E-31,1.,2.67215247322943E-16));
#1260=DIRECTION('center_axis',(-1.,-6.90253292068385E-31,4.9960036108132E-16));
#1261=DIRECTION('ref_axis',(-8.88642676529984E-19,0.999998418099392,-0.00177870703417016));
#1262=DIRECTION('',(4.99599570763205E-16,0.00177870703417032,0.999998418099392));
#1263=DIRECTION('',(-6.91721973630492E-16,0.99999479711495,-0.00322579339529955));
#1264=DIRECTION('',(-3.88577443926939E-16,0.00177870703416963,-0.999998418099392));
#1265=DIRECTION('',(4.99599570763205E-16,0.00177870703417032,0.999998418099392));
#1266=DIRECTION('',(-6.88856893550376E-16,0.99999479711495,0.00322579339529886));
#1267=DIRECTION('',(-3.88577443926939E-16,0.00177870703416963,-0.999998418099392));
#1268=DIRECTION('center_axis',(1.,7.28494310460869E-31,-3.88578058618806E-16));
#1269=DIRECTION('ref_axis',(6.91166526188457E-19,0.999998418099392,0.00177870703416947));
#1270=DIRECTION('center_axis',(1.,6.90253292068385E-31,-4.9960036108132E-16));
#1271=DIRECTION('ref_axis',(-6.90253292068385E-31,1.,0.));
#1272=DIRECTION('center_axis',(-1.,-7.28494310460869E-31,3.88578058618806E-16));
#1273=DIRECTION('ref_axis',(-9.96181439208262E-31,1.,-6.88888944730648E-16));
#1274=DIRECTION('center_axis',(-4.44089209850063E-16,2.67215247322943E-16,
-1.));
#1275=DIRECTION('ref_axis',(5.56752458019409E-31,-1.,-2.67215247322943E-16));
#1276=DIRECTION('',(-1.,0.,4.44089209850063E-16));
#1277=DIRECTION('center_axis',(-7.8990460135914E-19,-0.999998418099392,
-0.00177870703416963));
#1278=DIRECTION('ref_axis',(3.88577443926939E-16,-0.00177870703416963,0.999998418099392));
#1279=DIRECTION('',(1.,0.,-4.44089209850063E-16));
#1280=DIRECTION('',(-1.,0.,4.44089209850063E-16));
#1281=DIRECTION('center_axis',(-7.8990460135914E-19,-0.999998418099392,
-0.00177870703416963));
#1282=DIRECTION('ref_axis',(3.88577443926939E-16,-0.00177870703416963,0.999998418099392));
#1283=DIRECTION('',(-1.,0.,4.44089209850063E-16));
#1284=DIRECTION('',(-1.,0.,4.44089209850063E-16));
#1285=DIRECTION('center_axis',(-1.,-3.05928147139877E-31,7.88860905221012E-31));
#1286=DIRECTION('ref_axis',(3.05928147139877E-31,-1.,6.88888944730648E-16));
#1287=DIRECTION('',(1.,3.05928147139877E-31,-7.88860905221012E-31));
#1288=DIRECTION('center_axis',(1.,0.,-4.44089209850063E-16));
#1289=DIRECTION('ref_axis',(-3.05928147139877E-31,1.,-6.88888944730648E-16));
#1290=DIRECTION('',(1.,0.,-4.44089209850063E-16));
#1291=DIRECTION('center_axis',(4.44086899304952E-16,0.00322579339529955,
0.999994797114951));
#1292=DIRECTION('ref_axis',(-6.91721973630492E-16,0.99999479711495,-0.00322579339529955));
#1293=DIRECTION('',(1.,0.,-4.44089209850063E-16));
#1294=DIRECTION('center_axis',(1.,0.,-4.44089209850063E-16));
#1295=DIRECTION('ref_axis',(-3.05928147139877E-31,1.,-6.88888944730648E-16));
#1296=DIRECTION('',(-1.,0.,4.44089209850063E-16));
#1297=DIRECTION('',(-1.,0.,4.44089209850063E-16));
#1298=DIRECTION('center_axis',(4.44089209850063E-16,9.51199343375659E-16,
1.));
#1299=DIRECTION('ref_axis',(6.1755487593832E-16,1.,-9.51199343375659E-16));
#1300=DIRECTION('center_axis',(1.,0.,-4.44089209850063E-16));
#1301=DIRECTION('ref_axis',(7.89904601359067E-19,0.999998418099392,0.00177870703416947));
#1302=DIRECTION('center_axis',(-7.89904601359446E-19,0.999998418099392,
-0.00177870703417032));
#1303=DIRECTION('ref_axis',(-4.99599570763205E-16,-0.00177870703417032,
-0.999998418099392));
#1304=DIRECTION('',(-1.,0.,4.44089209850063E-16));
#1305=DIRECTION('center_axis',(4.44086899304952E-16,-0.00322579339529887,
0.999994797114951));
#1306=DIRECTION('ref_axis',(-6.88856893550376E-16,0.99999479711495,0.00322579339529886));
#1307=DIRECTION('',(-1.,0.,4.44089209850063E-16));
#1308=DIRECTION('center_axis',(1.,0.,-8.88178419700125E-16));
#1309=DIRECTION('ref_axis',(0.,-1.,6.13068078142107E-46));
#1310=DIRECTION('',(1.,0.,-8.88178419700125E-16));
#1311=DIRECTION('center_axis',(-1.,0.,4.44089209850063E-16));
#1312=DIRECTION('ref_axis',(0.,1.,-3.06534039071054E-46));
#1313=DIRECTION('',(1.,0.,-4.44089209850063E-16));
#1314=DIRECTION('center_axis',(-7.89904601359446E-19,0.999998418099392,
-0.00177870703417032));
#1315=DIRECTION('ref_axis',(-4.99599570763205E-16,-0.00177870703417032,
-0.999998418099392));
#1316=DIRECTION('center_axis',(-1.43856447834858E-31,-1.,-3.23935922431955E-16));
#1317=DIRECTION('ref_axis',(9.83531737689083E-17,-3.23935922431955E-16,
1.));
#1318=DIRECTION('',(-1.,0.,4.44089209850063E-16));
#1319=DIRECTION('center_axis',(-1.,0.,4.44089209850063E-16));
#1320=DIRECTION('ref_axis',(0.,1.,-3.42811821118126E-32));
#1321=DIRECTION('',(-1.,0.,4.44089209850063E-16));
#1322=DIRECTION('center_axis',(4.44089209850063E-16,-2.62310398645011E-16,
1.));
#1323=DIRECTION('ref_axis',(6.17554875938321E-16,1.,2.62310398645011E-16));
#1324=DIRECTION('center_axis',(-1.,0.,4.44089209850063E-16));
#1325=DIRECTION('ref_axis',(-7.89904601359373E-19,0.999998418099392,-0.00177870703417016));
#1326=CARTESIAN_POINT('',(0.,0.,0.));
#1327=CARTESIAN_POINT('Origin',(-14.2025478964689,-54.7828030384118,42.5777170862302));
#1328=CARTESIAN_POINT('',(-14.2025478964689,-54.7828030384118,42.5777170862302));
#1329=CARTESIAN_POINT('',(-14.2025478964689,-54.7828030384118,54.7777170862302));
#1330=CARTESIAN_POINT('',(-14.2025478964689,-54.7828030384118,17.3829227121609));
#1331=CARTESIAN_POINT('',(-42.7025478964689,-54.7828030384118,42.5777170862303));
#1332=CARTESIAN_POINT('',(-14.2025478964689,-54.7828030384118,42.5777170862302));
#1333=CARTESIAN_POINT('',(-42.7025478964689,-54.7828030384118,54.7777170862303));
#1334=CARTESIAN_POINT('',(-42.7025478964689,-54.7828030384118,42.5777170862303));
#1335=CARTESIAN_POINT('',(-14.2025478964689,-54.7828030384118,54.7777170862302));
#1336=CARTESIAN_POINT('Origin',(-14.2025478964689,-44.5828030384118,42.5777170862302));
#1337=CARTESIAN_POINT('',(-14.2025478964689,-44.5828030384118,42.5777170862302));
#1338=CARTESIAN_POINT('',(-14.2025478964689,-37.3032685395335,42.5777170862302));
#1339=CARTESIAN_POINT('',(-42.7025478964689,-44.5828030384118,42.5777170862303));
#1340=CARTESIAN_POINT('',(-14.2025478964689,-44.5828030384118,42.5777170862302));
#1341=CARTESIAN_POINT('',(-42.7025478964689,-44.5828030384118,42.5777170862303));
#1342=CARTESIAN_POINT('Origin',(-14.2025478964689,-44.5828030384118,54.7777170862302));
#1343=CARTESIAN_POINT('',(-14.2025478964689,-44.5828030384118,54.7777170862302));
#1344=CARTESIAN_POINT('',(-14.2025478964689,-44.5828030384118,23.4829227121609));
#1345=CARTESIAN_POINT('',(-42.7025478964689,-44.5828030384118,54.7777170862303));
#1346=CARTESIAN_POINT('',(-14.2025478964689,-44.5828030384118,54.7777170862302));
#1347=CARTESIAN_POINT('',(-42.7025478964689,-44.5828030384118,54.7777170862303));
#1348=CARTESIAN_POINT('Origin',(-14.2025478964689,-54.7828030384118,54.7777170862302));
#1349=CARTESIAN_POINT('',(-14.2025478964689,-42.4032685395335,54.7777170862302));
#1350=CARTESIAN_POINT('',(-42.7025478964689,-54.7828030384118,54.7777170862303));
#1351=CARTESIAN_POINT('Origin',(-42.7025478964689,-49.6828030384118,-7.11178291376975));
#1352=CARTESIAN_POINT('',(-42.7025478964689,-47.9328030384117,48.6777170862303));
#1353=CARTESIAN_POINT('Origin',(-42.7025478964689,-49.6828030384117,48.6777170862303));
#1354=CARTESIAN_POINT('Origin',(-14.2025478964689,-44.5828030384116,-70.4012829137697));
#1355=CARTESIAN_POINT('',(-14.2025478964689,-44.5828030384116,-70.4012829137697));
#1356=CARTESIAN_POINT('',(-14.2025478964689,-54.7828030384116,-70.4012829137698));
#1357=CARTESIAN_POINT('',(-14.2025478964689,-37.3032685395333,-70.4012829137697));
#1358=CARTESIAN_POINT('',(-42.7025478964689,-44.5828030384116,-70.4012829137697));
#1359=CARTESIAN_POINT('',(-14.2025478964689,-44.5828030384116,-70.4012829137697));
#1360=CARTESIAN_POINT('',(-42.7025478964689,-54.7828030384116,-70.4012829137698));
#1361=CARTESIAN_POINT('',(-42.7025478964689,-54.7828030384116,-70.4012829137698));
#1362=CARTESIAN_POINT('',(-14.2025478964689,-54.7828030384116,-70.4012829137698));
#1363=CARTESIAN_POINT('Origin',(-14.2025478964689,-44.5828030384117,-58.2012829137697));
#1364=CARTESIAN_POINT('',(-14.2025478964689,-44.5828030384117,-58.2012829137697));
#1365=CARTESIAN_POINT('',(-14.2025478964689,-44.5828030384117,-34.0065772878391));
#1366=CARTESIAN_POINT('',(-42.7025478964689,-44.5828030384117,-58.2012829137697));
#1367=CARTESIAN_POINT('',(-14.2025478964689,-44.5828030384117,-58.2012829137697));
#1368=CARTESIAN_POINT('',(-42.7025478964689,-44.5828030384116,-70.4012829137697));
#1369=CARTESIAN_POINT('Origin',(-14.2025478964689,-54.7828030384117,-58.2012829137698));
#1370=CARTESIAN_POINT('',(-14.2025478964689,-54.7828030384117,-58.2012829137698));
#1371=CARTESIAN_POINT('',(-14.2025478964689,-42.4032685395333,-58.2012829137697));
#1372=CARTESIAN_POINT('',(-42.7025478964689,-54.7828030384117,-58.2012829137698));
#1373=CARTESIAN_POINT('',(-14.2025478964689,-54.7828030384117,-58.2012829137698));
#1374=CARTESIAN_POINT('',(-42.7025478964689,-44.5828030384117,-58.2012829137697));
#1375=CARTESIAN_POINT('Origin',(-14.2025478964689,-54.7828030384116,-70.4012829137698));
#1376=CARTESIAN_POINT('',(-14.2025478964689,-54.7828030384117,-40.1065772878392));
#1377=CARTESIAN_POINT('',(-42.7025478964689,-54.7828030384117,-58.2012829137698));
#1378=CARTESIAN_POINT('Origin',(-42.7025478964689,-49.6828030384118,-7.11178291376975));
#1379=CARTESIAN_POINT('',(-42.7025478964689,-47.9328030384118,-64.3014604100473));
#1380=CARTESIAN_POINT('Origin',(-42.7025478964689,-49.6828030384118,-64.3014604100473));
#1381=CARTESIAN_POINT('Origin',(-43.4655478963663,-43.6828030384118,42.3867170862302));
#1382=CARTESIAN_POINT('',(-38.4655478964689,-43.6828030384118,45.1777226228824));
#1383=CARTESIAN_POINT('',(-43.4655478963663,-43.6828030384118,45.1777226228824));
#1384=CARTESIAN_POINT('',(-40.9655478964176,-43.6828030384118,45.1777226228824));
#1385=CARTESIAN_POINT('',(-38.4655478964689,-43.6828030384118,52.1777126498183));
#1386=CARTESIAN_POINT('',(-38.4655478964689,-43.6828030384118,10.0462629165944));
#1387=CARTESIAN_POINT('',(-43.4655478963663,-43.6828030384118,52.1777126498183));
#1388=CARTESIAN_POINT('',(-40.9655478964176,-43.6828030384118,52.1777126498183));
#1389=CARTESIAN_POINT('',(-43.4655478963663,-43.6828030384118,54.9687170862303));
#1390=CARTESIAN_POINT('',(-43.4655478963663,-43.6828030384118,54.9687170862303));
#1391=CARTESIAN_POINT('',(-14.2025478963663,-43.6828030384118,54.9687170862302));
#1392=CARTESIAN_POINT('',(-43.4655478963663,-43.6828030384118,54.9687170862303));
#1393=CARTESIAN_POINT('',(-14.2025478963663,-43.6828030384118,42.3867170862302));
#1394=CARTESIAN_POINT('',(-14.2025478963663,-43.6828030384118,54.9687170862302));
#1395=CARTESIAN_POINT('',(-43.4655478963663,-43.6828030384118,42.3867170862302));
#1396=CARTESIAN_POINT('',(-43.4655478963663,-43.6828030384118,42.3867170862302));
#1397=CARTESIAN_POINT('',(-43.4655478963663,-43.6828030384118,54.9687170862303));
#1398=CARTESIAN_POINT('Origin',(-43.4655478963663,-44.8918030384117,42.3867170862302));
#1399=CARTESIAN_POINT('',(-43.4655478963663,-44.8918030384118,41.1777170862303));
#1400=CARTESIAN_POINT('Origin',(-43.4655478963663,-44.8918030384117,42.3867170862302));
#1401=CARTESIAN_POINT('',(-14.2025478963663,-44.8918030384118,41.1777170862303));
#1402=CARTESIAN_POINT('Origin',(-14.2025478963663,-44.8918030384117,42.3867170862302));
#1403=CARTESIAN_POINT('',(-43.4655478963663,-44.8918030384118,41.1777170862303));
#1404=CARTESIAN_POINT('Origin',(-43.4655478963663,-54.4738030384118,41.1777170862303));
#1405=CARTESIAN_POINT('',(-43.4655478963663,-54.4738030384118,41.1777170862303));
#1406=CARTESIAN_POINT('',(-43.4655478963663,-44.8918030384118,41.1777170862303));
#1407=CARTESIAN_POINT('',(-14.2025478963663,-54.4738030384118,41.1777170862302));
#1408=CARTESIAN_POINT('',(-14.2025478963663,-44.8918030384118,41.1777170862302));
#1409=CARTESIAN_POINT('',(-43.4655478963663,-54.4738030384118,41.1777170862303));
#1410=CARTESIAN_POINT('Origin',(-43.4655478963828,-54.4738030384118,42.3867170862302));
#1411=CARTESIAN_POINT('',(-43.4655478963828,-55.6828030384118,42.3867170862302));
#1412=CARTESIAN_POINT('Origin',(-43.4655478963828,-54.4738030384118,42.3867170862302));
#1413=CARTESIAN_POINT('',(-14.2025478963828,-55.6828030384118,42.3867170862302));
#1414=CARTESIAN_POINT('Origin',(-14.2025478963828,-54.4738030384118,42.3867170862302));
#1415=CARTESIAN_POINT('',(-43.4655478963828,-55.6828030384118,42.3867170862302));
#1416=CARTESIAN_POINT('Origin',(-43.4655478965549,-55.6828030384118,54.9687170862303));
#1417=CARTESIAN_POINT('',(-43.4655478965549,-55.6828030384118,54.9687170862303));
#1418=CARTESIAN_POINT('',(-43.4655478963828,-55.6828030384118,42.3867170862302));
#1419=CARTESIAN_POINT('',(-14.2025478965549,-55.6828030384118,54.9687170862302));
#1420=CARTESIAN_POINT('',(-14.2025478963828,-55.6828030384118,42.3867170862302));
#1421=CARTESIAN_POINT('',(-43.4655478965549,-55.6828030384118,54.9687170862303));
#1422=CARTESIAN_POINT('Origin',(-43.4655478965342,-54.4738030384118,54.9687170862303));
#1423=CARTESIAN_POINT('',(-43.4655478965508,-54.4738030384118,56.1777170862303));
#1424=CARTESIAN_POINT('Origin',(-43.4655478965342,-54.4738030384118,54.9687170862303));
#1425=CARTESIAN_POINT('',(-14.2025478965508,-54.4738030384118,56.1777170862302));
#1426=CARTESIAN_POINT('Origin',(-14.2025478965342,-54.4738030384118,54.9687170862303));
#1427=CARTESIAN_POINT('',(-43.4655478965508,-54.4738030384118,56.1777170862303));
#1428=CARTESIAN_POINT('Origin',(-43.4655478963869,-44.8918030384118,56.1777170862302));
#1429=CARTESIAN_POINT('',(-43.4655478963869,-44.8918030384118,56.1777170862303));
#1430=CARTESIAN_POINT('',(-43.4655478965508,-54.4738030384118,56.1777170862303));
#1431=CARTESIAN_POINT('',(-14.2025478963869,-44.8918030384118,56.1777170862302));
#1432=CARTESIAN_POINT('',(-14.2025478965508,-54.4738030384118,56.1777170862302));
#1433=CARTESIAN_POINT('',(-43.4655478963869,-44.8918030384118,56.1777170862303));
#1434=CARTESIAN_POINT('Origin',(-43.4655478963869,-44.8918030384117,54.9687170862303));
#1435=CARTESIAN_POINT('Origin',(-43.4655478963869,-44.8918030384117,54.9687170862303));
#1436=CARTESIAN_POINT('Origin',(-14.2025478963869,-44.8918030384117,54.9687170862303));
#1437=CARTESIAN_POINT('Origin',(-14.2025478964689,-30.0237340406552,-7.81187166190854));
#1438=CARTESIAN_POINT('Origin',(-43.4655478964689,-28.7619048932009,-22.2941912530414));
#1439=CARTESIAN_POINT('',(-43.4655478964689,-16.4500620984357,52.1777126498183));
#1440=CARTESIAN_POINT('',(-43.4655478964689,-49.6883757275498,52.1777126498183));
#1441=CARTESIAN_POINT('',(-43.4655478964689,-4.45008108124298,40.1990571342283));
#1442=CARTESIAN_POINT('Origin',(-43.4655478964689,-16.4500620984357,40.1777126498183));
#1443=CARTESIAN_POINT('',(-43.4655478964689,-4.3647020956606,-7.8014560931605));
#1444=CARTESIAN_POINT('',(-43.4655478964689,-4.45008108124298,40.1990571342283));
#1445=CARTESIAN_POINT('',(-43.4655478964689,-4.3646650428986,-7.80145597363532));
#1446=CARTESIAN_POINT('',(-43.4655478964689,-7.59352467685762,-7.81187166190852));
#1447=CARTESIAN_POINT('',(-43.4655478964689,-4.3646835693859,-7.81187166190861));
#1448=CARTESIAN_POINT('',(-43.4655478964689,-4.45008108124301,-55.8228004580454));
#1449=CARTESIAN_POINT('',(-43.4655478964689,-4.3646650428986,-7.82228735018173));
#1450=CARTESIAN_POINT('',(-43.4655478964689,-4.45008108124298,40.1990571342283));
#1451=CARTESIAN_POINT('',(-43.4655478964689,-4.3647020956606,-7.82228723065655));
#1452=CARTESIAN_POINT('',(-43.4655478964689,-7.59352467685762,-7.81187166190852));
#1453=CARTESIAN_POINT('',(-43.4655478964689,-4.45008108124302,-55.8228004580454));
#1454=CARTESIAN_POINT('',(-43.4655478964689,-4.45008108124301,-55.8228004580454));
#1455=CARTESIAN_POINT('',(-43.4655478964689,-16.4500620984357,-67.8014559736353));
#1456=CARTESIAN_POINT('Origin',(-43.4655478964689,-16.4500620984357,-55.8014559736353));
#1457=CARTESIAN_POINT('',(-43.4655478964689,-43.6828030384118,-67.8014559736353));
#1458=CARTESIAN_POINT('',(-43.4655478964689,-49.6883757275498,-67.8014559736353));
#1459=CARTESIAN_POINT('',(-43.4655478963663,-43.6828030384118,-70.5924604100473));
#1460=CARTESIAN_POINT('',(-43.4655478963663,-43.6828030384118,-70.5924604100473));
#1461=CARTESIAN_POINT('',(-43.465547896387,-44.8918030384118,-71.8014604100473));
#1462=CARTESIAN_POINT('Origin',(-43.465547896387,-44.8918030384117,-70.5924604100473));
#1463=CARTESIAN_POINT('',(-43.4655478965509,-54.4738030384118,-71.8014604100473));
#1464=CARTESIAN_POINT('',(-43.4655478965509,-54.4738030384118,-71.8014604100473));
#1465=CARTESIAN_POINT('',(-43.465547896555,-55.6828030384118,-70.5924604100473));
#1466=CARTESIAN_POINT('Origin',(-43.4655478965343,-54.4738030384118,-70.5924604100473));
#1467=CARTESIAN_POINT('',(-43.4655478963829,-55.6828030384118,-58.0104604100473));
#1468=CARTESIAN_POINT('',(-43.4655478963829,-55.6828030384118,-58.0104604100473));
#1469=CARTESIAN_POINT('',(-43.4655478963663,-54.4738030384118,-56.8014604100473));
#1470=CARTESIAN_POINT('Origin',(-43.4655478963829,-54.4738030384118,-58.0104604100473));
#1471=CARTESIAN_POINT('',(-43.4655478963663,-44.8918030384118,-56.8014604100473));
#1472=CARTESIAN_POINT('',(-43.4655478963663,-44.8918030384118,-56.8014604100473));
#1473=CARTESIAN_POINT('',(-43.4655478963663,-43.6828030384118,-58.0104604100473));
#1474=CARTESIAN_POINT('Origin',(-43.4655478963663,-44.8918030384117,-58.0104604100473));
#1475=CARTESIAN_POINT('',(-43.4655478964689,-43.6828030384118,-60.8014659466994));
#1476=CARTESIAN_POINT('',(-43.4655478963663,-43.6828030384118,-70.5924604100473));
#1477=CARTESIAN_POINT('',(-43.4655478964689,-15.8167525515893,-60.8014659466994));
#1478=CARTESIAN_POINT('',(-43.4655478964689,-49.6765775637922,-60.8014659466994));
#1479=CARTESIAN_POINT('',(-43.4655478964689,-10.8167525515893,-55.8014659466994));
#1480=CARTESIAN_POINT('Origin',(-43.4655478964689,-15.8167525515893,-55.8014659466994));
#1481=CARTESIAN_POINT('',(-43.4655478964688,-10.8167525515893,40.1777226228824));
#1482=CARTESIAN_POINT('',(-43.4655478964689,-10.8167525515893,-55.8014659466994));
#1483=CARTESIAN_POINT('',(-43.4655478964689,-15.8167525515892,45.1777226228824));
#1484=CARTESIAN_POINT('Origin',(-43.4655478964689,-15.8167525515893,40.1777226228824));
#1485=CARTESIAN_POINT('',(-43.4655478964689,-49.6765775637921,45.1777226228824));
#1486=CARTESIAN_POINT('',(-43.4655478964689,-47.9328030384117,48.6777170862303));
#1487=CARTESIAN_POINT('Origin',(-43.4655478964689,-49.6828030384117,48.6777170862303));
#1488=CARTESIAN_POINT('',(-43.4655478964689,-10.0724279880524,-14.3518376350403));
#1489=CARTESIAN_POINT('Origin',(-43.4655478964689,-7.57242798805237,-14.3518376350403));
#1490=CARTESIAN_POINT('',(-43.4655478964689,-10.0724279880524,-1.27190568877674));
#1491=CARTESIAN_POINT('Origin',(-43.4655478964689,-7.57242798805237,-1.27190568877675));
#1492=CARTESIAN_POINT('',(-43.4655478964689,-47.9328030384118,-64.3014604100473));
#1493=CARTESIAN_POINT('Origin',(-43.4655478964689,-49.6828030384118,-64.3014604100473));
#1494=CARTESIAN_POINT('Origin',(-38.4655478964689,-16.4500620984357,52.1777126498183));
#1495=CARTESIAN_POINT('',(-38.4655478964689,-16.4500620984357,52.1777126498183));
#1496=CARTESIAN_POINT('',(-38.4655478964689,-49.6883757275498,52.1777126498183));
#1497=CARTESIAN_POINT('',(-38.4655478964689,-16.4500620984357,52.1777126498183));
#1498=CARTESIAN_POINT('Origin',(-43.465547896387,-44.8918030384117,-70.5924604100473));
#1499=CARTESIAN_POINT('',(-14.2025478963663,-43.6828030384118,-70.5924604100473));
#1500=CARTESIAN_POINT('',(-43.4655478963663,-43.6828030384118,-70.5924604100473));
#1501=CARTESIAN_POINT('',(-14.202547896387,-44.8918030384118,-71.8014604100473));
#1502=CARTESIAN_POINT('Origin',(-14.202547896387,-44.8918030384117,-70.5924604100473));
#1503=CARTESIAN_POINT('',(-43.465547896387,-44.8918030384118,-71.8014604100473));
#1504=CARTESIAN_POINT('Origin',(-43.4655478965509,-54.4738030384118,-71.8014604100473));
#1505=CARTESIAN_POINT('',(-14.2025478965509,-54.4738030384118,-71.8014604100473));
#1506=CARTESIAN_POINT('',(-14.2025478965509,-54.4738030384118,-71.8014604100473));
#1507=CARTESIAN_POINT('',(-43.4655478965509,-54.4738030384118,-71.8014604100473));
#1508=CARTESIAN_POINT('Origin',(-43.4655478965343,-54.4738030384118,-70.5924604100473));
#1509=CARTESIAN_POINT('',(-14.202547896555,-55.6828030384118,-70.5924604100473));
#1510=CARTESIAN_POINT('Origin',(-14.2025478965343,-54.4738030384118,-70.5924604100473));
#1511=CARTESIAN_POINT('',(-43.465547896555,-55.6828030384118,-70.5924604100473));
#1512=CARTESIAN_POINT('Origin',(-43.4655478963829,-55.6828030384118,-58.0104604100473));
#1513=CARTESIAN_POINT('',(-14.2025478963829,-55.6828030384118,-58.0104604100473));
#1514=CARTESIAN_POINT('',(-14.2025478963829,-55.6828030384118,-58.0104604100473));
#1515=CARTESIAN_POINT('',(-43.4655478963829,-55.6828030384118,-58.0104604100473));
#1516=CARTESIAN_POINT('Origin',(-43.4655478963829,-54.4738030384118,-58.0104604100473));
#1517=CARTESIAN_POINT('',(-14.2025478963663,-54.4738030384118,-56.8014604100473));
#1518=CARTESIAN_POINT('Origin',(-14.2025478963829,-54.4738030384118,-58.0104604100473));
#1519=CARTESIAN_POINT('',(-43.4655478963663,-54.4738030384118,-56.8014604100473));
#1520=CARTESIAN_POINT('Origin',(-43.4655478963663,-44.8918030384118,-56.8014604100473));
#1521=CARTESIAN_POINT('',(-14.2025478963663,-44.8918030384118,-56.8014604100473));
#1522=CARTESIAN_POINT('',(-14.2025478963663,-44.8918030384118,-56.8014604100473));
#1523=CARTESIAN_POINT('',(-43.4655478963663,-44.8918030384118,-56.8014604100473));
#1524=CARTESIAN_POINT('Origin',(-43.4655478963663,-44.8918030384117,-58.0104604100473));
#1525=CARTESIAN_POINT('',(-14.2025478963663,-43.6828030384118,-58.0104604100473));
#1526=CARTESIAN_POINT('Origin',(-14.2025478963663,-44.8918030384117,-58.0104604100473));
#1527=CARTESIAN_POINT('',(-43.4655478963663,-43.6828030384118,-58.0104604100473));
#1528=CARTESIAN_POINT('Origin',(-43.4655478963663,-43.6828030384118,-70.5924604100473));
#1529=CARTESIAN_POINT('',(-38.4655478964689,-43.6828030384118,-60.8014659466994));
#1530=CARTESIAN_POINT('',(-40.9655478964176,-43.6828030384118,-60.8014659466994));
#1531=CARTESIAN_POINT('',(-14.2025478963663,-43.6828030384118,-70.5924604100473));
#1532=CARTESIAN_POINT('',(-38.4655478964689,-43.6828030384118,-67.8014559736353));
#1533=CARTESIAN_POINT('',(-40.9655478964176,-43.6828030384118,-67.8014559736353));
#1534=CARTESIAN_POINT('',(-38.4655478964689,-43.6828030384118,-46.4433258315443));
#1535=CARTESIAN_POINT('Origin',(-14.2025478964689,-30.0237340406552,-9.81187166190852));
#1536=CARTESIAN_POINT('Origin',(-38.4655478964689,-28.7619048932009,-22.2941912530414));
#1537=CARTESIAN_POINT('',(-38.4655478964689,-15.8167525515892,45.1777226228824));
#1538=CARTESIAN_POINT('',(-38.4655478964689,-49.6765775637921,45.1777226228824));
#1539=CARTESIAN_POINT('',(-38.4655478964689,-10.8167525515893,40.1777226228824));
#1540=CARTESIAN_POINT('Origin',(-38.4655478964689,-15.8167525515893,40.1777226228824));
#1541=CARTESIAN_POINT('',(-38.4655478964689,-10.8167525515893,-55.8014659466994));
#1542=CARTESIAN_POINT('',(-38.4655478964689,-10.8167525515893,-55.8014659466994));
#1543=CARTESIAN_POINT('',(-38.4655478964689,-15.8167525515893,-60.8014659466994));
#1544=CARTESIAN_POINT('Origin',(-38.4655478964689,-15.8167525515893,-55.8014659466994));
#1545=CARTESIAN_POINT('',(-38.4655478964689,-49.6765775637922,-60.8014659466994));
#1546=CARTESIAN_POINT('',(-38.4655478964689,-16.4500620984357,-67.8014559736353));
#1547=CARTESIAN_POINT('',(-38.4655478964689,-49.6883757275498,-67.8014559736353));
#1548=CARTESIAN_POINT('',(-38.4655478964689,-4.45008108124302,-55.8228004580454));
#1549=CARTESIAN_POINT('Origin',(-38.4655478964689,-16.4500620984357,-55.8014559736353));
#1550=CARTESIAN_POINT('',(-38.4655478964689,-4.3647020956606,-7.82228723065655));
#1551=CARTESIAN_POINT('',(-38.4655478964689,-4.45008108124301,-55.8228004580454));
#1552=CARTESIAN_POINT('',(-38.4655478964689,-4.3646650428986,-7.82228735018173));
#1553=CARTESIAN_POINT('',(-38.4655478964689,-7.59352467685762,-7.81187166190853));
#1554=CARTESIAN_POINT('',(-38.4655478964689,-4.3646835693859,-7.81187166190861));
#1555=CARTESIAN_POINT('',(-38.4655478964689,-4.45008108124298,40.1990571342283));
#1556=CARTESIAN_POINT('',(-38.4655478964689,-4.3646650428986,-7.80145597363532));
#1557=CARTESIAN_POINT('',(-38.4655478964689,-4.45008108124301,-55.8228004580454));
#1558=CARTESIAN_POINT('',(-38.4655478964689,-4.3647020956606,-7.8014560931605));
#1559=CARTESIAN_POINT('',(-38.4655478964689,-7.59352467685762,-7.81187166190852));
#1560=CARTESIAN_POINT('',(-38.4655478964689,-4.45008108124298,40.1990571342283));
#1561=CARTESIAN_POINT('',(-38.4655478964689,-4.45008108124298,40.1990571342283));
#1562=CARTESIAN_POINT('Origin',(-38.4655478964689,-16.4500620984357,40.1777126498183));
#1563=CARTESIAN_POINT('',(-38.4655478964689,-10.0724279880524,-14.3518376350403));
#1564=CARTESIAN_POINT('Origin',(-38.4655478964689,-7.57242798805237,-14.3518376350403));
#1565=CARTESIAN_POINT('',(-38.4655478964689,-10.0724279880524,-1.27190568877675));
#1566=CARTESIAN_POINT('Origin',(-38.4655478964689,-7.57242798805237,-1.27190568877675));
#1567=CARTESIAN_POINT('Origin',(-38.4655478964689,-16.4500620984357,-67.8014559736353));
#1568=CARTESIAN_POINT('',(-38.4655478964689,-16.4500620984357,-67.8014559736353));
#1569=CARTESIAN_POINT('Origin',(-38.4655478964689,-4.3646650428986,-7.82228735018172));
#1570=CARTESIAN_POINT('',(-38.4655478964689,-4.3647020956606,-7.8014560931605));
#1571=CARTESIAN_POINT('',(-38.4655478964689,-4.45008108124298,40.1990571342283));
#1572=CARTESIAN_POINT('Origin',(-38.4655478964689,-4.3646650428986,-7.82228735018172));
#1573=CARTESIAN_POINT('',(-38.4655478964689,-4.3646835693859,-7.81187166190847));
#1574=CARTESIAN_POINT('',(-38.4655478964689,-4.3646650428986,-7.82228735018173));
#1575=CARTESIAN_POINT('Origin',(-43.4655478964689,-49.6828030384117,48.6777170862303));
#1576=CARTESIAN_POINT('',(-43.4655478964689,-47.9328030384117,48.6777170862303));
#1577=CARTESIAN_POINT('Origin',(-38.4655478964689,-7.57242798805237,-1.27190568877675));
#1578=CARTESIAN_POINT('',(-38.4655478964689,-10.0724279880524,-1.27190568877675));
#1579=CARTESIAN_POINT('Origin',(-38.4655478964689,-7.59352467685762,-7.81187166190853));
#1580=CARTESIAN_POINT('',(-38.4655478964689,-4.3647020956606,-7.82228723065655));
#1581=CARTESIAN_POINT('Origin',(-38.4655478964689,-15.8167525515893,40.1777226228824));
#1582=CARTESIAN_POINT('',(-38.4655478964689,-15.8167525515892,45.1777226228824));
#1583=CARTESIAN_POINT('',(-38.4655478964689,-10.8167525515893,40.1777226228824));
#1584=CARTESIAN_POINT('Origin',(-38.4655478964689,-49.6765775637921,45.1777226228824));
#1585=CARTESIAN_POINT('Origin',(-38.4655478964689,-16.4500620984357,40.1777126498183));
#1586=CARTESIAN_POINT('Origin',(-38.4655478964689,-4.3646650428986,-7.80145597363533));
#1587=CARTESIAN_POINT('',(-38.4655478964689,-4.45008108124302,-55.8228004580454));
#1588=CARTESIAN_POINT('Origin',(-38.4655478964689,-7.59352467685762,-7.81187166190852));
#1589=CARTESIAN_POINT('',(-38.4655478964689,-4.3646650428986,-7.80145597363532));
#1590=CARTESIAN_POINT('Origin',(-43.4655478964689,-49.6828030384118,-64.3014604100473));
#1591=CARTESIAN_POINT('',(-43.4655478964689,-47.9328030384118,-64.3014604100473));
#1592=CARTESIAN_POINT('Origin',(-38.4655478964689,-7.57242798805237,-14.3518376350403));
#1593=CARTESIAN_POINT('',(-38.4655478964689,-10.0724279880524,-14.3518376350403));
#1594=CARTESIAN_POINT('Origin',(-38.4655478964689,-4.3646650428986,-7.80145597363533));
#1595=CARTESIAN_POINT('Origin',(-38.4655478964689,-10.8167525515893,-55.8014659466994));
#1596=CARTESIAN_POINT('',(-38.4655478964689,-10.8167525515893,-55.8014659466994));
#1597=CARTESIAN_POINT('Origin',(-38.4655478964689,-15.8167525515893,-55.8014659466994));
#1598=CARTESIAN_POINT('',(-38.4655478964689,-15.8167525515893,-60.8014659466994));
#1599=CARTESIAN_POINT('Origin',(-38.4655478964689,-49.6765775637922,-60.8014659466994));
#1600=CARTESIAN_POINT('Origin',(-38.4655478964689,-16.4500620984357,-55.8014559736353));
#1601=UNCERTAINTY_MEASURE_WITH_UNIT(LENGTH_MEASURE(0.01),#1605,
'DISTANCE_ACCURACY_VALUE',
'Maximum model space distance between geometric entities at asserted c
onnectivities');
#1602=UNCERTAINTY_MEASURE_WITH_UNIT(LENGTH_MEASURE(0.01),#1605,
'DISTANCE_ACCURACY_VALUE',
'Maximum model space distance between geometric entities at asserted c
onnectivities');
#1603=(
GEOMETRIC_REPRESENTATION_CONTEXT(3)
GLOBAL_UNCERTAINTY_ASSIGNED_CONTEXT((#1601))
GLOBAL_UNIT_ASSIGNED_CONTEXT((#1605,#1607,#1608))
REPRESENTATION_CONTEXT('','3D')
);
#1604=(
GEOMETRIC_REPRESENTATION_CONTEXT(3)
GLOBAL_UNCERTAINTY_ASSIGNED_CONTEXT((#1602))
GLOBAL_UNIT_ASSIGNED_CONTEXT((#1605,#1607,#1608))
REPRESENTATION_CONTEXT('','3D')
);
#1605=(
LENGTH_UNIT()
NAMED_UNIT(*)
SI_UNIT(.MILLI.,.METRE.)
);
#1606=(
LENGTH_UNIT()
NAMED_UNIT(*)
SI_UNIT($,.METRE.)
);
#1607=(
NAMED_UNIT(*)
PLANE_ANGLE_UNIT()
SI_UNIT($,.RADIAN.)
);
#1608=(
NAMED_UNIT(*)
SI_UNIT($,.STERADIAN.)
SOLID_ANGLE_UNIT()
);
#1609=SHAPE_DEFINITION_REPRESENTATION(#1610,#1611);
#1610=PRODUCT_DEFINITION_SHAPE('',$,#1613);
#1611=SHAPE_REPRESENTATION('',(#977),#1603);
#1612=PRODUCT_DEFINITION_CONTEXT('part definition',#1617,'design');
#1613=PRODUCT_DEFINITION('front holder ','Motor_Large_HolderV2 v2',#1614,
#1612);
#1614=PRODUCT_DEFINITION_FORMATION('',$,#1619);
#1615=PRODUCT_RELATED_PRODUCT_CATEGORY('Motor_Large_HolderV2 v2',
'Motor_Large_HolderV2 v2',(#1619));
#1616=APPLICATION_PROTOCOL_DEFINITION('international standard',
'automotive_design',2009,#1617);
#1617=APPLICATION_CONTEXT(
'Core Data for Automotive Mechanical Design Process');
#1618=PRODUCT_CONTEXT('part definition',#1617,'mechanical');
#1619=PRODUCT('front holder ','Motor_Large_HolderV2 v2',$,(#1618));
#1620=PRESENTATION_STYLE_ASSIGNMENT((#1621));
#1621=SURFACE_STYLE_USAGE(.BOTH.,#1622);
#1622=SURFACE_SIDE_STYLE('',(#1623));
#1623=SURFACE_STYLE_FILL_AREA(#1624);
#1624=FILL_AREA_STYLE('Steel - Satin',(#1625));
#1625=FILL_AREA_STYLE_COLOUR('Steel - Satin',#1626);
#1626=COLOUR_RGB('Steel - Satin',0.627450980392157,0.627450980392157,0.627450980392157);
ENDSEC;
END-ISO-10303-21;
