ISO-10303-21;
HEADER;
/* Generated by software containing ST-Developer
 * from STEP Tools, Inc. (www.steptools.com) 
 */

FILE_DESCRIPTION(
/* description */ (''),
/* implementation_level */ '2;1');

FILE_NAME(
/* name */ 'Picker_ v2.step',
/* time_stamp */ '2024-08-21T17:51:58-07:00',
/* author */ (''),
/* organization */ (''),
/* preprocessor_version */ 'ST-DEVELOPER v20',
/* originating_system */ 'Autodesk Translation Framework v13.14.0.145',

/* authorisation */ '');

FILE_SCHEMA (('AUTOMOTIVE_DESIGN { 1 0 10303 214 3 1 1 }'));
ENDSEC;

DATA;
#10=MECHANICAL_DESIGN_GEOMETRIC_PRESENTATION_REPRESENTATION('',(#13),#425);
#11=SHAPE_REPRESENTATION_RELATIONSHIP('SRR','None',#432,#12);
#12=ADVANCED_BREP_SHAPE_REPRESENTATION('',(#14),#424);
#13=STYLED_ITEM('',(#441),#14);
#14=MANIFOLD_SOLID_BREP('Body1',#237);
#15=FACE_BOUND('',#48,.T.);
#16=FACE_BOUND('',#51,.T.);
#17=FACE_BOUND('',#53,.T.);
#18=FACE_BOUND('',#56,.T.);
#19=FACE_BOUND('',#58,.T.);
#20=FACE_BOUND('',#60,.T.);
#21=CYLINDRICAL_SURFACE('',#259,1.5);
#22=CYLINDRICAL_SURFACE('',#262,3.00000004470348);
#23=CYLINDRICAL_SURFACE('',#266,3.);
#24=CYLINDRICAL_SURFACE('',#270,91.4675616483192);
#25=CYLINDRICAL_SURFACE('',#273,4.5);
#26=CYLINDRICAL_SURFACE('',#276,76.5281657420125);
#27=FACE_OUTER_BOUND('',#41,.T.);
#28=FACE_OUTER_BOUND('',#42,.T.);
#29=FACE_OUTER_BOUND('',#43,.T.);
#30=FACE_OUTER_BOUND('',#44,.T.);
#31=FACE_OUTER_BOUND('',#45,.T.);
#32=FACE_OUTER_BOUND('',#46,.T.);
#33=FACE_OUTER_BOUND('',#47,.T.);
#34=FACE_OUTER_BOUND('',#49,.T.);
#35=FACE_OUTER_BOUND('',#50,.T.);
#36=FACE_OUTER_BOUND('',#52,.T.);
#37=FACE_OUTER_BOUND('',#54,.T.);
#38=FACE_OUTER_BOUND('',#55,.T.);
#39=FACE_OUTER_BOUND('',#57,.T.);
#40=FACE_OUTER_BOUND('',#59,.T.);
#41=EDGE_LOOP('',(#155,#156,#157,#158));
#42=EDGE_LOOP('',(#159,#160,#161,#162));
#43=EDGE_LOOP('',(#163,#164,#165,#166));
#44=EDGE_LOOP('',(#167,#168,#169,#170));
#45=EDGE_LOOP('',(#171,#172,#173,#174));
#46=EDGE_LOOP('',(#175,#176,#177,#178));
#47=EDGE_LOOP('',(#179));
#48=EDGE_LOOP('',(#180));
#49=EDGE_LOOP('',(#181,#182,#183,#184));
#50=EDGE_LOOP('',(#185));
#51=EDGE_LOOP('',(#186));
#52=EDGE_LOOP('',(#187,#188,#189,#190));
#53=EDGE_LOOP('',(#191,#192,#193,#194));
#54=EDGE_LOOP('',(#195,#196,#197,#198));
#55=EDGE_LOOP('',(#199,#200,#201,#202));
#56=EDGE_LOOP('',(#203,#204,#205,#206));
#57=EDGE_LOOP('',(#207,#208,#209));
#58=EDGE_LOOP('',(#210));
#59=EDGE_LOOP('',(#211,#212,#213));
#60=EDGE_LOOP('',(#214));
#61=LINE('',#363,#75);
#62=LINE('',#366,#76);
#63=LINE('',#369,#77);
#64=LINE('',#371,#78);
#65=LINE('',#372,#79);
#66=LINE('',#378,#80);
#67=LINE('',#380,#81);
#68=LINE('',#381,#82);
#69=LINE('',#386,#83);
#70=LINE('',#392,#84);
#71=LINE('',#399,#85);
#72=LINE('',#407,#86);
#73=LINE('',#410,#87);
#74=LINE('',#416,#88);
#75=VECTOR('',#287,10.);
#76=VECTOR('',#290,10.);
#77=VECTOR('',#293,10.);
#78=VECTOR('',#294,10.);
#79=VECTOR('',#295,10.);
#80=VECTOR('',#302,10.);
#81=VECTOR('',#305,10.);
#82=VECTOR('',#306,10.);
#83=VECTOR('',#311,1.5);
#84=VECTOR('',#318,3.00000004470348);
#85=VECTOR('',#327,3.);
#86=VECTOR('',#336,10.);
#87=VECTOR('',#339,10.);
#88=VECTOR('',#346,10.);
#89=CIRCLE('',#252,91.4675616483192);
#90=CIRCLE('',#253,76.5281657420125);
#91=CIRCLE('',#256,91.4675616483192);
#92=CIRCLE('',#257,76.5281657420125);
#93=CIRCLE('',#260,1.5);
#94=CIRCLE('',#261,1.5);
#95=CIRCLE('',#263,3.00000004470348);
#96=CIRCLE('',#264,3.00000004470348);
#97=CIRCLE('',#267,3.);
#98=CIRCLE('',#268,3.);
#99=CIRCLE('',#271,91.4675616483192);
#100=CIRCLE('',#272,91.4675616483192);
#101=CIRCLE('',#274,4.5);
#102=CIRCLE('',#275,4.5);
#103=CIRCLE('',#277,76.5281657420125);
#104=CIRCLE('',#278,76.5281657420125);
#105=VERTEX_POINT('',#359);
#106=VERTEX_POINT('',#360);
#107=VERTEX_POINT('',#362);
#108=VERTEX_POINT('',#364);
#109=VERTEX_POINT('',#368);
#110=VERTEX_POINT('',#370);
#111=VERTEX_POINT('',#374);
#112=VERTEX_POINT('',#376);
#113=VERTEX_POINT('',#383);
#114=VERTEX_POINT('',#385);
#115=VERTEX_POINT('',#389);
#116=VERTEX_POINT('',#391);
#117=VERTEX_POINT('',#396);
#118=VERTEX_POINT('',#398);
#119=VERTEX_POINT('',#403);
#120=VERTEX_POINT('',#404);
#121=VERTEX_POINT('',#406);
#122=VERTEX_POINT('',#408);
#123=VERTEX_POINT('',#412);
#124=VERTEX_POINT('',#414);
#125=EDGE_CURVE('',#105,#106,#89,.T.);
#126=EDGE_CURVE('',#105,#107,#61,.T.);
#127=EDGE_CURVE('',#108,#107,#90,.T.);
#128=EDGE_CURVE('',#106,#108,#62,.T.);
#129=EDGE_CURVE('',#106,#109,#63,.T.);
#130=EDGE_CURVE('',#110,#108,#64,.T.);
#131=EDGE_CURVE('',#109,#110,#65,.T.);
#132=EDGE_CURVE('',#109,#111,#91,.T.);
#133=EDGE_CURVE('',#112,#110,#92,.T.);
#134=EDGE_CURVE('',#111,#112,#66,.T.);
#135=EDGE_CURVE('',#111,#105,#67,.T.);
#136=EDGE_CURVE('',#107,#112,#68,.T.);
#137=EDGE_CURVE('',#113,#113,#93,.T.);
#138=EDGE_CURVE('',#113,#114,#69,.T.);
#139=EDGE_CURVE('',#114,#114,#94,.T.);
#140=EDGE_CURVE('',#115,#115,#95,.T.);
#141=EDGE_CURVE('',#115,#116,#70,.T.);
#142=EDGE_CURVE('',#116,#116,#96,.T.);
#143=EDGE_CURVE('',#117,#117,#97,.T.);
#144=EDGE_CURVE('',#117,#118,#71,.T.);
#145=EDGE_CURVE('',#118,#118,#98,.T.);
#146=EDGE_CURVE('',#119,#120,#99,.T.);
#147=EDGE_CURVE('',#119,#121,#72,.T.);
#148=EDGE_CURVE('',#122,#121,#100,.T.);
#149=EDGE_CURVE('',#120,#122,#73,.T.);
#150=EDGE_CURVE('',#123,#120,#101,.T.);
#151=EDGE_CURVE('',#124,#122,#102,.T.);
#152=EDGE_CURVE('',#123,#124,#74,.T.);
#153=EDGE_CURVE('',#119,#123,#103,.T.);
#154=EDGE_CURVE('',#121,#124,#104,.T.);
#155=ORIENTED_EDGE('',*,*,#125,.F.);
#156=ORIENTED_EDGE('',*,*,#126,.T.);
#157=ORIENTED_EDGE('',*,*,#127,.F.);
#158=ORIENTED_EDGE('',*,*,#128,.F.);
#159=ORIENTED_EDGE('',*,*,#129,.F.);
#160=ORIENTED_EDGE('',*,*,#128,.T.);
#161=ORIENTED_EDGE('',*,*,#130,.F.);
#162=ORIENTED_EDGE('',*,*,#131,.F.);
#163=ORIENTED_EDGE('',*,*,#132,.F.);
#164=ORIENTED_EDGE('',*,*,#131,.T.);
#165=ORIENTED_EDGE('',*,*,#133,.F.);
#166=ORIENTED_EDGE('',*,*,#134,.F.);
#167=ORIENTED_EDGE('',*,*,#135,.F.);
#168=ORIENTED_EDGE('',*,*,#134,.T.);
#169=ORIENTED_EDGE('',*,*,#136,.F.);
#170=ORIENTED_EDGE('',*,*,#126,.F.);
#171=ORIENTED_EDGE('',*,*,#137,.F.);
#172=ORIENTED_EDGE('',*,*,#138,.T.);
#173=ORIENTED_EDGE('',*,*,#139,.F.);
#174=ORIENTED_EDGE('',*,*,#138,.F.);
#175=ORIENTED_EDGE('',*,*,#140,.F.);
#176=ORIENTED_EDGE('',*,*,#141,.T.);
#177=ORIENTED_EDGE('',*,*,#142,.F.);
#178=ORIENTED_EDGE('',*,*,#141,.F.);
#179=ORIENTED_EDGE('',*,*,#140,.T.);
#180=ORIENTED_EDGE('',*,*,#137,.T.);
#181=ORIENTED_EDGE('',*,*,#143,.F.);
#182=ORIENTED_EDGE('',*,*,#144,.T.);
#183=ORIENTED_EDGE('',*,*,#145,.F.);
#184=ORIENTED_EDGE('',*,*,#144,.F.);
#185=ORIENTED_EDGE('',*,*,#143,.T.);
#186=ORIENTED_EDGE('',*,*,#139,.T.);
#187=ORIENTED_EDGE('',*,*,#146,.F.);
#188=ORIENTED_EDGE('',*,*,#147,.T.);
#189=ORIENTED_EDGE('',*,*,#148,.F.);
#190=ORIENTED_EDGE('',*,*,#149,.F.);
#191=ORIENTED_EDGE('',*,*,#132,.T.);
#192=ORIENTED_EDGE('',*,*,#135,.T.);
#193=ORIENTED_EDGE('',*,*,#125,.T.);
#194=ORIENTED_EDGE('',*,*,#129,.T.);
#195=ORIENTED_EDGE('',*,*,#150,.T.);
#196=ORIENTED_EDGE('',*,*,#149,.T.);
#197=ORIENTED_EDGE('',*,*,#151,.F.);
#198=ORIENTED_EDGE('',*,*,#152,.F.);
#199=ORIENTED_EDGE('',*,*,#153,.T.);
#200=ORIENTED_EDGE('',*,*,#152,.T.);
#201=ORIENTED_EDGE('',*,*,#154,.F.);
#202=ORIENTED_EDGE('',*,*,#147,.F.);
#203=ORIENTED_EDGE('',*,*,#133,.T.);
#204=ORIENTED_EDGE('',*,*,#130,.T.);
#205=ORIENTED_EDGE('',*,*,#127,.T.);
#206=ORIENTED_EDGE('',*,*,#136,.T.);
#207=ORIENTED_EDGE('',*,*,#154,.T.);
#208=ORIENTED_EDGE('',*,*,#151,.T.);
#209=ORIENTED_EDGE('',*,*,#148,.T.);
#210=ORIENTED_EDGE('',*,*,#142,.T.);
#211=ORIENTED_EDGE('',*,*,#153,.F.);
#212=ORIENTED_EDGE('',*,*,#146,.T.);
#213=ORIENTED_EDGE('',*,*,#150,.F.);
#214=ORIENTED_EDGE('',*,*,#145,.T.);
#215=PLANE('',#251);
#216=PLANE('',#254);
#217=PLANE('',#255);
#218=PLANE('',#258);
#219=PLANE('',#265);
#220=PLANE('',#269);
#221=PLANE('',#279);
#222=PLANE('',#280);
#223=ADVANCED_FACE('',(#27),#215,.F.);
#224=ADVANCED_FACE('',(#28),#216,.F.);
#225=ADVANCED_FACE('',(#29),#217,.F.);
#226=ADVANCED_FACE('',(#30),#218,.F.);
#227=ADVANCED_FACE('',(#31),#21,.F.);
#228=ADVANCED_FACE('',(#32),#22,.T.);
#229=ADVANCED_FACE('',(#33,#15),#219,.T.);
#230=ADVANCED_FACE('',(#34),#23,.T.);
#231=ADVANCED_FACE('',(#35,#16),#220,.T.);
#232=ADVANCED_FACE('',(#36,#17),#24,.F.);
#233=ADVANCED_FACE('',(#37),#25,.T.);
#234=ADVANCED_FACE('',(#38,#18),#26,.T.);
#235=ADVANCED_FACE('',(#39,#19),#221,.T.);
#236=ADVANCED_FACE('',(#40,#20),#222,.F.);
#237=CLOSED_SHELL('',(#223,#224,#225,#226,#227,#228,#229,#230,#231,#232,
#233,#234,#235,#236));
#238=DERIVED_UNIT_ELEMENT(#240,1.);
#239=DERIVED_UNIT_ELEMENT(#427,-3.);
#240=(
MASS_UNIT()
NAMED_UNIT(*)
SI_UNIT(.KILO.,.GRAM.)
);
#241=DERIVED_UNIT((#238,#239));
#242=MEASURE_REPRESENTATION_ITEM('density measure',
POSITIVE_RATIO_MEASURE(7850.),#241);
#243=PROPERTY_DEFINITION_REPRESENTATION(#248,#245);
#244=PROPERTY_DEFINITION_REPRESENTATION(#249,#246);
#245=REPRESENTATION('material name',(#247),#424);
#246=REPRESENTATION('density',(#242),#424);
#247=DESCRIPTIVE_REPRESENTATION_ITEM('Steel','Steel');
#248=PROPERTY_DEFINITION('material property','material name',#434);
#249=PROPERTY_DEFINITION('material property','density of part',#434);
#250=AXIS2_PLACEMENT_3D('',#357,#281,#282);
#251=AXIS2_PLACEMENT_3D('',#358,#283,#284);
#252=AXIS2_PLACEMENT_3D('',#361,#285,#286);
#253=AXIS2_PLACEMENT_3D('',#365,#288,#289);
#254=AXIS2_PLACEMENT_3D('',#367,#291,#292);
#255=AXIS2_PLACEMENT_3D('',#373,#296,#297);
#256=AXIS2_PLACEMENT_3D('',#375,#298,#299);
#257=AXIS2_PLACEMENT_3D('',#377,#300,#301);
#258=AXIS2_PLACEMENT_3D('',#379,#303,#304);
#259=AXIS2_PLACEMENT_3D('',#382,#307,#308);
#260=AXIS2_PLACEMENT_3D('',#384,#309,#310);
#261=AXIS2_PLACEMENT_3D('',#387,#312,#313);
#262=AXIS2_PLACEMENT_3D('',#388,#314,#315);
#263=AXIS2_PLACEMENT_3D('',#390,#316,#317);
#264=AXIS2_PLACEMENT_3D('',#393,#319,#320);
#265=AXIS2_PLACEMENT_3D('',#394,#321,#322);
#266=AXIS2_PLACEMENT_3D('',#395,#323,#324);
#267=AXIS2_PLACEMENT_3D('',#397,#325,#326);
#268=AXIS2_PLACEMENT_3D('',#400,#328,#329);
#269=AXIS2_PLACEMENT_3D('',#401,#330,#331);
#270=AXIS2_PLACEMENT_3D('',#402,#332,#333);
#271=AXIS2_PLACEMENT_3D('',#405,#334,#335);
#272=AXIS2_PLACEMENT_3D('',#409,#337,#338);
#273=AXIS2_PLACEMENT_3D('',#411,#340,#341);
#274=AXIS2_PLACEMENT_3D('',#413,#342,#343);
#275=AXIS2_PLACEMENT_3D('',#415,#344,#345);
#276=AXIS2_PLACEMENT_3D('',#417,#347,#348);
#277=AXIS2_PLACEMENT_3D('',#418,#349,#350);
#278=AXIS2_PLACEMENT_3D('',#419,#351,#352);
#279=AXIS2_PLACEMENT_3D('',#420,#353,#354);
#280=AXIS2_PLACEMENT_3D('',#421,#355,#356);
#281=DIRECTION('axis',(0.,0.,1.));
#282=DIRECTION('refdir',(1.,0.,0.));
#283=DIRECTION('center_axis',(0.,-1.,0.));
#284=DIRECTION('ref_axis',(-1.,0.,0.));
#285=DIRECTION('center_axis',(0.,1.,0.));
#286=DIRECTION('ref_axis',(-0.115062467127321,0.,-0.993358257960628));
#287=DIRECTION('',(0.,0.,-1.));
#288=DIRECTION('center_axis',(0.,-1.,0.));
#289=DIRECTION('ref_axis',(-8.12413165482121E-16,0.,-1.));
#290=DIRECTION('',(0.,0.,-1.));
#291=DIRECTION('center_axis',(-1.,0.,0.));
#292=DIRECTION('ref_axis',(0.,1.,0.));
#293=DIRECTION('',(0.,1.,0.));
#294=DIRECTION('',(0.,-1.,0.));
#295=DIRECTION('',(0.,0.,-1.));
#296=DIRECTION('center_axis',(0.,1.,0.));
#297=DIRECTION('ref_axis',(1.,0.,0.));
#298=DIRECTION('center_axis',(0.,-1.,0.));
#299=DIRECTION('ref_axis',(-0.115062467127321,0.,-0.993358257960628));
#300=DIRECTION('center_axis',(0.,1.,0.));
#301=DIRECTION('ref_axis',(-8.12413165482121E-16,0.,-1.));
#302=DIRECTION('',(0.,0.,-1.));
#303=DIRECTION('center_axis',(1.,0.,0.));
#304=DIRECTION('ref_axis',(0.,-1.,0.));
#305=DIRECTION('',(0.,-1.,0.));
#306=DIRECTION('',(0.,1.,0.));
#307=DIRECTION('center_axis',(0.,-1.,0.));
#308=DIRECTION('ref_axis',(-1.,0.,0.));
#309=DIRECTION('center_axis',(0.,-1.,0.));
#310=DIRECTION('ref_axis',(-1.,0.,0.));
#311=DIRECTION('',(0.,-1.,0.));
#312=DIRECTION('center_axis',(0.,1.,0.));
#313=DIRECTION('ref_axis',(-1.,0.,0.));
#314=DIRECTION('center_axis',(0.,1.,0.));
#315=DIRECTION('ref_axis',(-1.,0.,0.));
#316=DIRECTION('center_axis',(0.,1.,0.));
#317=DIRECTION('ref_axis',(-1.,0.,0.));
#318=DIRECTION('',(0.,-1.,0.));
#319=DIRECTION('center_axis',(0.,-1.,0.));
#320=DIRECTION('ref_axis',(-1.,0.,0.));
#321=DIRECTION('center_axis',(0.,1.,0.));
#322=DIRECTION('ref_axis',(-1.,0.,0.));
#323=DIRECTION('center_axis',(0.,-1.,0.));
#324=DIRECTION('ref_axis',(1.,0.,0.));
#325=DIRECTION('center_axis',(0.,-1.,0.));
#326=DIRECTION('ref_axis',(1.,0.,0.));
#327=DIRECTION('',(0.,1.,0.));
#328=DIRECTION('center_axis',(0.,1.,0.));
#329=DIRECTION('ref_axis',(1.,0.,0.));
#330=DIRECTION('center_axis',(0.,-1.,0.));
#331=DIRECTION('ref_axis',(1.,0.,0.));
#332=DIRECTION('center_axis',(0.,1.,0.));
#333=DIRECTION('ref_axis',(-0.115062467127321,0.,-0.993358257960628));
#334=DIRECTION('center_axis',(0.,1.,0.));
#335=DIRECTION('ref_axis',(-0.115062467127321,0.,-0.993358257960628));
#336=DIRECTION('',(0.,1.,0.));
#337=DIRECTION('center_axis',(0.,-1.,0.));
#338=DIRECTION('ref_axis',(-0.115062467127321,0.,-0.993358257960628));
#339=DIRECTION('',(0.,1.,0.));
#340=DIRECTION('center_axis',(0.,1.,0.));
#341=DIRECTION('ref_axis',(-0.972297445786391,0.,-0.233747036167861));
#342=DIRECTION('center_axis',(0.,1.,0.));
#343=DIRECTION('ref_axis',(0.955927933832248,0.,-0.293601405513001));
#344=DIRECTION('center_axis',(0.,1.,0.));
#345=DIRECTION('ref_axis',(0.955927933832248,0.,-0.293601405513001));
#346=DIRECTION('',(0.,1.,0.));
#347=DIRECTION('center_axis',(0.,1.,0.));
#348=DIRECTION('ref_axis',(-8.12413165482121E-16,0.,-1.));
#349=DIRECTION('center_axis',(0.,1.,0.));
#350=DIRECTION('ref_axis',(-8.12413165482121E-16,0.,-1.));
#351=DIRECTION('center_axis',(0.,1.,0.));
#352=DIRECTION('ref_axis',(-8.12413165482121E-16,0.,-1.));
#353=DIRECTION('center_axis',(0.,1.,0.));
#354=DIRECTION('ref_axis',(1.,0.,0.));
#355=DIRECTION('center_axis',(0.,1.,0.));
#356=DIRECTION('ref_axis',(1.,0.,0.));
#357=CARTESIAN_POINT('',(0.,0.,0.));
#358=CARTESIAN_POINT('Origin',(45.0000006705523,4.00000005960464,0.));
#359=CARTESIAN_POINT('',(45.0000006705523,4.00000005960464,-16.1014336596298));
#360=CARTESIAN_POINT('',(40.0000005960464,4.00000005960464,-15.0599657467059));
#361=CARTESIAN_POINT('Origin',(61.1445166946241,4.00000005960464,73.9300576988807));
#362=CARTESIAN_POINT('',(45.0000006705523,4.00000005960464,-16.7233606059172));
#363=CARTESIAN_POINT('',(45.0000006705523,4.00000005960464,0.));
#364=CARTESIAN_POINT('',(40.0000005960464,4.00000005960464,-16.1895315135992));
#365=CARTESIAN_POINT('Origin',(50.6200333892483,4.00000005960464,59.5981657420125));
#366=CARTESIAN_POINT('',(40.0000005960464,4.00000005960464,0.));
#367=CARTESIAN_POINT('Origin',(40.0000005960464,4.00000005960464,0.));
#368=CARTESIAN_POINT('',(40.0000005960464,50.0000007450581,-15.0599657467059));
#369=CARTESIAN_POINT('',(40.0000005960464,0.,-15.0599657467059));
#370=CARTESIAN_POINT('',(40.0000005960464,50.0000007450581,-16.1895315135992));
#371=CARTESIAN_POINT('',(40.0000005960464,0.,-16.1895315135992));
#372=CARTESIAN_POINT('',(40.0000005960464,50.0000007450581,0.));
#373=CARTESIAN_POINT('Origin',(40.0000005960464,50.0000007450581,0.));
#374=CARTESIAN_POINT('',(45.0000006705523,50.0000007450581,-16.1014336596298));
#375=CARTESIAN_POINT('Origin',(61.1445166946241,50.0000007450581,73.9300576988807));
#376=CARTESIAN_POINT('',(45.0000006705523,50.0000007450581,-16.7233606059172));
#377=CARTESIAN_POINT('Origin',(50.6200333892483,50.0000007450581,59.5981657420125));
#378=CARTESIAN_POINT('',(45.0000006705523,50.0000007450581,0.));
#379=CARTESIAN_POINT('Origin',(45.0000006705523,50.0000007450581,0.));
#380=CARTESIAN_POINT('',(45.0000006705523,0.,-16.1014336596298));
#381=CARTESIAN_POINT('',(45.0000006705523,0.,-16.7233606059172));
#382=CARTESIAN_POINT('Origin',(0.,55.,0.));
#383=CARTESIAN_POINT('',(1.5,55.,-1.83697019872103E-16));
#384=CARTESIAN_POINT('Origin',(0.,55.,0.));
#385=CARTESIAN_POINT('',(1.5,-2.,-1.83697019872103E-16));
#386=CARTESIAN_POINT('',(1.5,55.,1.83697019872103E-16));
#387=CARTESIAN_POINT('Origin',(0.,-2.,0.));
#388=CARTESIAN_POINT('Origin',(0.,53.,0.));
#389=CARTESIAN_POINT('',(3.00000004470348,55.,-3.67394045218804E-16));
#390=CARTESIAN_POINT('Origin',(0.,55.,0.));
#391=CARTESIAN_POINT('',(3.00000004470348,53.,-3.67394045218804E-16));
#392=CARTESIAN_POINT('',(3.00000004470348,53.,-3.67394045218804E-16));
#393=CARTESIAN_POINT('Origin',(0.,53.,0.));
#394=CARTESIAN_POINT('Origin',(0.,55.,0.));
#395=CARTESIAN_POINT('Origin',(0.,0.,0.));
#396=CARTESIAN_POINT('',(-3.,-2.,-3.67394039744206E-16));
#397=CARTESIAN_POINT('Origin',(0.,-2.,0.));
#398=CARTESIAN_POINT('',(-3.,0.,-3.67394039744206E-16));
#399=CARTESIAN_POINT('',(-3.,0.,-3.67394039744206E-16));
#400=CARTESIAN_POINT('Origin',(0.,0.,0.));
#401=CARTESIAN_POINT('Origin',(0.,-2.,0.));
#402=CARTESIAN_POINT('Origin',(61.1445166946241,0.,73.9300576988807));
#403=CARTESIAN_POINT('',(50.6200333892482,0.,-16.93));
#404=CARTESIAN_POINT('',(3.23106309491367,0.,3.13212887293721));
#405=CARTESIAN_POINT('Origin',(61.1445166946241,0.,73.9300576988807));
#406=CARTESIAN_POINT('',(50.6200333892482,53.,-16.93));
#407=CARTESIAN_POINT('',(50.6200333892482,0.,-16.93));
#408=CARTESIAN_POINT('',(3.23106309491367,53.,3.13212887293721));
#409=CARTESIAN_POINT('Origin',(61.1445166946241,53.,73.9300576988807));
#410=CARTESIAN_POINT('',(3.23106309491367,0.,3.13212887293721));
#411=CARTESIAN_POINT('Origin',(0.,0.,0.));
#412=CARTESIAN_POINT('',(4.30167570224511,0.,-1.32120632480851));
#413=CARTESIAN_POINT('Origin',(0.,0.,0.));
#414=CARTESIAN_POINT('',(4.30167570224511,53.,-1.32120632480851));
#415=CARTESIAN_POINT('Origin',(0.,53.,0.));
#416=CARTESIAN_POINT('',(4.30167570224511,0.,-1.32120632480851));
#417=CARTESIAN_POINT('Origin',(50.6200333892483,0.,59.5981657420125));
#418=CARTESIAN_POINT('Origin',(50.6200333892483,0.,59.5981657420125));
#419=CARTESIAN_POINT('Origin',(50.6200333892483,53.,59.5981657420125));
#420=CARTESIAN_POINT('Origin',(23.0600166946241,53.,-6.215));
#421=CARTESIAN_POINT('Origin',(23.0600166946241,0.,-6.215));
#422=UNCERTAINTY_MEASURE_WITH_UNIT(LENGTH_MEASURE(0.01),#426,
'DISTANCE_ACCURACY_VALUE',
'Maximum model space distance between geometric entities at asserted c
onnectivities');
#423=UNCERTAINTY_MEASURE_WITH_UNIT(LENGTH_MEASURE(0.01),#426,
'DISTANCE_ACCURACY_VALUE',
'Maximum model space distance between geometric entities at asserted c
onnectivities');
#424=(
GEOMETRIC_REPRESENTATION_CONTEXT(3)
GLOBAL_UNCERTAINTY_ASSIGNED_CONTEXT((#422))
GLOBAL_UNIT_ASSIGNED_CONTEXT((#426,#428,#429))
REPRESENTATION_CONTEXT('','3D')
);
#425=(
GEOMETRIC_REPRESENTATION_CONTEXT(3)
GLOBAL_UNCERTAINTY_ASSIGNED_CONTEXT((#423))
GLOBAL_UNIT_ASSIGNED_CONTEXT((#426,#428,#429))
REPRESENTATION_CONTEXT('','3D')
);
#426=(
LENGTH_UNIT()
NAMED_UNIT(*)
SI_UNIT(.MILLI.,.METRE.)
);
#427=(
LENGTH_UNIT()
NAMED_UNIT(*)
SI_UNIT($,.METRE.)
);
#428=(
NAMED_UNIT(*)
PLANE_ANGLE_UNIT()
SI_UNIT($,.RADIAN.)
);
#429=(
NAMED_UNIT(*)
SI_UNIT($,.STERADIAN.)
SOLID_ANGLE_UNIT()
);
#430=SHAPE_DEFINITION_REPRESENTATION(#431,#432);
#431=PRODUCT_DEFINITION_SHAPE('',$,#434);
#432=SHAPE_REPRESENTATION('',(#250),#424);
#433=PRODUCT_DEFINITION_CONTEXT('part definition',#438,'design');
#434=PRODUCT_DEFINITION('Picker_','Picker_ v2',#435,#433);
#435=PRODUCT_DEFINITION_FORMATION('',$,#440);
#436=PRODUCT_RELATED_PRODUCT_CATEGORY('Picker_ v2','Picker_ v2',(#440));
#437=APPLICATION_PROTOCOL_DEFINITION('international standard',
'automotive_design',2009,#438);
#438=APPLICATION_CONTEXT(
'Core Data for Automotive Mechanical Design Process');
#439=PRODUCT_CONTEXT('part definition',#438,'mechanical');
#440=PRODUCT('Picker_','Picker_ v2',$,(#439));
#441=PRESENTATION_STYLE_ASSIGNMENT((#442));
#442=SURFACE_STYLE_USAGE(.BOTH.,#443);
#443=SURFACE_SIDE_STYLE('',(#444));
#444=SURFACE_STYLE_FILL_AREA(#445);
#445=FILL_AREA_STYLE('Steel - Satin',(#446));
#446=FILL_AREA_STYLE_COLOUR('Steel - Satin',#447);
#447=COLOUR_RGB('Steel - Satin',0.627450980392157,0.627450980392157,0.627450980392157);
ENDSEC;
END-ISO-10303-21;
